<?xml version="1.0" encoding="utf-8"?>
<!-- Generator: Adobe Illustrator 19.0.1, SVG Export Plug-In . SVG Version: 6.00 Build 0)  -->
<svg version="1.1" id="Calque_1" xmlns="http://www.w3.org/2000/svg" xmlns:xlink="http://www.w3.org/1999/xlink" x="0px" y="0px"
	 viewBox="0 0 800 364.5" style="enable-background:new 0 0 800 364.5;" xml:space="preserve">
<style type="text/css">
	.st0{fill:#118FA7;}
	.st1{fill:#464547;}
</style>
<g>
	<g>
		<g>
			<path class="st0" d="M302,125.8c-0.7-2-2-2.5-2.9-2.5c-1.3,0-2.3,0.8-2.9,2.5L266,216.6c-0.1,0.3-0.2,0.7-0.2,1
				c0,0.9,0.3,1.6,0.9,2.1c1,0.9,2.5,1,3.8,0.3c0.6-0.3,1-0.9,1.2-1.7l9.7-28.9h35.5l9.6,28.9c0.2,0.8,0.6,1.4,1.2,1.7
				c0.5,0.3,1.1,0.4,1.7,0.4c0.8,0,1.5-0.3,2.1-0.7c0.6-0.5,0.9-1.2,0.9-2.1c0-0.5-0.1-0.9-0.2-1L302,125.8z M314.8,183.5h-31.4
				l15.7-47.2L314.8,183.5z"/>
			<path class="st0" d="M372.1,152.3c-2.9-1-5.6-1.5-8-1.5c-3.5,0-6.6,0.7-9.3,1.9c-2.7,1.3-4.9,3.1-6.7,5.3c-1.8,2.2-3.1,4.9-4,7.9
				c-0.9,3-1.3,6.2-1.3,9.6v42c0,1,0.3,1.8,0.9,2.3c0.6,0.5,1.3,0.7,2.1,0.7c0.8,0,1.5-0.3,2.1-0.7c0.6-0.5,0.9-1.3,0.9-2.3v-42
				c0-5.8,1.3-10.4,4-13.7c2.6-3.3,6.4-4.9,11.3-4.9c1.9,0,3.7,0.3,5.4,0.9c1.7,0.6,3.3,1.5,4.7,2.6c0.4,0.3,0.8,0.6,1.1,0.9
				c0.4,0.4,1,0.6,1.7,0.6c0.8,0,1.5-0.3,2.2-0.9c0.6-0.6,1-1.3,1-2.1c0-0.7-0.3-1.4-1-2.1C377.3,154.9,374.9,153.4,372.1,152.3z"/>
			<path class="st0" d="M432,212.2c-1.3-1.3-3-1.2-4.3-0.2c-1.2,1.1-2.8,2-4.6,2.7c-1.9,0.7-3.6,1-5.2,1c-3.9,0-6.9-1.1-9.1-3.2
				c-2.2-2.1-3.3-4.7-3.3-7.8v-46.7h23.1c1,0,1.8-0.3,2.3-0.9c0.5-0.6,0.7-1.3,0.7-2.1c0-0.8-0.3-1.5-0.7-2.1
				c-0.5-0.6-1.3-0.9-2.3-0.9h-23.1v-14.3c0-1-0.3-1.8-0.9-2.3c-1.2-1-3-1-4.2,0c-0.6,0.5-0.9,1.3-0.9,2.3v14.3h-12.2
				c-1,0-1.8,0.3-2.3,0.9c-0.5,0.6-0.7,1.3-0.7,2.1c0,0.8,0.3,1.5,0.7,2.1c0.5,0.6,1.3,0.9,2.3,0.9h12.2v46.7c0,2.4,0.5,4.7,1.4,6.8
				c0.9,2.1,2.2,3.9,3.8,5.4c1.6,1.5,3.6,2.7,5.8,3.6c2.2,0.9,4.7,1.3,7.4,1.3c2.3,0,4.6-0.4,6.8-1.2c2.2-0.8,4.2-1.9,6.2-3.3
				c0.4-0.4,0.8-0.8,1.3-1.2c0.6-0.5,0.9-1.1,0.9-1.8C433,213.5,432.7,212.8,432,212.2z"/>
		</g>
		<path class="st1" d="M450.1,136.8c0,0.8-0.3,1.5-0.8,1.9c-0.5,0.4-1.1,0.6-1.8,0.6c-0.7,0-1.3-0.2-1.8-0.6c-0.5-0.4-0.8-1-0.8-1.9
			v-10.1c0-0.8,0.3-1.5,0.8-1.9c0.5-0.4,1.1-0.6,1.8-0.6c0.7,0,1.3,0.2,1.8,0.6c0.5,0.4,0.8,1.1,0.8,1.9V136.8z M450.1,217.5
			c0,0.8-0.3,1.5-0.8,1.9c-0.5,0.4-1.1,0.6-1.8,0.6c-0.7,0-1.3-0.2-1.8-0.6c-0.5-0.4-0.8-1-0.8-1.9v-62.4c0-0.8,0.3-1.5,0.8-1.9
			c0.5-0.4,1.1-0.6,1.8-0.6c0.7,0,1.3,0.2,1.8,0.6c0.5,0.4,0.8,1.1,0.8,1.9V217.5z"/>
		<path class="st1" d="M506.1,202.6c0,2.9-0.6,5.4-1.8,7.7c-1.2,2.3-2.8,4.2-4.8,5.9c-2,1.6-4.4,2.9-7.1,3.8
			c-2.7,0.9-5.5,1.3-8.6,1.3c-1.5,0-3.1-0.2-4.9-0.5c-1.7-0.3-3.4-0.8-5.1-1.5c-1.7-0.7-3.2-1.5-4.7-2.5c-1.4-1-2.6-2.2-3.5-3.7
			c-0.3-0.4-0.5-0.9-0.5-1.4c0-0.7,0.3-1.3,0.8-1.8c0.5-0.5,1.2-0.8,1.8-0.8c0.7,0,1.2,0.2,1.5,0.6c0.3,0.4,0.7,0.8,1.1,1.3
			c1.7,1.8,3.7,3.1,6.1,3.9c2.4,0.8,4.8,1.3,7.2,1.3c2.5,0,4.8-0.4,6.9-1.1c2.1-0.7,3.9-1.7,5.4-2.9c1.5-1.2,2.7-2.6,3.5-4.3
			c0.8-1.6,1.3-3.4,1.3-5.4c0-3.2-0.9-5.8-2.6-7.7c-1.8-1.9-4-3.5-6.6-4.9c-2.6-1.3-5.4-2.5-8.5-3.6c-3.1-1.1-5.9-2.4-8.5-3.8
			c-2.6-1.5-4.8-3.3-6.6-5.6c-1.8-2.3-2.6-5.3-2.6-9c0-2.8,0.5-5.2,1.6-7.2c1.1-2.1,2.5-3.8,4.3-5.2c1.8-1.4,3.8-2.5,6.1-3.2
			c2.3-0.7,4.6-1.1,7.1-1.1c3.4,0,6.8,0.8,10.2,2.5c3.4,1.6,6.1,3.9,7.9,6.9c0.3,0.4,0.5,0.9,0.5,1.4c0,0.7-0.3,1.3-0.8,1.8
			c-0.5,0.5-1.2,0.8-1.8,0.8c-0.8,0-1.3-0.2-1.7-0.7c-0.4-0.5-0.8-0.9-1.2-1.5c-1.7-1.9-3.6-3.4-5.9-4.5c-2.2-1-4.6-1.6-7.2-1.6
			c-4,0-7.4,1.1-10.1,3.2c-2.7,2.1-4,5-4,8.6c0,2.9,0.9,5.1,2.6,6.9c1.8,1.7,4,3.2,6.6,4.4c2.6,1.2,5.4,2.4,8.5,3.5
			c3.1,1.1,5.9,2.4,8.5,4c2.6,1.6,4.8,3.6,6.6,6.1C505.2,195.4,506.1,198.7,506.1,202.6z"/>
		<path class="st1" d="M562.7,214.3c0,0.6-0.2,1.1-0.7,1.5c-0.5,0.4-0.9,0.8-1.3,1.2c-1.9,1.3-3.8,2.4-6,3.2
			c-2.1,0.8-4.3,1.1-6.6,1.1c-2.6,0-5-0.4-7.2-1.3c-2.2-0.8-4.1-2-5.7-3.5c-1.6-1.5-2.8-3.2-3.7-5.2c-0.9-2-1.3-4.2-1.3-6.6v-47.2
			h-12.7c-0.8,0-1.5-0.3-1.9-0.8c-0.4-0.5-0.6-1.1-0.6-1.8c0-0.7,0.2-1.3,0.6-1.8c0.4-0.5,1-0.8,1.9-0.8h12.7v-14.8
			c0-0.8,0.3-1.5,0.8-1.9c0.5-0.4,1.1-0.6,1.8-0.6c0.7,0,1.3,0.2,1.8,0.6c0.5,0.4,0.8,1.1,0.8,1.9v14.8h23.6c0.8,0,1.5,0.3,1.9,0.8
			c0.4,0.5,0.6,1.1,0.6,1.8c0,0.7-0.2,1.3-0.6,1.8c-0.4,0.5-1.1,0.8-1.9,0.8h-23.6v47.2c0,3.2,1.1,5.9,3.4,8.1
			c2.3,2.2,5.4,3.3,9.5,3.3c1.7,0,3.5-0.4,5.4-1.1c1.9-0.7,3.5-1.7,4.8-2.8c0.5-0.4,1.1-0.6,1.8-0.6c0.7,0,1.3,0.3,1.8,0.8
			C562.5,213.1,562.7,213.7,562.7,214.3z"/>
		<path class="st1" d="M580.4,136.8c0,0.8-0.3,1.5-0.8,1.9c-0.5,0.4-1.1,0.6-1.8,0.6c-0.7,0-1.3-0.2-1.8-0.6c-0.5-0.4-0.8-1-0.8-1.9
			v-10.1c0-0.8,0.3-1.5,0.8-1.9c0.5-0.4,1.1-0.6,1.8-0.6c0.7,0,1.3,0.2,1.8,0.6c0.5,0.4,0.8,1.1,0.8,1.9V136.8z M580.4,217.5
			c0,0.8-0.3,1.5-0.8,1.9c-0.5,0.4-1.1,0.6-1.8,0.6c-0.7,0-1.3-0.2-1.8-0.6c-0.5-0.4-0.8-1-0.8-1.9v-62.4c0-0.8,0.3-1.5,0.8-1.9
			c0.5-0.4,1.1-0.6,1.8-0.6c0.7,0,1.3,0.2,1.8,0.6c0.5,0.4,0.8,1.1,0.8,1.9V217.5z"/>
		<path class="st1" d="M639.3,211.2c0,0.6-0.2,1.1-0.6,1.6c-0.4,0.5-0.7,0.9-1.1,1.3c-2.4,2.4-5.2,4.2-8.4,5.4
			c-3.2,1.2-6.5,1.8-9.9,1.8c-3.4,0-6.4-0.5-9.2-1.5c-2.8-1-5.1-2.4-7.1-4.2c-2-1.8-3.5-4-4.6-6.5c-1.1-2.5-1.6-5.3-1.6-8.3v-29.1
			c0-3,0.5-5.8,1.6-8.3c1.1-2.5,2.6-4.7,4.6-6.5c2-1.8,4.4-3.2,7.1-4.2c2.8-1,5.8-1.4,9.2-1.4c1.6,0,3.3,0.2,5.2,0.5
			c1.8,0.3,3.7,0.9,5.4,1.6c1.8,0.7,3.4,1.6,5,2.7c1.6,1.1,2.9,2.4,4,3.9c0.3,0.5,0.4,1,0.4,1.4c0,0.7-0.3,1.3-0.8,1.8
			c-0.5,0.5-1.2,0.8-1.8,0.8c-0.7,0-1.2-0.2-1.5-0.7c-0.3-0.5-0.7-0.9-1.1-1.3c-1.9-1.9-4.2-3.3-6.7-4.2c-2.6-0.9-5.2-1.3-7.9-1.3
			c-5.5,0-9.9,1.4-12.9,4.3c-3.1,2.9-4.6,6.6-4.6,11.1v29.1c0,4.5,1.5,8.2,4.6,11.1c3.1,2.9,7.4,4.3,12.9,4.3c1.3,0,2.6-0.1,4.1-0.4
			c1.5-0.3,2.9-0.6,4.3-1.2c1.4-0.5,2.7-1.2,3.9-2c1.2-0.8,2.2-1.7,3-2.8c0.5-0.8,1.2-1.1,2.1-1.1c0.7,0,1.3,0.3,1.8,0.8
			C639,209.9,639.3,210.5,639.3,211.2z"/>
		<path class="st1" d="M692.7,202.6c0,2.9-0.6,5.4-1.8,7.7c-1.2,2.3-2.8,4.2-4.8,5.9c-2,1.6-4.4,2.9-7.1,3.8
			c-2.7,0.9-5.5,1.3-8.6,1.3c-1.5,0-3.1-0.2-4.9-0.5c-1.7-0.3-3.4-0.8-5.1-1.5c-1.7-0.7-3.2-1.5-4.7-2.5c-1.4-1-2.6-2.2-3.5-3.7
			c-0.3-0.4-0.5-0.9-0.5-1.4c0-0.7,0.3-1.3,0.8-1.8c0.5-0.5,1.2-0.8,1.8-0.8c0.7,0,1.2,0.2,1.5,0.6c0.3,0.4,0.7,0.8,1.1,1.3
			c1.7,1.8,3.7,3.1,6.1,3.9c2.4,0.8,4.8,1.3,7.2,1.3c2.5,0,4.8-0.4,6.9-1.1c2.1-0.7,3.9-1.7,5.4-2.9c1.5-1.2,2.7-2.6,3.5-4.3
			c0.8-1.6,1.3-3.4,1.3-5.4c0-3.2-0.9-5.8-2.6-7.7c-1.8-1.9-4-3.5-6.6-4.9c-2.6-1.3-5.4-2.5-8.5-3.6c-3.1-1.1-5.9-2.4-8.5-3.8
			c-2.6-1.5-4.8-3.3-6.6-5.6c-1.8-2.3-2.6-5.3-2.6-9c0-2.8,0.5-5.2,1.6-7.2c1.1-2.1,2.5-3.8,4.3-5.2c1.8-1.4,3.8-2.5,6.1-3.2
			c2.3-0.7,4.6-1.1,7.1-1.1c3.4,0,6.8,0.8,10.2,2.5c3.4,1.6,6.1,3.9,7.9,6.9c0.3,0.4,0.5,0.9,0.5,1.4c0,0.7-0.3,1.3-0.8,1.8
			c-0.5,0.5-1.2,0.8-1.8,0.8c-0.8,0-1.3-0.2-1.7-0.7c-0.4-0.5-0.8-0.9-1.2-1.5c-1.7-1.9-3.6-3.4-5.9-4.5c-2.2-1-4.6-1.6-7.2-1.6
			c-4,0-7.4,1.1-10.1,3.2c-2.7,2.1-4,5-4,8.6c0,2.9,0.9,5.1,2.6,6.9c1.8,1.7,4,3.2,6.6,4.4c2.6,1.2,5.4,2.4,8.5,3.5
			c3.1,1.1,5.9,2.4,8.5,4c2.6,1.6,4.8,3.6,6.6,6.1C691.8,195.4,692.7,198.7,692.7,202.6z"/>
	</g>
</g>
<g>
	<g>
		<path class="st0" d="M241.2,118c-14.4-53.2-71.8-40.8-71.8-40.8c-31.6,6.6-21.8,26.7-2,29c17.2,2.1,42-4.6,52.8,1.2
			c30.6,16.4,6.2,56.6-55.6,63.1c-77.3,8-93.1,82-17.8,79.2C222.2,246.9,255.6,171.2,241.2,118z M180.7,233.2
			c-11.4,4.5-22.6,3.2-25-2.9c-2.4-6.1,4.9-14.7,16.3-19.2c11.4-4.5,30.9-9,33.3-2.9C207.7,214.3,192.1,228.7,180.7,233.2z"/>
	</g>
</g>
</svg>
