<?xml version="1.0" encoding="utf-8"?>
<!-- Generator: Adobe Illustrator 21.0.2, SVG Export Plug-In . SVG Version: 6.00 Build 0)  -->
<svg version="1.1" xmlns="http://www.w3.org/2000/svg" xmlns:xlink="http://www.w3.org/1999/xlink" x="0px" y="0px"
	 viewBox="0 0 250 100" enable-background="new 0 0 250 100" xml:space="preserve">
<g id="Layer_1">
	<g>
		<g>
			<g>
				<polygon fill="#231F20" points="16.5,30.64 24.982,30.64 24.982,61.535 40.687,61.535 40.687,69.363 16.5,69.363 				"/>
				<g>
					<path fill="#231F20" d="M44.432,43.111h8.153v26.239h-8.153V43.111z M48.51,30.066c2.609,0,4.728,2.12,4.728,4.728
						c0,2.613-2.12,4.727-4.728,4.727c-2.607,0-4.727-2.114-4.727-4.727C43.783,32.186,45.903,30.066,48.51,30.066"/>
				</g>
				<polygon fill="#231F20" points="86.667,30.637 94.814,30.637 94.814,53.782 104.047,43.099 114.04,43.099 103.347,55.25 
					113.816,69.363 103.571,69.363 94.92,56.392 94.814,56.392 94.814,69.363 86.667,69.363 				"/>
				<path fill="#231F20" d="M57.094,43.114h7.829v3.587h0.106c1.089-2.066,3.75-4.238,7.717-4.238c8.265,0,9.783,5.434,9.783,12.499
					v14.388h-8.153V56.592c0-3.046-0.054-6.955-4.239-6.955c-4.237,0-4.891,3.319-4.891,6.734v12.98h-8.153V43.114z"/>
				<path fill="#231F20" d="M131.199,53.179c0.054-2.716-2.066-5-5.004-5c-3.584,0-5.538,2.446-5.756,5H131.199z M138.103,64.808
					c-2.613,3.317-6.905,5.22-11.142,5.22c-8.153,0-14.675-5.435-14.675-13.859c0-8.424,6.523-13.858,14.675-13.858
					c7.61,0,12.392,5.434,12.392,13.858v2.554h-18.914c0.647,3.099,2.991,5.107,6.139,5.107c2.667,0,4.457-1.354,5.816-3.204
					L138.103,64.808z"/>
				<path fill="#231F20" d="M156.333,49.456c-4.072,0-6.521,2.721-6.521,6.682c0,3.973,2.449,6.685,6.521,6.685
					c4.081,0,6.524-2.712,6.524-6.685C162.857,52.177,160.414,49.456,156.333,49.456 M170.362,69.345h-7.505v-3.478h-0.107
					c-1.253,1.906-4.403,4.132-8.099,4.132c-7.828,0-12.991-5.65-12.991-13.642c0-7.336,4.567-14.074,12.067-14.074
					c3.374,0,6.524,0.923,8.37,3.478h0.107V30.637h8.159V69.345z"/>
			</g>
			<path fill="#007BB5" d="M229.428,22.508h-46.859c-2.234,0-4.054,1.775-4.054,3.962v47.057c0,2.193,1.82,3.965,4.054,3.965h46.859
				c2.243,0,4.072-1.772,4.072-3.965V26.47C233.5,24.283,231.671,22.508,229.428,22.508z"/>
			<path fill="#FFFFFF" d="M186.662,43.123h8.165v26.239h-8.165V43.123z M190.746,30.078c2.61,0,4.728,2.119,4.728,4.727
				c0,2.612-2.118,4.73-4.728,4.73c-2.619,0-4.731-2.118-4.731-4.73C186.015,32.198,188.127,30.078,190.746,30.078"/>
			<path fill="#FFFFFF" d="M199.943,43.123h7.816v3.584h0.113c1.089-2.063,3.75-4.237,7.717-4.237c8.251,0,9.776,5.434,9.776,12.502
				v14.391h-8.147V56.604c0-3.046-0.06-6.958-4.239-6.958c-4.242,0-4.889,3.313-4.889,6.734v12.982h-8.147V43.123z"/>
		</g>
	</g>
</g>
<g id="Layer_2">
</g>
</svg>
