<?xml version="1.0" encoding="utf-8"?>
<!-- Generator: Adobe Illustrator 21.0.2, SVG Export Plug-In . SVG Version: 6.00 Build 0)  -->
<svg version="1.1" xmlns="http://www.w3.org/2000/svg" xmlns:xlink="http://www.w3.org/1999/xlink" x="0px" y="0px"
	 viewBox="0 0 250 100" enable-background="new 0 0 250 100" xml:space="preserve">
<g id="Layer_1">
	<g>
		<g>
			<g>
				<path fill="#77787B" d="M121.173,34.295c-3.625,0-6.068-2.791-6.068-6.921c0-4.11,2.482-6.959,6.165-6.959
					c1.512,0,2.753,0.445,3.761,1.144l-0.213,1.357c-1.048-0.756-2.21-1.298-3.567-1.298c-2.947,0-4.769,2.325-4.769,5.719
					c0,3.431,1.841,5.738,4.749,5.738c1.436,0,2.734-0.563,3.819-1.396l0.194,1.279C124.236,33.712,122.762,34.295,121.173,34.295z"
					/>
				<path fill="#77787B" d="M138.543,34.178l-1.725-4.458h-5.855l-1.648,4.323h-1.358l5.273-13.454h1.376l5.235,13.3L138.543,34.178
					z M133.89,22.159l-2.443,6.377h4.924L133.89,22.159z"/>
				<path fill="#77787B" d="M143.486,34.042V20.665h1.336V32.84h5.157l0.194,1.202H143.486z"/>
				<path fill="#77787B" d="M154.148,34.042V20.665h1.338v13.377H154.148z"/>
				<path fill="#77787B" d="M162.425,21.867v4.788h4.304l0.194,1.202h-4.498v6.184h-1.338V20.665h6.708v1.202H162.425z"/>
				<path fill="#77787B" d="M176.84,34.295c-3.558,0-6.001-2.83-6.001-6.921c0-4.11,2.482-6.959,6.039-6.959
					c3.606,0,6.03,2.83,6.03,6.921C182.908,31.425,180.445,34.295,176.84,34.295z M176.859,21.617c-2.803,0-4.645,2.325-4.645,5.719
					c0,3.431,1.862,5.757,4.664,5.757c2.811,0,4.653-2.325,4.653-5.719C181.532,23.942,179.67,21.617,176.859,21.617z"/>
				<path fill="#77787B" d="M195.619,33.888l-1.357,0.29l-4.343-6.049h-1.725v5.913h-1.338V20.665h3.412
					c2.617,0,4.285,1.319,4.285,3.646c0,2.073-1.338,3.256-3.18,3.644L195.619,33.888z M190.211,21.849h-2.016v5.137h1.784
					c1.978,0,3.218-0.891,3.218-2.597C193.196,22.76,192.149,21.849,190.211,21.849z"/>
				<path fill="#77787B" d="M208.476,34.042l-7.813-11.263v11.263h-1.26V20.665h1.26l7.581,10.916V20.665h1.26v13.377H208.476z"/>
				<path fill="#77787B" d="M214.759,34.042V20.665h1.338v13.377H214.759z"/>
				<path fill="#77787B" d="M230.481,34.178l-1.725-4.458h-5.855l-1.648,4.323h-1.358l5.273-13.454h1.376l5.235,13.3L230.481,34.178
					z M225.828,22.159l-2.443,6.377h4.925L225.828,22.159z"/>
				<path fill="#77787B" d="M125.263,56.795l-1.724-4.458h-5.855l-1.649,4.323h-1.357l5.272-13.454h1.377l5.234,13.3L125.263,56.795
					z M120.61,44.777l-2.442,6.377h4.924L120.61,44.777z"/>
				<path fill="#77787B" d="M134.012,56.912c-3.625,0-6.068-2.791-6.068-6.921c0-4.11,2.482-6.959,6.165-6.959
					c1.511,0,2.751,0.445,3.76,1.144l-0.213,1.357c-1.046-0.756-2.21-1.298-3.567-1.298c-2.947,0-4.769,2.325-4.769,5.719
					c0,3.431,1.843,5.738,4.75,5.738c1.434,0,2.734-0.563,3.819-1.396l0.194,1.279C137.076,56.33,135.603,56.912,134.012,56.912z"/>
				<path fill="#77787B" d="M150.547,56.795l-1.724-4.458h-5.854l-1.649,4.323h-1.357l5.272-13.454h1.377l5.235,13.3L150.547,56.795
					z M145.895,44.777l-2.441,6.377h4.923L145.895,44.777z"/>
				<path fill="#77787B" d="M158.03,56.659h-3.586V43.282h3.644c4.46,0,6.961,2.696,6.961,6.67
					C165.049,54.063,162.334,56.659,158.03,56.659z M158.109,44.485h-2.327v10.973h2.327c3.392,0,5.563-1.822,5.563-5.485
					C163.672,46.365,161.443,44.485,158.109,44.485z"/>
				<path fill="#77787B" d="M167.998,56.659V43.282h6.982v1.202h-5.644v4.575h4.458l0.194,1.202h-4.653v5.195h5.838v1.202H167.998z"
					/>
				<path fill="#77787B" d="M191.028,56.659l-0.872-11.418l-4.633,11.495h-1.048l-4.653-11.495l-0.872,11.418h-1.241l1.066-13.377
					h1.648l4.595,11.672l4.614-11.672h1.628l1.066,13.377H191.028z"/>
				<path fill="#77787B" d="M200.06,51.097v5.563h-1.338v-5.544l-4.73-7.697l1.318-0.271l4.11,6.785l3.994-6.65h1.454L200.06,51.097
					z"/>
				<path fill="#77787B" d="M216.034,56.912c-3.567,0-6.01-2.83-6.01-6.921c0-4.11,2.482-6.959,6.049-6.959
					c3.606,0,6.029,2.83,6.029,6.921C222.102,54.042,219.64,56.912,216.034,56.912z M216.053,44.234
					c-2.811,0-4.653,2.325-4.653,5.719c0,3.431,1.861,5.757,4.672,5.757c2.811,0,4.652-2.325,4.652-5.719
					C220.725,46.559,218.864,44.234,216.053,44.234z"/>
				<path fill="#77787B" d="M226.464,44.485v4.788h4.304l0.193,1.202h-4.497v6.184h-1.338V43.282h6.707v1.202H226.464z"/>
			</g>
			<g>
				<g>
					<path fill="#77787B" d="M115.328,70.466c0,2.674,1.427,3.772,4.626,5.225c2.673,1.207,3.287,1.833,3.287,3.349
						c0,1.573-1.153,2.551-3.008,2.551c-1.995,0-3.7-0.929-4.539-1.481l-0.159-0.106l-0.396,2.717l0.076,0.041
						c1.411,0.746,3.175,1.158,4.967,1.158c3.39,0,5.668-2.034,5.668-5.058c0-2.608-1.044-3.837-4.651-5.479
						c-2.622-1.199-3.262-1.806-3.262-3.095c0-1.406,1.039-2.245,2.779-2.245c1.238,0,2.557,0.464,3.617,1.273l0.161,0.123
						l0.426-2.674l-0.072-0.043c-1.18-0.678-2.507-1.008-4.055-1.008C117.524,65.714,115.328,67.623,115.328,70.466z"/>
				</g>
				<g>
					<path fill="#77787B" d="M128.94,74.842c0,5.506,3.311,9.206,8.239,9.206c1.903,0,3.919-0.647,5.389-1.729l0.059-0.044
						l-0.398-2.532l-0.16,0.117c-1.582,1.148-3.218,1.732-4.865,1.732c-3.425,0-5.553-2.595-5.553-6.774
						c0-4.195,2.127-6.8,5.553-6.8c1.618,0,3.075,0.533,4.583,1.68l0.163,0.125l0.397-2.722l-0.063-0.043
						c-1.477-1.003-3.084-1.472-5.055-1.472C132.271,65.586,128.94,69.306,128.94,74.842z"/>
				</g>
				<g>
					<path fill="#77787B" d="M147.463,65.917v17.799h2.635V65.917H147.463z"/>
				</g>
				<g>
					<path fill="#77787B" d="M156.47,65.917v17.799h9.963v-2.431c0,0-7.093,0-7.327,0c0-0.227,0-5.432,0-5.659
						c0.232,0,5.874,0,5.874,0l-0.396-2.431c0,0-5.246,0-5.478,0c0-0.226,0-4.623,0-4.847c0.233,0,7.073,0,7.073,0v-2.431H156.47z"
						/>
				</g>
				<g>
					<path fill="#77787B" d="M182.924,65.917c0,0,0,12.176,0,12.894c-0.419-0.592-9.12-12.894-9.12-12.894h-2.321v17.799h2.456
						c0,0,0-12.681,0-13.402c0.42,0.595,9.45,13.402,9.45,13.402h1.991V65.917H182.924z"/>
				</g>
				<g>
					<path fill="#77787B" d="M189.361,74.842c0,5.506,3.311,9.206,8.238,9.206c1.903,0,3.918-0.647,5.389-1.729l0.059-0.044
						l-0.398-2.532l-0.16,0.117c-1.582,1.148-3.219,1.732-4.865,1.732c-3.425,0-5.553-2.595-5.553-6.774
						c0-4.195,2.127-6.8,5.553-6.8c1.618,0,3.075,0.533,4.583,1.68l0.163,0.125l0.397-2.722l-0.063-0.043
						c-1.477-1.003-3.084-1.472-5.055-1.472C192.692,65.586,189.361,69.306,189.361,74.842z"/>
				</g>
				<g>
					<path fill="#77787B" d="M207.35,65.917v17.799h9.963v-2.431c0,0-7.094,0-7.328,0c0-0.227,0-5.432,0-5.659
						c0.232,0,5.874,0,5.874,0l-0.395-2.431c0,0-5.247,0-5.478,0c0-0.226,0-4.623,0-4.847c0.233,0,7.073,0,7.073,0v-2.431H207.35z"
						/>
				</g>
				<g>
					<path fill="#77787B" d="M221.395,70.466c0,2.673,1.427,3.772,4.627,5.225c2.673,1.207,3.287,1.833,3.287,3.349
						c0,1.573-1.152,2.551-3.009,2.551c-1.994,0-3.7-0.929-4.538-1.481l-0.159-0.106l-0.396,2.717l0.076,0.041
						c1.412,0.746,3.176,1.158,4.967,1.158c3.39,0,5.669-2.034,5.669-5.058c0-2.608-1.044-3.837-4.651-5.479
						c-2.623-1.199-3.263-1.806-3.263-3.095c0-1.406,1.039-2.245,2.779-2.245c1.238,0,2.557,0.464,3.616,1.273l0.161,0.123
						l0.427-2.674l-0.072-0.043c-1.18-0.678-2.507-1.008-4.055-1.008C223.591,65.714,221.395,67.623,221.395,70.466z"/>
				</g>
			</g>
		</g>
		<g>
			<g>
				<path fill="#B1B3B6" d="M46.822,28.854c-0.909-0.683-1.768-1.412-2.6-2.157c0.549,2.796,0.831,5.59,0.132,8.625
					c0.787-0.18,1.592-0.428,2.415-0.755C47.084,32.576,47.044,30.685,46.822,28.854z M27.761,50
					c-1.343,0.421-2.713,0.873-4.081,1.429c-1.963,0.802-3.719,1.864-5.211,3.148c-0.466,0.402-0.518,1.104-0.117,1.572
					c0.4,0.462,1.104,0.515,1.569,0.114c1.31-1.128,2.859-2.062,4.6-2.773c1.612-0.658,3.274-1.176,4.881-1.673
					c0.679-0.211,1.361-0.422,2.043-0.645c-0.889-0.302-1.79-0.584-2.702-0.866C28.419,50.206,28.092,50.104,27.761,50z
					 M43.397,22.92c0.254,0.234,0.508,0.466,0.757,0.699c0.7,0.647,1.394,1.289,2.102,1.904c-0.149-0.701-0.306-1.398-0.464-2.091
					c-0.371-1.642-0.758-3.337-0.994-5.063c-0.254-1.865-0.219-3.673,0.103-5.372c0.116-0.603-0.282-1.186-0.887-1.3
					c-0.602-0.114-1.186,0.282-1.299,0.885c-0.367,1.937-0.407,3.985-0.121,6.089C42.796,20.134,43.09,21.545,43.397,22.92z
					 M42.331,40.359c-0.518,0.899-1.067,1.689-1.634,2.408c-0.551,0.696-1.123,1.31-1.715,1.861c-2.28,2.123-4.842,3.278-7.536,4.2
					c1.061,0.348,2.121,0.726,3.169,1.173c1.696-0.723,3.354-1.635,4.921-2.902c0.66-0.533,1.302-1.133,1.927-1.806
					c0.988-1.066,1.927-2.315,2.798-3.821c0.869-1.506,1.479-2.943,1.909-4.333c-0.876,0.271-1.733,0.469-2.571,0.601
					C43.263,38.589,42.851,39.458,42.331,40.359z"/>
				<path fill="#B1B3B6" d="M56.129,69.494c-0.533-0.659-1.133-1.302-1.806-1.923c-1.067-0.988-2.316-1.928-3.822-2.799
					c-1.504-0.868-2.942-1.48-4.331-1.91c0.272,0.876,0.47,1.731,0.6,2.569c0.851,0.339,1.72,0.749,2.62,1.27
					c0.9,0.517,1.69,1.066,2.407,1.633c0.696,0.551,1.313,1.125,1.864,1.713c2.122,2.281,3.275,4.842,4.198,7.54
					c0.348-1.062,0.727-2.124,1.174-3.17C58.309,72.722,57.394,71.064,56.129,69.494z M65.296,89.111
					c-1.13-1.313-2.062-2.86-2.775-4.602c-0.658-1.611-1.173-3.274-1.671-4.881c-0.211-0.677-0.421-1.36-0.645-2.04
					c-0.305,0.885-0.584,1.787-0.868,2.698c-0.1,0.325-0.204,0.653-0.306,0.983c0.421,1.346,0.872,2.717,1.431,4.083
					c0.802,1.966,1.862,3.717,3.147,5.213c0.402,0.465,1.106,0.517,1.569,0.117C65.644,90.28,65.696,89.576,65.296,89.111z
					 M27.401,64.234c-1.866,0.254-3.674,0.218-5.373-0.104c-0.603-0.115-1.186,0.282-1.3,0.887c-0.115,0.601,0.281,1.185,0.884,1.3
					c1.937,0.368,3.986,0.409,6.088,0.121c1.464-0.203,2.877-0.499,4.252-0.803c0.232-0.254,0.466-0.508,0.697-0.756
					c0.648-0.702,1.291-1.398,1.907-2.103c-0.702,0.147-1.399,0.305-2.093,0.462C30.823,63.613,29.125,63.996,27.401,64.234z
					 M37.885,62.208c-0.683,0.911-1.411,1.769-2.156,2.602c2.796-0.551,5.588-0.833,8.625-0.131
					c-0.181-0.79-0.429-1.593-0.756-2.419C41.607,61.948,39.715,61.987,37.885,62.208z"/>
				<path fill="#B1B3B6" d="M78.527,52.904c-0.66,0.531-1.302,1.13-1.926,1.802c-0.988,1.07-1.928,2.316-2.797,3.822
					c-0.868,1.505-1.48,2.942-1.911,4.334c0.876-0.271,1.733-0.469,2.571-0.602c0.337-0.85,0.748-1.721,1.267-2.621
					c0.52-0.898,1.068-1.69,1.635-2.407c0.552-0.696,1.124-1.313,1.716-1.861c2.28-2.123,4.842-3.278,7.536-4.197
					c-1.063-0.35-2.122-0.729-3.169-1.175C81.752,50.723,80.094,51.637,78.527,52.904z M74.665,77.081
					c-0.254-0.233-0.508-0.467-0.757-0.697c-0.7-0.648-1.394-1.29-2.101-1.907c0.147,0.7,0.305,1.399,0.461,2.092
					c0.373,1.642,0.758,3.337,0.995,5.063c0.253,1.866,0.221,3.674-0.102,5.374c-0.117,0.601,0.282,1.185,0.884,1.3
					c0.603,0.114,1.186-0.282,1.3-0.887c0.368-1.934,0.409-3.984,0.121-6.087C75.267,79.867,74.973,78.455,74.665,77.081z
					 M73.708,64.679c-0.787,0.18-1.592,0.426-2.415,0.753c-0.315,1.991-0.276,3.883-0.054,5.714c0.909,0.682,1.767,1.41,2.6,2.158
					C73.292,70.508,73.01,67.713,73.708,64.679z M99.712,43.852c-0.402-0.465-1.105-0.517-1.57-0.117
					c-1.311,1.13-2.86,2.062-4.602,2.775c-1.611,0.655-3.273,1.173-4.881,1.671c-0.679,0.211-1.362,0.422-2.042,0.645
					c0.888,0.305,1.79,0.584,2.702,0.869c0.325,0.099,0.652,0.2,0.982,0.305c1.343-0.421,2.714-0.871,4.081-1.429
					c1.966-0.802,3.719-1.864,5.212-3.148C100.06,45.021,100.111,44.317,99.712,43.852z"/>
				<path fill="#B1B3B6" d="M73.708,35.324c0.18,0.787,0.429,1.59,0.755,2.415c1.993,0.312,3.883,0.275,5.714,0.052
					c0.683-0.91,1.41-1.768,2.156-2.6C79.539,35.74,76.744,36.022,73.708,35.324z M68.673,33.299
					c-0.899-0.517-1.691-1.066-2.408-1.635c-0.694-0.55-1.312-1.122-1.861-1.714c-2.123-2.281-3.277-4.842-4.199-7.537
					c-0.347,1.063-0.728,2.123-1.174,3.169c0.723,1.698,1.636,3.354,2.901,4.922c0.535,0.66,1.133,1.304,1.806,1.926
					c1.068,0.988,2.318,1.929,3.822,2.798c1.504,0.869,2.944,1.481,4.332,1.911c-0.271-0.877-0.468-1.733-0.599-2.571
					C70.443,34.23,69.571,33.82,68.673,33.299z M57.603,14.649c-0.805-1.965-1.863-3.718-3.148-5.213
					c-0.401-0.466-1.107-0.518-1.571-0.117c-0.465,0.401-0.518,1.104-0.117,1.569c1.13,1.311,2.063,2.86,2.775,4.601
					c0.657,1.612,1.173,3.274,1.671,4.882c0.211,0.678,0.423,1.361,0.646,2.042c0.303-0.887,0.585-1.789,0.867-2.7
					c0.1-0.325,0.203-0.654,0.307-0.981C58.609,17.387,58.159,16.017,57.603,14.649z M96.45,33.684
					c-1.937-0.368-3.986-0.409-6.089-0.121c-1.463,0.2-2.875,0.495-4.25,0.802c-0.234,0.254-0.467,0.506-0.698,0.756
					c-0.648,0.7-1.287,1.395-1.904,2.101c0.701-0.148,1.396-0.306,2.09-0.463c1.643-0.371,3.339-0.757,5.066-0.993
					c1.863-0.254,3.671-0.221,5.371,0.102c0.603,0.115,1.187-0.281,1.3-0.885C97.45,34.382,97.054,33.799,96.45,33.684z"/>
			</g>
			<g>
				<path fill="#679146" d="M41.462,45.292c-0.625,0.673-1.267,1.272-1.927,1.806c0.134,0.904,0.213,1.863,0.213,2.902
					c0,1.038-0.079,1.998-0.213,2.902c0.66,0.533,1.302,1.132,1.927,1.805c0.321-1.419,0.51-2.97,0.51-4.707
					C41.973,48.26,41.783,46.712,41.462,45.292z M29.131,31.086c0.905,1.167,1.867,2.242,2.821,3.28
					c0.232,0.254,0.466,0.507,0.697,0.756c0.648,0.7,1.289,1.394,1.906,2.102c1.873,2.146,3.514,4.425,4.427,7.403
					c0.592-0.551,1.164-1.165,1.715-1.861c-0.725-1.881-1.705-3.501-2.811-4.975c-0.683-0.91-1.411-1.768-2.156-2.601
					c-0.48-0.533-0.965-1.058-1.448-1.579c-1.142-1.235-2.325-2.512-3.392-3.887c-1.153-1.489-2.027-3.071-2.598-4.705
					c-0.202-0.579-0.836-0.886-1.417-0.682c-0.579,0.201-0.886,0.837-0.683,1.416C26.842,27.614,27.832,29.407,29.131,31.086z
					 M38.982,55.372c-0.914,2.978-2.554,5.256-4.425,7.404c-0.617,0.705-1.26,1.401-1.907,2.103
					c-0.23,0.248-0.465,0.502-0.697,0.756c-0.954,1.037-1.916,2.112-2.821,3.282c-1.3,1.675-2.289,3.471-2.939,5.331
					c-0.203,0.579,0.104,1.216,0.683,1.417c0.579,0.204,1.215-0.104,1.417-0.683c0.571-1.634,1.445-3.217,2.598-4.705
					c1.067-1.376,2.25-2.65,3.392-3.887c0.483-0.521,0.967-1.046,1.448-1.579c0.745-0.833,1.473-1.691,2.156-2.602
					c1.107-1.473,2.086-3.093,2.811-4.974C40.146,56.538,39.573,55.923,38.982,55.372z"/>
				<path fill="#679146" d="M84.011,80.738c-1.632-0.57-3.215-1.445-4.702-2.595c-1.376-1.07-2.653-2.25-3.888-3.395
					c-0.522-0.483-1.046-0.967-1.581-1.444c-0.833-0.748-1.691-1.477-2.6-2.158c-1.475-1.108-3.095-2.086-4.974-2.811
					c-0.696,0.551-1.313,1.125-1.862,1.713c2.978,0.915,5.257,2.557,7.404,4.428c0.707,0.617,1.4,1.259,2.101,1.907
					c0.248,0.23,0.503,0.464,0.757,0.697c1.039,0.953,2.114,1.915,3.279,2.819c1.679,1.3,3.472,2.288,5.333,2.939
					c0.579,0.204,1.216-0.104,1.417-0.683C84.898,81.576,84.593,80.943,84.011,80.738z M51.796,68.334
					c-1.879,0.726-3.498,1.704-4.974,2.811c-0.909,0.682-1.768,1.41-2.6,2.158c-0.532,0.476-1.059,0.961-1.579,1.444
					c-1.236,1.145-2.513,2.326-3.888,3.392c-1.489,1.153-3.071,2.029-4.704,2.598c-0.58,0.203-0.887,0.838-0.683,1.418
					c0.201,0.579,0.837,0.887,1.417,0.682c1.86-0.648,3.655-1.638,5.332-2.938c1.168-0.907,2.243-1.87,3.28-2.821
					c0.254-0.234,0.507-0.467,0.757-0.699c0.699-0.647,1.394-1.287,2.102-1.904c2.146-1.874,4.425-3.513,7.404-4.428
					C53.109,69.459,52.492,68.885,51.796,68.334z M54.323,67.571c0.674,0.622,1.273,1.264,1.806,1.923
					c0.905-0.131,1.863-0.21,2.902-0.21c1.038,0,1.996,0.079,2.903,0.21c0.533-0.659,1.131-1.302,1.806-1.923
					c-1.419-0.323-2.971-0.514-4.709-0.514C57.293,67.057,55.742,67.247,54.323,67.571z"/>
				<path fill="#679146" d="M61.932,30.504c-0.904,0.133-1.863,0.212-2.901,0.212c-1.039,0-1.997-0.079-2.902-0.212
					c-0.533,0.66-1.133,1.303-1.806,1.926c1.419,0.323,2.971,0.512,4.709,0.512c1.738,0,3.289-0.189,4.707-0.512
					C63.064,31.808,62.466,31.165,61.932,30.504z M84.694,17.844c-0.202-0.579-0.835-0.885-1.417-0.683
					c-1.861,0.65-3.654,1.64-5.332,2.94c-1.167,0.905-2.243,1.867-3.281,2.821c-0.254,0.232-0.505,0.466-0.755,0.697
					c-0.701,0.647-1.395,1.289-2.102,1.905c-2.147,1.873-4.427,3.513-7.404,4.427c0.549,0.592,1.167,1.164,1.861,1.714
					c1.88-0.724,3.5-1.702,4.975-2.811c0.909-0.683,1.767-1.41,2.6-2.157c0.535-0.478,1.059-0.964,1.581-1.446
					c1.235-1.143,2.512-2.325,3.888-3.392c1.489-1.153,3.07-2.027,4.702-2.598C84.593,19.06,84.898,18.425,84.694,17.844z
					 M44.154,23.619c-0.249-0.232-0.503-0.465-0.757-0.699c-1.037-0.952-2.112-1.914-3.28-2.819c-1.677-1.3-3.471-2.29-5.332-2.94
					c-0.578-0.202-1.216,0.104-1.417,0.683c-0.203,0.581,0.103,1.216,0.683,1.418c1.633,0.571,3.216,1.445,4.704,2.598
					c1.375,1.067,2.652,2.249,3.888,3.392c0.521,0.482,1.047,0.967,1.579,1.446c0.832,0.745,1.691,1.474,2.6,2.157
					c1.476,1.107,3.095,2.087,4.976,2.811c0.694-0.55,1.311-1.122,1.862-1.714c-2.979-0.914-5.258-2.554-7.404-4.428
					C45.548,24.907,44.854,24.266,44.154,23.619z"/>
				<path fill="#679146" d="M79.081,44.627c0.913-2.979,2.554-5.258,4.428-7.403c0.617-0.707,1.257-1.402,1.904-2.101
					c0.231-0.25,0.465-0.503,0.698-0.756c0.954-1.037,1.914-2.113,2.821-3.279c1.3-1.679,2.288-3.474,2.939-5.333
					c0.204-0.58-0.103-1.216-0.684-1.418c-0.579-0.202-1.216,0.104-1.418,0.683c-0.571,1.634-1.444,3.217-2.597,4.705
					c-1.068,1.375-2.248,2.652-3.392,3.887c-0.483,0.521-0.968,1.046-1.448,1.58c-0.745,0.832-1.473,1.69-2.156,2.6
					c-1.108,1.475-2.087,3.094-2.812,4.975C77.917,43.462,78.489,44.079,79.081,44.627z M88.932,68.917
					c-0.906-1.169-1.869-2.245-2.822-3.282c-0.233-0.254-0.466-0.508-0.697-0.756c-0.648-0.702-1.288-1.398-1.905-2.103
					c-1.873-2.148-3.513-4.426-4.427-7.404c-0.592,0.548-1.164,1.165-1.716,1.861c0.725,1.881,1.705,3.499,2.812,4.974
					c0.683,0.911,1.412,1.769,2.158,2.602c0.477,0.533,0.962,1.057,1.445,1.579c1.142,1.237,2.324,2.512,3.392,3.887
					c1.153,1.488,2.026,3.07,2.597,4.705c0.201,0.579,0.836,0.887,1.418,0.683c0.581-0.2,0.886-0.838,0.682-1.417
					C91.219,72.387,90.231,70.592,88.932,68.917z M78.314,50c0-1.039,0.078-1.998,0.211-2.902c-0.659-0.533-1.301-1.133-1.926-1.806
					c-0.32,1.42-0.51,2.971-0.51,4.708c0,1.739,0.19,3.29,0.511,4.707c0.624-0.673,1.266-1.272,1.926-1.802
					C78.392,51.998,78.314,51.038,78.314,50z"/>
			</g>
			<g>
				<path fill="#E66A1F" d="M46.77,65.432c-0.13-0.838-0.328-1.693-0.6-2.569c-0.43-1.392-1.04-2.829-1.911-4.334
					c-0.868-1.506-1.808-2.755-2.796-3.822c-0.625-0.673-1.267-1.272-1.927-1.805c-1.567-1.264-3.225-2.179-4.921-2.902
					c-1.048-0.447-2.108-0.825-3.169-1.173c-0.682-0.223-1.364-0.437-2.043-0.645c-1.606-0.498-3.269-1.013-4.881-1.671
					c-1.742-0.713-3.29-1.645-4.6-2.775c-0.465-0.401-1.169-0.35-1.569,0.117c-0.402,0.465-0.349,1.168,0.117,1.57
					c1.492,1.284,3.246,2.346,5.211,3.148c1.368,0.556,2.739,1.008,4.081,1.429c0.331,0.104,0.658,0.206,0.983,0.307
					c0.912,0.282,1.813,0.564,2.702,0.866c2.694,0.921,5.256,2.077,7.536,4.2c0.592,0.551,1.164,1.165,1.714,1.861
					c0.569,0.719,1.117,1.508,1.635,2.41c0.52,0.898,0.93,1.767,1.267,2.617c0.327,0.825,0.575,1.628,0.756,2.419
					c0.698,3.034,0.417,5.829-0.132,8.625c0.832-0.748,1.691-1.477,2.6-2.158C47.044,69.314,47.084,67.423,46.77,65.432z
					 M43.397,77.079c-0.307,1.373-0.601,2.788-0.802,4.25c-0.286,2.105-0.246,4.151,0.12,6.088c0.114,0.604,0.698,1,1.3,0.887
					c0.604-0.115,1.001-0.699,0.887-1.3c-0.322-1.699-0.357-3.507-0.103-5.374c0.236-1.726,0.622-3.42,0.994-5.063
					c0.158-0.693,0.315-1.392,0.464-2.092c-0.708,0.617-1.403,1.257-2.102,1.904C43.904,76.612,43.651,76.846,43.397,77.079z"/>
				<path fill="#E66A1F" d="M74.463,62.261c-0.838,0.132-1.694,0.33-2.571,0.602c-1.388,0.43-2.827,1.042-4.332,1.91
					c-1.504,0.871-2.754,1.811-3.82,2.799c-0.674,0.622-1.272,1.264-1.806,1.923c-1.267,1.57-2.18,3.228-2.902,4.924
					c-0.446,1.046-0.826,2.108-1.174,3.17c-0.223,0.68-0.435,1.363-0.646,2.04c-0.498,1.608-1.014,3.27-1.671,4.881
					c-0.712,1.742-1.645,3.293-2.775,4.602c-0.402,0.465-0.348,1.169,0.117,1.57c0.465,0.401,1.169,0.349,1.569-0.117
					c1.287-1.496,2.346-3.247,3.148-5.213c0.558-1.366,1.009-2.737,1.431-4.083c0.103-0.33,0.206-0.658,0.306-0.983
					c0.283-0.91,0.563-1.813,0.868-2.698c0.922-2.698,2.076-5.257,4.199-7.54c0.549-0.588,1.167-1.163,1.862-1.713
					c0.717-0.566,1.507-1.115,2.407-1.633c0.898-0.521,1.77-0.931,2.62-1.27c0.823-0.327,1.627-0.573,2.415-0.753
					c3.036-0.702,5.832-0.42,8.627,0.131c-0.746-0.833-1.475-1.691-2.158-2.602C78.346,61.987,76.456,61.948,74.463,62.261z
					 M97.335,65.017c-0.116-0.603-0.697-1.002-1.3-0.887c-1.701,0.322-3.509,0.358-5.374,0.104c-1.724-0.238-3.42-0.622-5.063-0.995
					c-0.693-0.158-1.388-0.316-2.09-0.462c0.617,0.705,1.257,1.401,1.905,2.103c0.231,0.248,0.465,0.502,0.697,0.756
					c1.375,0.304,2.788,0.6,4.249,0.803c2.105,0.287,4.154,0.243,6.089-0.12C97.052,66.202,97.45,65.618,97.335,65.017z"/>
				<path fill="#E66A1F" d="M31.952,34.365c-1.375-0.306-2.788-0.602-4.25-0.802c-2.104-0.287-4.153-0.247-6.089,0.12
					c-0.603,0.116-1,0.699-0.886,1.3c0.115,0.605,0.698,1.002,1.301,0.887c1.699-0.323,3.507-0.356,5.373-0.102
					c1.724,0.236,3.422,0.622,5.063,0.993c0.693,0.157,1.389,0.316,2.091,0.463c-0.617-0.708-1.258-1.402-1.906-2.102
					C32.419,34.872,32.184,34.619,31.952,34.365z M65.178,9.32c-0.463-0.401-1.167-0.349-1.567,0.117
					c-1.287,1.494-2.346,3.248-3.148,5.213c-0.559,1.367-1.008,2.738-1.43,4.083c-0.104,0.327-0.207,0.656-0.307,0.981
					c-0.282,0.911-0.564,1.813-0.867,2.7c-0.923,2.695-2.076,5.256-4.198,7.537c-0.551,0.592-1.168,1.164-1.862,1.714
					c-0.718,0.569-1.508,1.116-2.408,1.635c-0.899,0.52-1.769,0.931-2.62,1.268c-0.824,0.327-1.628,0.575-2.415,0.755
					c-3.037,0.698-5.831,0.418-8.625-0.132c0.745,0.833,1.473,1.69,2.156,2.601c1.83,0.222,3.723,0.26,5.713-0.052
					c0.838-0.132,1.695-0.33,2.571-0.601c1.389-0.431,2.827-1.041,4.331-1.91c1.506-0.869,2.755-1.81,3.822-2.798
					c0.674-0.623,1.273-1.266,1.806-1.926c1.265-1.568,2.179-3.226,2.902-4.922c0.446-1.046,0.827-2.106,1.174-3.169
					c0.224-0.68,0.435-1.362,0.645-2.042c0.498-1.607,1.013-3.27,1.671-4.881c0.713-1.743,1.645-3.291,2.775-4.602
					C65.696,10.424,65.644,9.721,65.178,9.32z"/>
				<path fill="#E66A1F" d="M74.665,22.922c0.308-1.377,0.602-2.788,0.804-4.251c0.287-2.105,0.245-4.151-0.121-6.089
					c-0.114-0.604-0.698-1-1.302-0.886c-0.603,0.114-1,0.697-0.886,1.3c0.324,1.701,0.357,3.508,0.103,5.372
					c-0.237,1.724-0.622,3.422-0.995,5.063c-0.156,0.693-0.315,1.39-0.461,2.092c0.707-0.617,1.401-1.258,2.102-1.905
					C74.16,23.387,74.411,23.154,74.665,22.922z M99.593,54.577c-1.493-1.284-3.248-2.346-5.212-3.148
					C93.015,50.873,91.644,50.421,90.3,50c-0.33-0.104-0.657-0.206-0.982-0.305c-0.912-0.285-1.813-0.564-2.702-0.869
					c-2.695-0.922-5.256-2.077-7.536-4.2c-0.592-0.548-1.164-1.165-1.716-1.861c-0.567-0.716-1.115-1.508-1.635-2.408
					c-0.519-0.898-0.93-1.769-1.267-2.62c-0.326-0.825-0.575-1.628-0.755-2.415c-0.698-3.037-0.416-5.831,0.132-8.627
					c-0.833,0.747-1.691,1.474-2.6,2.157c-0.222,1.83-0.261,3.724,0.054,5.714c0.131,0.838,0.327,1.694,0.599,2.571
					c0.432,1.389,1.043,2.826,1.912,4.332c0.868,1.506,1.808,2.755,2.796,3.821c0.625,0.673,1.267,1.272,1.926,1.806
					c1.568,1.267,3.226,2.179,4.922,2.902c1.048,0.446,2.107,0.825,3.169,1.175c0.681,0.221,1.362,0.432,2.041,0.643
					c1.608,0.497,3.271,1.015,4.882,1.673c1.742,0.711,3.293,1.645,4.602,2.773c0.464,0.401,1.168,0.35,1.57-0.114
					C100.111,55.682,100.06,54.979,99.593,54.577z"/>
			</g>
		</g>
	</g>
</g>
<g id="Layer_2">
</g>
</svg>
