<?xml version="1.0" encoding="utf-8"?>
<!-- Generator: Adobe Illustrator 21.0.2, SVG Export Plug-In . SVG Version: 6.00 Build 0)  -->
<svg version="1.1" xmlns="http://www.w3.org/2000/svg" xmlns:xlink="http://www.w3.org/1999/xlink" x="0px" y="0px"
	 viewBox="0 0 250 100" enable-background="new 0 0 250 100" xml:space="preserve">
<g id="Layer_1">
	<g>
		<path fill="#222626" d="M16.25,32.226l25.553,26.769V33.618h3.65v34.243L19.901,41.136v25.247H16.25V32.226z"/>
		<path fill="#222626" d="M83.919,50.045c0,9.429-7.736,16.904-17.078,16.904c-9.344,0-17.078-7.475-17.078-16.904
			c0-9.386,7.735-16.992,17.078-16.992C76.183,33.053,83.919,40.659,83.919,50.045z M53.412,50c0,7.388,5.997,13.56,13.429,13.56
			c7.431,0,13.427-6.171,13.427-13.56c0-7.431-5.91-13.558-13.427-13.558C59.322,36.442,53.412,42.569,53.412,50z"/>
		<path fill="#222626" d="M96.51,58.169l10.604-26.247l10.602,26.247l8.605-24.551h3.953l-12.558,34.46L107.113,41.7L96.51,68.078
			L83.95,33.618h3.955L96.51,58.169z"/>
		<path fill="#222626" d="M133.872,32.226l25.552,26.769V33.618h3.65v34.243l-25.552-26.725v25.247h-3.65V32.226z"/>
		<path fill="#222626" d="M168.165,33.618h16.992v3.389h-13.34v9.735h12.949v3.39h-12.949v12.863h13.34v3.389h-16.992V33.618z"/>
		<path fill="#222626" d="M204.953,40.006c-1.304-2.26-2.868-3.564-5.649-3.564c-2.912,0-5.433,2.087-5.433,5.085
			c0,2.824,2.91,4.128,5.127,5.127l2.174,0.957c4.258,1.868,7.865,3.998,7.865,9.213c0,5.737-4.607,10.126-10.298,10.126
			c-5.259,0-9.171-3.39-10.214-8.475l3.565-0.999c0.478,3.347,3.041,6.085,6.561,6.085c3.52,0,6.735-2.694,6.735-6.388
			c0-3.823-2.997-5.128-6.039-6.519l-1.999-0.87c-3.825-1.738-7.126-3.694-7.126-8.387c0-5.084,4.302-8.342,9.169-8.342
			c3.65,0,6.735,1.869,8.474,5.084L204.953,40.006z"/>
		<path fill="#222626" d="M229.665,40.006c-1.304-2.26-2.868-3.564-5.649-3.564c-2.912,0-5.433,2.087-5.433,5.085
			c0,2.824,2.912,4.128,5.127,5.127l2.174,0.957c4.258,1.868,7.865,3.998,7.865,9.213c0,5.737-4.607,10.126-10.298,10.126
			c-5.259,0-9.171-3.39-10.214-8.475l3.565-0.999c0.478,3.347,3.043,6.085,6.561,6.085c3.52,0,6.736-2.694,6.736-6.388
			c0-3.823-2.999-5.128-6.041-6.519l-1.997-0.87c-3.826-1.738-7.127-3.694-7.127-8.387c0-5.084,4.302-8.342,9.169-8.342
			c3.65,0,6.735,1.869,8.474,5.084L229.665,40.006z"/>
	</g>
</g>
<g id="Layer_2">
</g>
</svg>
