<?xml version="1.0" encoding="utf-8"?>
<!-- Generator: Adobe Illustrator 21.0.2, SVG Export Plug-In . SVG Version: 6.00 Build 0)  -->
<svg version="1.1" xmlns="http://www.w3.org/2000/svg" xmlns:xlink="http://www.w3.org/1999/xlink" x="0px" y="0px"
	 viewBox="0 0 200 125" enable-background="new 0 0 200 125" xml:space="preserve">
<g id="Layer_1">
	<g id="XMLID_1_">
		<path id="XMLID_3_" d="M63.387,59.275c0-0.461,0.106-0.501,1.757-0.66l1.282-0.124v-9.954v-9.955l-0.902-0.022
			c-1.496-0.037-2.034-0.214-2.102-0.691l-0.061-0.426h9.227h9.227l-0.051,3.94c-0.042,3.214-0.1,3.94-0.315,3.94
			c-0.332,0-0.436-0.19-1.223-2.223c-0.753-1.945-1.605-3.133-2.785-3.881c-0.819-0.52-0.964-0.544-3.561-0.607l-2.707-0.065v4.67
			v4.67h1.253c1.683,0,2.441-0.378,3.011-1.501c0.245-0.483,0.548-1.262,0.674-1.73c0.126-0.468,0.327-0.914,0.447-0.991
			c0.666-0.427,0.692-0.243,0.692,4.9v5.046l-0.409-0.061c-0.324-0.048-0.475-0.302-0.725-1.217
			c-0.174-0.636-0.483-1.448-0.687-1.804c-0.522-0.908-1.769-1.502-3.157-1.502h-1.099l0,4.795l0,4.795l2.326-0.053
			c2.799-0.064,3.62-0.321,4.804-1.505c0.938-0.938,1.326-1.594,2.392-4.044c0.514-1.182,0.795-1.614,1.05-1.614
			c0.324,0,0.351,0.274,0.399,4.13l0.051,4.13h-9.404C63.466,59.661,63.388,59.658,63.387,59.275L63.387,59.275z"/>
		<path id="XMLID_67_" d="M102.937,87.655c-1.018-0.245-1.982-1.067-2.525-2.153c-0.36-0.721-0.486-1.439-0.68-3.894
			c-0.358-4.507-0.742-4.946-4.329-4.947l-2.04,0v4.934v4.934h1.531c1.479,0,1.529,0.014,1.471,0.427l-0.061,0.427h-5.408
			c-5.282,0-5.408-0.009-5.408-0.379c0-0.344,0.145-0.385,1.565-0.435l1.566-0.055V76.369V66.224h-1.524
			c-1.222,0-1.547-0.06-1.641-0.304c-0.064-0.167,0.003-0.379,0.148-0.471c0.353-0.223,11.195-0.215,13.339,0.011
			c2.325,0.245,3.56,0.671,4.605,1.591c1.19,1.047,1.572,1.953,1.577,3.738c0.008,2.84-1.248,4.282-4.74,5.439
			c-0.181,0.06-0.034,0.184,0.404,0.341c1.574,0.563,2.848,1.773,3.395,3.223c0.118,0.313,0.335,1.537,0.482,2.719
			c0.297,2.386,0.531,3.044,1.202,3.379c0.973,0.485,1.84-0.453,2.049-2.218c0.1-0.845,0.158-0.939,0.585-0.939
			c0.465,0,0.472,0.021,0.369,1.157c-0.149,1.641-0.79,2.797-1.856,3.346C106.034,87.74,104.113,87.937,102.937,87.655
			L102.937,87.655z M106.885,86.722c0.377-0.259,0.647-0.509,0.6-0.557c-0.048-0.048-0.188,0.015-0.311,0.138
			c-0.123,0.124-0.541,0.225-0.929,0.225c-0.548,0-0.809-0.125-1.178-0.563c-0.492-0.585-0.563-0.877-0.898-3.704
			c-0.111-0.938-0.354-2.048-0.541-2.467c-0.519-1.167-1.817-2.306-3.134-2.751c-1.581-0.534-1.738-0.503-1.186,0.234
			c0.637,0.85,0.68,1.053,0.869,4.073c0.225,3.598,0.745,4.814,2.388,5.59C103.7,87.476,105.951,87.362,106.885,86.722
			L106.885,86.722z M92.983,81.595v-5.313h2.36c1.298,0,2.57,0.08,2.827,0.178c0.388,0.147,0.484,0.115,0.564-0.19
			c0.057-0.218,0.26-0.368,0.499-0.368c0.694,0,2.696-0.76,3.55-1.347c2.832-1.948,2.482-6.267-0.635-7.835
			c-0.854-0.43-2.84-0.871-3.852-0.857c-0.873,0.012-0.866,0.052,0.044,0.253c0.917,0.202,1.825,1.184,2.159,2.336
			c0.452,1.553,0.306,4.585-0.277,5.783c-0.734,1.508-1.336,1.75-4.536,1.828l-2.704,0.065v-5.141v-5.141H91h-1.983l-0.013,10.531
			L88.99,86.908h1.997h1.997V81.595L92.983,81.595z M108.468,83.164c-0.063-0.063-0.108,0.049-0.1,0.249
			c0.009,0.221,0.054,0.266,0.115,0.115C108.538,83.391,108.531,83.227,108.468,83.164L108.468,83.164z M97.956,75.515
			c1.646-0.457,2.583-2.494,2.374-5.161c-0.251-3.207-1.598-4.232-5.378-4.09l-1.495,0.056l-0.051,4.696l-0.051,4.696l1.948-0.001
			C96.376,75.711,97.569,75.622,97.956,75.515L97.956,75.515z M131.503,87.371c-5.333-1.48-8.607-6.128-8.29-11.771
			c0.326-5.805,4.681-10.316,10.283-10.65c2.617-0.156,4.668,0.493,6.421,2.032l0.618,0.543l0.703-1.125
			c0.48-0.768,0.824-1.125,1.085-1.125c0.374,0,0.381,0.099,0.331,4.317c-0.048,4.065-0.072,4.317-0.404,4.317
			c-0.28,0-0.449-0.333-0.817-1.606c-0.255-0.883-0.682-2.007-0.948-2.496c-0.677-1.244-2.226-2.739-3.471-3.351
			c-0.895-0.44-1.294-0.517-2.666-0.517c-1.316,0-1.782,0.083-2.531,0.452c-1.594,0.785-2.524,2.524-3.089,5.776
			c-0.393,2.263-0.27,7.803,0.211,9.514c0.671,2.385,1.624,3.745,3.112,4.443c0.916,0.429,1.302,0.496,2.772,0.481
			c1.946-0.02,2.911-0.312,4.398-1.33c1.156-0.791,2.141-2.172,2.727-3.824c0.361-1.017,0.487-1.186,0.885-1.186
			c0.424,0,0.453,0.053,0.331,0.617c-0.642,2.978-2.458,5.238-5.021,6.25C136.769,87.676,133.08,87.809,131.503,87.371z
			 M134.255,87.094c-2.714-0.217-4.005-1.006-4.99-3.051c-1.788-3.712-1.724-12.075,0.121-15.765
			c0.553-1.106,0.882-1.515,1.617-2.006c1.199-0.801,0.836-0.783-0.962,0.048c-3.357,1.551-5.709,4.732-6.318,8.546
			c-0.224,1.402-0.143,2.518,0.316,4.343c1.181,4.701,5.595,8.078,10.502,8.034l1.423-0.013L134.255,87.094L134.255,87.094z
			 M142.279,67.708l-0.054-1.932l-0.723,1.173c-0.797,1.293-1.251,1.477-1.752,0.712c-0.166-0.254-0.531-0.61-0.811-0.793
			c-0.28-0.182-0.056,0.132,0.498,0.698c1.176,1.203,2.207,3.144,2.548,4.796l0.241,1.168l0.054-1.945
			C142.308,70.515,142.308,68.771,142.279,67.708z M134.682,65.329c-0.287-0.043-0.757-0.043-1.044,0
			c-0.287,0.043-0.052,0.079,0.522,0.079C134.734,65.409,134.969,65.373,134.682,65.329z M181.638,86.671
			c-0.403-0.548-3.321-4.583-6.485-8.966c-3.164-4.383-5.828-8.054-5.921-8.156c-0.099-0.109-0.146,3.191-0.115,7.939l0.053,8.125
			l0.532,0.458c0.423,0.363,0.747,0.458,1.571,0.458c0.778,0,1.068,0.076,1.156,0.304c0.064,0.167-0.003,0.38-0.148,0.474
			c-0.146,0.093-1.887,0.149-3.87,0.123c-3.578-0.046-3.606-0.05-3.666-0.474c-0.057-0.402,0.006-0.427,1.08-0.427
			c0.933,0,1.238-0.084,1.674-0.458l0.532-0.458l0.052-8.603c0.048-7.928,0.026-8.654-0.285-9.254
			c-0.494-0.955-1.202-1.391-2.426-1.492c-0.951-0.079-1.056-0.13-1.004-0.491c0.056-0.393,0.149-0.404,3.786-0.454l3.729-0.051
			l0.557,0.716c0.306,0.394,2.57,3.533,5.031,6.977c2.461,3.444,4.607,6.433,4.769,6.641c0.269,0.346,0.296-0.194,0.301-6.033
			l0.006-6.413l-0.466-0.466c-0.393-0.393-0.647-0.466-1.626-0.466c-1.095,0-1.157-0.024-1.1-0.427
			c0.061-0.426,0.068-0.427,3.761-0.427c3.693,0,3.7,0.001,3.761,0.427c0.057,0.403-0.005,0.427-1.1,0.427
			c-0.979,0-1.233,0.073-1.626,0.466l-0.466,0.466v10.255v10.255h-0.658C182.454,87.667,182.277,87.54,181.638,86.671
			L181.638,86.671z M183.307,76.866l0.095-10.295l0.448-0.363l0.448-0.363h-1.151h-1.151l0.466,0.466l0.466,0.466v7.03
			c0,5.769-0.046,7.03-0.256,7.03c-0.141,0-2.665-3.373-5.61-7.495l-5.354-7.495l-2.597,0.001l-2.597,0.001l0.618,0.377
			c0.34,0.207,0.789,0.655,0.999,0.995c0.368,0.599,0.379,0.9,0.33,9.664l-0.05,9.046l-0.46,0.49l-0.46,0.49h1.11h1.11l-0.46-0.49
			l-0.46-0.49l-0.053-8.634c-0.05-8.081-0.032-8.63,0.273-8.571c0.341,0.066,2.098,2.422,10.107,13.557
			c3.434,4.775,3.636,5.033,3.871,4.954C183.155,87.18,183.236,84.512,183.307,76.866L183.307,76.866z M12.657,87.355
			c-0.072-0.072-0.131-0.277-0.131-0.455c0-0.25,0.217-0.345,0.955-0.416c1.73-0.166,1.315,0.704,6.359-13.334
			c1.425-3.966,2.671-7.36,2.768-7.543c0.18-0.337,1.027-0.449,1.412-0.187c0.113,0.077,1.804,4.665,3.759,10.196
			c2.731,7.727,3.664,10.156,4.028,10.484c0.344,0.31,0.709,0.427,1.33,0.427c0.78,0,0.851,0.038,0.796,0.427l-0.061,0.427H28.94
			h-4.934l-0.061-0.427c-0.057-0.398,0.01-0.427,0.973-0.427c0.618,0,1.116-0.099,1.239-0.248c0.152-0.184-0.038-0.954-0.736-2.981
			c-0.518-1.504-0.941-2.76-0.941-2.793c0-0.033-1.388-0.036-3.084-0.007l-3.084,0.052l-0.794,2.277
			c-0.436,1.252-0.799,2.463-0.806,2.69c-0.021,0.677,0.484,1.01,1.532,1.01c0.875,0,0.944,0.033,0.888,0.427
			c-0.06,0.421-0.107,0.428-3.203,0.479C14.202,87.463,12.729,87.427,12.657,87.355z M16.653,86.703
			c-0.248-0.144-0.333-0.444-0.336-1.18l-0.004-0.987l-0.352,0.774c-0.193,0.426-0.587,0.959-0.875,1.186l-0.524,0.412l1.212-0.006
			C16.69,86.898,16.904,86.849,16.653,86.703z M31.343,86.466c-0.372-0.396-1.479-3.386-6.19-16.731
			c-1.392-3.941-1.368-3.89-1.796-3.89c-0.259,0-0.432,0.19-0.558,0.617c-0.1,0.339-0.517,1.523-0.926,2.631
			c-0.608,1.646-0.686,1.999-0.426,1.931c0.253-0.066,0.457,0.315,1.005,1.876c1.626,4.632,2.228,6.516,2.171,6.79
			c-0.033,0.161,0.039,0.378,0.162,0.482c0.264,0.225,1.974,5.33,1.974,5.892c0,0.214-0.102,0.491-0.228,0.616
			c-0.177,0.177,0.378,0.228,2.5,0.228h2.728L31.343,86.466L31.343,86.466z M18.288,79.792c-0.06-0.157-0.143-0.285-0.184-0.285
			c-0.041,0-0.075,0.128-0.075,0.285s0.083,0.285,0.184,0.285C18.314,80.077,18.348,79.949,18.288,79.792z M24.058,79.27
			c-0.046-0.13-0.625-1.838-1.286-3.795c-0.661-1.957-1.252-3.558-1.312-3.558c-0.105,0-2.671,7.155-2.671,7.448
			c0,0.078,1.205,0.142,2.677,0.142C23.525,79.507,24.123,79.453,24.058,79.27z M34.289,87.355c-0.072-0.072-0.13-0.287-0.13-0.478
			c0-0.293,0.158-0.348,0.996-0.35c0.548-0.001,1.192-0.055,1.431-0.119c0.972-0.26,0.989-0.445,0.989-10.685v-9.497h-1.721
			c-1.676,0-1.719-0.011-1.66-0.427c0.06-0.426,0.07-0.427,4.181-0.478l4.12-0.051l0.257,0.526c0.141,0.289,1.447,3.571,2.901,7.294
			s2.701,6.668,2.77,6.545c0.069-0.123,1.211-3.297,2.536-7.053c1.325-3.756,2.497-6.938,2.604-7.07
			c0.148-0.184,1.103-0.229,4.01-0.19c3.774,0.051,3.817,0.056,3.876,0.47c0.057,0.4-0.013,0.422-1.518,0.474l-1.578,0.055
			l-0.049,10.105l-0.049,10.104h1.628c1.58,0,1.626,0.013,1.567,0.427l-0.061,0.427H55.98h-5.408l-0.061-0.427
			c-0.059-0.414-0.012-0.427,1.566-0.427h1.626l-0.009-9.156c-0.009-8.914-0.018-9.133-0.34-8.302
			c-0.182,0.47-1.694,4.806-3.359,9.636c-2.905,8.426-3.047,8.78-3.48,8.729c-0.412-0.049-0.77-0.881-4.029-9.352
			c-1.968-5.114-3.615-9.383-3.66-9.488c-0.046-0.104-0.09,3.678-0.098,8.405l-0.015,8.595l0.466,0.466
			c0.393,0.393,0.647,0.466,1.626,0.466c1.095,0,1.157,0.024,1.1,0.427c-0.06,0.424-0.085,0.427-3.773,0.478
			C36.09,87.462,34.361,87.426,34.289,87.355L34.289,87.355z M38.914,86.576c-0.225-0.183-0.489-0.674-0.586-1.091
			c-0.097-0.417-0.178-4.708-0.18-9.535c-0.004-8.397,0.011-8.776,0.345-8.776c0.382,0,0.362-0.048,6.089,14.896
			c0.96,2.505,1.809,4.619,1.887,4.698c0.078,0.079,0.64-1.287,1.25-3.036c1.308-3.752,1.341-3.86,1.057-3.417
			c-0.117,0.183-0.323,0.332-0.457,0.332c-0.198,0-3.301-7.544-5.639-13.71l-0.414-1.091h-2.156h-2.156v9.877
			c0,8.346-0.044,9.961-0.281,10.419c-0.154,0.298-0.389,0.586-0.522,0.64c-0.133,0.053,0.302,0.104,0.966,0.112
			C39.295,86.908,39.314,86.9,38.914,86.576L38.914,86.576z M57.878,76.376V65.845h-1.992c-1.096,0-1.992,0.032-1.992,0.072
			c0,0.039-0.126,0.372-0.279,0.74c-0.267,0.638-0.262,0.664,0.095,0.57c0.369-0.096,0.374,0.044,0.374,9.792v9.889h1.898h1.898
			V76.376z M63.389,87.203c-0.414-0.499-0.018-0.674,1.521-0.674h1.507V76.376V66.224H64.91c-1.539,0-1.935-0.175-1.521-0.674
			c0.198-0.239,1.542-0.271,9.457-0.229l9.226,0.049l0.052,3.782c0.028,2.08-0.021,3.854-0.111,3.944
			c-0.324,0.324-0.725-0.072-0.956-0.947c-0.439-1.657-1.676-3.946-2.527-4.674c-1.083-0.927-1.726-1.089-4.759-1.199l-2.609-0.094
			v4.885v4.885l1.376-0.089c0.757-0.049,1.636-0.224,1.954-0.39c0.717-0.372,1.593-1.929,1.765-3.139
			c0.104-0.732,0.203-0.903,0.552-0.952l0.425-0.061v4.953c0,4.366-0.036,4.967-0.304,5.069c-0.393,0.151-0.575-0.162-0.722-1.244
			c-0.144-1.059-0.775-2.217-1.501-2.756c-0.411-0.304-0.884-0.412-2.04-0.465l-1.505-0.068v4.88v4.88l2.609-0.078
			c3.038-0.091,3.869-0.363,5.133-1.679c0.875-0.91,1.91-2.784,2.409-4.358c0.379-1.198,0.752-1.697,1.047-1.402
			c0.125,0.125,0.176,1.662,0.144,4.261l-0.051,4.066l-9.416,0.049C64.955,87.474,63.587,87.441,63.389,87.203L63.389,87.203z
			 M70.781,81.69v-5.218h1.775c1.535,0,1.862,0.059,2.419,0.434c0.757,0.51,1.449,1.678,1.676,2.828
			c0.109,0.553,0.164-0.533,0.169-3.357c0.008-3.946-0.006-4.12-0.262-3.171c-0.301,1.118-0.958,2.191-1.629,2.661
			c-0.314,0.22-0.984,0.332-2.296,0.385l-1.852,0.074v-5.24v-5.24h-1.992h-1.992v10.531v10.531h1.992h1.992V81.69z M82.153,83.35
			l-0.014-3.558l-0.352,0.99c-1.058,2.977-2.805,5.236-4.479,5.793l-0.929,0.309l2.894,0.012l2.894,0.012L82.153,83.35z
			 M81.787,69.166v-3.321l-2.704,0.006l-2.704,0.006l1.009,0.348c0.555,0.192,1.299,0.629,1.652,0.972
			c0.754,0.731,1.806,2.671,2.287,4.217c0.187,0.6,0.366,1.091,0.399,1.091C81.76,72.486,81.787,70.992,81.787,69.166z
			 M110.19,87.354c-0.071-0.071-0.129-0.286-0.129-0.477c0-0.31,0.175-0.348,1.613-0.348h1.613V76.376V66.224h-1.626
			c-1.578,0-1.624-0.013-1.565-0.427l0.061-0.427h5.408h5.408l0.061,0.427c0.059,0.413,0.009,0.427-1.471,0.427h-1.531v10.152
			v10.152h1.531c1.479,0,1.529,0.014,1.471,0.427l-0.061,0.427l-5.326,0.05C112.717,87.46,110.262,87.425,110.19,87.354z
			 M117.506,76.376l0.051-10.532l-1.945,0l-1.945,0v10.531v10.531h1.894h1.894L117.506,76.376z M142.83,87.355
			c-0.072-0.072-0.131-0.287-0.131-0.479c0-0.275,0.149-0.348,0.712-0.351c0.995-0.004,1.591-0.359,2.074-1.236
			c0.228-0.415,1.915-4.922,3.748-10.016c1.833-5.094,3.422-9.428,3.53-9.63c0.199-0.371,1.029-0.501,1.427-0.223
			c0.11,0.077,0.683,1.506,1.273,3.176c0.59,1.67,2.19,6.196,3.555,10.057c2.755,7.793,2.799,7.875,4.294,7.875
			c0.78,0,0.851,0.038,0.796,0.427l-0.061,0.427h-4.934h-4.934l-0.061-0.427c-0.055-0.388,0.016-0.427,0.791-0.427
			c1.109,0,1.452-0.145,1.452-0.612c0-0.21-0.396-1.524-0.879-2.921l-0.879-2.539h-3.059h-3.059l-0.814,2.419
			c-0.448,1.331-0.81,2.609-0.806,2.84c0.01,0.55,0.536,0.813,1.621,0.813c0.804,0,0.874,0.037,0.819,0.427
			c-0.06,0.421-0.107,0.428-3.203,0.479C144.375,87.463,142.902,87.427,142.83,87.355L142.83,87.355z M146.826,86.703
			c-0.249-0.145-0.332-0.441-0.332-1.18l0-0.987l-0.401,0.809c-0.22,0.445-0.616,0.979-0.879,1.186l-0.479,0.377l1.212-0.006
			C146.862,86.898,147.077,86.849,146.826,86.703z M161.511,86.461c-0.266-0.284-1.722-4.113-3.985-10.484
			c-4.075-11.473-3.943-11.237-4.864-8.671c-0.292,0.814-0.725,2.004-0.961,2.644c-0.411,1.113-0.414,1.16-0.067,1.069
			c0.199-0.052,0.363-0.056,0.363-0.009s0.643,1.955,1.429,4.238c0.786,2.284,1.402,4.283,1.369,4.443
			c-0.033,0.16,0.042,0.376,0.166,0.48c0.254,0.213,1.97,5.377,1.97,5.928c0,0.194-0.103,0.456-0.228,0.581
			c-0.177,0.177,0.378,0.228,2.5,0.228h2.728L161.511,86.461L161.511,86.461z M148.447,79.697c-0.055-0.209-0.122-0.379-0.15-0.379
			c-0.028,0-0.095,0.171-0.15,0.379c-0.062,0.237-0.006,0.38,0.15,0.38C148.453,80.077,148.509,79.934,148.447,79.697z
			 M154.231,79.27c-0.046-0.13-0.632-1.838-1.301-3.794s-1.262-3.557-1.317-3.558c-0.1-0.001-2.657,7.176-2.653,7.447
			c0.001,0.078,1.206,0.142,2.679,0.142C153.698,79.507,154.295,79.453,154.231,79.27z M19.769,59.665
			c-1.049-0.282-2.899-1.389-3.316-1.984c-0.217-0.309-0.308-0.236-0.966,0.78c-0.469,0.724-0.855,1.122-1.089,1.122
			c-0.347,0-0.36-0.174-0.311-4.127c0.048-3.88,0.072-4.127,0.404-4.127c0.28,0,0.449,0.333,0.818,1.61
			c0.804,2.783,2.233,4.681,4.171,5.538c3.161,1.398,6.518-0.256,6.518-3.211c0-1.9-1.443-3.232-4.776-4.411
			c-3.638-1.287-5.494-2.576-6.422-4.46c-0.402-0.815-0.468-1.216-0.47-2.846c-0.002-1.747,0.042-1.978,0.555-2.904
			c0.698-1.26,1.744-2.215,3.12-2.849c0.893-0.411,1.344-0.492,2.774-0.496c1.478-0.004,1.865,0.067,2.875,0.531
			c0.642,0.295,1.405,0.784,1.696,1.087c0.291,0.303,0.584,0.552,0.653,0.552c0.068,0,0.356-0.427,0.64-0.949
			c0.345-0.634,0.638-0.949,0.884-0.949c0.351,0,0.368,0.165,0.368,3.619c0,3.579-0.004,3.618-0.402,3.558
			c-0.303-0.046-0.482-0.318-0.728-1.104c-0.753-2.413-1.85-3.964-3.405-4.81c-3.624-1.972-7.458,0.883-5.401,4.023
			c0.686,1.048,1.454,1.501,4.743,2.801c3.407,1.346,4.756,2.324,5.731,4.153c0.463,0.869,0.505,1.132,0.505,3.131
			c0,1.836-0.065,2.323-0.41,3.069C27.128,59.046,23.339,60.626,19.769,59.665z M22.062,59.457c-0.13-0.053-0.344-0.053-0.474,0
			s-0.024,0.096,0.237,0.096S22.192,59.51,22.062,59.457z M16.021,56.824c0.219-0.164,0.154-0.425-0.378-1.528
			c-0.353-0.732-0.765-1.839-0.915-2.459c-0.267-1.106-0.273-1.054-0.284,2.572l-0.011,3.7l0.662-1.044
			C15.459,57.491,15.876,56.932,16.021,56.824z M26.326,57.941c1.969-1.469,2.853-4.724,1.944-7.155
			c-0.773-2.067-2.448-3.392-5.994-4.744c-2.419-0.922-3.47-1.489-4.293-2.316c-1.447-1.453-1.456-3.728-0.021-5.102l0.543-0.52
			l-0.628,0.314c-1.045,0.522-2.083,1.594-2.635,2.723c-1.149,2.348-0.39,5.472,1.712,7.04c1.225,0.915,2.041,1.319,4.227,2.093
			c2.374,0.841,3.848,1.694,4.582,2.652c0.567,0.74,0.617,0.917,0.617,2.2c0,1.646-0.142,2.086-0.984,3.045
			c-0.571,0.65-0.585,0.694-0.155,0.472C25.501,58.507,25.99,58.192,26.326,57.941z M17.46,57.804c0-0.039-0.149-0.189-0.332-0.332
			c-0.301-0.236-0.308-0.229-0.072,0.072C17.304,57.859,17.46,57.96,17.46,57.804z M27.477,39.697l-0.055-1.462l-0.481,0.854
			c-0.371,0.658-0.59,0.853-0.954,0.85l-0.473-0.004l0.591,0.878c0.325,0.483,0.754,1.452,0.954,2.154l0.364,1.276l0.055-1.542
			C27.508,41.852,27.508,40.501,27.477,39.697z M20.911,37.631c-0.137-0.055-0.301-0.048-0.364,0.015
			c-0.063,0.063,0.049,0.108,0.249,0.1C21.018,37.737,21.063,37.692,20.911,37.631z M38.143,59.614
			c-1.744-0.58-2.694-1.168-4.003-2.479c-2.157-2.16-3.2-4.948-3.201-8.559c-0.001-3.499,1.066-6.236,3.296-8.459
			c2.093-2.086,4.545-3.052,7.32-2.884c1.797,0.109,3.098,0.658,4.187,1.768l0.824,0.84l0.726-1.149
			c0.504-0.797,0.827-1.129,1.055-1.085c0.3,0.058,0.329,0.43,0.329,4.235c0,4.066-0.01,4.173-0.39,4.228
			c-0.34,0.049-0.433-0.125-0.721-1.348c-0.668-2.835-2.01-4.966-3.71-5.891c-1.431-0.779-2.738-0.864-4.048-0.265
			c-1.627,0.745-2.722,2.53-3.306,5.39c-0.417,2.04-0.415,7.206,0.003,9.253c0.539,2.643,1.676,4.537,3.227,5.379
			c0.927,0.503,3.367,0.445,4.581-0.11c1.752-0.8,2.905-2.249,3.69-4.637c0.325-0.99,0.504-1.281,0.785-1.281
			c0.483,0,0.482,0.736-0.002,2.143c-0.791,2.299-2.033,3.754-3.975,4.659c-0.934,0.435-1.349,0.503-3.344,0.547
			C39.665,59.951,38.968,59.888,38.143,59.614z M41.36,59.405c-2.929-0.247-4.483-1.989-5.342-5.989
			c-0.364-1.697-0.302-8.338,0.095-10.083c0.626-2.752,2.014-4.833,3.55-5.322c0.878-0.28,0.156-0.316-0.856-0.043
			c-3.114,0.84-5.74,3.473-6.861,6.879c-0.708,2.152-0.749,5.236-0.099,7.335c1.436,4.636,4.98,7.403,9.426,7.358l1.518-0.015
			L41.36,59.405L41.36,59.405z M48.2,41.515v-3.267l-0.689,1.101c-0.528,0.843-0.772,1.079-1.046,1.007
			c-0.315-0.082-0.305-0.031,0.091,0.439c0.247,0.293,0.696,1.308,0.999,2.255c0.303,0.947,0.572,1.725,0.598,1.727
			C48.179,44.78,48.2,43.312,48.2,41.515z M41.606,37.627c-0.235-0.045-0.619-0.045-0.854,0c-0.235,0.045-0.043,0.082,0.427,0.082
			C41.649,37.709,41.841,37.672,41.606,37.627z M176.644,59.697c-1.628-0.466-2.725-1.146-4.158-2.578
			c-1.975-1.972-2.866-3.898-3.212-6.943c-0.834-7.343,4.071-13.306,10.644-12.94c1.768,0.098,3.214,0.74,4.248,1.884
			c0.402,0.445,0.754,0.693,0.823,0.58c0.067-0.109,0.377-0.63,0.69-1.159c0.339-0.572,0.705-0.962,0.905-0.965
			c0.313-0.004,0.332,0.29,0.285,4.313c-0.043,3.603-0.096,4.317-0.324,4.317c-0.181,0-0.44-0.581-0.768-1.723
			c-1.118-3.894-2.871-5.928-5.408-6.275c-2.64-0.362-4.732,1.701-5.514,5.437c-0.429,2.049-0.559,5.628-0.289,7.946
			c0.422,3.619,1.37,5.657,3.146,6.76c0.821,0.51,1.077,0.569,2.45,0.569c1.292,0,1.702-0.083,2.607-0.527
			c1.711-0.84,2.849-2.329,3.584-4.691c0.254-0.817,0.419-1.058,0.755-1.108c0.411-0.061,0.424-0.022,0.305,0.854
			c-0.18,1.317-1.284,3.514-2.253,4.483c-0.457,0.457-1.338,1.079-1.958,1.384c-1.035,0.508-1.316,0.557-3.405,0.594
			C178.359,59.933,177.196,59.855,176.644,59.697z M179.702,59.401c-0.783-0.068-1.743-0.279-2.134-0.467
			c-1.404-0.677-2.464-2.359-3.12-4.949c-0.486-1.921-0.486-8.895,0-10.816c0.667-2.633,1.696-4.241,3.218-5.028l0.802-0.415
			l-0.664,0.095c-1.909,0.273-4.482,1.859-5.754,3.547c-3.483,4.622-3.139,11.449,0.774,15.362c2.009,2.009,4.017,2.842,6.783,2.812
			l1.518-0.016L179.702,59.401L179.702,59.401z M186.526,41.604l-0.006-3.368l-0.686,1.091c-0.377,0.6-0.785,1.091-0.906,1.091
			c-0.127,0,0.042,0.54,0.403,1.281c0.343,0.705,0.725,1.729,0.848,2.277s0.254,0.996,0.289,0.996
			C186.504,44.972,186.53,43.456,186.526,41.604L186.526,41.604z M179.939,37.627c-0.235-0.045-0.619-0.045-0.854,0
			c-0.235,0.045-0.043,0.082,0.427,0.082C179.981,37.709,180.174,37.672,179.939,37.627z M50.511,59.159
			c0.057-0.402,0.164-0.434,1.626-0.485l1.566-0.055V48.577V38.535l-1.566-0.055c-1.463-0.051-1.569-0.083-1.626-0.485l-0.061-0.43
			l5.469,0.05c5.326,0.049,5.469,0.06,5.469,0.43c0,0.344-0.145,0.385-1.566,0.435l-1.565,0.055v10.042v10.042l1.565,0.055
			c1.421,0.05,1.566,0.09,1.566,0.435c0,0.37-0.143,0.381-5.469,0.43l-5.469,0.05L50.511,59.159L50.511,59.159z M57.878,48.577
			V37.951H55.98h-1.898v10.626v10.626h1.898h1.898V48.577z M63.415,59.156c0.056-0.395,0.17-0.431,1.531-0.482l1.471-0.055V48.577
			V38.536l-1.471-0.055c-1.361-0.051-1.475-0.087-1.531-0.482l-0.061-0.427h9.216h9.216v3.89c0,3.705-0.017,3.89-0.363,3.89
			c-0.281,0-0.457-0.29-0.776-1.281c-0.95-2.945-1.929-4.369-3.508-5.104c-0.844-0.393-1.231-0.443-3.464-0.444l-2.514-0.002v4.744
			v4.744l1.281,0c1.772,0,2.457-0.376,3.142-1.723c0.296-0.583,0.586-1.415,0.645-1.85c0.091-0.675,0.172-0.791,0.555-0.791h0.449
			v4.934v4.934h-0.474c-0.399,0-0.474-0.089-0.474-0.562c0-0.859-0.699-2.537-1.281-3.077c-0.676-0.627-1.565-0.915-2.827-0.915
			h-1.015v4.857v4.857l2.609-0.066c2.455-0.062,2.663-0.097,3.51-0.595c1.42-0.835,2.578-2.541,3.567-5.258
			c0.398-1.094,0.611-1.437,0.919-1.484c0.397-0.06,0.4-0.026,0.4,4.127v4.188h-9.406h-9.406L63.415,59.156z M81.78,55.456
			l-0.007-3.748l-0.455,1.279c-1.031,2.896-2.343,4.743-3.933,5.535c-0.927,0.462-1.153,0.491-3.8,0.491h-2.815l0.011-5.266
			c0.006-2.896,0.008-7.635,0.005-10.531l-0.006-5.266h-1.992h-1.992v10.626v10.626h7.495h7.495L81.78,55.456L81.78,55.456z
			 M76.831,48.53c-0.014-2.924-0.077-4.28-0.171-3.719c-0.213,1.262-0.963,2.654-1.698,3.15c-0.514,0.348-0.918,0.432-2.169,0.454
			l-1.537,0.027l1.524,0.134c0.838,0.074,1.692,0.225,1.898,0.336c1.042,0.564,1.986,2.303,1.986,3.657
			c0,0.309,0.043,0.563,0.095,0.563C76.811,53.131,76.844,51.061,76.831,48.53z M81.408,41.271v-3.321l-3.084,0.024
			c-2.221,0.017-2.808,0.064-2.098,0.168c1.152,0.168,2.068,0.688,2.915,1.653c0.71,0.809,1.575,2.561,1.911,3.873
			c0.13,0.509,0.264,0.925,0.296,0.925C81.381,44.592,81.408,43.098,81.408,41.271L81.408,41.271z M84.668,59.156
			c0.053-0.373,0.2-0.439,1.17-0.526c0.796-0.071,1.184-0.201,1.376-0.463c0.22-0.301,0.267-1.918,0.267-9.25v-8.885l-0.646-0.705
			c-0.57-0.622-0.776-0.717-1.755-0.804c-0.97-0.086-1.117-0.152-1.17-0.526l-0.061-0.427h3.857h3.857l4.427,6.347
			c2.435,3.491,4.721,6.757,5.079,7.258l0.652,0.911l-0.052-6.49c-0.04-4.994-0.109-6.546-0.297-6.735
			c-0.135-0.135-0.733-0.288-1.328-0.341c-0.944-0.084-1.091-0.151-1.144-0.523l-0.061-0.427h3.442h3.442l-0.061,0.427
			c-0.053,0.372-0.2,0.439-1.144,0.523c-0.596,0.053-1.194,0.207-1.328,0.341c-0.193,0.193-0.256,2.426-0.297,10.482l-0.052,10.237
			l-0.707-0.003l-0.707-0.003L95.07,50.64l-6.357-8.936l-0.054,2.251c-0.03,1.238-0.03,4.868,0,8.066
			c0.051,5.409,0.08,5.843,0.416,6.215c0.27,0.298,0.588,0.399,1.258,0.399c0.902,0,1.479,0.352,1.232,0.751
			c-0.078,0.126-1.371,0.198-3.54,0.198h-3.418L84.668,59.156L84.668,59.156z M89.429,59.07c-0.233-0.045-0.596-0.301-0.806-0.569
			c-0.372-0.472-0.383-0.747-0.383-9.001c0-9.082-0.001-9.073,0.888-8.086c0.212,0.235,2.049,2.775,4.082,5.645
			c2.034,2.87,4.185,5.901,4.781,6.736c0.596,0.835,1.699,2.39,2.45,3.455c0.825,1.171,1.497,1.94,1.698,1.945
			c0.312,0.008,0.332-0.594,0.332-10.033c0-5.523,0.056-10.186,0.123-10.363s0.388-0.436,0.712-0.577
			c0.553-0.241,0.491-0.256-1.025-0.252c-1.228,0.004-1.504,0.048-1.156,0.187c0.956,0.382,0.954,0.359,0.96,7.824
			c0.005,6.078-0.031,6.979-0.275,6.926c-0.155-0.034-0.817-0.838-1.471-1.788c-0.654-0.95-2.981-4.301-5.17-7.448l-3.981-5.721
			l-3.04,0.022c-1.911,0.014-2.769,0.074-2.311,0.163c0.462,0.089,0.983,0.395,1.423,0.835l0.694,0.694v9.161
			c0,8.355-0.029,9.205-0.327,9.661c-0.18,0.275-0.522,0.537-0.759,0.582s0.337,0.083,1.276,0.083S89.662,59.115,89.429,59.07z
			 M110.095,59.156c0.057-0.398,0.167-0.431,1.626-0.482l1.566-0.055V48.569V38.52l-0.806,0.004
			c-2.296,0.012-4.202,2.086-5.191,5.65c-0.282,1.017-0.39,1.186-0.725,1.139c-0.383-0.055-0.393-0.156-0.393-3.851v-3.795
			l9.44-0.049l9.44-0.049v3.881c0,3.814-0.099,4.449-0.613,3.935c-0.11-0.11-0.434-0.928-0.72-1.816
			c-1.102-3.427-2.725-5.042-5.072-5.046l-0.617-0.001v10.049v10.049l1.471,0.055c1.361,0.051,1.475,0.087,1.531,0.482l0.061,0.427
			h-5.529h-5.529L110.095,59.156L110.095,59.156z M117.506,48.733c-0.04-8.288-0.001-10.503,0.19-10.624
			c0.132-0.084-2.3-0.154-5.405-0.155l-5.645-0.003l0.011,3.178l0.011,3.178l0.535-1.482c0.73-2.021,1.741-3.441,2.94-4.129
			c0.8-0.459,1.178-0.552,2.243-0.554l1.281-0.002v10.531v10.531l1.945,0h1.945L117.506,48.733z M124.672,41.271v-3.321
			l-3.368,0.027c-2.414,0.019-3.019,0.064-2.135,0.157c0.678,0.071,1.496,0.267,1.817,0.435c1.315,0.688,2.773,2.92,3.331,5.098
			c0.13,0.509,0.264,0.925,0.296,0.925C124.646,44.592,124.672,43.098,124.672,41.271L124.672,41.271z M126.414,59.159
			c0.057-0.399,0.168-0.434,1.532-0.485l1.471-0.055V48.577V38.536l-1.471-0.055c-1.364-0.051-1.475-0.087-1.532-0.485l-0.061-0.43
			l5.469,0.05c5.326,0.049,5.469,0.06,5.469,0.43c0,0.344-0.145,0.385-1.566,0.435l-1.565,0.055v10.042v10.042l1.565,0.055
			c1.421,0.05,1.566,0.09,1.566,0.435c0,0.37-0.143,0.381-5.469,0.43l-5.469,0.05L126.414,59.159z M133.781,48.577V37.951h-1.945
			h-1.945v10.626v10.626h1.945h1.945V48.577z M138.748,59.156c0.056-0.395,0.17-0.431,1.531-0.482l1.471-0.055V48.577V38.536
			l-1.471-0.055c-1.361-0.051-1.475-0.087-1.531-0.482l-0.061-0.427h8.837h8.837v3.89c0,3.709-0.017,3.89-0.364,3.89
			c-0.272,0-0.445-0.252-0.685-0.996c-0.967-3.005-2.59-5.184-4.191-5.628c-0.405-0.113-1.612-0.205-2.682-0.206l-1.945-0.001v4.649
			v4.649h0.842c2.102,0,3.261-1.201,3.812-3.948c0.101-0.505,0.206-0.616,0.535-0.569c0.407,0.058,0.409,0.083,0.409,4.992v4.934
			l-0.427,0.061c-0.235,0.033-0.427,0.024-0.427-0.022c0-0.045-0.086-0.536-0.191-1.09c-0.418-2.204-1.689-3.408-3.596-3.408h-0.956
			v4.926v4.926l1.471,0.055c1.361,0.051,1.475,0.087,1.531,0.482l0.061,0.427h-5.434h-5.434L138.748,59.156L138.748,59.156z
			 M146.115,53.776v-5.427l1.566,0.067c1.268,0.054,1.683,0.151,2.186,0.51c0.639,0.456,1.328,1.591,1.573,2.593
			c0.077,0.313,0.142-1.139,0.146-3.226c0.006-3.395-0.019-3.711-0.241-3.003c-0.648,2.073-1.786,2.908-3.961,2.908h-1.268v-5.123
			v-5.123h-1.992h-1.992v10.626v10.626h1.992h1.992L146.115,53.776L146.115,53.776z M155.982,41.177v-3.226l-2.989,0.024
			c-1.771,0.014-2.679,0.077-2.23,0.154c1.08,0.185,1.798,0.613,2.735,1.629c0.771,0.837,1.918,2.982,2.205,4.126
			c0.072,0.285,0.164,0.519,0.205,0.519C155.949,44.403,155.982,42.951,155.982,41.177z M157.345,59.156
			c0.056-0.395,0.17-0.431,1.531-0.482l1.471-0.055V48.577V38.536l-1.471-0.055c-1.361-0.051-1.475-0.087-1.531-0.482l-0.061-0.427
			h5.434h5.434l-0.061,0.427c-0.056,0.395-0.17,0.431-1.531,0.482l-1.471,0.055v10.041v10.041l1.471,0.055
			c1.361,0.051,1.475,0.087,1.531,0.482l0.061,0.427h-5.434h-5.434L157.345,59.156z M164.701,48.577V37.951h-1.988h-1.988v10.626
			v10.626h1.988h1.988V48.577z"/>
		<path id="XMLID_68_" d="M20.186,59.773c-1.202-0.298-2.36-0.894-3.245-1.671l-0.692-0.607l-0.406,0.561
			c-0.223,0.308-0.639,0.817-0.925,1.131c-0.777,0.852-0.902,0.449-0.883-2.848c0.03-5.383,0.353-6.13,1.391-3.221
			c0.783,2.194,1.447,3.317,2.518,4.259c2.95,2.597,7.428,1.676,7.951-1.635c0.312-1.976-0.93-3.272-4.587-4.784
			c-4.114-1.701-5.595-2.745-6.55-4.617c-0.327-0.64-0.397-1.124-0.397-2.741c0-1.791,0.047-2.049,0.532-2.94
			c0.617-1.133,1.816-2.253,3.077-2.874c0.753-0.371,1.183-0.436,2.879-0.436c2.173,0,2.833,0.22,4.433,1.479
			c0.417,0.328,0.783,0.495,0.855,0.39c0.069-0.102,0.324-0.5,0.567-0.885c0.262-0.414,0.593-0.7,0.811-0.7
			c0.353,0,0.366,0.145,0.317,3.545c-0.059,4.03-0.217,4.436-1.011,2.596c-1.774-4.11-3.194-5.429-5.877-5.459
			c-2.805-0.032-4.385,2.396-2.936,4.512c0.617,0.901,1.318,1.327,4.395,2.67c3.878,1.693,4.921,2.428,5.964,4.203
			c0.531,0.904,0.553,1.033,0.551,3.315c-0.002,2.115-0.05,2.464-0.442,3.202c-0.968,1.823-3.075,3.278-5.263,3.637
			C21.818,60.082,21.387,60.071,20.186,59.773L20.186,59.773z"/>
		<path id="XMLID_69_" d="M39.191,59.839c-2.388-0.366-5.004-2.171-6.495-4.483c-1.543-2.391-2.181-6.412-1.517-9.557
			c0.708-3.352,2.989-6.335,5.903-7.719c1.296-0.615,1.68-0.706,3.311-0.785c2.418-0.116,3.521,0.199,5.071,1.448l1.161,0.936
			l0.656-0.975c0.737-1.095,1.185-1.31,1.362-0.652c0.064,0.24,0.118,2.022,0.12,3.961c0.002,2.764-0.056,3.604-0.27,3.893
			c-0.376,0.51-0.564,0.256-1.058-1.435c-0.833-2.852-2.293-4.991-3.9-5.714c-3.171-1.427-5.68,0.284-6.848,4.67
			c-0.503,1.889-0.507,8.523-0.005,10.334c0.921,3.326,2.647,5.142,4.887,5.142c2.974,0,4.852-1.395,6.175-4.586
			c0.523-1.261,0.785-1.681,1.049-1.681c0.502,0,0.461,0.844-0.117,2.379c-1.187,3.153-3.302,4.711-6.651,4.9
			C41.084,59.967,39.809,59.933,39.191,59.839L39.191,59.839z"/>
		<path id="XMLID_70_" d="M50.505,59.265c0.035-0.25,0.193-0.472,0.349-0.492c0.157-0.021,0.862-0.093,1.567-0.159l1.282-0.121
			v-9.954v-9.955l-0.997-0.022c-1.534-0.035-2.129-0.21-2.191-0.648c-0.054-0.377,0.019-0.382,5.127-0.31
			c2.87,0.04,5.34,0.156,5.535,0.259c0.595,0.315,0.079,0.549-1.467,0.666l-1.449,0.11v9.916v9.916l0.881,0.121
			c0.485,0.066,1.163,0.121,1.508,0.121s0.669,0.068,0.721,0.152c0.309,0.499-0.368,0.587-5.551,0.719l-5.378,0.137L50.505,59.265
			L50.505,59.265z"/>
		<path id="XMLID_71_" d="M84.688,59.249c0.053-0.376,0.232-0.477,1.181-0.664c0.615-0.121,1.178-0.318,1.252-0.438
			c0.187-0.303,0.383-6.914,0.383-12.964l0.001-5.077l-0.525-0.588c-0.381-0.427-0.863-0.676-1.757-0.909
			c-1.013-0.264-1.242-0.397-1.292-0.748l-0.061-0.427l3.854,0.051l3.854,0.051l5.02,7.17c2.761,3.944,5.044,7.146,5.074,7.116
			c0.107-0.107-0.211-12.833-0.324-12.946c-0.064-0.064-0.64-0.208-1.282-0.321c-1.046-0.184-1.166-0.252-1.166-0.66v-0.454h3.431
			c3.414,0,3.431,0.002,3.371,0.412c-0.062,0.424-0.43,0.599-1.704,0.812c-0.39,0.065-0.747,0.253-0.815,0.43
			c-0.066,0.173-0.174,4.871-0.239,10.439l-0.118,10.124h-0.691h-0.691l-6.256-8.805c-5.371-7.559-6.28-8.748-6.42-8.403
			c-0.09,0.221-0.117,3.764-0.062,7.873c0.115,8.452,0.037,8.059,1.637,8.272c0.996,0.132,1.544,0.531,1.113,0.81
			c-0.136,0.088-1.728,0.188-3.538,0.223l-3.291,0.063L84.688,59.249L84.688,59.249z"/>
		<path id="XMLID_72_" d="M110.136,59.236c0.033-0.234,0.189-0.442,0.346-0.463c0.157-0.021,0.862-0.093,1.567-0.159l1.282-0.121
			v-9.954v-9.955h-0.766c-1.032,0-2.03,0.444-2.899,1.291c-0.941,0.916-1.49,1.878-2.135,3.741c-0.633,1.829-0.78,2.024-1.144,1.53
			c-0.213-0.289-0.272-1.138-0.272-3.94v-3.572l8.166-0.042c4.491-0.023,8.742-0.044,9.447-0.047l1.282-0.006l0.052,3.537
			c0.049,3.335-0.102,4.7-0.493,4.459c-0.086-0.053-0.519-1.02-0.961-2.148c-0.442-1.128-1.091-2.445-1.441-2.927
			c-0.746-1.027-2.27-1.877-3.366-1.877h-0.722v9.956v9.956l1.092,0.119c0.601,0.065,1.263,0.136,1.472,0.156
			c0.235,0.023,0.403,0.2,0.44,0.464l0.061,0.427h-5.533h-5.533L110.136,59.236L110.136,59.236z"/>
		<path id="XMLID_73_" d="M126.468,59.236c0.033-0.234,0.189-0.442,0.345-0.463c0.157-0.021,0.776-0.092,1.377-0.158l1.092-0.12
			v-9.929v-9.929l-1.366-0.127c-1.552-0.144-1.426-0.095-1.512-0.59c-0.064-0.37,0.033-0.377,5.062-0.32
			c2.82,0.032,5.277,0.1,5.46,0.153c0.183,0.053,0.332,0.206,0.332,0.342c0,0.25-1.168,0.488-2.4,0.488h-0.638v9.955v9.954
			l1.282,0.124c1.577,0.152,1.757,0.207,1.757,0.535c0,0.207-0.729,0.286-3.561,0.385c-1.958,0.068-4.4,0.125-5.425,0.125
			C126.449,59.661,126.408,59.651,126.468,59.236z"/>
		<path id="XMLID_74_" d="M138.72,59.541c-0.287-0.287,0.282-0.83,0.87-0.832c0.336-0.001,0.931-0.055,1.323-0.12l0.712-0.118
			v-9.918v-9.917l-1.366-0.127c-0.751-0.07-1.384-0.146-1.406-0.17c-0.022-0.024-0.07-0.214-0.106-0.423
			c-0.065-0.375,0.039-0.38,8.765-0.38h8.83l0.056,3.323c0.06,3.556-0.035,4.626-0.399,4.509c-0.236-0.075-0.359-0.301-1.652-3.02
			c-1.426-2.999-2.335-3.61-5.554-3.731l-2.231-0.084v4.581v4.581l0.902,0c1.759-0.001,2.77-0.916,3.446-3.118
			c0.268-0.874,0.44-1.154,0.709-1.154c0.337,0,0.355,0.243,0.355,4.937c0,4.695-0.017,4.937-0.355,4.937
			c-0.279,0-0.423-0.269-0.672-1.258c-0.539-2.142-1.703-3.204-3.512-3.204h-0.873v4.818v4.818l0.712,0.118
			c0.392,0.065,0.973,0.119,1.291,0.12c0.61,0.002,1.035,0.291,1.035,0.705c0,0.197-1.092,0.247-5.38,0.247
			C141.261,59.661,138.786,59.607,138.72,59.541L138.72,59.541z"/>
		<path id="XMLID_75_" d="M157.197,59.553c0-0.453,0.463-0.842,1.004-0.844c0.336-0.001,0.931-0.055,1.323-0.12l0.712-0.118v-9.918
			v-9.917l-1.369-0.127c-1.288-0.12-1.743-0.341-1.603-0.782c0.038-0.121,2.02-0.19,5.441-0.19c3.42,0,5.402,0.069,5.441,0.19
			c0.14,0.44-0.315,0.662-1.603,0.782l-1.369,0.127v9.917v9.918l0.712,0.118c0.392,0.065,0.973,0.119,1.291,0.12
			c0.61,0.002,1.035,0.291,1.035,0.705c0,0.197-1.115,0.247-5.507,0.247C159.675,59.661,157.197,59.613,157.197,59.553
			L157.197,59.553z"/>
		<path id="XMLID_76_" d="M177.57,59.862c-3.695-0.446-7.318-4.215-8.13-8.455c-0.88-4.6,0.373-8.874,3.416-11.649
			c1.898-1.731,3.904-2.506,6.491-2.506c1.987,0,3.312,0.47,4.605,1.632l0.948,0.852l0.673-1.052c1.3-2.032,1.538-1.354,1.344,3.821
			c-0.17,4.543-0.3,4.661-1.441,1.306c-1.061-3.119-2.274-4.642-4.223-5.304c-1.071-0.364-1.636-0.382-2.624-0.086
			c-1.708,0.512-3.086,2.476-3.71,5.287c-0.464,2.092-0.464,7.522,0.001,9.685c0.548,2.551,1.434,4.037,2.976,4.998
			c0.968,0.603,3.513,0.579,4.795-0.044c1.355-0.659,2.633-2.176,3.367-3.996c0.561-1.392,1.162-2.148,1.4-1.762
			c0.187,0.303-0.276,2.031-0.867,3.232c-0.746,1.516-2.003,2.812-3.388,3.493C182.034,59.889,179.683,60.118,177.57,59.862
			L177.57,59.862z"/>
		<path id="XMLID_79_" d="M12.56,87.093c-0.152-0.395-0.084-0.439,0.99-0.64c0.649-0.121,1.051-0.327,1.335-0.683
			c0.52-0.652,1.522-3.209,4.799-12.247c1.458-4.021,2.712-7.463,2.785-7.649c0.181-0.454,0.781-0.754,1.226-0.613
			c0.429,0.136,0.662,0.718,4.006,10.008c3.977,11.048,4.032,11.166,5.13,11.166c0.769,0,1.122,0.186,1.122,0.59
			c0,0.344-0.221,0.359-5.032,0.359c-4.811,0-5.032-0.016-5.032-0.359c0-0.435,0.356-0.59,1.351-0.59
			c0.483,0,0.788-0.099,0.857-0.278c0.105-0.275-0.256-1.543-1.205-4.237l-0.487-1.381l-3.049,0.052l-3.049,0.052l-0.716,2.184
			c-0.394,1.201-0.719,2.416-0.722,2.699c-0.007,0.585,0.44,0.907,1.263,0.912c0.705,0.004,1.093,0.266,0.948,0.643
			C18.908,87.53,12.732,87.541,12.56,87.093z M23.889,79.141c0-0.279-1.691-5.273-2.167-6.399l-0.272-0.643l-0.225,0.57
			c-0.632,1.601-2.273,6.295-2.273,6.503c0,0.18,0.612,0.239,2.469,0.239C23.422,79.41,23.889,79.359,23.889,79.141z"/>
		<path id="XMLID_80_" d="M34.143,87.026c0-0.45,0.356-0.59,1.498-0.59c1.407,0,1.609-0.254,1.759-2.214
			c0.07-0.923,0.136-5.328,0.145-9.789l0.017-8.111l-1.659-0.055c-1.37-0.045-1.67-0.11-1.72-0.371
			c-0.034-0.178,0.089-0.358,0.283-0.412c0.189-0.053,2.089-0.124,4.222-0.159l3.879-0.063l2.677,6.646
			c1.473,3.656,2.792,6.851,2.931,7.101c0.236,0.423,0.432-0.035,2.796-6.544c1.398-3.85,2.542-7.024,2.542-7.054
			c0-0.143,7.535-0.027,7.766,0.119c0.146,0.092,0.213,0.305,0.148,0.472c-0.092,0.241-0.408,0.304-1.516,0.304h-1.399l-0.125,6.124
			c-0.069,3.368-0.125,7.897-0.126,10.065l0,3.94h1.314c1.56,0,1.914,0.109,1.914,0.59c0,0.344-0.23,0.359-5.507,0.359
			c-5.277,0-5.507-0.015-5.507-0.359c0-0.481,0.355-0.59,1.915-0.59h1.314l-0.019-7.738c-0.01-4.256-0.074-8.179-0.142-8.718
			c-0.123-0.974-0.141-0.93-3.05,7.406c-3.339,9.57-3.507,9.999-3.9,9.999c-0.159,0-0.501-0.419-0.761-0.932
			c-0.413-0.815-4.389-10.866-6.203-15.679l-0.642-1.704l-0.119,3.413c-0.065,1.877-0.129,5.608-0.142,8.289l-0.024,4.876l0.5,0.394
			c0.34,0.268,0.781,0.394,1.377,0.397c1.024,0.003,1.453,0.217,1.29,0.643c-0.102,0.265-0.608,0.304-3.921,0.304
			C34.341,87.386,34.143,87.367,34.143,87.026L34.143,87.026z"/>
		<path id="XMLID_81_" d="M63.39,87.104c-0.194-0.234-0.147-0.315,0.274-0.475c0.279-0.106,1.015-0.193,1.635-0.193h1.127V76.372
			V66.307h-1.247c-1.454,0-2.13-0.257-1.781-0.678c0.19-0.229,1.689-0.272,9.507-0.272h9.282l-0.003,3.656
			c-0.001,2.011-0.078,3.775-0.171,3.921c-0.295,0.466-0.727,0.076-1.064-0.964c-0.494-1.522-1.623-3.585-2.372-4.335
			c-0.92-0.921-1.772-1.147-4.793-1.273l-2.611-0.109v4.83v4.83l1.458-0.139c0.955-0.091,1.626-0.263,1.946-0.499
			c0.614-0.452,1.476-2.003,1.636-2.943c0.104-0.613,0.512-1.089,0.932-1.089c0.061,0,0.088,2.243,0.06,4.985
			c-0.049,4.821-0.063,4.985-0.426,4.985c-0.298,0-0.421-0.205-0.595-0.991c-0.286-1.289-0.825-2.309-1.476-2.795
			c-0.398-0.297-0.88-0.406-2.028-0.458l-1.506-0.068v4.79v4.79l2.516-0.096c1.384-0.052,2.848-0.198,3.253-0.323
			c1.578-0.486,3.149-2.57,4.478-5.94c0.45-1.142,0.832-1.389,1.026-0.665c0.063,0.235,0.116,2.115,0.117,4.178l0.003,3.75h-9.472
			C64.955,87.386,63.591,87.346,63.39,87.104L63.39,87.104z"/>
		<path id="XMLID_84_" d="M102.506,87.553c-0.664-0.264-1.676-1.273-2.1-2.095c-0.238-0.462-0.481-1.74-0.727-3.824
			c-0.22-1.86-0.497-3.376-0.683-3.736c-0.46-0.89-1.265-1.146-3.605-1.146h-2v4.842v4.842h1.219c1.466,0,1.82,0.115,1.82,0.593
			c0,0.349-0.196,0.361-5.46,0.312c-4.704-0.043-5.46-0.09-5.46-0.335c0-0.216,0.378-0.327,1.567-0.459l1.567-0.174V76.34V66.307
			l-1.377-0.003c-1.472-0.003-1.97-0.173-1.801-0.613c0.242-0.632,13.358-0.54,15.659,0.109c1.89,0.533,3.461,1.914,3.861,3.392
			c0.307,1.133,0.133,3.115-0.356,4.073c-0.359,0.704-1.797,2.157-2.134,2.157c-0.072,0-0.591,0.206-1.153,0.458l-1.021,0.458
			l0.918,0.413c1.011,0.455,2.221,1.562,2.684,2.457c0.164,0.318,0.474,1.625,0.688,2.906c0.483,2.882,0.809,3.637,1.606,3.715
			c0.782,0.077,1.201-0.426,1.588-1.904c0.249-0.954,0.386-1.191,0.686-1.191c0.332,0,0.371,0.119,0.34,1.044
			c-0.065,1.933-1.078,3.389-2.63,3.78C105.193,87.812,103.152,87.809,102.506,87.553L102.506,87.553L102.506,87.553z
			 M97.988,75.415c0.829-0.23,1.71-1.213,2.023-2.256c0.119-0.398,0.216-1.44,0.215-2.316c-0.002-1.283-0.091-1.784-0.461-2.578
			c-0.662-1.423-1.482-1.805-4.113-1.918l-2.012-0.086l-0.123,1.02c-0.067,0.561-0.123,2.665-0.124,4.676l-0.002,3.656l1.946-0.001
			C96.408,75.611,97.601,75.522,97.988,75.415L97.988,75.415z"/>
		<path id="XMLID_85_" d="M110.102,87.026c0-0.481,0.355-0.59,1.915-0.59h1.314V76.38V66.323l-1.567-0.055
			c-1.461-0.051-1.571-0.084-1.627-0.482l-0.061-0.427h5.533h5.533l-0.061,0.427c-0.056,0.395-0.17,0.431-1.532,0.483l-1.472,0.055
			V76.38v10.057h1.219c1.464,0,1.82,0.115,1.82,0.59c0,0.344-0.23,0.359-5.507,0.359C110.333,87.386,110.102,87.371,110.102,87.026z
			"/>
		<path id="XMLID_86_" d="M130.969,87.223c-3.419-1.122-6.166-3.883-7.228-7.265c-0.64-2.036-0.633-5.4,0.015-7.289
			c0.931-2.716,2.591-4.832,4.872-6.213c1.865-1.129,2.892-1.383,5.591-1.382c2.196,0.001,2.458,0.04,3.5,0.527
			c0.619,0.29,1.5,0.833,1.957,1.207c0.457,0.374,0.854,0.65,0.882,0.612c0.028-0.038,0.232-0.369,0.453-0.737
			c0.221-0.367,0.613-0.867,0.871-1.11c0.467-0.439,0.472-0.439,0.676-0.057c0.234,0.438,0.261,2.434,0.081,5.973
			c-0.158,3.097-0.424,3.176-1.398,0.417c-0.787-2.228-1.559-3.426-2.887-4.476c-1.418-1.121-2.093-1.355-3.945-1.367
			c-1.731-0.012-2.74,0.287-3.585,1.06c-0.604,0.553-1.449,2.423-1.823,4.036c-0.661,2.85-0.541,8.975,0.219,11.209
			c1.109,3.256,3.27,4.57,6.73,4.09c2.67-0.37,4.278-1.62,5.646-4.39c0.677-1.369,0.982-1.804,1.267-1.804
			c0.436,0,0.43,0.416-0.027,1.84c-0.686,2.138-2.912,4.517-4.787,5.114c-0.384,0.122-1.894,0.252-3.357,0.288
			C132.497,87.561,131.85,87.512,130.969,87.223L130.969,87.223z"/>
		<path id="XMLID_89_" d="M142.799,86.959c0.049-0.346,0.215-0.448,0.877-0.536c1.557-0.208,1.37,0.175,5.741-11.774
			c1.55-4.238,2.958-8.054,3.128-8.479c0.325-0.813,0.856-1.114,1.427-0.809c0.446,0.239,0.716,0.923,3.888,9.872
			c3.932,11.094,3.982,11.202,5.189,11.207c0.858,0.004,1.267,0.24,1.113,0.643c-0.103,0.268-0.704,0.304-5.073,0.304h-4.957
			l0.061-0.427c0.051-0.362,0.205-0.442,1.01-0.522c0.847-0.085,0.954-0.146,0.988-0.57c0.021-0.261-0.321-1.543-0.76-2.848
			l-0.798-2.374l-3.074-0.052l-3.074-0.052l-0.771,2.37c-0.424,1.304-0.771,2.542-0.771,2.751c0,0.47,0.532,0.773,1.364,0.777
			c0.8,0.004,1.151,0.225,0.996,0.629c-0.107,0.279-0.509,0.317-3.343,0.317h-3.221L142.799,86.959L142.799,86.959z M154.158,79.268
			c-0.001-0.214-2.214-6.423-2.42-6.792c-0.142-0.254-0.287-0.033-0.704,1.076c-0.498,1.325-2.002,5.682-2.002,5.802
			c0,0.031,1.154,0.056,2.564,0.056C153.005,79.41,154.158,79.346,154.158,79.268z"/>
		<path id="XMLID_90_" d="M182.115,87.236c-0.284-0.306-3.246-4.328-6.583-8.938c-3.337-4.61-6.135-8.383-6.219-8.383
			c-0.084,0-0.152,3.548-0.152,7.884v7.884l0.617,0.376c0.339,0.207,0.874,0.378,1.187,0.38c0.946,0.006,1.424,0.205,1.424,0.594
			c0,0.345-0.171,0.359-3.751,0.31c-3.607-0.05-3.75-0.066-3.75-0.431c0-0.326,0.146-0.388,1.031-0.438
			c0.656-0.037,1.228-0.199,1.574-0.445l0.543-0.387l-0.055-8.892l-0.055-8.892l-0.475-0.507c-0.633-0.677-1.019-0.866-2.064-1.016
			c-0.708-0.101-0.879-0.199-0.879-0.503c0-0.358,0.185-0.385,3.593-0.531l3.593-0.153l0.423,0.438
			c0.233,0.241,2.632,3.513,5.332,7.271l4.909,6.833l0.05-6.248c0.05-6.199,0.047-6.251-0.365-6.69
			c-0.332-0.353-0.614-0.442-1.404-0.442c-1.062,0-1.586-0.322-1.182-0.726c0.304-0.304,7.007-0.314,7.311-0.01
			c0.452,0.452,0.037,0.736-1.074,0.736c-0.888,0-1.161,0.08-1.497,0.438c-0.41,0.436-0.411,0.471-0.46,10.682l-0.049,10.244
			l-0.529,0.061C182.771,87.776,182.493,87.644,182.115,87.236L182.115,87.236z"/>
	</g>
</g>
<g id="Layer_2">
</g>
</svg>
