<?xml version="1.0" encoding="utf-8"?>
<!-- Generator: Adobe Illustrator 21.0.2, SVG Export Plug-In . SVG Version: 6.00 Build 0)  -->
<svg version="1.1" xmlns="http://www.w3.org/2000/svg" xmlns:xlink="http://www.w3.org/1999/xlink" x="0px" y="0px"
	 viewBox="0 0 200 125" enable-background="new 0 0 200 125" xml:space="preserve">
<g id="Layer_1">
	<g>
		<path fill="#FF2B06" d="M30.221,47.09H12.5V30.884h54.905V47.09H49.69v47.026h-19.47V47.09z"/>
		<path fill="#FF2B06" d="M70.431,30.884h53.299V47.09H89.913v7.88h33.816v15.06H89.913v7.88h33.826v16.206H70.431V30.884z"/>
		<path fill="#FF2B06" d="M127.008,30.884h31.97c21.074,0,28.522,15.587,28.522,31.524c0,19.401-10.273,31.709-32.326,31.709
			h-28.166V30.884z M146.489,77.911h7.619c12.136,0,13.91-9.834,13.91-15.774c0-3.978-1.246-15.046-15.329-15.046h-6.2V77.911z"/>
	</g>
</g>
<g id="Layer_2">
</g>
</svg>
