<?xml version="1.0" encoding="utf-8"?>
<!-- Generator: Adobe Illustrator 21.0.2, SVG Export Plug-In . SVG Version: 6.00 Build 0)  -->
<svg version="1.1" xmlns="http://www.w3.org/2000/svg" xmlns:xlink="http://www.w3.org/1999/xlink" x="0px" y="0px"
	 viewBox="0 0 200 125" enable-background="new 0 0 200 125" xml:space="preserve">
<g id="Layer_1">
	<g>
		<rect x="12.5" y="25.854" fill="#1A1A1A" width="175" height="80.292"/>
		<path fill="#265392" d="M77.275,63.83c-0.279,0.423-0.463,0.827-0.757,1.119c-0.51,0.51-1.091,1.012-1.887,0.742
			c-0.986-0.335-1.52-1.099-1.698-2.108c-0.02-0.166,0.025-0.334,0.127-0.466c0.352-0.412,0.688-0.864,1.12-1.175
			c0.663-0.477,0.809-0.398,1.383,0.162c0.331,0.322,0.756,0.548,1.091,0.868C76.88,63.196,77.043,63.505,77.275,63.83z"/>
		<path fill="#265392" d="M94.052,64.397c0.855,0.041,1.885,0.847,2.107,1.687c0.045,0.209,0.028,0.427-0.047,0.627
			c-0.254,0.699-0.785,1.262-1.468,1.557c-0.482,0.222-0.914,0.103-1.254-0.293c-0.398-0.465-0.812-0.918-1.211-1.381
			c-0.077-0.083-0.126-0.188-0.14-0.301C92.015,65.564,93.3,64.36,94.052,64.397z"/>
		<path fill="#2B6FA5" d="M82.546,42.788c0.073-0.689,0.09-1.274,0.737-1.543c0.751-0.317,1.505-0.376,2.195,0.099
			c0.588,0.405,0.656,2.117,0.104,2.582c-0.199,0.167-0.543,0.226-0.819,0.223c-0.497-0.009-0.992-0.063-1.48-0.162
			c-0.211-0.045-0.395-0.174-0.51-0.357C82.63,43.338,82.597,42.997,82.546,42.788z"/>
		<path fill="#265392" d="M72.916,44.61c0.013-0.944,1.244-1.886,2.146-1.587c0.227,0.075,0.452,0.382,0.528,0.637
			c0.136,0.511,0.231,1.031,0.283,1.557c0.005,0.158-0.034,0.315-0.112,0.452c-0.065,0.098-0.152,0.179-0.255,0.237
			c-0.529,0.382-1.101,0.674-1.756,0.424C73.288,46.147,72.907,45.27,72.916,44.61z"/>
		<path fill="#265392" d="M48.637,52.072c-0.205,0.027-0.534,0.066-0.862,0.112c-0.496,0.069-0.865-0.127-1.032-0.585
			c-0.129-0.341-0.202-0.7-0.214-1.064c-0.011-0.972,0.528-1.434,1.491-1.3c1.467,0.205,1.824,1.147,1.548,2.511
			C49.469,52.226,49.09,52.108,48.637,52.072z"/>
		<path fill="#2B6FA5" d="M65.104,49.43c-0.082-0.013-0.296-0.041-0.51-0.079c-0.382-0.069-0.51-0.275-0.46-0.674
			c0.024-0.38,0.014-0.76-0.032-1.138c-0.04-0.584,0.161-0.934,0.728-1.082c0.366-0.102,0.747-0.142,1.127-0.12
			c0.816,0.064,1.162,0.521,1.099,1.342C66.965,48.831,66.366,49.407,65.104,49.43z"/>
		<path fill="#265392" d="M68.693,48.729c0.127-0.703,0.454-1.285,1.068-1.676c0.409-0.255,0.802-0.076,1.116,0.155
			c1.351,0.995,1.206,2.173,0,3.171c-0.108,0.09-0.4,0.057-0.552-0.022c-0.382-0.201-0.712-0.483-1.088-0.693
			C68.885,49.489,68.672,49.121,68.693,48.729z"/>
		<path fill="#2B6FA5" d="M80.665,51.384c-1.074,0-1.968-1.056-1.761-2.116c0.057-0.158,0.177-0.285,0.331-0.35
			c0.393-0.172,0.812-0.284,1.208-0.45c0.51-0.213,0.892-0.139,1.234,0.298c0.127,0.156,0.233,0.327,0.317,0.51
			C82.598,50.633,82.079,51.291,80.665,51.384z"/>
		<path fill="#2B6FA5" d="M28.216,61.857c0-1.02,0.486-1.445,1.489-1.248c0.34,0.073,0.664,0.205,0.958,0.391
			c0.372,0.231,0.498,0.591,0.37,1.037c-0.115,0.398-0.159,0.817-0.299,1.204c-0.064,0.176-0.279,0.417-0.432,0.421
			C29.126,63.696,28.197,63.264,28.216,61.857z"/>
		<path fill="#265392" d="M97.022,60.78l0.149,0.009c0.728,0.059,1.417,0.51,1.545,1c0.135,0.525-0.28,1.474-0.802,1.835
			c-0.328,0.227-0.644,0.203-0.971-0.015c-0.371-0.247-0.758-0.469-1.13-0.714c-0.098-0.058-0.175-0.145-0.222-0.249
			C95.359,61.933,96.26,60.762,97.022,60.78z"/>
		<path fill="#265392" d="M91.83,52.807c0,0.765-0.689,1.705-1.258,1.828c-0.178,0.024-0.36,0.001-0.526-0.068
			c-0.679-0.245-1.155-0.746-1.217-1.441c-0.062-0.696,0.401-1.243,0.998-1.606c0.112-0.069,0.345-0.031,0.477,0.042
			c0.377,0.204,0.737,0.439,1.074,0.703C91.549,52.427,91.701,52.609,91.83,52.807z"/>
		<path fill="#265392" d="M38.828,55.317c0.189-0.119,0.427-0.126,0.623-0.019c0.401,0.204,0.787,0.436,1.156,0.693
			c0.175,0.127,0.282,0.469,0.273,0.707c-0.031,0.495-0.107,0.985-0.228,1.466c-0.023,0.101-0.241,0.233-0.358,0.224
			c-1.432-0.107-2.238-1.048-1.998-2.485C38.332,55.668,38.603,55.459,38.828,55.317z"/>
		<path fill="#2B6FA5" d="M38.401,63.78c-0.349-0.09-0.689-0.208-1.02-0.352c-0.497-0.245-0.605-0.586-0.334-1.074
			c0.706-1.274,1.84-1.474,3.029-0.707c0.219,0.141,0.255,0.308,0.097,0.545c-0.192,0.289-0.359,0.594-0.498,0.912
			C39.472,63.584,39.114,63.78,38.401,63.78z"/>
		<path fill="#265392" d="M43.071,50.618c0.715,0,1.417,0.358,1.552,0.797c0.149,0.483-0.312,1.506-0.892,1.771
			c-0.246,0.113-0.613,0.082-0.884-0.008c-0.386-0.148-0.754-0.338-1.097-0.567c-0.116-0.078-0.195-0.201-0.218-0.339
			C41.48,51.505,42.312,50.622,43.071,50.618z"/>
		<path fill="#2B6FA5" d="M59.969,50.817c-0.224-0.502-0.497-0.99-0.659-1.513c-0.12-0.382,0.127-0.67,0.528-0.758
			c1.05-0.232,2.117,0.101,2.46,1.463c0.048,0.192,0.062,0.393,0.092,0.589C61.985,51.019,60.533,51.151,59.969,50.817z"/>
		<path fill="#265392" d="M59.969,50.817c0.565,0.334,2.016,0.203,2.421-0.219c0.273,0.305,0.568,0.594,0.812,0.921
			c0.175,0.233,0.127,0.435-0.186,0.579c-0.309,0.155-0.602,0.342-0.873,0.558c-0.361,0.264-0.737,0.308-1.113,0.082
			c-0.268-0.163-0.516-0.356-0.74-0.576C59.908,51.789,59.751,51.343,59.969,50.817z"/>
		<path fill="#2B6FA5" d="M35.079,62.661c-0.114,0.056-0.244,0.071-0.368,0.042c-0.674-0.157-1.246-0.933-1.125-1.432
			c0.033-0.145,0.119-0.273,0.241-0.358c0.405-0.223,0.828-0.41,1.249-0.604c0.061-0.021,0.127-0.021,0.189,0
			c0.771,0.233,1.082,1.408,0.487,1.942C35.546,62.418,35.32,62.556,35.079,62.661z"/>
		<path fill="#FFFFFF" d="M86.862,69.92c0.318,0.715,0.635,1.431,0.951,2.146c0.056,0.127,0.103,0.255,0.164,0.417l-0.315,0.127
			c-0.152-0.32-0.297-0.619-0.436-0.923c-0.544-1.193-1.093-2.383-1.626-3.581c-0.094-0.256-0.316-0.443-0.585-0.491
			c-1.359-0.305-2.711-0.626-4.055-0.963c-0.229-0.072-0.478-0.042-0.683,0.083c-0.231,0.14-0.458,0.287-0.735,0.461l0.654,0.605
			c0.212,0.195,0.427,0.382,0.637,0.582c0.14,0.127,0.283,0.255,0.412,0.4c0.047,0.052,0.042,0.133-0.01,0.18
			c-0.041,0.037-0.101,0.043-0.149,0.015c-0.091-0.064-0.177-0.137-0.255-0.217c-0.414-0.382-0.826-0.757-1.241-1.132
			c-0.283-0.255-0.296-0.255-0.619-0.055c-1.066,0.68-2.13,1.359-3.192,2.039c-1.634,1.046-3.265,2.089-4.887,3.141
			c-0.238,0.16-0.455,0.349-0.645,0.563c-0.593,0.65-1.158,1.325-1.756,1.97c-0.307,0.333-2.602,3.336-3.013,3.804
			c-0.102,0.139-0.165,0.304-0.181,0.477c-0.029,0.204,0.008,0.415,0,0.623c-0.054,0.877,0.12,8.895,0.185,9.756
			c0.01,0.42,0.177,0.82,0.468,1.123c0.51,0.51,1.02,1.02,1.536,1.518c0.107,0.092,0.22,0.177,0.338,0.255
			c-0.11,0.05-0.226,0.088-0.344,0.113c-0.367,0.013-0.735,0.018-1.104,0.019c-0.563-0.005-1.125,0.023-1.685,0.084
			c-0.892,0.121-1.458,0.585-2.258,0.941c-0.125,0.049-0.253,0.092-0.382,0.127c0.014-0.231,0.014-0.462,0-0.693
			c-0.042-0.208-0.099-0.412-0.171-0.612c-0.218-0.032-0.5-0.075-0.782-0.112c-0.255-0.034-0.534,0.043-0.831-0.092
			c0.098-0.104,0.164-0.19,0.245-0.255c0.382-0.336,0.772-0.673,1.164-1.002c0.809-0.672,1.328-1.631,1.446-2.676
			c0.127-0.997,0.255-1.996,0.372-2.994c0-0.047,0.01-0.096,0.011-0.144c0.037-1.374,0.106-2.749,0.094-4.123
			c0-0.566-0.173-1.132-0.293-1.692c-0.032-0.148-0.155-0.275-0.237-0.413c-0.292-0.494-0.581-0.99-0.877-1.482
			c-0.091-0.15-0.19-0.296-0.296-0.436c-1.11-1.487-2.225-2.969-3.327-4.46c-0.165-0.234-0.402-0.408-0.675-0.493
			c-2.81-0.916-5.616-1.847-8.426-2.762c-0.226-0.075-0.464-0.108-0.702-0.099c-0.717,0.034-1.434,0.108-2.151,0.153
			c-0.798,0.048-1.596,0.09-2.395,0.119c-0.512-0.004-1.014,0.146-1.44,0.431c-0.734,0.51-1.494,0.988-2.251,1.467
			c-0.219,0.132-0.381,0.341-0.454,0.586c-0.382,1.171-0.765,2.339-1.164,3.503c-0.076,0.21-0.082,0.438-0.015,0.651
			c0.185,0.628,0.352,1.262,0.523,1.894c0.037,0.136,0.061,0.275,0.102,0.463c-0.213,0.05-0.147,0.093-0.382,0.147
			c-0.12-0.414-0.227-0.78-0.331-1.147c-0.089-0.312-0.155-0.594-0.274-0.969c-0.085-0.271-0.382-0.308-0.67-0.233
			c-0.306,0.082-0.604,0.19-0.892,0.321c-0.283,0.127-0.538,0.317-0.821,0.431c-0.144-0.214-0.02-0.285,0.088-0.348
			c0.373-0.217,0.749-0.429,1.128-0.637c0.779-0.424,0.781-0.422,1.053-1.241c0.302-0.91,0.599-1.821,0.892-2.732
			c0.043-0.127,0.074-0.27,0.117-0.432c-0.101-0.026-0.204-0.045-0.307-0.057c-0.208-0.008-0.415,0-0.624,0
			c-0.352,0-0.716,0.052-1.053-0.02c-0.316-0.068-0.603-0.269-0.941-0.428c-0.596,0.338-1.206,0.725-1.852,1.035
			c-0.524,0.255-0.78,0.621-0.924,1.174c-0.291,1.113-0.649,2.207-0.983,3.313c-0.095,0.255-0.11,0.533-0.045,0.797
			c0.071,0.294,0.122,0.592,0.153,0.892c-0.002,0.1-0.013,0.2-0.034,0.298c-0.108-0.116-0.199-0.168-0.213-0.236
			c-0.089-0.422-0.172-0.845-0.232-1.274c-0.007-0.143,0.015-0.285,0.065-0.419c0.25-0.859,0.505-1.717,0.765-2.573
			c0.078-0.211,0.078-0.444,0-0.655c-0.056-0.151-0.194-0.256-0.354-0.27c-0.737-0.139-1.482-0.187-2.226-0.255
			c-0.488-0.043-0.948-0.017-1.376,0.273c-0.3,0.184-0.61,0.351-0.928,0.501c-0.115,0.06-0.217,0.066-0.264-0.152l1.784-0.99
			l-1.181-1.491l0.066-0.071c0.071,0.033,0.136,0.076,0.195,0.127c0.349,0.416,0.695,0.836,1.036,1.26
			c0.12,0.172,0.315,0.277,0.525,0.282c0.926,0.027,1.853,0.069,2.779,0.102c0.094,0,0.19-0.011,0.307-0.019
			c0.093-0.352,0.353-0.534,0.659-0.697c0.663-0.353,1.308-0.737,2.001-1.13c-0.08-0.079-0.165-0.154-0.255-0.222
			c-0.819-0.529-1.627-1.078-2.469-1.569c-0.364-0.213-0.795-0.32-1.208-0.433c-0.127-0.037-0.31,0.045-0.456,0.101
			c-1.181,0.446-2.36,0.9-3.539,1.35c-0.146,0.066-0.296,0.12-0.45,0.163c-0.135,0.038-0.277,0.038-0.412,0
			c-0.711-0.285-1.415-0.593-2.119-0.892c-0.024-0.01-0.036-0.05-0.08-0.115c0.071-0.038,0.147-0.115,0.204-0.103
			c0.139,0.034,0.275,0.083,0.404,0.145c0.501,0.21,1.002,0.422,1.503,0.637c0.157,0.085,0.342,0.099,0.51,0.038
			c1.346-0.533,2.692-1.042,4.037-1.552c0.077-0.038,0.151-0.08,0.223-0.127c-0.076-0.149-0.127-0.278-0.205-0.398
			c-0.552-0.918-1.113-1.831-1.657-2.754c-0.099-0.183-0.261-0.323-0.456-0.395c-0.255-0.096-0.502-0.206-0.753-0.312
			c-0.092-0.027-0.178-0.07-0.255-0.127c-0.057-0.064-0.084-0.149-0.076-0.234c0-0.04,0.127-0.101,0.189-0.088
			c0.154,0.043,0.304,0.098,0.449,0.164c0.226,0.111,0.484,0.135,0.726,0.066c0.024-0.103,0.038-0.207,0.042-0.312
			c-0.02-0.479-0.05-0.957-0.076-1.436c0-0.032-0.006-0.064-0.006-0.096c0-0.148-0.008-0.308,0.203-0.308
			c0.178,0,0.185,0.145,0.194,0.274c0.033,0.51,0.111,1.02,0.084,1.529c-0.038,0.676,0.17,1.344,0.586,1.878
			c0.452,0.619,0.862,1.274,1.268,1.922c0.287,0.448,0.731,0.774,1.245,0.912c0.794,0.243,1.603,0.433,2.406,0.647
			c0.231,0.079,0.487,0.039,0.683-0.107c0.025-0.02,0.052-0.037,0.08-0.052c0.804-0.4,1.509-0.973,2.063-1.68
			c0.302-0.389,0.65-0.743,0.983-1.118c-0.433-0.185-0.924-0.068-1.356-0.311c0.135-0.224,0.307-0.166,0.452-0.15
			c0.302,0.026,0.602,0.069,0.9,0.127c0.155,0.05,0.324-0.004,0.422-0.134c0.37-0.421,0.743-0.837,1.121-1.25
			c0.128-0.126,0.158-0.321,0.076-0.48c-0.122-0.296-0.222-0.6-0.299-0.91c-0.185-0.828-0.752-1.253-1.506-1.509
			c-1.331-0.452-2.661-0.91-3.989-1.374c-0.284-0.106-0.595-0.116-0.886-0.031c-2.786,0.774-5.576,1.529-8.364,2.294
			c-0.136,0.046-0.276,0.08-0.418,0.103c-0.089-0.012-0.176-0.041-0.255-0.084c0.139-0.232,0.35-0.227,0.523-0.274
			c1.817-0.502,3.636-0.995,5.454-1.492c1.002-0.274,2.003-0.544,3.003-0.83c0.349-0.099,0.682-0.139,1.02,0.038
			c0.147,0.057,0.298,0.102,0.452,0.135c-0.141-0.148-0.209-0.229-0.285-0.298c-0.963-0.867-1.929-1.731-2.895-2.593
			c-0.135-0.111-0.284-0.205-0.443-0.278c-0.673-0.335-1.351-0.66-2.025-0.991c-0.147-0.071-0.338-0.112-0.324-0.412
			c0.51,0.15,0.932,0.395,1.367,0.604c0.436,0.209,0.892,0.433,1.389,0.678c0.014-0.169,0.033-0.302,0.036-0.435
			c0-0.288,0-0.576,0.008-0.864c0.016-0.099,0.045-0.194,0.087-0.285c0.232,0.02,0.209,0.169,0.212,0.289c0,0.4,0.015,0.8,0,1.199
			c-0.02,0.24,0.08,0.475,0.268,0.627c1.053,0.934,2.091,1.885,3.148,2.815c0.194,0.167,0.416,0.296,0.656,0.382
			c0.749,0.273,1.509,0.517,2.326,0.794c-0.036-0.263-0.062-0.478-0.094-0.691c-0.105-0.711-0.213-1.421-0.315-2.132
			c-0.091-0.591-0.392-1.129-0.847-1.517c-0.617-0.558-1.246-1.101-1.871-1.657c-0.15-0.144-0.308-0.28-0.472-0.408
			c-0.288-0.207-0.469-0.531-0.494-0.884c-0.088-0.681-0.205-1.357-0.303-2.039c-0.012-0.115,0.023-0.23,0.098-0.319
			c0.045,0.11,0.08,0.223,0.107,0.339c0.107,0.695,0.206,1.389,0.306,2.085c0.015,0.209,0.109,0.404,0.263,0.547
			c0.765,0.659,1.52,1.323,2.282,1.983c0.062,0.049,0.129,0.091,0.199,0.127c0.287-0.336,0.557-0.646,0.817-0.965
			c0.088-0.114,0.163-0.237,0.224-0.367c0.465-0.929,0.921-1.863,1.393-2.79c0.122-0.224,0.16-0.485,0.107-0.735
			c-0.093-0.468-0.148-0.942-0.218-1.402c0.319-0.12,0.348-0.116,0.39,0.117c0.094,0.534,0.186,1.071,0.249,1.608
			c-0.002,0.157-0.046,0.311-0.127,0.446c-0.493,1.006-0.977,2.015-1.5,3.004c-0.221,0.444-0.331,0.936-0.32,1.432
			c0.005,0.494,0.044,0.987,0.119,1.476c0.098,0.743,0.255,1.481,0.33,2.225c0.041,0.408,0.255,0.614,0.622,0.823
			c-0.27-0.753-0.145-1.474-0.161-2.187c0.005-0.335-0.06-0.667-0.19-0.976c-0.15-0.335-0.282-0.679-0.409-1.02
			c-0.026-0.129-0.038-0.261-0.036-0.393c0.367,0.255,0.382,0.579,0.502,0.833c0.12,0.255,0.22,0.526,0.342,0.821
			c0.528-0.329,0.919-0.793,1.492-1.02c-0.048,0.07-0.102,0.136-0.162,0.196c-0.32,0.266-0.637,0.533-0.97,0.785
			c-0.187,0.129-0.291,0.348-0.273,0.575c0.013,0.528-0.036,1.06,0.018,1.583c0.042,0.405,0.194,0.802,0.312,1.197
			c0.041,0.087,0.105,0.16,0.185,0.214c1.02,0.855,2.039,1.707,3.059,2.558c0.071,0.06,0.154,0.106,0.234,0.161
			c0.167-0.139,0.254-0.351,0.233-0.567c0-0.832,0.011-1.664-0.008-2.495c-0.022-0.254-0.076-0.505-0.159-0.746
			c-0.184-0.645-0.382-1.286-0.567-1.932c-0.071-0.255-0.057-0.255,0.321-0.364c0.052,0.14,0.115,0.283,0.161,0.429
			c0.154,0.51,0.301,1.011,0.456,1.514c0.036,0.117,0.094,0.227,0.164,0.394c0.164-0.082,0.323-0.175,0.475-0.278
			c0.528-0.415,1.046-0.842,1.569-1.264c0.147-0.119,0.298-0.232,0.474-0.367L48,60.101l-1.387,1.155
			c-0.344,0.287-0.681,0.582-1.036,0.855c-0.186,0.129-0.289,0.347-0.271,0.572c0.013,0.637,0,1.274,0.008,1.919
			c0.008,0.359-0.025,0.701-0.226,1.012c-0.031,0.07-0.053,0.143-0.066,0.218c0.12,0.113,0.24,0.238,0.371,0.35
			c0.965,0.816,1.935,1.626,2.894,2.447c0.171,0.17,0.408,0.257,0.649,0.237c0.143-0.013,0.287,0.004,0.423,0.048
			c0.953,0.321,1.931,0.557,2.898,0.832c1.042,0.296,2.059,0.688,3.08,1.062c0.886,0.324,1.768,0.651,2.704,0.802
			c0.064,0.004,0.128,0.004,0.192,0c0.013-0.732-0.082-3.765-0.167-4.229c-0.246-1.334-0.454-2.676-0.707-4.009
			c-0.103-0.451-0.235-0.896-0.395-1.33c-0.153-0.469-0.324-0.932-0.501-1.438l-0.867,0.245c-0.045,0.244-0.077,0.49-0.097,0.738
			c-0.015,0.464,0,0.928-0.006,1.392c0,0.134-0.025,0.268-0.04,0.401l-0.112,0.018c-0.046-0.082-0.078-0.171-0.096-0.264
			c-0.01-0.496,0-0.991-0.008-1.487c0-0.521-0.073-0.617-0.596-0.661c-0.524-0.045-1.086-0.04-1.629-0.062
			c-0.163-0.012-0.318,0.076-0.391,0.222c-0.082,0.127-0.178,0.255-0.316,0.45c-0.05-0.148-0.115-0.238-0.093-0.294
			c0.075-0.163,0.16-0.322,0.255-0.474c-0.145-0.366-0.452-0.613-0.67-0.923c-0.092-0.111-0.177-0.227-0.255-0.348
			c-0.02-0.04,0.043-0.127,0.098-0.264c0.271,0.298,0.526,0.609,0.765,0.933c0.214,0.322,0.48,0.417,0.849,0.401
			c0.607-0.024,1.216-0.011,1.824,0c0.421-0.014,0.833-0.118,1.209-0.307c-0.002-0.081-0.012-0.162-0.029-0.241
			c-0.354-1.027-0.707-2.054-1.072-3.079c-0.063-0.182-0.152-0.354-0.265-0.51c-0.723-0.977-1.458-1.946-2.183-2.921
			c-0.121-0.188-0.315-0.318-0.535-0.358c-0.519-0.092-1.02-0.27-1.546-0.321c-0.54-0.054-1.073-0.14-1.61-0.212
			c-0.595-0.08-1.171,0.119-1.751,0.222c-0.739,0.127-1.473,0.287-2.21,0.427c-0.149,0.028-0.302,0.036-0.442,0.052
			c-0.068-0.212,0.031-0.255,0.15-0.279c0.47-0.094,0.94-0.188,1.41-0.28c0.658-0.127,1.318-0.249,1.974-0.382
			c0.693-0.147,0.711-0.187,0.563-0.858c-0.093-0.425-0.183-0.847-0.268-1.265c-0.014-0.101-0.023-0.202-0.025-0.303l0.454-0.139
			c0.053,0.115,0.099,0.233,0.136,0.354c0.076,0.326,0.14,0.656,0.209,0.984c0.11,0.519,0.39,0.845,0.939,0.953
			c0.751,0.148,1.492,0.344,2.239,0.51c0.13,0.021,0.26,0.035,0.391,0.042c0.082-1.036,0.167-2.031,0.117-3.059
			c-0.599-0.15-1.169-0.297-1.741-0.436c-0.572-0.139-1.147-0.275-1.726-0.409c-0.239-0.04-0.443-0.194-0.548-0.413
			c-0.212-0.431-0.451-0.846-0.677-1.274c-0.061-0.116-0.127-0.237,0.108-0.326c0.078,0.121,0.167,0.246,0.242,0.382
			c0.186,0.34,0.368,0.68,0.545,1.02c0.08,0.174,0.24,0.299,0.428,0.335c0.84,0.194,1.673,0.415,2.513,0.616
			c0.197,0.03,0.395,0.045,0.594,0.047l-0.947-1.539c-0.15-0.245-0.319-0.482-0.452-0.735c-0.363-0.691-0.882-1.25-1.454-1.769
			c-0.097-0.088-0.296-0.198-0.173-0.339c0.171-0.196,0.275,0.051,0.371,0.143c0.407,0.395,0.799,0.804,1.169,1.181
			c-0.127-0.67-0.396-1.369-0.394-2.147c0.06,0.054,0.15,0.097,0.175,0.164c0.069,0.196,0.127,0.395,0.173,0.598
			c0.112,0.45,0.241,0.892,0.325,1.351c0.146,0.723,0.447,1.405,0.882,2.001c0.199,0.287,0.372,0.59,0.598,0.952
			c0-1.037,0-1.997,0-2.955c0-0.228-0.117-0.39-0.222-0.568c-0.064-0.11-0.217-0.22-0.022-0.395l0.389,0.312l0.754-0.946
			c0.192,0.036,0.218,0.127,0.136,0.245c-0.155,0.223-0.315,0.444-0.488,0.654c-0.177,0.208-0.269,0.475-0.255,0.748
			c0.017,0.608,0,1.216,0.006,1.824c0,0.127,0.019,0.249,0.034,0.436c0.159-0.147,0.277-0.247,0.382-0.357
			c0.238-0.237,0.474-0.477,0.71-0.716c0.576-0.584,0.575-0.584,0.678-1.402c0.036-0.285,0.074-0.57,0.119-0.854
			c0.019-0.121,0.029-0.255,0.238-0.294c0.035,0.095,0.055,0.195,0.059,0.296c-0.08,0.553-0.161,1.106-0.273,1.657
			c-0.045,0.166-0.133,0.316-0.255,0.437c-0.451,0.475-0.92,0.934-1.38,1.402c-0.31,0.315-0.382,0.669-0.171,1.039
			c0.637,1.106,1.301,2.202,1.956,3.301c0.014,0.024,0.051,0.036,0.106,0.073l1.625-1.373c-0.46-0.432-1.02-0.689-1.5-1.203
			c0.172-0.009,0.271-0.047,0.324-0.013c0.294,0.192,0.577,0.401,0.864,0.605l0.54,0.382c0.514-0.376,0.999-0.789,1.453-1.235
			c0.083-0.116,0.133-0.253,0.144-0.395c0.164-0.863,0.32-1.727,0.478-2.591c0.025-0.135,0-0.298,0.234-0.35
			c0.024,0.078,0.082,0.163,0.069,0.236c-0.166,0.943-0.353,1.882-0.51,2.828c-0.04,0.269-0.186,0.511-0.404,0.673
			c-0.312,0.255-0.613,0.51-0.92,0.765c-0.084,0.07-0.176,0.127-0.308,0.234c0.303,0.223,0.543,0.401,0.786,0.577
			c0.262,0.211,0.536,0.405,0.822,0.581c0.403,0.222,0.517,0.572,0.556,0.985c0.033,0.366,0.071,0.732,0.119,1.096
			c0.025,0.132,0.059,0.263,0.101,0.391c0.242-0.026,0.469-0.131,0.645-0.301c0.667-0.598,1.332-1.198,1.987-1.81
			c0.097-0.1,0.158-0.23,0.175-0.368c0.016-0.273,0.019-0.546,0.008-0.819c-0.756,0.212-1.402,0.585-2.127,0.726
			c0.255-0.284,0.626-0.353,0.952-0.494c0.326-0.141,0.637-0.266,1.02-0.426c-0.892-0.521-1.796-0.876-2.613-1.361
			c0.056-0.215,0.162-0.199,0.274-0.144c0.316,0.154,0.637,0.311,0.947,0.466l1.476,0.73c0.116-0.226,0.075-0.435,0.068-0.637
			c-0.018-0.258,0.075-0.512,0.255-0.698c0.152-0.164,0.278-0.353,0.436-0.51c0.042-0.042,0.175-0.029,0.242,0
			c0.036,0.018,0.056,0.152,0.027,0.203c-0.076,0.141-0.172,0.269-0.285,0.382c-0.249,0.234-0.368,0.575-0.317,0.912
			c0.014,0.141,0,0.285,0,0.473c0.246,0.045,0.475,0.097,0.707,0.127c0.744,0.098,1.489,0.187,2.233,0.282
			c0.382,0.048,0.51,0.037,0.795-0.096c-0.083-0.431-0.17-0.867-0.249-1.304c-0.015-0.147-0.121-0.268-0.265-0.303
			c-0.184-0.054-0.368-0.105-0.549-0.167c-0.064-0.022-0.119-0.074-0.148-0.199l0.855,0.168c-0.136-0.728-0.28-1.411-0.389-2.098
			c-0.062-0.426-0.248-0.825-0.534-1.147c-0.431-0.493-0.826-1.02-1.234-1.529c-0.076-0.097-0.175-0.199,0.006-0.367
			c0.354,0.298,0.591,0.693,0.883,1.036c0.292,0.343,0.562,0.696,0.892,1.111l0.192-0.912c0.025-0.119,0-0.302,0.18-0.282
			c0.18,0.02,0.11,0.19,0.089,0.308c-0.027,0.222-0.066,0.443-0.119,0.66c-0.21,0.724-0.025,1.425,0.107,2.13
			c0.056,0.298,0.127,0.594,0.171,0.892c0.012,0.213,0.172,0.388,0.382,0.421c0.754,0.203,1.504,0.424,2.327,0.66
			c-0.06-0.145-0.092-0.242-0.138-0.331c-0.213-0.412-0.429-0.822-0.644-1.234c-0.059-0.113-0.127-0.231,0.08-0.344
			c0.075,0.093,0.144,0.19,0.206,0.292c0.336,0.637,0.678,1.274,0.995,1.912c0.116,0.246,0.325,0.436,0.581,0.528
			c0.622,0.245,1.236,0.51,1.847,0.765c0.303-0.326,0.328-0.637,0.15-1.027c-0.394-0.856-0.743-1.733-1.124-2.596
			c-0.137-0.271-0.17-0.582-0.093-0.876c0.127-0.446,0.198-0.905,0.312-1.353c0.034-0.127,0.022-0.334,0.265-0.357
			c0.103,0.176,0.033,0.343,0,0.51c-0.094,0.437-0.21,0.869-0.293,1.309c-0.04,0.168-0.034,0.345,0.018,0.51
			c0.338,0.828,0.701,1.648,1.058,2.469c0.038,0.066,0.08,0.129,0.127,0.189c0.119-0.033,0.234-0.079,0.343-0.136
			c0.51-0.35,1.02-0.716,1.537-1.067c0.219-0.149,0.19-0.334,0.145-0.549c-0.198-0.953-0.382-1.912-0.571-2.865
			c-0.019-0.106-0.014-0.214,0.015-0.317c0.255,0.314,0.231,0.705,0.322,1.06c0.099,0.382,0.153,0.784,0.231,1.175
			s0.155,0.744,0.241,1.147c0.067-0.018,0.132-0.043,0.194-0.075c0.561-0.398,1.123-0.795,1.678-1.199
			c0.27-0.196,0.314-0.356,0.175-0.656c-0.078-0.158-0.169-0.309-0.27-0.452c-0.69-1.039-1.381-2.078-2.075-3.116
			c-0.097-0.145-0.189-0.294-0.307-0.479l0.404-0.328c0.107,0.134,0.201,0.237,0.278,0.35c0.553,0.823,1.097,1.657,1.657,2.471
			c0.121,0.187,0.272,0.353,0.446,0.492c0.498,0.371,0.999,0.28,1.365-0.231c0.366-0.511,0.684-1.006,1.049-1.491
			c0.273-0.355,0.458-0.769,0.54-1.208c0.127-0.674,0.301-1.339,0.46-2.008c0.032-0.139,0.075-0.274,0.127-0.407
			c0.011-0.028,0.083-0.051,0.12-0.043c0.037,0.008,0.09,0.056,0.093,0.089c0.002,0.079-0.008,0.157-0.028,0.233
			c-0.2,0.892-0.394,1.778-0.612,2.661c-0.06,0.198-0.154,0.384-0.279,0.549c-0.683,0.986-1.369,1.97-2.067,2.945
			c-0.207,0.255-0.283,0.593-0.204,0.912c0.418-0.603,0.809-1.171,1.206-1.736s0.808-1.147,1.222-1.722
			c0.414-0.575,0.782-1.147,1.291-1.761c0.034,0.302-0.098,0.407-0.184,0.528c-1.113,1.584-2.228,3.166-3.345,4.746
			c-0.153,0.204-0.234,0.453-0.228,0.709c0.011,0.847,0,1.696,0,2.549c0,0.223-0.01,0.452,0.234,0.637
			c0.213-0.089,0.447-0.182,0.677-0.285c1.195-0.538,2.392-1.072,3.581-1.626c0.212-0.105,0.403-0.25,0.561-0.427
			c0.8-0.872,1.588-1.756,2.376-2.639c0.061-0.083,0.113-0.171,0.158-0.264l0.39,0.317l-2.65,3.087
			c0.148,0.057,0.299,0.106,0.452,0.147c1.612,0.316,3.226,0.628,4.882,0.951c0.291-0.811,0.465-1.65,0.754-2.432
			c0.283,0,0.331,0.134,0.279,0.32c-0.094,0.339-0.195,0.675-0.294,1.013c-0.108,0.367-0.218,0.734-0.335,1.128l0.424,0.209
			l-0.502,0.075c-0.127,0.431-0.284,0.868-0.393,1.315c-0.169,0.633-0.419,1.242-0.744,1.811c-0.348,0.647-0.678,1.305-1.02,1.954
			c-0.123,0.225-0.19,0.476-0.198,0.732c-0.025,0.751-0.057,1.501-0.089,2.252c-0.017,0.382-0.038,0.765-0.059,1.147
			c0.031,0,0.068,0.018,0.082,0c0.376-0.32,0.831-0.461,1.292-0.595c0.353-0.103,0.7-0.226,1.054-0.322
			c0.616-0.171,1.204-0.434,1.742-0.78c0.809-0.51,1.635-1.004,2.462-1.492c0.223-0.125,0.394-0.325,0.483-0.565
			c0.553-1.402,1.118-2.79,1.682-4.181c0.057-0.141,0.127-0.277,0.196-0.405c0.208,0.052,0.198,0.158,0.153,0.273
			c-0.165,0.416-0.331,0.832-0.498,1.246c-0.359,0.89-0.717,1.779-1.077,2.667c-0.041,0.101-0.073,0.204-0.139,0.391
			c0.173-0.105,0.278-0.161,0.376-0.228c1.026-0.709,2.052-1.418,3.078-2.13c0.086-0.07,0.182-0.129,0.283-0.176
			c0.05-0.018,0.127,0.041,0.265,0.094c-0.177,0.139-0.293,0.24-0.418,0.326c-1.155,0.804-2.305,1.616-3.473,2.402
			c-0.309,0.18-0.494,0.514-0.484,0.872c0,0.459,0,0.919,0,1.411l3.301,0.325v0.363c-0.046,0.034-0.059,0.052-0.07,0.051
			l-3.186-0.208c-0.089,0.473-0.047,0.91-0.019,1.352c0.825-0.092,1.629-0.166,2.421-0.275c1.262-0.173,2.124-0.191,2.393,0
			c-0.232,0.152-0.491,0.141-0.73,0.163c-0.923,0.082-1.849,0.127-2.771,0.222c-0.443,0.057-0.883,0.142-1.315,0.255
			c-0.137,0.043-0.263,0.112-0.372,0.205c-0.754,0.568-1.504,1.139-2.252,1.715c-0.456,0.352-0.494,0.414-0.637,0.837
			c0.089,0.083,0.183,0.159,0.282,0.229c0.214,0.142,0.382,0.343,0.484,0.579c0.078,0.173,0.19,0.328,0.33,0.456
			c0.575,0.484,1.171,0.943,1.748,1.424c0.225,0.208,0.525,0.316,0.831,0.299c0.143-0.01,0.287,0.009,0.422,0.057
			c0.637,0.246,1.274,0.493,1.816,0.948c0.772,0.647,1.582,1.248,2.374,1.871c0.098,0.078,0.187,0.164,0.334,0.293
			c-0.127,0.042-0.217,0.105-0.271,0.083c-0.114-0.057-0.221-0.129-0.316-0.214c-0.807-0.631-1.621-1.25-2.412-1.9
			c-0.51-0.418-1.121-0.602-1.706-0.853c-0.028-0.016-0.06-0.024-0.092-0.023c-0.091,0.009-0.179,0.04-0.255,0.09
			c-0.034,0.034-0.014,0.152,0.014,0.218c0.05,0.1,0.109,0.196,0.175,0.287l2.787,4.369c0.054,0.059,0.097,0.128,0.127,0.203
			c0.021,0.084,0.007,0.174-0.04,0.247c-0.097,0.094-0.205,0.05-0.278-0.064c-0.043-0.068-0.089-0.127-0.127-0.2l-2.574-4.027
			c-0.172-0.269-0.363-0.529-0.51-0.809c-0.127-0.246-0.314-0.317-0.582-0.316c-1.536,0.01-3.071,0-4.608,0
			c-0.382,0-0.765,0-1.147,0c-0.255,0-0.255,0.009-0.542,0.224c0.087,0.232,0.192,0.457,0.312,0.673
			c0.102,0.14,0.236,0.253,0.391,0.329c0.256,0.133,0.48,0.319,0.658,0.545c1.05,1.353,2.104,2.702,3.161,4.045
			c0.075,0.097,0.127,0.208,0.228,0.357c-0.205,0.02-0.263-0.103-0.331-0.191c-0.929-1.182-1.858-2.364-2.785-3.548
			c-0.158-0.201-0.32-0.4-0.472-0.605c-0.146-0.213-0.366-0.363-0.618-0.419l-0.014-0.02L86.862,69.92z M69.517,61.958
			c-0.229,0.317-0.382,0.737-0.575,1.139c-0.102,0.217-0.19,0.441-0.306,0.65c-0.027,0.048-0.14,0.05-0.255,0.085
			c0.005-0.082,0.018-0.164,0.04-0.243c0.261-0.6,0.523-1.202,0.794-1.798c0.153-0.336,0.189-0.339,0.554-0.298
			c0.995,0.11,1.991,0.21,3.018,0.317c-0.037-0.155-0.057-0.279-0.094-0.398c-0.58-1.843-1.157-3.686-1.75-5.523
			c-0.069-0.193-0.182-0.368-0.33-0.51c-0.975-0.947-1.961-1.881-2.945-2.82c-0.023-0.022-0.047-0.043-0.073-0.062
			c-0.186-0.135-0.803-0.227-0.955-0.127c-0.255,0.18-0.51,0.382-0.784,0.585c0.424,0.382,0.935,0.6,1.288,0.986
			c-0.09,0.198-0.195,0.138-0.291,0.074c-0.345-0.232-0.691-0.463-1.03-0.703c-0.152-0.117-0.339-0.179-0.531-0.177
			c-0.656,0.012-1.312,0.015-1.968,0.01c-0.192-0.001-0.375,0.076-0.51,0.213c-0.825,0.757-1.657,1.506-2.476,2.268
			c-0.131,0.116-0.232,0.261-0.296,0.423c-0.316,0.921-0.616,1.849-0.911,2.777c-0.101,0.315-0.033,0.417,0.294,0.428
			c0.496,0.018,0.992,0,1.487,0.014c0.24-0.001,0.473-0.08,0.663-0.227c0.692-0.46,1.393-0.906,2.094-1.353
			c0.077-0.039,0.158-0.069,0.241-0.09c0.127,0.155,0.041,0.231-0.059,0.294c-0.308,0.2-0.619,0.396-0.928,0.596
			c-0.454,0.294-0.907,0.59-1.402,0.911l0.489,0.31c0.166,0.095,0.328,0.199,0.483,0.311c0.05,0.038,0.045,0.147,0.082,0.289
			c-0.11-0.036-0.219-0.078-0.324-0.127c-0.255-0.145-0.484-0.314-0.742-0.442c-0.166-0.09-0.349-0.144-0.537-0.159
			c-0.528-0.02-1.055-0.011-1.583,0c-0.44,0-0.544,0.083-0.689,0.51c-0.271,0.802-0.535,1.606-0.804,2.409
			c-0.056,0.164-0.067,0.34-0.033,0.51c0.204,1.099,0.393,2.2,0.585,3.299c0.353,2.012,0.711,4.023,1.053,6.037
			c0.044,0.233,0.145,0.452,0.293,0.637c1.387,1.858,2.773,3.716,4.16,5.574c0.074,0.098,0.166,0.182,0.283,0.31
			c0.189-0.163,0.361-0.299,0.517-0.45c1.799-1.726,3.405-3.633,5.075-5.485c0.323-0.37,0.542-0.819,0.637-1.301
			c0.714-3.031,1.453-6.055,2.183-9.08c0.032-0.134,0.051-0.271,0.083-0.45C71.654,62.019,70.635,61.752,69.517,61.958z
			 M76.969,57.46c-0.055,0.185-0.09,0.333-0.143,0.475c-0.28,0.765-0.603,1.518-0.833,2.294c-0.15,0.51-0.429,0.765-0.93,0.892
			c-0.539,0.127-1.063,0.329-1.584,0.494c-0.255,1.079-0.51,2.118-0.765,3.158c-0.506,2.096-1.011,4.192-1.517,6.287
			c-0.041,0.167-0.127,0.333,0.031,0.556c0.172-0.006,0.343-0.031,0.51-0.074c0.24-0.089,0.469-0.203,0.684-0.342
			c1.35-0.858,2.692-1.728,4.041-2.585c0.222-0.128,0.386-0.335,0.461-0.58c0.108-0.35,0.243-0.693,0.366-1.04
			c0.255-0.737,0.512-1.473,0.771-2.21l-0.465-0.417h0.809c0.056,0.127,0.073,0.299,0.164,0.367c0.594,0.433,1.203,0.847,1.81,1.262
			c0.127,0.09,0.268,0.094,0.394-0.092c-0.194-0.517-0.382-1.058-0.604-1.587c-0.063-0.106-0.164-0.183-0.283-0.215
			c-0.213-0.064-0.441-0.074-0.656-0.127c-0.087-0.022-0.157-0.107-0.296-0.208c0.422-0.135,0.737,0.074,1.053,0.04
			c0.366-0.041,0.656,0.19,1.003,0.217c0.333,0.039,0.664,0.095,0.992,0.167c0.345,0.061,0.691,0.127,1.037,0.185
			c0.324,0.051,0.637,0.187,0.989,0.127c0.05-0.154,0.093-0.289,0.136-0.426c0.127-0.412,0.171-0.883,0.408-1.217
			c0.237-0.334,0.667-0.585,1.036-0.833c0.25-0.146,0.398-0.42,0.382-0.71c0.023-1.39,0.073-2.781,0.117-4.171
			c0.007-0.176,0.024-0.351,0.05-0.525c0.036-0.254-0.016-0.513-0.145-0.734c-0.489-0.892-0.963-1.806-1.435-2.713
			c-0.069-0.127-0.2-0.255-0.117-0.473c0.066,0.014,0.161,0.008,0.194,0.048c0.074,0.104,0.138,0.215,0.191,0.331
			c0.455,0.863,0.906,1.728,1.364,2.588c0.117,0.22,0.213,0.465,0.465,0.581c0.695-0.937,1.415-2.708,1.673-4.115
			c-0.059-0.015-0.119-0.036-0.178-0.047c-0.799-0.157-1.599-0.305-2.397-0.47c-1.035-0.214-2.073-0.373-3.136-0.311
			c-0.271,0.009-0.538,0.068-0.788,0.176c-1.47,0.669-2.941,1.332-4.415,1.991c-0.208,0.086-0.385,0.232-0.51,0.419
			c-0.47,0.705-1.074,1.402-1.557,2.102c-0.241,0.347-1.274,2.895-1.361,3.441c-0.032,0.189-0.097,0.371-0.139,0.558
			c-0.093,0.413-0.182,0.827-0.285,1.296c0.459-0.148,0.854-0.27,1.246-0.4c0.826-0.275,0.646-0.079,0.974-0.948
			c0.275-0.733,0.542-1.469,0.821-2.201C76.655,57.616,76.659,57.432,76.969,57.46L76.969,57.46z M57.333,51.766
			c-0.575,0.488-1.137,0.957-1.686,1.439c-0.07,0.08-0.105,0.185-0.097,0.291c0.074,0.937,0.153,1.875,0.249,2.804
			c0.027,0.396,0.091,0.789,0.191,1.174c0.223,0.748,0.494,1.482,0.751,2.22c0.052,0.123,0.112,0.242,0.178,0.358
			c0.478-0.222,0.92-0.436,1.371-0.637c0.191-0.082,0.332-0.249,0.382-0.451c0.299-0.925,0.612-1.847,0.91-2.772
			c0.058-0.163,0.082-0.337,0.071-0.51c-0.082-0.765-0.18-1.518-0.285-2.275c-0.018-0.108-0.075-0.205-0.159-0.274
			C58.598,52.68,57.977,52.235,57.333,51.766z M85.591,64.799c1.328,0.214,2.6,0.011,3.812,0.255l2.753-2.076
			c0.217-0.164,0.44-0.322,0.637-0.51c0.095-0.08,0.158-0.192,0.177-0.315c0.019-0.459,0.008-0.919,0.008-1.385
			c-0.111-0.023-0.171-0.041-0.232-0.047c-0.571-0.06-1.147-0.127-1.715-0.173c-0.3-0.035-0.603-0.02-0.897,0.046
			c-0.983,0.279-1.96,0.585-2.931,0.918c-0.478,0.164-0.86,0.458-0.974,1.02c-0.088,0.437-0.255,0.859-0.372,1.288
			C85.772,64.118,85.693,64.424,85.591,64.799z M92.653,68.248c-1.161-0.942-2.266-1.835-3.368-2.732
			c-0.135-0.113-0.305-0.176-0.48-0.177c-1.054-0.028-2.107-0.062-3.161-0.101c-0.51-0.018-1.02-0.051-1.529-0.065
			c-0.142-0.007-0.283,0.014-0.417,0.062c-0.459,0.186-0.911,0.382-1.361,0.593c-0.215,0.099-0.426,0.215-0.538,0.443
			c0.078,0.234,0.274,0.255,0.459,0.305c1.02,0.245,2.047,0.497,3.073,0.729c0.224,0.029,0.413,0.181,0.492,0.393
			c0.074,0.19,0.176,0.37,0.264,0.552L92.653,68.248z M38.316,70.146c0.052,0.016,0.106,0.025,0.161,0.029
			c1.212-0.195,2.421-0.395,3.636-0.586c0.27-0.036,0.5-0.216,0.602-0.469c0.415-0.827,0.864-1.639,1.297-2.456
			c0.127-0.255,0.263-0.51,0.419-0.811c-0.192-0.116-0.352-0.268-0.537-0.315c-0.678-0.172-1.366-0.31-2.072-0.465
			c-0.358,0.4-0.71,0.791-1.059,1.184c-0.754,0.846-1.511,1.691-2.258,2.549c-0.096,0.103-0.158,0.232-0.18,0.371
			C38.299,69.488,38.316,69.807,38.316,70.146z M77.15,50.039c-0.614,0-1.185,0-1.756,0c-0.303,0-0.459,0.168-0.572,0.422
			c-0.39,0.874-0.782,1.747-1.186,2.615c-0.114,0.23-0.135,0.495-0.059,0.74c0.215,0.734,0.419,1.472,0.637,2.207
			c0.048,0.112,0.105,0.22,0.171,0.322c0.038-0.076,0.081-0.15,0.127-0.222c0.734-0.986,1.45-1.987,2.212-2.949
			c0.321-0.376,0.48-0.864,0.442-1.357C77.122,51.232,77.15,50.642,77.15,50.039z M72.944,61.035
			c0.055-0.083,0.102-0.17,0.141-0.261c0.32-1.333,0.637-2.667,0.949-4.004c0.019-0.141,0.005-0.284-0.042-0.418
			c-0.255-0.907-0.525-1.808-0.753-2.721c-0.101-0.404-0.279-0.665-0.748-0.711c-0.418,0.803-0.839,1.626-1.274,2.439
			c-0.085,0.158-0.022,0.279,0.02,0.409c0.505,1.596,1.012,3.192,1.522,4.787C72.801,60.688,72.858,60.816,72.944,61.035
			L72.944,61.035z M66.827,50.377c0.05,0.265,0.106,0.465,0.127,0.67c0.033,0.409,0.24,0.701,0.537,0.974
			c0.979,0.892,1.94,1.813,2.907,2.722c0.382,0.358,0.51,0.348,0.828-0.071c0.03-0.037,0.057-0.077,0.08-0.119
			c0.308-0.577,0.614-1.155,0.938-1.764c-0.173-0.08-0.314-0.152-0.458-0.213c-0.501-0.212-0.999-0.427-1.505-0.627
			c-0.248-0.074-0.448-0.258-0.543-0.5c-0.073-0.197-0.243-0.343-0.45-0.382c-0.8-0.223-1.599-0.45-2.458-0.691L66.827,50.377z
			 M47.966,68.934c-0.015-0.035-0.034-0.068-0.057-0.098c-0.61-0.51-1.22-1.034-1.835-1.543c-0.208-0.174-0.428-0.335-0.656-0.482
			c-0.199-0.127-0.409-0.255-0.678-0.204c-0.283,0.405-0.586,0.795-0.84,1.215c-0.254,0.419-0.474,0.892-0.747,1.412L47.966,68.934z
			 M53.353,50.137h-0.104c-0.033,0.925-0.064,1.849-0.101,2.774c-0.009,0.228,0.106,0.393,0.233,0.561
			c0.548,0.728,1.092,1.459,1.641,2.186c0.102,0.135,0.223,0.255,0.344,0.394c0.045-0.069,0.076-0.094,0.074-0.117
			c-0.069-0.859-0.139-1.718-0.214-2.576c-0.015-0.078-0.046-0.153-0.092-0.218c-0.586-1.001-1.177-2.002-1.771-3.004L53.353,50.137
			z M77.184,68.147l3.015-1.933l-1.871-1.287L77.184,68.147z M37.002,71.259c0.155,0.19,0.392,0.295,0.637,0.28
			c0.542-0.007,1.084-0.007,1.625,0c0.207,0.005,0.41-0.056,0.58-0.175c0.556-0.372,1.121-0.73,1.681-1.096
			c0.093-0.07,0.182-0.144,0.266-0.223c-0.071-0.004-0.142-0.004-0.213,0c-0.817,0.127-1.631,0.271-2.449,0.391
			c-0.752,0.113-1.492,0.275-2.122,0.822L37.002,71.259z M83.413,64.824l-0.011-0.083l-2.954-0.544l0.623,1.664L83.413,64.824z
			 M66.177,52.296c-0.472-0.177-2.707-0.422-3.066-0.339v0.863c0.059,0.028,0.087,0.055,0.113,0.055
			c0.651-0.014,1.302-0.052,1.954-0.041c0.456,0.009,0.726-0.236,1.004-0.539L66.177,52.296z M92.952,58.593
			c-0.828,0.376-1.983,1.124-2.167,1.402c0.382,0.147,1.736,0.247,2.167,0.153V58.593z M74.629,50.443
			c-1.357,0.892-1.538,1.099-1.922,2.181l0.74,0.412L74.629,50.443z M84.442,64.796h0.832l0.697-2.367
			c-0.324,0.151-0.63,0.34-0.91,0.562c-0.065,0.047-0.114,0.112-0.141,0.187c-0.157,0.515-0.305,1.032-0.477,1.621L84.442,64.796z
			 M57.552,62.049l0.09,0.02l0.794-2.397c-0.525,0.255-1.009,0.412-1.444,0.72L57.552,62.049z M41.833,64.78
			c0.529,0.09,1.02,0.265,1.574,0.236l-1.969-1.648l-0.06,0.052L41.833,64.78z M77.145,48.627l-1.682,1.206
			c0.51,0,0.934,0.008,1.361,0c0.243,0,0.305-0.068,0.319-0.316C77.156,49.268,77.145,48.978,77.145,48.627z M35.854,70.565
			c0.222,0.144,0.403,0.277,0.598,0.382c0.091,0.058,0.2,0.078,0.306,0.056c0.306-0.132,0.594-0.303,0.855-0.51
			c-0.23-0.049-0.456-0.111-0.679-0.185c-0.404-0.157-0.744-0.064-1.077,0.256H35.854z M37.852,69.336l-0.972,0.577l0.972,0.24
			V69.336z M35.843,70.035l-1.119-0.292c0.128,0.164,0.287,0.301,0.468,0.404C35.478,70.322,35.479,70.318,35.843,70.035z"/>
		<polygon fill="#332C29" points="86.862,69.92 86.843,69.906 86.857,69.925 		"/>
		<path fill="#2B6FA5" d="M97.354,53.349c0.586,0.162,1.116,0.255,1.594,0.456c0.649,0.28,0.812,0.637,0.675,1.323
			c-0.148,0.749-0.528,1.425-1.251,1.671c-0.765,0.255-1.541,0.031-2.167-0.502c-0.103-0.087-0.127-0.338-0.102-0.493
			c0.055-0.273,0.182-0.531,0.334-0.942c-0.431,0.168-0.716,0.284-1.006,0.39c-0.331,0.127-0.521,0.041-0.653-0.33
			c-0.167-0.435-0.378-0.851-0.628-1.244c-0.336-0.558-0.347-1.045,0.038-1.571c0.382-0.547,0.922-0.963,1.548-1.193
			c0.431-0.155,0.842-0.127,1.056,0.291c0.23,0.486,0.415,0.993,0.553,1.513C97.405,52.926,97.354,53.165,97.354,53.349z"/>
		<path fill="#265392" d="M97.04,72.113c0.163-0.568,0.301-1.121,0.486-1.657c0.108-0.315,0.336-0.396,0.695-0.298
			c0.423,0.095,0.855,0.146,1.288,0.154c0.616,0.038,0.91,0.302,0.97,0.915c0.009,0.064,0.014,0.129,0.013,0.194
			c-0.085,1.274-0.382,2.087-1.989,1.898c-0.075,0.609-0.394,1.162-0.886,1.529c-0.591,0.468-1.102,0.551-1.668,0.089
			c-0.394-0.32-0.664-0.803-0.947-1.241c-0.068-0.162-0.06-0.346,0.022-0.501c0.173-0.343,0.395-0.659,0.659-0.938
			C96.251,71.704,96.458,71.711,97.04,72.113z"/>
		<path fill="#2B6FA5" d="M67.464,66.652c-0.867,0-1.274-0.314-1.383-1.216c-0.255-2.096,0.902-3.078,2.939-2.992
			c0.319,0.013,0.47,0.158,0.51,0.51c0.056,0.542,0.153,1.079,0.289,1.607c0.167,0.668,0.023,1.213-0.58,1.529
			C68.689,66.372,67.479,66.692,67.464,66.652z"/>
		<path fill="#265392" d="M74.66,47.595c-0.417-0.18-0.828-0.247-1.073-0.486c-0.455-0.446-0.892-0.35-1.295-0.054
			c-0.456,0.335-0.733,0.159-0.999-0.204c-0.372-0.51-0.703-1.091-0.431-1.7c0.314-0.697,0.935-1.095,1.733-1.133
			c0.11,0,0.266-0.017,0.324,0.046c0.389,0.426,0.912,0.342,1.402,0.438c0.358,0.093,0.691,0.262,0.976,0.497
			c0.464,0.35,0.489,0.72,0.21,1.231c-0.17,0.308-0.282,0.649-0.452,0.956C74.968,47.34,74.809,47.446,74.66,47.595z"/>
		<path fill="#265392" d="M40.498,57.683c0.391-0.999,1.006-1.448,1.825-1.402c0.399,0.023,0.726,0.173,0.777,0.58
			c0.059,0.468,0.098,0.967-0.01,1.416c-0.054,0.226-0.429,0.447-0.701,0.528c-0.393,0.115-0.823,0.117-1.24,0.127
			c-0.143-0.015-0.275-0.085-0.367-0.196c-0.07-0.096-0.122-0.203-0.153-0.317c-0.607,0.027-1.147,0.09-1.676,0.062
			c-0.803-0.042-1.341-1.473-0.933-2.196c0.071-0.128,0.193-0.22,0.335-0.255c0.456-0.047,0.925-0.117,1.373-0.054
			c0.53,0.076,0.715,0.394,0.698,0.932c0,0.194-0.011,0.382-0.01,0.58C40.417,57.535,40.452,57.579,40.498,57.683z"/>
		<path fill="#2B6FA5" d="M82.742,40.247c0.01,0.953-1.028,2.212-1.847,2.336c-0.127,0.019-0.316-0.105-0.403-0.218
			c-0.321-0.419-0.589-0.879-0.918-1.291c-0.302-0.382-0.403-0.797-0.24-1.221c0.284-0.785,0.881-1.417,1.648-1.746
			c0.282-0.139,0.621-0.088,0.85,0.127C82.525,38.787,82.691,39.56,82.742,40.247z"/>
		<path fill="#265392" d="M93.588,68.127c0.423-0.361,0.892-0.682,1.259-1.09c0.51-0.571,0.984-0.742,1.706-0.463
			c0.661,0.255,1.253,0.624,1.576,1.274c0.104,0.239,0.108,0.51,0.011,0.752c-0.521,1.1-2.039,1.604-3.127,1.079
			c-0.189-0.09-0.372-0.19-0.558-0.285L93.588,68.127z"/>
		<path fill="#265392" d="M89.041,62.908c1.128-0.329,2.317,0.281,2.707,1.389c0.071,0.194,0.079,0.405,0.023,0.604
			c-0.237,0.749-0.799,1.351-1.529,1.639c-0.431,0.182-0.84,0.033-1.155-0.344c-0.37-0.442-0.777-0.853-1.129-1.308
			c-0.102-0.127-0.157-0.419-0.08-0.543c0.273-0.447,0.61-0.854,0.924-1.274h-0.015l0.301-0.2h-0.034L89.041,62.908z"/>
		<path fill="#265392" d="M84.808,47.85c-0.048-0.366-0.097-0.732-0.147-1.099c-0.082-0.604,0.127-1.03,0.711-1.204
			c0.458-0.142,0.936-0.209,1.416-0.199c0.758,0.029,1.069,0.353,1.137,1.114c0.065,0.734-0.083,1.48-0.673,1.933
			c-0.637,0.489-1.435,0.533-2.22,0.279C84.567,48.52,84.795,48.144,84.808,47.85z"/>
		<path fill="#4A6EA4" d="M99.271,60.251c0.971-0.391,1.689-0.237,2.421,0.519c0.558,0.579,0.621,1.078,0.112,1.714
			c-1.171,1.468-2.494,1.164-3.48-0.204c-0.082-0.113-0.014-0.372,0.045-0.542c0.085-0.196,0.188-0.385,0.306-0.563
			c-0.001,0.01-0.001,0.02,0,0.029l-0.028,0.008l0.255-0.39v0.015l0.108-0.162l0.182-0.274l0.106-0.162L99.271,60.251z"/>
		<path fill="#265392" d="M98.645,61.212l0.028-0.008c-0.001-0.01-0.001-0.02,0-0.029c-0.762,0.38-1.667,0.335-2.388-0.117
			c-0.316-0.184-0.454-0.382-0.298-0.786c0.155-0.404,0.189-0.844,0.255-1.274c0.087-0.579,0.356-0.876,0.937-0.915
			c0.305-0.022,0.611,0.001,0.909,0.069c1.083,0.255,1.374,0.721,1.183,1.822c-0.007,0.091-0.005,0.183,0.006,0.274l0.017-0.011
			l-0.106,0.162l-0.182,0.274l-0.108,0.162v-0.015L98.645,61.212z"/>
		<path fill="#265392" d="M48.145,61.932c-0.645-0.037-1.253-0.315-1.703-0.779c-0.208-0.212-0.241-0.391-0.088-0.677
			c0.199-0.402,0.361-0.82,0.486-1.25c0.189-0.581,0.51-0.825,1.118-0.724c0.316,0.052,0.622,0.153,0.907,0.298
			c0.716,0.372,0.942,0.765,0.858,1.402c-0.094,0.705-0.765,1.578-1.328,1.714C48.313,61.929,48.229,61.935,48.145,61.932z"/>
		<path fill="#265392" d="M69.052,62.02c-0.612-0.09-1.239-0.07-1.557-0.674c-0.395-0.747-0.41-1.517,0.046-2.253
			c0.097-0.126,0.231-0.219,0.382-0.266c0.596-0.221,1.256-0.198,1.835,0.064c0.489,0.209,0.659,0.565,0.563,1.088
			c-0.088,0.488-0.136,0.985-0.243,1.468c-0.045,0.174-0.159,0.323-0.316,0.412C69.536,61.963,69.267,61.975,69.052,62.02z"/>
		<path fill="#2B6FA5" d="M89.354,50.673c-0.093-0.081-0.179-0.17-0.255-0.268c-0.261-0.404-0.496-0.826-0.765-1.221
			c-0.347-0.497-0.344-0.924,0.101-1.332c0.233-0.222,0.5-0.404,0.793-0.539c0.543-0.232,1.095-0.395,1.598,0.148
			c0.503,0.543,0.814,1.583,0.556,2.098c-0.103,0.206-0.314,0.361-0.47,0.542c-0.101,0.116-0.195,0.238-0.292,0.358L89.354,50.673z"
			/>
		<path fill="#4A6EA4" d="M84.004,66.029c0.048-0.312,0.112-0.62,0.192-0.925c0.242-0.739,0.382-0.802,1.139-0.693
			c0.351,0.034,0.705,0.047,1.058,0.037c0.596,0.009,0.892,0.27,0.966,0.853c0.094,0.777-0.271,1.751-0.746,1.986
			c-0.618,0.306-1.68,0.127-2.242-0.461C84.162,66.605,84.099,66.246,84.004,66.029z"/>
		<path fill="#265392" d="M89.584,72.048c0.079,0.107,0.113,0.241,0.094,0.373c-0.178,1.068-1.49,1.831-2.326,1.422
			c-0.559-0.275-0.966-0.785-1.109-1.392c-0.05-0.185-0.024-0.383,0.071-0.549c0.268-0.375,0.575-0.721,0.914-1.034
			c0.359-0.321,0.712-0.315,1.073,0.101c0.245,0.282,0.637,0.423,0.933,0.673C89.367,71.764,89.484,71.9,89.584,72.048z"/>
		<path fill="#2B6FA5" d="M57.205,56.472c0.064-0.005,0.128-0.005,0.192,0c0.626,0.097,1.218,0.301,1.494,0.914
			c0.217,0.482-0.237,1.554-0.733,1.89c-0.121,0.071-0.261,0.1-0.4,0.082c-0.477-0.061-0.947-0.163-1.424-0.224
			c-0.608-0.078-0.85-0.371-0.771-0.977C55.696,57.142,56.349,56.47,57.205,56.472z"/>
		<path fill="#265392" d="M92.923,58.914c0,0.914-0.292,1.195-1.106,1.217c-0.354-0.002-0.707,0.041-1.05,0.127
			c-0.329,0.094-0.48-0.032-0.619-0.28c-0.287-0.51-0.426-1.073-0.242-1.63c0.121-0.291,0.329-0.537,0.595-0.705
			c0.551-0.371,1.209-0.519,1.784-0.172C92.819,57.79,92.905,58.417,92.923,58.914z"/>
		<path fill="#2B6FA5" d="M84.552,53.817c-0.454-0.066-1.067-0.059-1.362-0.654c-0.335-0.674-0.349-1.376,0.068-2.031
			c0.106-0.16,0.27-0.272,0.458-0.314c0.394-0.076,0.797-0.088,1.194-0.037c0.91,0.172,1.135,0.61,0.872,1.495
			c-0.068,0.215-0.116,0.435-0.141,0.659C85.563,53.696,85.444,53.81,84.552,53.817z"/>
		<path fill="#2B6FA5" d="M59.815,44.544c0.22-0.059,0.454-0.027,0.65,0.089c0.165,0.089,0.312,0.205,0.437,0.344
			c0.261,0.324,0.464,0.69,0.602,1.082c0.145,0.413-0.051,0.746-0.441,0.963c-0.421,0.234-0.826,0.496-1.25,0.723
			c-0.118,0.062-0.255,0.075-0.382,0.037c-0.622-0.255-1.226-1.3-1.1-1.853S59.11,44.739,59.815,44.544z"/>
		<path fill="#265392" d="M43.41,59.857c-0.325-1.053,0.064-1.972,1.05-2.322c0.296-0.082,0.611-0.06,0.892,0.064
			c0.285,0.148,0.53,0.361,0.716,0.622c0.539,0.691,0.588,1.325-0.338,1.801c-0.339,0.175-0.589,0.524-0.878,0.794
			C44.188,60.776,43.821,60.282,43.41,59.857z"/>
		<path fill="#2B6FA5" d="M43.41,59.857c0.412,0.426,0.779,0.92,1.446,0.96c0.538,0.742,0.013,1.44-0.637,1.896
			c-0.426,0.297-0.915,0.524-1.441,0.238c-0.655-0.356-1.111-0.892-1.194-1.657c-0.04-0.368,0.227-0.602,0.562-0.765
			C42.572,60.33,42.988,60.084,43.41,59.857z"/>
		<path fill="#2B6FA5" d="M46.445,67.445c-0.976,0-1.881-0.989-1.766-1.871c0.018-0.135,0.177-0.287,0.311-0.363
			c0.347-0.2,0.723-0.347,1.071-0.544c0.482-0.274,0.878-0.247,1.259,0.162c0.19,0.197,0.349,0.422,0.472,0.667
			c0.469,0.999,0.255,1.551-0.915,1.891C46.735,67.42,46.59,67.439,46.445,67.445z"/>
		<path fill="#265392" d="M89.354,50.673l1.258-0.214c0.09,0.033,0.178,0.071,0.264,0.115c0.663,0.382,1.147,1.167,1.04,1.68
			c-0.107,0.512-0.939,1.227-1.603,1.337c-0.361,0.08-0.729-0.098-0.892-0.429c-0.255-0.428-0.534-0.839-0.774-1.274
			c-0.066-0.134-0.066-0.291,0-0.424C88.868,51.186,89.104,50.923,89.354,50.673z"/>
		<path fill="#265392" d="M51.646,63.57c-1.194,0-1.657-0.586-1.388-1.657c0.292-1.174,1.455-1.734,2.549-1.206
			c0.129,0.092,0.212,0.236,0.227,0.394c0.029,0.349-0.032,0.707,0.006,1.054c0.093,0.836-0.138,1.19-0.963,1.366
			C51.935,63.547,51.791,63.563,51.646,63.57z"/>
		<path fill="#4A6EA4" d="M76.37,62.606c-0.099,0.005-0.197,0.029-0.288,0.069c-0.669,0.475-1.765,0.422-2.345-0.15
			c-0.096-0.128-0.133-0.291-0.102-0.449c0.088-0.422,0.234-0.831,0.336-1.249c0.121-0.501,0.39-0.765,0.892-0.78
			c0.288-0.012,0.577,0.016,0.858,0.085c1.055,0.283,1.334,0.969,0.822,1.935c-0.076,0.176-0.136,0.359-0.18,0.545L76.37,62.606z"/>
		<path fill="#265392" d="M61.062,51.029c-0.533-0.08-1.067-0.162-1.294-0.765c-0.263-0.693-0.227-1.362,0.199-1.98
			c0.09-0.112,0.209-0.197,0.345-0.243c0.811-0.284,1.712-0.036,2.263,0.623l-0.154,0.842l-0.136,0.403l-0.028,0.143
			c-0.049,0.282-0.099,0.564-0.148,0.845l-0.191,0.059l-0.255,0.061L61.062,51.029z"/>
		<path fill="#2B6FA5" d="M50.308,44.176c0.046,0.12,0.096,0.24,0.136,0.361c0.237,0.697,0.162,0.817-0.54,0.929
			c-0.298,0.048-0.593,0.127-0.862,0.187c0.12,0.396,0.342,0.795,0.331,1.189c-0.01,0.394-0.255,0.753-0.404,1.147
			c-0.474-0.243-0.86-0.382-1.166-0.622c-0.197-0.175-0.318-0.419-0.339-0.682c-0.037-0.842,0.356-1.249,1.175-1.274
			c-0.124-0.274-0.231-0.555-0.322-0.841c-0.173-0.67,0.089-0.993,0.785-0.958c0.27,0.031,0.538,0.081,0.802,0.149L50.308,44.176z"
			/>
		<path fill="#265392" d="M64.231,59.241c0.01,0.013,0.022,0.024,0.031,0.037c0.367,0.54,0.692,1.174,0.299,1.745
			c-0.436,0.637-1.211,0.674-1.937,0.557c-0.398-0.064-0.644-0.328-0.719-0.742c-0.083-0.456-0.205-0.905-0.269-1.364
			c-0.014-0.159,0.05-0.315,0.171-0.419c0.319-0.148,0.646-0.276,0.981-0.382C63.349,58.658,63.881,58.728,64.231,59.241z"/>
		<path fill="#4A6EA4" d="M65.832,54.009c0.04-0.172,0.085-0.424,0.154-0.67c0.105-0.368,0.305-0.545,0.74-0.492
			c0.357,0.045,0.733-0.043,1.099-0.089c0.553-0.069,0.859,0.127,0.983,0.67c0.008,0.031,0.014,0.063,0.019,0.094
			c0.082,0.665,0.045,1.356-0.537,1.75c-0.637,0.428-1.357,0.307-2.015-0.071C65.842,54.951,65.871,54.507,65.832,54.009z"/>
		<path fill="#265392" d="M79.193,64.241c0.127,0.883-0.013,1.055-0.93,1.12c-1.13,0.08-1.805-0.478-2.002-1.657l-0.017-0.127
			l0.014-0.362l0.032-0.182l0.084-0.426v0.006c0.753-0.347,1.515-0.488,2.304-0.117c0.014,0.207,0.045,0.412,0.093,0.613
			C78.891,63.491,79.046,63.864,79.193,64.241z"/>
		<path fill="#2B6FA5" d="M35.753,68.27c0.621,0.018,1.518,0.955,1.511,1.529c-0.017,0.107-0.066,0.206-0.14,0.284
			c-0.283,0.348-0.586,0.681-0.862,1.035c-0.328,0.421-0.688,0.519-1.13,0.228c-0.243-0.156-0.458-0.351-0.637-0.577
			c-0.331-0.437-0.554-0.905-0.219-1.467C34.585,68.75,35.129,68.37,35.753,68.27z"/>
		<path fill="#2B6FA5" d="M55.986,63.71c-0.088,0.04-0.177,0.074-0.261,0.119c-0.432,0.224-0.876,0.488-1.352,0.153
			c-0.586-0.412-0.951-0.99-0.905-1.715c0.014-0.228,0.277-0.496,0.494-0.637c0.382-0.255,0.831-0.415,1.23-0.653
			c0.399-0.237,0.534,0.181,0.804,0.255C56.568,62.054,56.776,62.888,55.986,63.71z"/>
		<path fill="#265392" d="M67.353,46.504c-0.076-0.01-0.269-0.031-0.458-0.066c-0.303-0.056-0.449-0.213-0.48-0.552
			c-0.04-0.412-0.178-0.816-0.282-1.221c-0.113-0.447,0.011-0.822,0.451-0.921c0.494-0.117,1.006-0.145,1.51-0.084
			c0.59,0.082,0.772,0.626,0.813,1.129C69.005,46.016,68.64,46.475,67.353,46.504z"/>
		<path fill="#4A6EA4" d="M88.78,63.071h0.015c-0.136-0.022-0.27-0.053-0.401-0.094c-0.252-0.08-0.493-0.19-0.72-0.325
			c-0.317-0.22-0.612-0.469-0.883-0.743c-0.108-0.11-0.217-0.349-0.168-0.464c0.559-1.33,1.675-1.812,2.917-0.78
			c0.5,0.414,0.51,0.835,0.127,1.402c-0.195,0.288-0.413,0.561-0.622,0.839c-0.001-0.012-0.001-0.025,0-0.037h0.034L88.78,63.071z"
			/>
		<path fill="#4A6EA4" d="M91.215,72.912c0.585,0.07,1.085,0.08,1.338,0.608c0.297,0.616,0.356,1.24,0.01,1.852
			c-0.081,0.139-0.216,0.238-0.373,0.273c-0.502,0.04-1.02,0.101-1.508,0.017s-0.637-0.451-0.573-0.957
			c0.052-0.396,0.056-0.802,0.127-1.194c0.032-0.175,0.136-0.328,0.285-0.424C90.746,73.001,90.978,72.943,91.215,72.912z"/>
		<path fill="#2B6FA5" d="M79.193,64.241c-0.144-0.382-0.302-0.751-0.426-1.134c-0.048-0.201-0.079-0.406-0.093-0.613
			c0.11-0.082,0.211-0.177,0.299-0.282c0.51-0.749,2.039-0.721,2.463,0.084c0.115,0.215,0.066,0.554,0.008,0.817
			c-0.084,0.374-0.213,0.738-0.382,1.082c-0.08,0.166-0.306,0.393-0.438,0.375C80.141,64.488,79.663,64.379,79.193,64.241z"/>
		<path fill="#2B6FA5" d="M68.714,47.433c0.804,0.029,1.61,0.619,1.77,1.197c0.127,0.469-0.27,1.431-0.757,1.738
			c-0.135,0.061-0.288,0.065-0.426,0.013c-0.376-0.138-0.733-0.324-1.107-0.466c-0.483-0.185-0.721-0.468-0.572-0.96
			c0.139-0.46,0.412-0.892,0.678-1.295C68.396,47.515,68.644,47.467,68.714,47.433z"/>
		<path fill="#265392" d="M78.688,57.255c0,0.867-1.03,1.645-1.89,1.422c-0.112-0.044-0.203-0.129-0.255-0.238
			c-0.181-0.373-0.328-0.765-0.51-1.137c-0.222-0.451-0.162-0.786,0.232-1.107c0.074-0.062,0.153-0.117,0.237-0.166
			c0.475-0.266,1.007-0.501,1.509-0.231C78.543,56.085,78.692,56.661,78.688,57.255z"/>
		<path fill="#265392" d="M64.603,48.463c0.076-0.024,0.153-0.047,0.229-0.075c1.387-0.51,1.974,0.357,2.167,1.464
			c0.046,0.255-0.048,0.41-0.306,0.51c-0.298,0.117-0.582,0.266-0.847,0.444c-0.637,0.426-1.02,0.382-1.463-0.241
			c-0.128-0.205-0.243-0.418-0.344-0.637C63.816,49.285,64.053,48.815,64.603,48.463z"/>
		<path fill="#265392" d="M73.677,42.729c0-0.678,0.349-1.383,0.765-1.513c0.477-0.152,1.548,0.264,1.808,0.79
			c0.127,0.245,0.092,0.614,0.014,0.892c-0.127,0.379-0.294,0.744-0.497,1.088c-0.057,0.118-0.158,0.209-0.28,0.255
			C74.647,44.394,73.683,43.572,73.677,42.729z"/>
		<path fill="#4A6EA4" d="M38.179,74.103c-0.682-0.01-1.52-0.488-1.64-0.937c-0.147-0.548,0.265-1.375,0.878-1.765
			c0.52-0.33,1.821,0.055,2.053,0.616c0.026,0.089,0.021,0.184-0.013,0.27c-0.148,0.424-0.308,0.844-0.463,1.265
			C38.886,73.904,38.547,74.133,38.179,74.103z"/>
		<path fill="#2B6FA5" d="M57.153,50.336c0,0.644-0.098,0.744-0.746,0.818c-0.27,0.031-0.531,0.127-0.799,0.185
			c-0.152,0.051-0.312,0.068-0.472,0.052c-0.612-0.154-0.726-0.682-0.814-1.195c-0.115-0.668,0.055-1.082,0.482-1.295
			C55.979,48.312,57.141,49.021,57.153,50.336z"/>
		<path fill="#4A6EA4" d="M26.369,63.709c-0.846,0.609-1.937,0.316-2.386-0.637c-0.283-0.604,0.382-1.899,1.056-1.966
			c0.219-0.022,0.488,0.115,0.681,0.255c0.332,0.25,0.643,0.528,0.928,0.831c0.104,0.129,0.169,0.285,0.186,0.45
			c0.011,0.173,0.005,0.346-0.019,0.517L26.369,63.709z"/>
		<path fill="#2B6FA5" d="M93.588,68.127l0.868,1.267c0.121,0.93-0.912,1.923-1.821,1.75c-0.637-0.127-1.336-1.402-1.065-1.998
			c0.084-0.171,0.22-0.311,0.389-0.4c0.455-0.232,0.93-0.428,1.402-0.628C93.423,68.089,93.512,68.122,93.588,68.127z"/>
		<path fill="#4A6EA4" d="M62.541,52.208c-0.084,1.478-1.137,1.829-2.237,1.52c-0.368-0.103-0.582-0.37-0.545-0.752
			c0.025-0.381,0.103-0.756,0.232-1.115c0.224-0.559,0.582-0.688,1.166-0.53c0.246,0.072,0.497,0.127,0.751,0.164
			C62.479,51.565,62.564,51.649,62.541,52.208z"/>
		<path fill="#265392" d="M50.472,70.466c-0.155,0.734-0.51,1.22-1.093,1.503c-0.48,0.229-0.886-0.01-1.235-0.312
			c-0.892-0.771-0.663-2.016,0.442-2.434c0.132-0.04,0.274-0.026,0.396,0.038c0.376,0.215,0.739,0.453,1.085,0.714
			C50.222,70.12,50.358,70.285,50.472,70.466z"/>
		<path fill="#4A6EA4" d="M64.231,59.241c-0.354-0.51-0.882-0.584-1.444-0.563c0.135-0.373,0.223-0.775,0.415-1.115
			c0.525-0.926,1.463-0.962,2.228-0.757c0.595,0.159,0.728,0.468,0.539,1.062C65.689,58.754,65.068,59.243,64.231,59.241z"/>
		<path fill="#265392" d="M81.595,70.229c-0.133,0.063-0.282,0.081-0.426,0.051c-0.198-0.034-0.394-0.082-0.585-0.144
			c-0.837-0.305-0.969-0.705-0.51-1.469c0.133-0.201,0.236-0.421,0.303-0.652c0.088-0.382,0.322-0.491,0.669-0.46
			c0.545,0.048,1.125,0.161,1.353,0.688c0.255,0.591,0.115,1.221-0.348,1.701C81.918,70.065,81.763,70.162,81.595,70.229z"/>
		<path fill="#265392" d="M50.308,44.176l-0.403-0.419c0.026-0.141,0.064-0.28,0.113-0.414c0.206-0.444,0.599-0.683,0.937-0.591
			c0.461,0.134,0.775,0.561,0.765,1.041c-0.007,0.083,0.004,0.167,0.033,0.245c0.334-0.804,0.876-1.02,1.622-0.681
			c0.57,0.599,0.582,0.654,0.288,1.235c-0.107,0.095-0.203,0.201-0.287,0.317c-0.153,0.265-0.255,0.576-0.672,0.422
			c-0.417-0.154-0.844-0.338-0.927-0.868c-0.019-0.119-0.024-0.241-0.034-0.348c-0.051-0.013-0.078-0.024-0.082-0.019
			C51.241,44.645,50.785,44.581,50.308,44.176z"/>
		<path fill="#265392" d="M55.986,63.71c0.789-0.826,0.582-1.657,0.009-2.486c0.266-0.356,0.531-0.454,0.919-0.115
			c0.233,0.205,0.559,0.311,0.854,0.437c0.57,0.243,0.765,0.573,0.645,1.181c-0.034,0.175-0.085,0.345-0.153,0.51
			C57.763,64.431,56.926,64.605,55.986,63.71z"/>
		<path fill="#265392" d="M32.719,77.874c0.255,0.345,0.554,0.668,0.756,1.042c0.148,0.275,0.306,0.663,0.22,0.921
			c-0.182,0.473-0.44,0.913-0.765,1.302c-0.274,0.356-0.646,0.287-0.892-0.051c-0.222-0.305-0.364-0.668-0.543-1.006
			C31.463,78.946,31.885,78.181,32.719,77.874z"/>
		<path fill="#265392" d="M42.574,51.045c0.144,0.537,0.015,0.841-0.543,1.139c-0.245,0.123-0.507,0.209-0.777,0.255
			c-0.137,0.017-0.275-0.03-0.373-0.127c-0.311-0.336-0.591-0.702-0.879-1.06c-0.19-0.234-0.155-0.577,0.078-0.767
			c0.004-0.003,0.007-0.006,0.011-0.009c0.294-0.208,0.603-0.395,0.924-0.559c0.181-0.1,0.403-0.089,0.573,0.029
			C41.922,50.182,42.454,50.597,42.574,51.045z"/>
		<path fill="#4A6EA4" d="M63.127,44.956c0.034-0.39,0.065-0.827,0.566-1.031c0.544-0.222,1.085-0.223,1.578,0.089
			c0.405,0.255,0.482,1.482,0.136,1.796c-0.093,0.059-0.199,0.093-0.308,0.101c-0.237,0.046-0.48,0.061-0.714,0.127
			C63.469,46.276,63.104,45.983,63.127,44.956z"/>
		<path fill="#265392" d="M50.627,59.205c0.009-0.821,0.358-1.254,1-1.243c0.807,0.014,1.422,0.584,1.411,1.323
			c-0.007,0.208-0.039,0.415-0.096,0.616c-0.098,0.366-0.275,0.605-0.721,0.423c-0.184-0.057-0.377-0.081-0.57-0.071
			C50.868,60.233,50.619,59.983,50.627,59.205z"/>
		<path fill="#265392" d="M47.34,49.916c0.01-0.621,0.607-1.413,1.069-1.466c0.542-0.061,1.338,0.48,1.509,1.026
			c0.141,0.452-0.382,1.434-0.837,1.564c-0.231,0.066-1.657-0.747-1.72-0.98C47.35,50.012,47.343,49.964,47.34,49.916z"/>
		<path fill="#2B6FA5" d="M38.423,65.006c0.563,0.06,1.338,0.873,1.294,1.394c0,0.032,0,0.08-0.015,0.093
			c-0.472,0.344-0.91,0.765-1.43,0.999c-0.367,0.168-0.97-0.429-1.203-1.008c-0.196-0.489,0.019-0.831,0.394-1.071
			C37.755,65.229,38.1,65.138,38.423,65.006z"/>
		<path fill="#265392" d="M39.69,80.498c-0.364-0.184-0.756-0.333-1.083-0.568c-0.162-0.15-0.249-0.365-0.236-0.586
			c0.061-0.428,0.162-0.85,0.301-1.259c0.065-0.101,0.175-0.164,0.294-0.169c1.24,0.025,1.866,0.844,1.504,2.021
			C40.364,80.28,40.125,80.475,39.69,80.498z"/>
		<path fill="#265392" d="M29.921,57.06c-0.238-0.002-0.464-0.102-0.626-0.277c-0.21-0.211-0.398-0.443-0.562-0.691
			c-0.224-0.362-0.106-0.739,0.296-0.93c0.314-0.149,0.661-0.311,0.993-0.31c0.255,0,0.57,0.198,0.74,0.404
			c0.228,0.277,0.356,0.637,0.498,0.98c0.036,0.111,0.016,0.233-0.052,0.328C30.868,56.903,30.401,57.083,29.921,57.06z"/>
		<path fill="#265392" d="M25.452,68.56c0.827,0,1.169,0.255,1.416,0.957c0.198,0.557,0.115,0.724-0.435,0.892
			c-0.139,0.039-0.274,0.092-0.401,0.159c-0.363,0.203-0.726,0.31-1.054-0.037c-0.382-0.401-0.664-0.892-0.478-1.438
			C24.654,68.637,25.138,68.564,25.452,68.56z"/>
		<path fill="#2B6FA5" d="M28.031,71.936c0.055-0.702,0.168-1.223,0.644-1.474c0.382-0.204,0.772,0.029,1.102,0.291
			c0.454,0.359,0.63,0.809,0.436,1.362c-0.085,0.241-0.204,0.469-0.354,0.675c-0.094,0.093-0.229,0.134-0.359,0.11
			c-0.355-0.097-0.695-0.241-1.012-0.427C28.263,72.326,28.123,72.05,28.031,71.936z"/>
		<path fill="#2B6FA5" d="M27.985,72.933c0.191,0.043,0.378,0.1,0.561,0.171c0.552,0.243,0.595,0.395,0.325,0.928
			c-0.069,0.127-0.123,0.262-0.161,0.401c-0.099,0.41-0.291,0.733-0.765,0.726c-0.552-0.008-1.09-0.15-1.37-0.658
			C26.262,73.932,27.125,72.9,27.985,72.933z"/>
		<path fill="#4A6EA4" d="M35.897,76.092c0.233,0.054,0.462,0.123,0.686,0.206c0.561,0.246,0.602,0.39,0.331,0.927
			c-0.075,0.142-0.135,0.291-0.178,0.446c-0.094,0.382-0.283,0.667-0.7,0.679c-0.553,0.018-1.123-0.116-1.373-0.619
			c-0.127-0.247,0.038-0.711,0.201-1.006C35.056,76.331,35.459,76.084,35.897,76.092z"/>
		<path fill="#2B6FA5" d="M26.369,63.709l0.446-0.552c1.076-0.447,1.94,0.014,2.066,1.099c0.037,0.322-0.042,0.524-0.409,0.565
			c-0.189,0.037-0.372,0.103-0.54,0.196c-0.599,0.278-0.926,0.209-1.245-0.358C26.526,64.371,26.471,64.026,26.369,63.709z"/>
		<path fill="#2B6FA5" d="M82.82,44.683c-0.101,0.12-0.398,0.159-0.572,0.112c-0.366-0.116-0.722-0.26-1.065-0.431
			c-0.068-0.036-0.119-0.097-0.144-0.169c-0.127-0.382,0.357-1.229,0.78-1.389c0.537-0.204,1.378,0,1.576,0.399
			c0.033,0.09,0.054,0.183,0.065,0.278C83.494,43.507,83.106,44.34,82.82,44.683z"/>
		<path fill="#265392" d="M46.104,52.865c-0.195,0.275-0.428,0.521-0.692,0.732c-0.248,0.179-0.552,0.262-0.856,0.234
			c-0.591-0.083-1.081-0.576-1.041-0.916c0.05-0.424,0.725-0.965,1.249-1C45.274,51.879,45.881,52.388,46.104,52.865z"/>
		<path fill="#2B6FA5" d="M31.281,62.202c0.061,0.171,0.057,0.358-0.011,0.526c-0.175,0.417-0.558,0.862-0.909,0.961
			c-0.08,0.023-0.22,0.024-0.255-0.024c-0.255-0.326-0.545-0.645-0.724-1.013c-0.246-0.51,0.51-1.56,1.071-1.514
			c0.219,0.04,0.411,0.168,0.533,0.354C31.11,61.717,31.209,61.955,31.281,62.202z"/>
		<path fill="#2B6FA5" d="M36.533,51.321c0,0.698-0.573,1.375-1.107,1.448c-0.082,0.011-0.219-0.01-0.255-0.065
			c-0.5-0.263-0.607-0.684-0.673-1.059c-0.026-0.325,0.086-0.646,0.31-0.884c0.255-0.255,0.644-0.452,0.993-0.354
			c0.255,0.073,0.484,0.162,0.589,0.363C36.465,50.945,36.513,51.131,36.533,51.321z"/>
		<path fill="#2B6FA5" d="M64.603,48.463c-0.551,0.352-0.788,0.823-0.562,1.471c-0.817,0.357-0.816,0.356-1.418-0.335
			c-0.045-0.051-0.127-0.064-0.201-0.096l0.155-0.835c0.15-0.185,0.317-0.356,0.498-0.51C63.633,47.772,64.019,47.857,64.603,48.463
			z"/>
		<path fill="#2B6FA5" d="M32.719,77.874c-0.832,0.308-1.255,1.073-1.221,2.209c-0.51-0.186-0.826-0.733-0.831-1.42
			c0-0.51,0.308-0.733,0.754-0.845c0.126-0.022,0.246-0.073,0.35-0.148C32.188,77.307,32.482,77.439,32.719,77.874z"/>
		<path fill="#265392" d="M54.918,43.718c0.436-0.299,0.788-0.127,1.097,0.21c0.275,0.301,0.299,0.594-0.069,0.849
			c-0.027,0.018-0.05,0.041-0.075,0.06c-0.196,0.139-0.474,0.436-0.575,0.382c-0.291-0.148-0.51-0.436-0.758-0.669L54.918,43.718z"
			/>
		<path fill="#2B6FA5" d="M54.918,43.718l-0.382,0.835l-0.874,0.04c0.294-0.581,0.282-0.637-0.288-1.235
			C54.11,42.719,54.586,42.831,54.918,43.718z"/>
		<path fill="#2B6FA5" d="M61.062,51.029l0.608-0.017L61.062,51.029z"/>
		<path fill="#2B6FA5" d="M76.29,63.032l-0.032,0.182L76.29,63.032z"/>
		<path fill="#2B6FA5" d="M61.918,50.952l0.191-0.059L61.918,50.952z"/>
		<path fill="#2B6FA5" d="M62.257,50.048l0.028-0.143L62.257,50.048z"/>
		<path fill="#2B6FA5" d="M76.242,63.576l0.017,0.127c-0.013-0.027-0.023-0.055-0.032-0.084
			C76.225,63.605,76.242,63.59,76.242,63.576z"/>
		<path fill="#010101" d="M88.78,63.071l0.301-0.2L88.78,63.071z"/>
		<path fill="#010101" d="M98.645,61.212l0.255-0.39L98.645,61.212z"/>
		<path fill="#010101" d="M98.891,60.837L99,60.675L98.891,60.837z"/>
		<path fill="#010101" d="M99.182,60.401l0.106-0.162L99.182,60.401z"/>
		<path fill="#265392" d="M33.83,53.829c0.441-0.013,0.84,0.259,0.989,0.674c0.255,0.602,0.31,1.244-0.08,1.763
			c-0.39,0.519-1.02,0.679-1.657,0.599c-0.164-0.02-0.352-0.243-0.436-0.418c-0.141-0.294-0.189-0.637-0.312-0.939
			c-0.27-0.669-0.145-1.069,0.51-1.374C33.165,54.01,33.494,53.908,33.83,53.829z"/>
		<g>
			<path fill="#FFFFFF" d="M112.811,63.066c-0.728,0-1.394-0.265-1.893-0.754c-0.697-0.683-0.697-1.397-0.697-2.936
				c0-1.54,0-2.253,0.697-2.936c0.499-0.489,1.165-0.755,1.893-0.755c1.331,0,2.319,0.795,2.569,2.161h-0.811
				c-0.198-0.887-0.832-1.468-1.758-1.468c-0.489,0-0.957,0.184-1.279,0.51c-0.468,0.469-0.52,0.969-0.52,2.488
				c0,1.519,0.052,2.019,0.52,2.488c0.322,0.326,0.79,0.51,1.279,0.51c0.926,0,1.581-0.581,1.778-1.468h0.79
				C115.14,62.271,114.131,63.066,112.811,63.066z"/>
			<path fill="#FFFFFF" d="M122.035,62.312c-0.499,0.489-1.154,0.754-1.893,0.754s-1.394-0.265-1.893-0.754
				c-0.697-0.683-0.697-1.397-0.697-2.936c0-1.54,0-2.253,0.697-2.936c0.499-0.489,1.154-0.755,1.893-0.755s1.394,0.265,1.893,0.755
				c0.697,0.683,0.697,1.397,0.697,2.936C122.731,60.915,122.731,61.629,122.035,62.312z M121.421,56.898
				c-0.322-0.326-0.79-0.52-1.279-0.52c-0.489,0-0.957,0.194-1.279,0.52c-0.468,0.469-0.52,0.958-0.52,2.478
				c0,1.519,0.052,2.009,0.52,2.478c0.322,0.326,0.79,0.52,1.279,0.52c0.489,0,0.957-0.194,1.279-0.52
				c0.468-0.469,0.52-0.958,0.52-2.478C121.941,57.856,121.889,57.367,121.421,56.898z"/>
			<path fill="#FFFFFF" d="M130.853,63.005v-5.516l-2.028,4.374h-0.676l-2.059-4.374v5.516h-0.79v-7.259h0.79l2.413,5.149
				l2.35-5.149h0.79v7.259H130.853z"/>
			<path fill="#FFFFFF" d="M137.249,60.018h-1.966v2.987h-0.79v-7.259h2.756c1.352,0,2.288,0.826,2.288,2.131
				S138.601,60.018,137.249,60.018z M137.176,56.439h-1.893v2.885h1.893c0.926,0,1.57-0.489,1.57-1.448
				C138.746,56.918,138.101,56.439,137.176,56.439z"/>
			<path fill="#FFFFFF" d="M141.751,63.005v-7.259h0.79v6.566h3.785v0.693H141.751z"/>
			<path fill="#FFFFFF" d="M148.417,63.005v-7.259h4.597v0.693h-3.806v2.559h3.245v0.693h-3.245v2.62h3.806v0.693H148.417z"/>
			<path fill="#FFFFFF" d="M158.952,63.005l-1.799-3.048l-1.81,3.048h-0.894l2.267-3.721l-2.122-3.538h0.915l1.643,2.865
				l1.643-2.865h0.915l-2.132,3.538l2.288,3.721H158.952z"/>
			<path fill="#FFFFFF" d="M161.801,63.005v-7.259h0.79v7.259H161.801z"/>
			<path fill="#FFFFFF" d="M167.614,56.439v6.566h-0.79v-6.566h-2.142v-0.693h5.075v0.693H167.614z"/>
			<path fill="#FFFFFF" d="M173.853,60.008v2.997h-0.79v-2.997l-2.205-4.262h0.853l1.747,3.477l1.726-3.477h0.853L173.853,60.008z"
				/>
		</g>
		<g>
			<path fill="#999999" d="M111.151,80.878c-0.644,0-1.065-0.138-1.468-0.479l0.313-0.265c0.355,0.301,0.686,0.398,1.167,0.398
				c0.626,0,1.011-0.25,1.011-0.673c0-0.189-0.066-0.352-0.205-0.454c-0.138-0.102-0.247-0.132-0.559-0.173l-0.499-0.066
				c-0.337-0.046-0.601-0.138-0.788-0.275c-0.217-0.163-0.325-0.387-0.325-0.678c0-0.617,0.523-1.024,1.371-1.024
				c0.547,0,0.908,0.117,1.275,0.398l-0.295,0.25c-0.265-0.204-0.547-0.311-0.998-0.311c-0.571,0-0.902,0.27-0.902,0.673
				c0,0.178,0.06,0.321,0.192,0.418c0.132,0.097,0.355,0.168,0.577,0.199l0.469,0.061c0.403,0.051,0.601,0.122,0.782,0.255
				c0.235,0.168,0.361,0.418,0.361,0.719C112.631,80.485,112.041,80.878,111.151,80.878z"/>
			<path fill="#999999" d="M116.606,80.847l-0.343-0.821h-1.871l-0.343,0.821h-0.487l1.576-3.629h0.385l1.57,3.629H116.606z
				 M115.337,77.774l-0.806,1.916h1.6L115.337,77.774z"/>
			<path fill="#999999" d="M121.04,80.847l-2.274-2.91v2.91h-0.457v-3.629h0.433l2.274,2.9v-2.9h0.457v3.629H121.04z"/>
			<path fill="#999999" d="M124.493,77.565v3.282h-0.457v-3.282h-1.239v-0.346h2.935v0.346H124.493z"/>
			<path fill="#999999" d="M129.19,80.847l-0.343-0.821h-1.871l-0.343,0.821h-0.487l1.576-3.629h0.385l1.57,3.629H129.19z
				 M127.921,77.774l-0.806,1.916h1.6L127.921,77.774z"/>
			<path fill="#999999" d="M133.371,77.565V78.9h1.877v0.346h-1.877v1.6h-0.457v-3.629h2.658v0.346H133.371z"/>
			<path fill="#999999" d="M136.926,80.847v-3.629h2.658v0.346h-2.201v1.279h1.877v0.346h-1.877v1.31h2.201v0.347H136.926z"/>
			<path fill="#999999" d="M143.079,80.847v-3.629h0.457v3.629H143.079z"/>
			<path fill="#999999" d="M148.03,80.847l-2.274-2.91v2.91h-0.457v-3.629h0.433l2.274,2.9v-2.9h0.457v3.629H148.03z"/>
			<path fill="#999999" d="M151.326,80.878c-0.644,0-1.065-0.138-1.468-0.479l0.313-0.265c0.355,0.301,0.686,0.398,1.167,0.398
				c0.626,0,1.01-0.25,1.01-0.673c0-0.189-0.066-0.352-0.205-0.454c-0.138-0.102-0.247-0.132-0.559-0.173l-0.499-0.066
				c-0.337-0.046-0.601-0.138-0.788-0.275c-0.217-0.163-0.325-0.387-0.325-0.678c0-0.617,0.523-1.024,1.371-1.024
				c0.547,0,0.908,0.117,1.275,0.398l-0.295,0.25c-0.265-0.204-0.547-0.311-0.998-0.311c-0.571,0-0.902,0.27-0.902,0.673
				c0,0.178,0.06,0.321,0.192,0.418s0.355,0.168,0.577,0.199l0.469,0.061c0.403,0.051,0.601,0.122,0.782,0.255
				c0.235,0.168,0.361,0.418,0.361,0.719C152.806,80.485,152.216,80.878,151.326,80.878z"/>
			<path fill="#999999" d="M155.543,77.565v3.282h-0.457v-3.282h-1.239v-0.346h2.935v0.346H155.543z"/>
			<path fill="#999999" d="M158.105,80.847v-3.629h0.457v3.629H158.105z"/>
			<path fill="#999999" d="M161.582,77.565v3.282h-0.457v-3.282h-1.239v-0.346h2.935v0.346H161.582z"/>
			<path fill="#999999" d="M165.576,80.878c-0.866,0-1.492-0.505-1.492-1.228v-2.431h0.457v2.4c0,0.55,0.409,0.912,1.035,0.912
				c0.626,0,1.041-0.362,1.041-0.912v-2.4h0.457v2.431C167.074,80.373,166.442,80.878,165.576,80.878z"/>
			<path fill="#999999" d="M170.033,77.565v3.282h-0.457v-3.282h-1.239v-0.346h2.935v0.346H170.033z"/>
			<path fill="#999999" d="M172.596,80.847v-3.629h2.658v0.346h-2.201v1.279h1.877v0.346h-1.877v1.31h2.201v0.347H172.596z"/>
		</g>
		<g>
			<path fill="#2B6FA5" d="M110.67,72.436v-6.805h4.224v0.65h-3.498v2.399h2.982v0.65h-2.982v2.456h3.498v0.65H110.67z"/>
			<path fill="#2B6FA5" d="M122.56,72.436l-1.654-2.858l-1.663,2.858h-0.822l2.084-3.489l-1.95-3.317h0.841l1.51,2.686l1.51-2.686
				h0.841l-1.959,3.317l2.103,3.489H122.56z"/>
			<path fill="#2B6FA5" d="M129.92,69.635h-1.806v2.8h-0.726v-6.805h2.533c1.243,0,2.103,0.774,2.103,1.998
				C132.023,68.852,131.162,69.635,129.92,69.635z M129.853,66.281h-1.74v2.705h1.74c0.851,0,1.443-0.459,1.443-1.357
				C131.296,66.73,130.704,66.281,129.853,66.281z"/>
			<path fill="#2B6FA5" d="M136.266,72.436v-6.805h0.726v6.155h3.479v0.65H136.266z"/>
			<path fill="#2B6FA5" d="M148.118,71.786c-0.459,0.459-1.061,0.707-1.739,0.707c-0.679,0-1.281-0.249-1.74-0.707
				c-0.64-0.64-0.64-1.31-0.64-2.753c0-1.443,0-2.112,0.64-2.753c0.459-0.459,1.061-0.707,1.74-0.707
				c0.679,0,1.281,0.248,1.739,0.707c0.64,0.64,0.64,1.309,0.64,2.753C148.759,70.476,148.759,71.145,148.118,71.786z
				 M147.554,66.711c-0.296-0.306-0.726-0.487-1.176-0.487c-0.449,0-0.879,0.182-1.176,0.487c-0.43,0.44-0.478,0.899-0.478,2.323
				c0,1.424,0.048,1.883,0.478,2.323c0.296,0.306,0.726,0.487,1.176,0.487c0.449,0,0.879-0.181,1.176-0.487
				c0.43-0.44,0.478-0.898,0.478-2.323C148.032,67.609,147.985,67.15,147.554,66.711z"/>
			<path fill="#2B6FA5" d="M157.237,72.436l-1.548-3.02h-1.634v3.02h-0.726v-6.805h2.609c1.185,0,2.017,0.717,2.017,1.892
				c0,0.994-0.602,1.644-1.482,1.826l1.615,3.087H157.237z M155.87,66.281h-1.816v2.495h1.816c0.793,0,1.357-0.411,1.357-1.243
				C157.227,66.701,156.663,66.281,155.87,66.281z"/>
			<path fill="#2B6FA5" d="M162.456,72.436v-6.805h4.224v0.65h-3.498v2.399h2.982v0.65h-2.982v2.456h3.498v0.65H162.456z"/>
			<path fill="#2B6FA5" d="M174.957,72.436l-1.548-3.02h-1.634v3.02h-0.726v-6.805h2.609c1.185,0,2.017,0.717,2.017,1.892
				c0,0.994-0.602,1.644-1.482,1.826l1.615,3.087H174.957z M173.59,66.281h-1.816v2.495h1.816c0.793,0,1.357-0.411,1.357-1.243
				C174.948,66.701,174.384,66.281,173.59,66.281z"/>
		</g>
		<rect x="109.686" y="75.558" fill="#999999" width="66.142" height="0.127"/>
	</g>
</g>
<g id="Layer_2">
</g>
</svg>
