<?xml version="1.0" encoding="utf-8"?>
<!-- Generator: Adobe Illustrator 21.0.2, SVG Export Plug-In . SVG Version: 6.00 Build 0)  -->
<svg version="1.1" xmlns="http://www.w3.org/2000/svg" xmlns:xlink="http://www.w3.org/1999/xlink" x="0px" y="0px"
	 viewBox="0 0 200 125" enable-background="new 0 0 200 125" xml:space="preserve">
<g id="Layer_1">
	<g>
		<g>
			<g>
				<path fill="#77787B" d="M96.868,50.647c-2.967,0-4.966-2.284-4.966-5.664c0-3.363,2.031-5.695,5.046-5.695
					c1.238,0,2.253,0.364,3.078,0.936l-0.174,1.11c-0.857-0.618-1.809-1.063-2.919-1.063c-2.412,0-3.903,1.903-3.903,4.68
					c0,2.808,1.507,4.696,3.886,4.696c1.175,0,2.238-0.461,3.126-1.143l0.159,1.047C99.374,50.171,98.168,50.647,96.868,50.647z"/>
				<path fill="#77787B" d="M111.083,50.551l-1.412-3.649h-4.791l-1.349,3.538h-1.111l4.316-11.011h1.127l4.284,10.884
					L111.083,50.551z M107.275,40.716l-1.999,5.219h4.03L107.275,40.716z"/>
				<path fill="#77787B" d="M115.129,50.44V39.493h1.094v9.964h4.22l0.159,0.984H115.129z"/>
				<path fill="#77787B" d="M123.854,50.44V39.493h1.095V50.44H123.854z"/>
				<path fill="#77787B" d="M130.628,40.477v3.919h3.522l0.159,0.984h-3.681v5.061h-1.095V39.493h5.49v0.984H130.628z"/>
				<path fill="#77787B" d="M142.425,50.647c-2.912,0-4.911-2.316-4.911-5.664c0-3.363,2.031-5.695,4.942-5.695
					c2.951,0,4.935,2.316,4.935,5.664C147.391,48.298,145.376,50.647,142.425,50.647z M142.441,40.271
					c-2.294,0-3.801,1.903-3.801,4.68c0,2.808,1.524,4.711,3.817,4.711c2.301,0,3.808-1.903,3.808-4.68
					C146.265,42.175,144.741,40.271,142.441,40.271z"/>
				<path fill="#77787B" d="M157.794,50.314l-1.11,0.238l-3.554-4.95h-1.412v4.839h-1.095V39.493h2.792
					c2.142,0,3.507,1.079,3.507,2.984c0,1.697-1.095,2.665-2.602,2.982L157.794,50.314z M153.368,40.461h-1.65v4.204h1.46
					c1.618,0,2.633-0.73,2.633-2.125C155.811,41.208,154.954,40.461,153.368,40.461z"/>
				<path fill="#77787B" d="M168.315,50.44l-6.394-9.217v9.217h-1.031V39.493h1.031l6.204,8.933v-8.933h1.031V50.44H168.315z"/>
				<path fill="#77787B" d="M173.457,50.44V39.493h1.095V50.44H173.457z"/>
				<path fill="#77787B" d="M186.324,50.551l-1.412-3.649h-4.791l-1.349,3.538h-1.111l4.316-11.011h1.127l4.284,10.884
					L186.324,50.551z M182.516,40.716l-1.999,5.219h4.03L182.516,40.716z"/>
				<path fill="#77787B" d="M100.215,69.061l-1.411-3.649h-4.791l-1.349,3.538h-1.11l4.315-11.011h1.127l4.283,10.884
					L100.215,69.061z M96.407,59.225l-1.999,5.219h4.03L96.407,59.225z"/>
				<path fill="#77787B" d="M107.376,69.157c-2.967,0-4.966-2.284-4.966-5.664c0-3.363,2.031-5.695,5.046-5.695
					c1.237,0,2.252,0.364,3.077,0.936l-0.174,1.11c-0.856-0.618-1.809-1.063-2.919-1.063c-2.412,0-3.903,1.903-3.903,4.68
					c0,2.808,1.508,4.696,3.888,4.696c1.174,0,2.238-0.461,3.126-1.143l0.159,1.047C109.883,68.68,108.677,69.157,107.376,69.157z"
					/>
				<path fill="#77787B" d="M120.907,69.061l-1.411-3.649h-4.791l-1.349,3.538h-1.11l4.315-11.011h1.127l4.284,10.884
					L120.907,69.061z M117.1,59.225l-1.998,5.219h4.029L117.1,59.225z"/>
				<path fill="#77787B" d="M127.031,68.95h-2.935V58.002h2.982c3.65,0,5.696,2.207,5.696,5.459
					C132.776,66.825,130.553,68.95,127.031,68.95z M127.096,58.986h-1.904v8.98h1.904c2.776,0,4.552-1.491,4.552-4.489
					C131.648,60.525,129.824,58.986,127.096,58.986z"/>
				<path fill="#77787B" d="M135.189,68.95V58.002h5.714v0.984h-4.619v3.744h3.649l0.159,0.984h-3.808v4.252h4.778v0.984H135.189z"
					/>
				<path fill="#77787B" d="M154.037,68.95l-0.714-9.344l-3.791,9.407h-0.857l-3.808-9.407l-0.714,9.344h-1.015l0.873-10.948h1.349
					l3.76,9.552l3.776-9.552h1.332L155.1,68.95H154.037z"/>
				<path fill="#77787B" d="M161.428,64.397v4.552h-1.095v-4.537l-3.871-6.299l1.079-0.222l3.363,5.553l3.269-5.442h1.19
					L161.428,64.397z"/>
				<path fill="#77787B" d="M174.501,69.157c-2.919,0-4.919-2.316-4.919-5.664c0-3.363,2.031-5.695,4.95-5.695
					c2.951,0,4.934,2.316,4.934,5.664C179.467,66.808,177.452,69.157,174.501,69.157z M174.516,58.781
					c-2.3,0-3.808,1.903-3.808,4.68c0,2.808,1.523,4.711,3.824,4.711c2.3,0,3.807-1.903,3.807-4.68
					C178.34,60.684,176.817,58.781,174.516,58.781z"/>
				<path fill="#77787B" d="M183.037,58.986v3.919h3.522l0.158,0.984h-3.68v5.061h-1.095V58.002h5.489v0.984H183.037z"/>
			</g>
			<g>
				<g>
					<path fill="#77787B" d="M92.085,80.249c0,2.188,1.168,3.087,3.786,4.276c2.187,0.988,2.69,1.5,2.69,2.741
						c0,1.287-0.943,2.088-2.462,2.088c-1.633,0-3.028-0.76-3.715-1.212l-0.13-0.086l-0.324,2.223l0.062,0.034
						c1.155,0.611,2.598,0.948,4.065,0.948c2.774,0,4.638-1.664,4.638-4.139c0-2.134-0.854-3.14-3.806-4.484
						c-2.146-0.981-2.669-1.478-2.669-2.533c0-1.15,0.85-1.837,2.274-1.837c1.014,0,2.092,0.38,2.96,1.042l0.132,0.101l0.349-2.188
						l-0.059-0.035c-0.966-0.555-2.052-0.825-3.319-0.825C93.882,76.36,92.085,77.922,92.085,80.249z"/>
				</g>
				<g>
					<path fill="#77787B" d="M103.225,83.831c0,4.506,2.709,7.534,6.742,7.534c1.558,0,3.207-0.529,4.41-1.415l0.048-0.036
						l-0.325-2.072l-0.131,0.096c-1.294,0.94-2.634,1.418-3.982,1.418c-2.803,0-4.544-2.124-4.544-5.544
						c0-3.433,1.741-5.565,4.544-5.565c1.324,0,2.516,0.436,3.751,1.375l0.134,0.102l0.325-2.227l-0.052-0.035
						c-1.209-0.821-2.524-1.205-4.137-1.205C105.951,76.255,103.225,79.3,103.225,83.831z"/>
				</g>
				<g>
					<path fill="#77787B" d="M118.383,76.527v14.567h2.156V76.527H118.383z"/>
				</g>
				<g>
					<path fill="#77787B" d="M125.754,76.527v14.567h8.153v-1.99c0,0-5.805,0-5.997,0c0-0.186,0-4.445,0-4.631
						c0.19,0,4.807,0,4.807,0l-0.324-1.99c0,0-4.294,0-4.483,0c0-0.185,0-3.783,0-3.966c0.191,0,5.789,0,5.789,0v-1.99H125.754z"/>
				</g>
				<g>
					<path fill="#77787B" d="M147.404,76.527c0,0,0,9.965,0,10.552c-0.343-0.484-7.464-10.552-7.464-10.552h-1.899v14.567h2.01
						c0,0,0-10.378,0-10.968c0.343,0.487,7.734,10.968,7.734,10.968h1.629V76.527H147.404z"/>
				</g>
				<g>
					<path fill="#77787B" d="M152.672,83.831c0,4.506,2.709,7.534,6.742,7.534c1.558,0,3.207-0.529,4.411-1.415l0.048-0.036
						l-0.325-2.072l-0.131,0.096c-1.295,0.94-2.634,1.418-3.982,1.418c-2.803,0-4.544-2.124-4.544-5.544
						c0-3.433,1.741-5.565,4.544-5.565c1.324,0,2.516,0.436,3.751,1.375l0.134,0.102l0.325-2.227l-0.052-0.035
						c-1.209-0.821-2.524-1.205-4.137-1.205C155.398,76.255,152.672,79.3,152.672,83.831z"/>
				</g>
				<g>
					<path fill="#77787B" d="M167.394,76.527v14.567h8.153v-1.99c0,0-5.806,0-5.997,0c0-0.186,0-4.445,0-4.631
						c0.19,0,4.807,0,4.807,0l-0.323-1.99c0,0-4.294,0-4.483,0c0-0.185,0-3.783,0-3.966c0.191,0,5.789,0,5.789,0v-1.99H167.394z"/>
				</g>
				<g>
					<path fill="#77787B" d="M178.888,80.249c0,2.187,1.168,3.087,3.786,4.276c2.187,0.988,2.69,1.5,2.69,2.741
						c0,1.287-0.943,2.088-2.462,2.088c-1.632,0-3.028-0.76-3.714-1.212l-0.13-0.086l-0.324,2.223l0.062,0.034
						c1.156,0.611,2.599,0.948,4.065,0.948c2.775,0,4.639-1.664,4.639-4.139c0-2.134-0.854-3.14-3.806-4.484
						c-2.147-0.981-2.67-1.478-2.67-2.533c0-1.15,0.85-1.837,2.274-1.837c1.014,0,2.092,0.38,2.959,1.042l0.132,0.101l0.349-2.188
						l-0.059-0.035c-0.966-0.555-2.052-0.825-3.319-0.825C180.685,76.36,178.888,77.922,178.888,80.249z"/>
				</g>
			</g>
		</g>
		<g>
			<g>
				<path fill="#B1B3B6" d="M36.02,46.194c-0.744-0.559-1.447-1.155-2.128-1.765c0.449,2.288,0.68,4.574,0.108,7.059
					c0.644-0.147,1.303-0.35,1.977-0.618C36.234,49.241,36.202,47.693,36.02,46.194z M20.421,63.5
					c-1.099,0.345-2.221,0.715-3.34,1.17c-1.607,0.656-3.043,1.525-4.265,2.576c-0.381,0.329-0.424,0.904-0.096,1.287
					c0.327,0.378,0.904,0.422,1.284,0.094c1.072-0.923,2.34-1.687,3.765-2.269c1.32-0.538,2.68-0.963,3.995-1.369
					c0.556-0.173,1.114-0.345,1.672-0.528c-0.728-0.247-1.465-0.478-2.211-0.709C20.96,63.668,20.692,63.585,20.421,63.5z
					 M33.217,41.338c0.208,0.191,0.416,0.382,0.62,0.572c0.573,0.53,1.141,1.055,1.72,1.558c-0.122-0.574-0.25-1.144-0.38-1.711
					c-0.304-1.343-0.62-2.731-0.813-4.144c-0.208-1.526-0.179-3.006,0.084-4.397c0.095-0.494-0.231-0.971-0.726-1.064
					c-0.493-0.094-0.971,0.23-1.063,0.724c-0.3,1.586-0.333,3.261-0.099,4.983C32.725,39.058,32.966,40.213,33.217,41.338z
					 M32.345,55.61c-0.424,0.736-0.873,1.382-1.338,1.97c-0.451,0.569-0.919,1.072-1.403,1.523
					c-1.866,1.737-3.963,2.682-6.167,3.437c0.868,0.285,1.736,0.594,2.593,0.96c1.388-0.592,2.745-1.338,4.027-2.375
					c0.54-0.436,1.066-0.927,1.577-1.478c0.808-0.873,1.577-1.895,2.29-3.127c0.711-1.232,1.21-2.409,1.562-3.546
					c-0.717,0.222-1.418,0.384-2.104,0.492C33.107,54.161,32.77,54.873,32.345,55.61z"/>
				<path fill="#B1B3B6" d="M43.637,79.454c-0.436-0.54-0.927-1.065-1.478-1.574c-0.873-0.808-1.895-1.578-3.128-2.29
					c-1.231-0.71-2.408-1.211-3.545-1.563c0.223,0.717,0.385,1.417,0.491,2.103c0.697,0.278,1.408,0.613,2.144,1.039
					c0.737,0.423,1.383,0.873,1.97,1.336c0.569,0.451,1.074,0.921,1.525,1.402c1.737,1.867,2.68,3.962,3.436,6.17
					c0.285-0.869,0.595-1.738,0.961-2.594C45.421,82.095,44.673,80.738,43.637,79.454z M51.139,95.507
					c-0.924-1.074-1.687-2.341-2.271-3.766c-0.538-1.318-0.96-2.679-1.367-3.995c-0.172-0.554-0.345-1.113-0.528-1.669
					c-0.249,0.724-0.478,1.463-0.71,2.208c-0.082,0.266-0.167,0.535-0.25,0.804c0.345,1.101,0.713,2.223,1.171,3.341
					c0.657,1.609,1.524,3.042,2.575,4.266c0.329,0.381,0.905,0.423,1.284,0.096C51.424,96.464,51.466,95.888,51.139,95.507z
					 M20.126,75.149c-1.527,0.208-3.006,0.178-4.397-0.085c-0.493-0.094-0.971,0.231-1.064,0.726
					c-0.094,0.492,0.23,0.97,0.724,1.064c1.585,0.301,3.262,0.334,4.983,0.099c1.198-0.167,2.354-0.408,3.48-0.657
					c0.19-0.208,0.382-0.416,0.57-0.618c0.53-0.575,1.056-1.144,1.561-1.721c-0.575,0.12-1.145,0.249-1.713,0.378
					C22.927,74.64,21.537,74.954,20.126,75.149z M28.707,73.491c-0.559,0.746-1.155,1.448-1.764,2.13
					c2.288-0.451,4.573-0.682,7.059-0.107c-0.148-0.647-0.351-1.304-0.619-1.979C31.752,73.278,30.204,73.31,28.707,73.491z"/>
				<path fill="#B1B3B6" d="M61.967,65.877c-0.54,0.434-1.066,0.924-1.576,1.475c-0.809,0.875-1.578,1.895-2.289,3.128
					c-0.711,1.232-1.211,2.408-1.564,3.547c0.717-0.222,1.418-0.384,2.104-0.493c0.276-0.696,0.612-1.409,1.037-2.145
					c0.425-0.735,0.874-1.383,1.338-1.97c0.452-0.569,0.92-1.074,1.404-1.523c1.866-1.737,3.962-2.683,6.168-3.435
					c-0.87-0.287-1.737-0.596-2.594-0.962C64.606,64.092,63.249,64.84,61.967,65.877z M58.807,85.663
					c-0.208-0.191-0.416-0.382-0.619-0.571c-0.573-0.531-1.141-1.056-1.719-1.561c0.12,0.573,0.25,1.145,0.378,1.712
					c0.305,1.344,0.62,2.731,0.814,4.143c0.207,1.527,0.181,3.007-0.083,4.398c-0.096,0.492,0.23,0.97,0.724,1.064
					c0.494,0.093,0.971-0.231,1.064-0.726c0.302-1.583,0.335-3.26,0.099-4.981C59.299,87.943,59.058,86.787,58.807,85.663z
					 M58.023,75.513c-0.644,0.147-1.303,0.349-1.976,0.616c-0.258,1.629-0.226,3.178-0.044,4.677
					c0.744,0.558,1.446,1.154,2.128,1.766C57.683,80.284,57.452,77.996,58.023,75.513z M79.305,58.469
					c-0.329-0.38-0.904-0.423-1.285-0.096c-1.073,0.925-2.341,1.687-3.766,2.271c-1.318,0.536-2.678,0.96-3.995,1.367
					c-0.556,0.172-1.114,0.345-1.671,0.528c0.727,0.249,1.465,0.478,2.211,0.711c0.266,0.081,0.534,0.164,0.804,0.249
					c1.099-0.345,2.221-0.713,3.34-1.17c1.609-0.656,3.043-1.525,4.265-2.576C79.59,59.425,79.631,58.849,79.305,58.469z"/>
				<path fill="#B1B3B6" d="M58.023,51.489c0.147,0.644,0.351,1.301,0.618,1.977c1.631,0.256,3.178,0.225,4.676,0.043
					c0.559-0.745,1.154-1.447,1.764-2.128C62.795,51.83,60.508,52.06,58.023,51.489z M53.903,49.833
					c-0.736-0.423-1.384-0.872-1.971-1.338c-0.568-0.45-1.074-0.918-1.523-1.402c-1.737-1.867-2.682-3.962-3.436-6.168
					c-0.284,0.87-0.596,1.737-0.961,2.593c0.591,1.389,1.339,2.745,2.374,4.028c0.438,0.54,0.927,1.067,1.478,1.576
					c0.874,0.808,1.897,1.578,3.128,2.29c1.231,0.711,2.409,1.212,3.545,1.564c-0.222-0.718-0.383-1.418-0.49-2.104
					C55.351,50.594,54.638,50.259,53.903,49.833z M44.843,34.57c-0.658-1.608-1.525-3.043-2.576-4.266
					c-0.329-0.381-0.906-0.424-1.286-0.096c-0.38,0.328-0.424,0.904-0.096,1.284c0.924,1.073,1.688,2.341,2.271,3.765
					c0.538,1.32,0.96,2.679,1.367,3.996c0.172,0.555,0.346,1.114,0.529,1.671c0.248-0.726,0.479-1.464,0.71-2.21
					c0.082-0.266,0.166-0.535,0.251-0.803C45.667,36.81,45.298,35.689,44.843,34.57z M76.635,50.148
					c-1.586-0.301-3.262-0.334-4.983-0.099c-1.197,0.164-2.353,0.405-3.478,0.657c-0.191,0.208-0.382,0.414-0.571,0.619
					c-0.53,0.573-1.054,1.141-1.558,1.72c0.574-0.121,1.143-0.25,1.71-0.379c1.345-0.303,2.733-0.62,4.146-0.813
					c1.525-0.208,3.004-0.181,4.396,0.083c0.493,0.094,0.972-0.23,1.064-0.724C77.454,50.718,77.13,50.241,76.635,50.148z"/>
			</g>
			<g>
				<path fill="#679146" d="M31.634,59.647c-0.511,0.551-1.037,1.041-1.577,1.478c0.11,0.74,0.174,1.525,0.174,2.375
					c0,0.85-0.065,1.635-0.174,2.375c0.54,0.436,1.066,0.926,1.577,1.477c0.263-1.161,0.418-2.431,0.418-3.852
					C32.052,62.076,31.897,60.809,31.634,59.647z M21.543,48.021c0.741,0.955,1.528,1.835,2.309,2.684
					c0.19,0.208,0.382,0.415,0.57,0.619c0.53,0.573,1.055,1.141,1.56,1.72c1.533,1.756,2.876,3.621,3.623,6.059
					c0.484-0.451,0.953-0.954,1.403-1.523c-0.593-1.54-1.395-2.865-2.301-4.072c-0.559-0.745-1.155-1.447-1.764-2.128
					c-0.393-0.436-0.79-0.866-1.185-1.292c-0.935-1.011-1.902-2.056-2.776-3.181c-0.943-1.219-1.658-2.513-2.126-3.85
					c-0.165-0.474-0.684-0.725-1.159-0.558c-0.474,0.164-0.725,0.685-0.559,1.159C19.669,45.179,20.479,46.647,21.543,48.021z
					 M29.604,67.897c-0.748,2.437-2.09,4.301-3.622,6.059c-0.505,0.577-1.031,1.147-1.561,1.721c-0.188,0.203-0.38,0.411-0.57,0.618
					c-0.78,0.848-1.568,1.729-2.309,2.686c-1.064,1.371-1.873,2.84-2.405,4.363c-0.166,0.474,0.085,0.995,0.559,1.159
					c0.474,0.167,0.994-0.085,1.159-0.559c0.467-1.338,1.183-2.633,2.126-3.85c0.873-1.126,1.841-2.169,2.776-3.181
					c0.395-0.426,0.791-0.856,1.185-1.292c0.609-0.682,1.205-1.384,1.764-2.13c0.906-1.205,1.708-2.531,2.3-4.071
					C30.557,68.85,30.088,68.347,29.604,67.897z"/>
				<path fill="#679146" d="M66.455,88.656c-1.336-0.466-2.631-1.183-3.848-2.124c-1.126-0.875-2.171-1.841-3.182-2.779
					c-0.427-0.395-0.856-0.791-1.294-1.181c-0.682-0.612-1.384-1.208-2.128-1.766c-1.207-0.906-2.533-1.707-4.07-2.301
					c-0.569,0.451-1.075,0.921-1.524,1.402c2.437,0.749,4.302,2.093,6.059,3.624c0.578,0.505,1.146,1.03,1.719,1.561
					c0.203,0.189,0.411,0.38,0.619,0.571c0.85,0.78,1.73,1.567,2.684,2.307c1.374,1.064,2.842,1.872,4.365,2.405
					c0.474,0.167,0.995-0.085,1.159-0.559C67.181,89.341,66.932,88.823,66.455,88.656z M40.091,78.505
					c-1.538,0.594-2.863,1.394-4.071,2.301c-0.744,0.558-1.447,1.154-2.128,1.766c-0.436,0.39-0.866,0.786-1.292,1.181
					c-1.012,0.937-2.057,1.903-3.182,2.776c-1.219,0.944-2.513,1.66-3.849,2.126c-0.475,0.167-0.726,0.686-0.559,1.161
					c0.165,0.474,0.685,0.726,1.159,0.558c1.522-0.531,2.992-1.34,4.364-2.404c0.955-0.742,1.836-1.53,2.684-2.309
					c0.208-0.191,0.415-0.382,0.62-0.572c0.572-0.529,1.141-1.054,1.72-1.558c1.756-1.534,3.622-2.875,6.059-3.624
					C41.165,79.425,40.66,78.955,40.091,78.505z M42.159,77.88c0.551,0.509,1.042,1.034,1.478,1.574
					c0.74-0.107,1.525-0.172,2.375-0.172c0.85,0,1.634,0.065,2.376,0.172c0.436-0.54,0.926-1.065,1.478-1.574
					c-1.161-0.265-2.431-0.421-3.853-0.421C44.59,77.459,43.32,77.615,42.159,77.88z"/>
				<path fill="#679146" d="M48.386,47.545c-0.74,0.109-1.525,0.174-2.374,0.174c-0.85,0-1.635-0.065-2.375-0.174
					c-0.436,0.54-0.927,1.066-1.478,1.576c1.161,0.264,2.431,0.419,3.853,0.419c1.422,0,2.692-0.155,3.852-0.419
					C49.313,48.612,48.824,48.085,48.386,47.545z M67.014,37.184c-0.165-0.474-0.684-0.724-1.159-0.559
					c-1.523,0.532-2.99,1.342-4.363,2.406c-0.955,0.741-1.836,1.528-2.685,2.309c-0.208,0.19-0.413,0.381-0.618,0.57
					c-0.574,0.53-1.142,1.055-1.72,1.559c-1.757,1.533-3.623,2.875-6.059,3.623c0.449,0.484,0.955,0.953,1.523,1.402
					c1.538-0.592,2.864-1.393,4.072-2.3c0.744-0.559,1.446-1.154,2.128-1.765c0.438-0.392,0.866-0.789,1.294-1.183
					c1.011-0.935,2.056-1.903,3.182-2.776c1.218-0.944,2.513-1.658,3.848-2.126C66.932,38.179,67.181,37.66,67.014,37.184z
					 M33.837,41.91c-0.204-0.19-0.412-0.38-0.62-0.572c-0.848-0.779-1.729-1.566-2.684-2.307c-1.372-1.064-2.84-1.874-4.364-2.406
					c-0.473-0.165-0.995,0.085-1.159,0.559c-0.166,0.476,0.085,0.995,0.559,1.16c1.336,0.467,2.632,1.182,3.849,2.126
					c1.125,0.873,2.17,1.841,3.182,2.776c0.426,0.395,0.857,0.792,1.292,1.183c0.681,0.61,1.384,1.206,2.128,1.765
					c1.208,0.906,2.533,1.708,4.072,2.3c0.568-0.45,1.073-0.918,1.524-1.402c-2.438-0.748-4.303-2.09-6.059-3.624
					C34.978,42.964,34.41,42.44,33.837,41.91z"/>
				<path fill="#679146" d="M62.42,59.103c0.748-2.438,2.09-4.303,3.624-6.059c0.505-0.578,1.028-1.147,1.558-1.72
					c0.189-0.205,0.38-0.411,0.571-0.619c0.78-0.849,1.567-1.73,2.309-2.683c1.064-1.374,1.872-2.843,2.405-4.365
					c0.167-0.475-0.084-0.995-0.56-1.161c-0.474-0.165-0.995,0.085-1.16,0.559c-0.467,1.337-1.182,2.633-2.125,3.85
					c-0.874,1.125-1.84,2.17-2.776,3.181c-0.395,0.427-0.792,0.856-1.185,1.293c-0.61,0.681-1.205,1.383-1.764,2.128
					c-0.907,1.207-1.708,2.532-2.301,4.072C61.468,58.149,61.936,58.654,62.42,59.103z M70.482,78.981
					c-0.742-0.957-1.529-1.837-2.309-2.686c-0.19-0.208-0.381-0.416-0.571-0.618c-0.53-0.575-1.054-1.144-1.559-1.721
					c-1.533-1.758-2.875-3.622-3.623-6.059c-0.484,0.449-0.952,0.954-1.404,1.523c0.593,1.54,1.396,2.864,2.301,4.071
					c0.559,0.746,1.156,1.448,1.766,2.13c0.391,0.436,0.788,0.865,1.183,1.292c0.935,1.012,1.902,2.055,2.776,3.181
					c0.943,1.218,1.658,2.513,2.125,3.85c0.165,0.474,0.684,0.726,1.16,0.559c0.476-0.164,0.725-0.686,0.558-1.159
					C72.354,81.822,71.545,80.352,70.482,78.981z M61.793,63.5c0-0.85,0.064-1.635,0.173-2.375
					c-0.539-0.436-1.065-0.927-1.576-1.478c-0.262,1.162-0.418,2.431-0.418,3.853c0,1.423,0.156,2.693,0.418,3.852
					c0.511-0.551,1.036-1.041,1.576-1.475C61.857,65.135,61.793,64.349,61.793,63.5z"/>
			</g>
			<g>
				<path fill="#E66A1F" d="M35.977,76.129c-0.107-0.686-0.269-1.385-0.491-2.103c-0.352-1.139-0.852-2.315-1.564-3.547
					c-0.711-1.232-1.48-2.255-2.288-3.128c-0.511-0.551-1.037-1.041-1.577-1.477c-1.282-1.035-2.639-1.783-4.027-2.375
					c-0.857-0.366-1.725-0.675-2.593-0.96c-0.558-0.183-1.116-0.358-1.672-0.528c-1.314-0.407-2.675-0.829-3.995-1.367
					c-1.425-0.584-2.693-1.346-3.765-2.271c-0.38-0.328-0.957-0.287-1.284,0.096c-0.329,0.38-0.286,0.956,0.096,1.285
					c1.221,1.051,2.657,1.92,4.265,2.576c1.119,0.455,2.241,0.825,3.34,1.17c0.271,0.085,0.538,0.168,0.804,0.251
					c0.746,0.231,1.484,0.462,2.211,0.709c2.205,0.754,4.301,1.7,6.167,3.437c0.484,0.451,0.953,0.954,1.403,1.523
					c0.465,0.588,0.914,1.234,1.338,1.972c0.425,0.735,0.761,1.446,1.037,2.142c0.268,0.675,0.471,1.332,0.619,1.979
					c0.571,2.483,0.341,4.771-0.108,7.059c0.681-0.612,1.384-1.208,2.128-1.766C36.202,79.306,36.234,77.758,35.977,76.129z
					 M33.217,85.661c-0.251,1.123-0.492,2.281-0.657,3.478c-0.234,1.722-0.201,3.397,0.098,4.982
					c0.093,0.494,0.571,0.819,1.064,0.726c0.495-0.094,0.819-0.572,0.726-1.064c-0.263-1.391-0.292-2.87-0.084-4.398
					c0.193-1.412,0.509-2.799,0.813-4.143c0.129-0.567,0.258-1.139,0.38-1.712c-0.58,0.505-1.148,1.029-1.72,1.558
					C33.632,85.279,33.425,85.47,33.217,85.661z"/>
				<path fill="#E66A1F" d="M58.641,73.534c-0.686,0.108-1.387,0.27-2.104,0.493c-1.136,0.352-2.314,0.853-3.545,1.563
					c-1.231,0.713-2.254,1.482-3.126,2.29c-0.552,0.509-1.041,1.034-1.478,1.574c-1.037,1.285-1.784,2.642-2.375,4.03
					c-0.365,0.856-0.676,1.725-0.961,2.594c-0.183,0.556-0.356,1.116-0.529,1.669c-0.407,1.316-0.83,2.676-1.367,3.995
					c-0.583,1.425-1.347,2.695-2.271,3.766c-0.329,0.381-0.285,0.957,0.096,1.285c0.38,0.328,0.957,0.285,1.284-0.096
					c1.054-1.224,1.92-2.657,2.576-4.266c0.457-1.118,0.826-2.24,1.171-3.341c0.084-0.27,0.168-0.538,0.25-0.804
					c0.232-0.745,0.461-1.483,0.71-2.208c0.755-2.208,1.699-4.302,3.436-6.17c0.449-0.482,0.955-0.952,1.524-1.402
					c0.587-0.464,1.234-0.913,1.97-1.336c0.735-0.426,1.449-0.762,2.145-1.039c0.673-0.267,1.332-0.469,1.976-0.616
					c2.485-0.575,4.773-0.343,7.06,0.107c-0.611-0.682-1.207-1.384-1.766-2.13C61.819,73.31,60.272,73.278,58.641,73.534z
					 M77.359,75.789c-0.095-0.493-0.571-0.82-1.064-0.726c-1.392,0.263-2.872,0.293-4.398,0.085
					c-1.411-0.195-2.799-0.509-4.143-0.815c-0.567-0.129-1.136-0.258-1.711-0.378c0.505,0.577,1.029,1.147,1.559,1.721
					c0.189,0.203,0.38,0.411,0.571,0.618c1.125,0.249,2.281,0.491,3.477,0.657c1.723,0.235,3.399,0.199,4.983-0.098
					C77.128,76.759,77.454,76.281,77.359,75.789z"/>
				<path fill="#E66A1F" d="M23.851,50.705c-1.125-0.25-2.281-0.493-3.478-0.657c-1.722-0.235-3.399-0.202-4.983,0.098
					c-0.493,0.095-0.819,0.572-0.725,1.064c0.094,0.495,0.571,0.82,1.065,0.726c1.391-0.264,2.87-0.291,4.397-0.083
					c1.411,0.193,2.8,0.509,4.143,0.813c0.567,0.128,1.137,0.258,1.711,0.379c-0.505-0.58-1.03-1.147-1.56-1.72
					C24.233,51.12,24.041,50.913,23.851,50.705z M51.042,30.208c-0.379-0.328-0.955-0.286-1.283,0.096
					c-1.054,1.223-1.92,2.658-2.576,4.266c-0.458,1.119-0.825,2.241-1.17,3.341c-0.085,0.268-0.169,0.537-0.251,0.803
					c-0.231,0.746-0.462,1.484-0.71,2.21c-0.755,2.206-1.699,4.301-3.436,6.168c-0.451,0.484-0.956,0.953-1.524,1.402
					c-0.587,0.466-1.234,0.913-1.971,1.338c-0.736,0.425-1.447,0.762-2.144,1.037c-0.674,0.268-1.332,0.471-1.977,0.618
					c-2.485,0.571-4.772,0.342-7.059-0.108c0.609,0.682,1.205,1.383,1.764,2.128c1.498,0.182,3.047,0.213,4.676-0.043
					c0.686-0.108,1.387-0.27,2.104-0.492c1.137-0.352,2.314-0.852,3.545-1.563c1.232-0.711,2.255-1.482,3.128-2.29
					c0.551-0.51,1.042-1.036,1.478-1.576c1.035-1.283,1.784-2.64,2.375-4.028c0.365-0.856,0.677-1.724,0.961-2.593
					c0.183-0.557,0.356-1.115,0.528-1.671c0.407-1.315,0.829-2.676,1.367-3.995c0.584-1.426,1.347-2.693,2.271-3.766
					C51.466,31.112,51.424,30.536,51.042,30.208z"/>
				<path fill="#E66A1F" d="M58.807,41.34c0.252-1.127,0.493-2.282,0.658-3.479c0.235-1.722,0.201-3.397-0.099-4.983
					c-0.094-0.495-0.571-0.819-1.065-0.725c-0.493,0.093-0.819,0.57-0.725,1.064c0.265,1.392,0.292,2.871,0.085,4.397
					c-0.194,1.411-0.509,2.8-0.814,4.144c-0.128,0.567-0.258,1.137-0.378,1.712c0.578-0.505,1.147-1.03,1.72-1.559
					C58.393,41.721,58.599,41.53,58.807,41.34z M79.208,67.246c-1.222-1.051-2.658-1.92-4.265-2.576
					c-1.119-0.455-2.241-0.825-3.34-1.17c-0.27-0.085-0.538-0.169-0.804-0.249c-0.746-0.233-1.484-0.462-2.211-0.711
					c-2.206-0.755-4.301-1.7-6.167-3.437c-0.484-0.449-0.952-0.954-1.404-1.523c-0.464-0.586-0.913-1.234-1.338-1.97
					c-0.425-0.735-0.761-1.447-1.037-2.144c-0.267-0.675-0.471-1.332-0.618-1.977c-0.571-2.485-0.341-4.772,0.108-7.06
					c-0.682,0.611-1.384,1.206-2.128,1.765c-0.182,1.498-0.214,3.047,0.044,4.676c0.107,0.686,0.268,1.386,0.49,2.104
					c0.353,1.137,0.853,2.313,1.565,3.545c0.711,1.232,1.48,2.254,2.288,3.127c0.511,0.551,1.037,1.041,1.576,1.478
					c1.283,1.037,2.64,1.783,4.028,2.375c0.857,0.365,1.724,0.675,2.594,0.962c0.557,0.181,1.115,0.353,1.67,0.526
					c1.316,0.407,2.677,0.831,3.995,1.369c1.425,0.582,2.695,1.346,3.766,2.269c0.38,0.328,0.956,0.287,1.285-0.094
					C79.631,68.15,79.59,67.575,79.208,67.246z"/>
			</g>
		</g>
	</g>
</g>
<g id="Layer_2">
</g>
</svg>
