<?xml version="1.0" encoding="utf-8"?>
<!-- Generator: Adobe Illustrator 21.0.2, SVG Export Plug-In . SVG Version: 6.00 Build 0)  -->
<svg version="1.1" xmlns="http://www.w3.org/2000/svg" xmlns:xlink="http://www.w3.org/1999/xlink" x="0px" y="0px"
	 viewBox="0 0 200 125" enable-background="new 0 0 200 125" xml:space="preserve">
<g id="Layer_1">
	<g id="XMLID_2_">
		<path id="XMLID_96_" fill="#F47920" d="M108.686,41.181c5.8-0.007,11.589-0.014,17.39-0.018c0.003,2.63,0.005,5.269,0.007,7.899
			c3.412-0.002,6.804-0.007,10.219-0.009c0.004,3.619,0.007,7.24,0.01,10.864c-3.413,0.003-6.806,0.007-10.217,0.009
			c0.008,7.869,0.016,15.69,0.023,23.559c-4.291,0.377-9.545,0.694-12.906-0.384c-1.787-0.573-3.3-2.227-3.948-3.945
			c-0.569-1.492-0.589-14.589-0.594-19.211c-2.333,0-4.713,0.003-7.044,0.007c-0.005-3.624-0.007-7.245-0.011-10.864
			c2.33-0.002,4.711-0.005,7.044-0.007C108.655,46.482,108.588,43.623,108.686,41.181z"/>
		<path id="XMLID_95_" fill="#F47920" d="M35.643,48.167c9.921-0.74,21.034,2.352,23.135,9.401c0.066,0.317,0.325,1.708,0.325,1.708
			s0.055,19.373,0.06,24.328c-5.765,0.007-11.536,0.011-17.298,0.018c-0.004-3.261-0.007-6.528-0.009-9.787
			c-4.849,1.43-15.202,3.51-8.597,9.797c-4.184,0.004-15.256,0.041-17.208,0.016c-2.531-0.562-4.024-4.033-3.415-7.359
			c0.552-3.025,2.468-5.149,4.744-6.468c5.577-3.24,13.848-3.06,21.06-4.781c0.943-0.226,1.892-0.33,2.598-0.811
			c0.431-0.294,0.608-0.698,0.716-1.348c0.481-2.926-2.457-3.792-5.203-3.762c-0.822,0.007-1.96,0.137-2.689,0.363
			c-0.509,0.152-1.216,0.485-1.613,0.809c-0.834,0.67-1.343,1.625-1.34,3.143c-5.555,0.005-11.119,0.011-16.672,0.016
			c0.199-1.484,0.455-2.709,0.893-3.862c0.791-2.085,1.842-3.728,3.222-5.211C22.144,50.295,28.293,48.712,35.643,48.167z"/>
		<path id="XMLID_94_" fill="#F47920" d="M92.829,48.287c1.906-0.141,3.58,0.349,4.93,0.804c0.004,3.62,0.007,7.241,0.011,10.862
			c-3.097,0.005-6.45-0.187-8.604,0.728c-1.3,0.548-2.604,1.826-3.134,3.148c-0.679,1.682-0.443,4.419-0.441,6.732
			c0.005,4.333,0.008,8.681,0.014,13.019c-5.886,0.004-11.777,0.011-17.658,0.016c-0.011-11.493-0.023-22.981-0.035-34.474
			c5.378-0.007,10.91-0.011,16.293-0.018c0.002,1.352-0.099,3.062,0.024,4.133C85.977,50.436,88.594,48.601,92.829,48.287z"/>
		<path id="XMLID_91_" fill="#F47920" d="M185.522,60.404c-1.695-3.772-4.544-6.959-8.077-8.879
			c-4.066-2.212-9.827-3.707-16.405-3.215c-11.741,0.869-19.781,6.279-21.764,16.989c-0.744,4.005-0.261,8.636,0.908,11.851
			c0.494,1.361,2.739,6.009,3.772,6.37c1.493-0.081,9.615-0.01,12.817-0.012c-0.004-2.877-0.007-5.745-0.01-8.62
			c10.153-0.009,20.319-0.018,30.476-0.03C187.939,69.627,187.182,64.106,185.522,60.404z M156.216,65.821
			c0.12-1.56,0.314-2.667,0.892-3.682c0.903-1.597,2.51-2.699,4.749-2.93c5.514-0.575,8.006,2.008,8.521,6.598
			C165.659,65.809,160.933,65.816,156.216,65.821z"/>
	</g>
</g>
<g id="Layer_2">
</g>
</svg>
