<?xml version="1.0" encoding="utf-8"?>
<!-- Generator: Adobe Illustrator 21.0.2, SVG Export Plug-In . SVG Version: 6.00 Build 0)  -->
<svg version="1.1" xmlns="http://www.w3.org/2000/svg" xmlns:xlink="http://www.w3.org/1999/xlink" x="0px" y="0px"
	 viewBox="0 0 200 125" enable-background="new 0 0 200 125" xml:space="preserve">
<g id="Layer_1">
	<g>
		<path fill="#F4F4F7" d="M6.5,79.51l21.97,23.015V80.706h3.138v29.441L9.639,87.17v21.707H6.5V79.51z"/>
		<path fill="#F4F4F7" d="M64.68,94.83c0,8.107-6.651,14.534-14.683,14.534c-8.033,0-14.683-6.427-14.683-14.534
			c0-8.07,6.65-14.609,14.683-14.609C58.029,80.221,64.68,86.76,64.68,94.83z M38.451,94.791c0,6.352,5.156,11.658,11.546,11.658
			c6.389,0,11.545-5.306,11.545-11.658c0-6.389-5.081-11.657-11.545-11.657C43.532,83.134,38.451,88.402,38.451,94.791z"/>
		<path fill="#F4F4F7" d="M75.505,101.815l9.117-22.566l9.116,22.566l7.399-21.108h3.399l-10.797,29.627l-9.116-22.678
			l-9.117,22.678L64.707,80.706h3.4L75.505,101.815z"/>
		<path fill="#F4F4F7" d="M107.628,79.51l21.969,23.015V80.706h3.138v29.441L110.766,87.17v21.707h-3.138V79.51z"/>
		<path fill="#F4F4F7" d="M137.112,80.706h14.609v2.913h-11.47v8.37h11.133v2.915h-11.133v11.059h11.47v2.913h-14.609V80.706z"/>
		<path fill="#F4F4F7" d="M168.741,86.198c-1.121-1.943-2.465-3.064-4.856-3.064c-2.503,0-4.671,1.794-4.671,4.372
			c0,2.428,2.502,3.549,4.408,4.408l1.869,0.823c3.661,1.606,6.762,3.438,6.762,7.921c0,4.932-3.961,8.706-8.854,8.706
			c-4.522,0-7.885-2.914-8.782-7.287l3.065-0.859c0.411,2.878,2.615,5.232,5.641,5.232c3.027,0,5.79-2.316,5.79-5.492
			c0-3.287-2.577-4.409-5.193-5.605l-1.719-0.748c-3.288-1.495-6.127-3.176-6.127-7.211c0-4.371,3.699-7.172,7.883-7.172
			c3.138,0,5.79,1.607,7.285,4.371L168.741,86.198z"/>
		<path fill="#F4F4F7" d="M189.988,86.198c-1.121-1.943-2.465-3.064-4.856-3.064c-2.503,0-4.671,1.794-4.671,4.372
			c0,2.428,2.503,3.549,4.408,4.408l1.869,0.823c3.661,1.606,6.762,3.438,6.762,7.921c0,4.932-3.961,8.706-8.854,8.706
			c-4.522,0-7.885-2.914-8.782-7.287l3.065-0.859c0.411,2.878,2.616,5.232,5.641,5.232c3.027,0,5.792-2.316,5.792-5.492
			c0-3.287-2.578-4.409-5.194-5.605l-1.717-0.748c-3.29-1.495-6.128-3.176-6.128-7.211c0-4.371,3.699-7.172,7.883-7.172
			c3.138,0,5.79,1.607,7.285,4.371L189.988,86.198z"/>
	</g>
</g>
<g id="Layer_2">
</g>
</svg>
