<?xml version="1.0" encoding="utf-8"?>
<!-- Generator: Adobe Illustrator 21.0.2, SVG Export Plug-In . SVG Version: 6.00 Build 0)  -->
<svg version="1.1" xmlns="http://www.w3.org/2000/svg" xmlns:xlink="http://www.w3.org/1999/xlink" x="0px" y="0px"
	 viewBox="0 0 200 125" enable-background="new 0 0 200 125" xml:space="preserve">
<g id="Layer_1">
	<g>
		<path fill-rule="evenodd" clip-rule="evenodd" fill="#F4F4F7" d="M153.426,89.116c-5.032,0-8.275-3.99-8.275-8.384
			c0-3.671,2.387-8.33,7.786-8.33c4.595,0,8.085,3.634,8.085,8.411C161.022,85.451,157.673,89.116,153.426,89.116L153.426,89.116z
			 M125.973,87.758c-0.245-0.361-0.517-0.814-0.858-1.379l-0.734-1.222c-0.759-1.274-2.088-3.526-2.277-3.796
			c-0.029-0.044-0.236-0.309-1.111-0.309c-0.14,0-0.742,0.06-1.012,0.077v5.524c0,1.376,0.217,1.609,1.311,1.609h0.889v0.64
			c-1.01-0.028-2.022-0.084-3.034-0.084c-1.092,0-2.186,0.056-3.279,0.084v-0.64h0.59c1.123,0,1.338-0.236,1.338-1.609v-11.65
			c0-1.376-0.216-1.61-1.31-1.61h-0.644v-0.626c1.559-0.171,3.87-0.328,5.477-0.364c3.364,0,5.56,1.566,5.56,4.067
			c0,1.579-0.802,2.683-2.894,4.023l1.277,2.032c1.275,2.007,2.549,3.96,2.902,4.448c0.719,0.986,1.342,1.316,2.226,1.316h0.97
			v0.568c-0.897,0.144-1.852,0.287-2.762,0.287C127.207,89.143,126.705,88.84,125.973,87.758L125.973,87.758z M72.771,85.19h0.677
			l-1.396,3.723c-2.176-0.035-4.515-0.096-6.698-0.096c-0.378,0-4.965,0.094-6.505,0.094h-0.102v-0.705h0.699
			c1.277,0,1.532-0.281,1.532-1.879V72.847c0-1.597-0.255-1.879-1.532-1.879h-0.73v-0.74c2.57,0.071,5.226,0.098,7.798,0.098
			c1.847,0,3.688-0.034,5.535-0.098l0.133,3.883H71.51c-0.137-2.034-0.404-2.953-2.577-2.953h-5.458v7.528h5.207
			c1.396,0,1.589-0.836,1.665-2.074h0.668v5.356h-0.67c-0.05-1.362-0.398-2.482-1.976-2.482h-4.893v7.095
			c0,1.075,0.363,1.438,1.438,1.438h4.335C71.297,88.017,71.811,86.902,72.771,85.19L72.771,85.19z M76.141,88.261
			c1.223,0,2.455-0.039,2.505-1.503l0.245-10.888c0.026-1.878-0.559-2.504-2.316-2.504h-0.59v-0.638l0.13,0.001
			c0.678,0.027,1.33,0.081,1.98,0.081c0.732,0,1.438-0.054,2.143-0.081h0.094l6.228,13.369l5.317-13.371
			c0.799,0.028,1.603,0.084,2.403,0.084c0.804,0,1.607-0.056,2.41-0.085v0.641h-0.509c-1.353,0-1.881,0.464-1.881,1.445
			l0.218,11.812c0.025,1.329,0.333,1.638,1.691,1.638h0.508v0.64c-1.037-0.028-2.077-0.084-3.115-0.084
			c-1.164,0-2.332,0.056-3.496,0.084v-0.64h0.508c1.302,0,1.797-0.412,1.773-1.363l-0.209-12.558l-5.922,14.83h-0.621L79.71,76.499
			l-0.209,10.32c-0.05,1.164,0.279,1.443,1.881,1.443h0.563v0.64c-0.956-0.028-1.914-0.084-2.871-0.084
			c-0.993,0-2.047,0.048-3.034,0.086v-0.642H76.141L76.141,88.261z M112.272,85.655h0.613l-1.217,3.245
			c-1.871-0.03-3.852-0.082-5.728-0.082c-0.326,0-4.291,0.082-5.621,0.082h-0.101v-0.638h0.618c1.094,0,1.311-0.234,1.311-1.609
			v-11.65c0-1.376-0.217-1.61-1.311-1.61h-0.644v-0.667c2.025,0.056,4.049,0.084,6.075,0.084c1.785,0,3.618-0.023,5.404-0.085
			l0.115,3.384h-0.607c-0.118-1.755-0.335-2.553-2.214-2.553h-4.633v6.477h4.416c1.207,0,1.361-0.727,1.426-1.792h0.604v4.656
			h-0.606c-0.044-1.173-0.33-2.145-1.695-2.145h-4.145v6.117c0,0.922,0.308,1.229,1.229,1.229h3.676
			C111.005,88.099,111.444,87.133,112.272,85.655L112.272,85.655z M142.228,72.783l0.116,3.469l-0.58-0.041
			c-0.143-2.139-1.357-3.116-3.462-3.116c-2.089,0-3.429,1.064-3.429,2.614c0,1.316,0.889,2.242,3.689,3.575
			c2.176,1.043,4.457,2.23,4.457,5.034c0,2.784-2.34,4.799-5.478,4.799c-0.767,0-1.451-0.082-2.436-0.273
			c-0.261-0.052-0.555-0.134-0.823-0.134c-0.188,0-0.494,0.074-0.636,0.217h-0.426l-0.628-3.537l0.586-0.196
			c0.728,2.11,2.013,3.286,4.309,3.286c2.296,0,3.809-1.3,3.809-3.212c0-1.454-0.783-2.298-3.692-3.766
			c-2.707-1.381-4.481-2.492-4.481-4.924c0-2.463,2.046-4.12,4.962-4.12c0.685,0,1.287,0.081,2.219,0.273
			c0.344,0.065,0.714,0.161,1.067,0.161c0.164,0,0.374-0.058,0.527-0.109H142.228L142.228,72.783z M158.539,80.814
			c0-3.537-0.952-7.773-5.52-7.773c-3.372,0-5.384,1.561-5.384,7.747c0,2.784,0.684,7.719,5.655,7.719
			C157.35,88.506,158.539,85.669,158.539,80.814L158.539,80.814z M163.347,88.261c0.835,0,1.474-0.681,1.474-1.554l-0.217-12.017
			c-1.11-1.214-1.334-1.324-2.344-1.324h-0.101v-0.638l0.131,0.001c0.568,0.027,1.14,0.081,1.708,0.081
			c0.575,0,1.272-0.049,1.837-0.084l10.495,12.477L176.2,75.168c-0.026-1.305-0.526-1.801-1.8-1.801h-0.644v-0.641
			c0.892,0.028,1.789,0.084,2.681,0.084c0.848,0,1.698-0.056,2.545-0.085v0.641h-0.59c-0.902,0-1.365,0.424-1.365,1.256
			l0.191,14.494h-0.394L165.49,75.612l0.158,11.12c0.026,1.082,0.493,1.529,1.637,1.529h0.942v0.639l-0.103-0.002
			c-1.383-0.028-2.333-0.082-2.686-0.082c-0.886,0-1.921,0.065-2.79,0.084v-0.639H163.347L163.347,88.261z M120.993,72.986
			c-0.323,0-0.646,0.046-1.012,0.096v7.266c0.449,0.07,0.852,0.093,1.257,0.093c2.219,0,3.184-1.034,3.184-3.401
			C124.422,74.472,123.149,72.986,120.993,72.986L120.993,72.986z M83.006,111.151c-4.948,0-8.137-3.923-8.137-8.244
			c0-3.609,2.346-8.191,7.656-8.191c4.519,0,7.951,3.573,7.951,8.271C90.476,107.546,87.181,111.151,83.006,111.151L83.006,111.151z
			 M93.479,110.311c1.105,0,1.316-0.232,1.316-1.583V97.272c0-1.353-0.213-1.583-1.289-1.583h-0.66v-0.656
			c1.038,0.028,2.078,0.083,3.117,0.083c1.039,0,2.079-0.055,3.117-0.083v0.656H98.26c-1.104,0-1.316,0.232-1.316,1.583v11.936
			c0,0.679,0.26,0.915,1.075,0.915h2.308c1.841,0,2.39-0.83,3.168-2.43h0.611l-1.31,3.246c-1.473-0.055-3.543-0.083-5.017-0.083
			c-1.663,0-3.324,0.029-4.987,0.084v-0.63H93.479L93.479,110.311z M146.954,105.543c-1.104,0-1.315,0.232-1.315,1.583v3.718
			c-1.365,0.195-2.964,0.307-4.346,0.307c-7.779,0-9.899-4.885-9.899-8.057c0-2.164,0.92-4.299,2.486-5.892
			c1.732-1.705,3.763-2.433,6.88-2.433c0.427,0,2.537,0.133,3.017,0.133c0.409,0,0.962,0.003,1.372-0.133h0.383v3.458h-0.62
			c-0.038-0.556-0.08-1.138-0.392-1.623c-0.449-0.749-1.836-1.208-3.841-1.208c-5.528,0-6.816,3.132-6.816,7.537
			c0,4.81,2.604,7.565,7.19,7.565c1.883,0,2.437-0.352,2.437-1.156v-2.216c0-1.352-0.213-1.583-1.289-1.583h-1.168v-0.629
			c1.136,0.027,2.274,0.082,3.41,0.082c1.066,0,2.133-0.055,3.197-0.083v0.629H146.954L146.954,105.543z M88.033,102.987
			c0-3.479-0.936-7.644-5.428-7.644c-3.316,0-5.294,1.535-5.294,7.617c0,2.738,0.673,7.591,5.561,7.591
			C86.864,110.551,88.033,107.761,88.033,102.987L88.033,102.987z M129.307,107.659h0.603l-1.197,3.191
			c-1.839-0.029-3.788-0.081-5.632-0.081c-0.321,0-4.219,0.08-5.528,0.08h-0.099v-0.627h0.607c1.076,0,1.289-0.23,1.289-1.582
			V97.185c0-1.353-0.213-1.583-1.289-1.583h-0.633v-0.656c1.991,0.054,3.981,0.083,5.974,0.083c1.756,0,3.558-0.024,5.313-0.084
			l0.113,3.327h-0.597c-0.116-1.725-0.33-2.51-2.177-2.51h-4.556v6.37h4.343c1.186,0,1.337-0.715,1.402-1.762h0.594v4.578h-0.596
			c-0.043-1.153-0.324-2.11-1.666-2.11h-4.076v6.016c0,0.906,0.303,1.208,1.209,1.208h3.615
			C128.06,110.062,128.493,109.112,129.307,107.659L129.307,107.659z M160.208,107.659h0.602l-1.196,3.191
			c-1.84-0.029-3.788-0.081-5.633-0.081c-0.32,0-4.219,0.08-5.527,0.08h-0.1v-0.627h0.607c1.076,0,1.289-0.23,1.289-1.582V97.185
			c0-1.353-0.213-1.583-1.289-1.583h-0.634v-0.656c1.992,0.054,3.982,0.083,5.975,0.083c1.756,0,3.559-0.024,5.313-0.084
			l0.114,3.327h-0.597c-0.116-1.725-0.33-2.51-2.176-2.51h-4.557v6.37h4.343c1.187,0,1.338-0.715,1.402-1.762h0.594v4.578h-0.596
			c-0.043-1.153-0.325-2.11-1.666-2.11h-4.076v6.016c0,0.906,0.303,1.208,1.21,1.208h3.614
			C158.961,110.062,159.394,109.112,160.208,107.659L160.208,107.659z M106.134,110.311c1.105,0,1.315-0.232,1.315-1.583V97.272
			c0-1.353-0.212-1.583-1.288-1.583h-0.66v-0.656c1.037,0.028,2.078,0.083,3.117,0.083c1.039,0,2.079-0.055,3.117-0.083v0.656h-0.82
			c-1.104,0-1.316,0.232-1.316,1.583v11.936c0,0.679,0.261,0.915,1.075,0.915h2.307c1.841,0,2.391-0.83,3.169-2.43h0.61l-1.31,3.246
			c-1.474-0.055-3.543-0.083-5.017-0.083c-1.664,0-3.324,0.029-4.987,0.084v-0.63H106.134L106.134,110.311z M72.649,92.286v3.951
			h-0.664c-0.041-3.022-2.546-3.255-4.954-3.255c-5.392,0-7.712,2.55-7.712,8.456c0,5.876,2.911,9.138,8.146,9.138
			c2.696,0,3.864-0.859,4.797-3.379h0.668l-1.174,3.946c-1.277,0.085-2.35,0.19-3.641,0.19c-3.952,0-6.896-0.964-8.875-2.974
			c-1.725-1.725-2.695-4.169-2.695-6.705c0-3.569,2.352-9.369,10.05-9.369c1.148,0,2.698,0.155,2.914,0.155
			c0.598,0,2.274,0.076,2.768-0.155H72.649L72.649,92.286z"/>
		<path fill-rule="evenodd" clip-rule="evenodd" fill="#F4F4F7" d="M23.878,64.937c0-0.342-0.23-0.342-0.498-0.342V64.46
			c0.283,0,0.573,0.022,0.856,0.022c0.29,0,0.581-0.022,0.863-0.022v0.134c-0.276,0-0.499,0-0.499,0.342v1.86
			c0,0.343,0.223,0.343,0.499,0.343v0.133c-0.283,0-0.573-0.022-0.863-0.022c-0.283,0-0.573,0.022-0.856,0.022V67.14
			c0.268,0,0.498,0,0.498-0.343V64.937L23.878,64.937z"/>
		<path fill-rule="evenodd" clip-rule="evenodd" fill="#F4F4F7" d="M31.75,64.52c0,0.313-0.186,0.581-0.602,0.804
			c0.595,0.402,0.729,0.744,0.729,1.027c0,0.357-0.276,0.96-1.295,0.96c-0.833,0-1.153-0.491-1.153-0.856
			c0-0.283,0.201-0.625,0.759-0.915c-0.342-0.26-0.513-0.573-0.513-0.826c0-0.633,0.609-0.923,1.086-0.923
			C31.475,63.791,31.75,64.253,31.75,64.52L31.75,64.52z M29.845,66.41c0,0.313,0.186,0.692,0.767,0.692
			c0.543,0,0.722-0.275,0.722-0.506c0-0.357-0.506-0.64-0.96-0.922C30.031,65.853,29.845,66.127,29.845,66.41L29.845,66.41z
			 M30.203,64.445c0,0.209,0.134,0.372,0.729,0.729c0.275-0.104,0.409-0.312,0.409-0.61c0-0.32-0.223-0.565-0.595-0.565
			C30.418,63.999,30.203,64.193,30.203,64.445L30.203,64.445z"/>
		<path fill-rule="evenodd" clip-rule="evenodd" fill="#F4F4F7" d="M38.455,64.52c0,0.313-0.186,0.581-0.603,0.804
			c0.595,0.402,0.729,0.744,0.729,1.027c0,0.357-0.275,0.96-1.295,0.96c-0.833,0-1.153-0.491-1.153-0.856
			c0-0.283,0.201-0.625,0.76-0.915c-0.343-0.26-0.514-0.573-0.514-0.826c0-0.633,0.61-0.923,1.087-0.923
			C38.18,63.791,38.455,64.253,38.455,64.52L38.455,64.52z M36.55,66.41c0,0.313,0.186,0.692,0.767,0.692
			c0.543,0,0.722-0.275,0.722-0.506c0-0.357-0.506-0.64-0.96-0.922C36.736,65.853,36.55,66.127,36.55,66.41L36.55,66.41z
			 M36.907,64.445c0,0.209,0.134,0.372,0.729,0.729c0.275-0.104,0.409-0.312,0.409-0.61c0-0.32-0.223-0.565-0.595-0.565
			C37.123,63.999,36.907,64.193,36.907,64.445L36.907,64.445z"/>
		<path fill-rule="evenodd" clip-rule="evenodd" fill="#F4F4F7" d="M45.316,65.86c0,0.751-0.475,1.451-1.295,1.451
			c-0.818,0-1.243-0.722-1.243-1.429c0-0.729,0.476-1.481,1.25-1.481C44.728,64.401,45.316,64.892,45.316,65.86L45.316,65.86z
			 M43.515,65.629c0,0.379,0.075,1.474,0.588,1.474c0.268,0,0.476-0.194,0.476-0.915c0-0.775-0.126-1.578-0.61-1.578
			C43.634,64.61,43.515,64.989,43.515,65.629L43.515,65.629z"/>
		<path fill-rule="evenodd" clip-rule="evenodd" fill="#F4F4F7" d="M24.682,81.519l12.83-5.415c-1.717-3.08-5.011-4.993-8.81-3.379
			C24.903,74.341,24.36,77.98,24.682,81.519L24.682,81.519z"/>
		<path fill-rule="evenodd" clip-rule="evenodd" fill="#F4F4F7" d="M44.451,74.658l-19.579,8.318
			c0.319,1.134,0.697,2.244,1.191,3.303c1.849,3.96,5.248,6.374,9.171,6.709c1.879,0.161,3.879-0.156,5.886-1.008
			c3.151-1.339,5.23-3.578,6.078-7.046c0.32-1.648,0.502-3.447,0.502-5.412c0-2.514,0.042-5.058,0.042-8.37
			c-2.542-0.361-5.796-0.58-9.256-0.671C40.727,71.164,42.772,72.53,44.451,74.658L44.451,74.658z"/>
		<path fill-rule="evenodd" clip-rule="evenodd" fill="#F4F4F7" d="M21.067,80.017c1.015-3.719,3.665-7.007,7.673-8.71
			c0.802-0.341,1.608-0.617,2.411-0.829c-3.745,0.09-7.327,0.319-10.133,0.675c0,3.089,0.042,5.856,0.042,8.357
			C21.06,79.681,21.063,79.848,21.067,80.017L21.067,80.017z"/>
		<path fill-rule="evenodd" clip-rule="evenodd" fill="#F4F4F7" d="M38.627,95.955c-5.548,1.381-10.314,0.13-13.559-2.666
			c3.923,5.766,9.311,7.876,9.311,7.876s5.377-1.932,9.298-7.664C42.244,94.624,40.541,95.478,38.627,95.955L38.627,95.955z"/>
	</g>
</g>
<g id="Layer_2">
</g>
</svg>
