<?xml version="1.0" encoding="utf-8"?>
<!-- Generator: Adobe Illustrator 21.0.2, SVG Export Plug-In . SVG Version: 6.00 Build 0)  -->
<svg version="1.1" xmlns="http://www.w3.org/2000/svg" xmlns:xlink="http://www.w3.org/1999/xlink" x="0px" y="0px"
	 viewBox="0 0 200 125" enable-background="new 0 0 200 125" xml:space="preserve">
<g id="Layer_1">
	<g>
		<g>
			<g>
				<polygon fill="#F4F4F7" points="50.689,76.12 50.689,85.052 59.31,85.052 59.31,76.12 64.531,76.12 64.531,99.275 59.31,99.275 
					59.31,89.619 50.689,89.619 50.689,99.275 45.467,99.275 45.467,76.12 				"/>
				<path fill="#F4F4F7" d="M75.221,95.908c2.062,0,3.333-2.028,3.333-5.051c0-2.475-0.964-5.015-3.333-5.015
					c-2.473,0-3.434,2.541-3.434,5.051c0,2.85,1.202,5.015,3.4,5.015H75.221z M75.119,99.65c-4.912,0-8.691-3.228-8.691-8.654
					c0-5.428,3.573-8.897,8.999-8.897c5.118,0,8.554,3.537,8.554,8.622c0,6.112-4.361,8.929-8.828,8.929H75.119z"/>
				<path fill="#F4F4F7" d="M94.524,95.908c2.062,0,3.333-2.028,3.333-5.051c0-2.475-0.964-5.015-3.333-5.015
					c-2.473,0-3.434,2.541-3.434,5.051c0,2.85,1.201,5.015,3.401,5.015H94.524z M94.421,99.65c-4.912,0-8.689-3.228-8.689-8.654
					c0-5.428,3.572-8.897,9-8.897c5.118,0,8.554,3.537,8.554,8.622c0,6.112-4.364,8.929-8.83,8.929H94.421z"/>
				<path fill="#F4F4F7" d="M105.193,86.323v6.905c0,2.37,0.482,3.985,1.444,4.979c0.858,0.861,2.266,1.444,3.949,1.444
					c1.443,0,2.713-0.206,3.366-0.447l-0.036-3.95c-0.48,0.104-0.823,0.139-1.545,0.139c-1.545,0-2.061-0.929-2.061-2.955v-6.113
					h3.746v-3.847h-3.746v-3.249l-0.02,0.011v-1.853c-2.813,0-5.095,2.275-5.095,5.09h-0.004V86.323z"/>
				<path fill="#F4F4F7" d="M158.673,86.323v6.905c0,2.37,0.482,3.985,1.443,4.979c0.859,0.861,2.266,1.444,3.949,1.444
					c1.443,0,2.714-0.206,3.368-0.447l-0.036-3.95c-0.48,0.104-0.824,0.139-1.546,0.139c-1.545,0-2.06-0.929-2.06-2.955v-6.113
					h3.744v-3.847h-3.744v-3.249l-0.02,0.011v-1.853c-2.813,0-5.095,2.275-5.095,5.09h-0.004V86.323z"/>
				<path fill="#F4F4F7" d="M116.804,94.738c0.962,0.584,2.953,1.237,4.501,1.237c1.579,0,2.232-0.515,2.232-1.373
					c0-0.894-0.515-1.307-2.439-1.959c-3.504-1.131-4.845-3.057-4.809-5.014c0-3.16,2.678-5.531,6.836-5.531
					c1.958,0,3.674,0.481,4.705,0.996l-0.892,3.573c-0.757-0.378-2.234-0.928-3.642-0.928c-1.27,0-1.99,0.514-1.99,1.339
					c0,0.824,0.651,1.238,2.713,1.961c3.193,1.062,4.5,2.71,4.534,5.15c0,3.16-2.439,5.462-7.247,5.462
					c-2.2,0-4.158-0.515-5.429-1.202L116.804,94.738z"/>
				<path fill="#F4F4F7" d="M146.35,93.88c0,2.199,0.071,3.984,0.139,5.393h-4.534l-0.24-2.37h-0.103
					c-0.653,1.031-2.232,2.747-5.255,2.747c-3.436,0-5.91-2.129-5.91-7.317v-9.858h5.221v9.036c0,2.438,0.791,3.912,2.645,3.912
					c1.442,0,2.3-0.995,2.61-1.821c0.139-0.308,0.206-0.685,0.206-1.132v-9.995h5.221V93.88z"/>
				<rect x="149.923" y="82.477" fill="#F4F4F7" width="5.223" height="16.798"/>
				<path fill="#F4F4F7" d="M152.5,80.277c-1.752,0-2.886-1.237-2.886-2.782c0-1.581,1.168-2.783,2.953-2.783
					c1.786,0,2.887,1.201,2.92,2.783c0,1.546-1.134,2.782-2.954,2.782H152.5z"/>
				<path fill="#F4F4F7" d="M180.263,88.932c0-1.235-0.55-3.401-2.921-3.401c-2.232,0-3.125,2.027-3.262,3.401H180.263z
					 M174.114,92.505c0.172,2.2,2.3,3.229,4.741,3.229c1.786,0,3.229-0.239,4.637-0.72l0.688,3.538
					c-1.72,0.721-3.815,1.064-6.083,1.064c-5.701,0-8.965-3.297-8.965-8.588c0-4.26,2.678-8.966,8.486-8.966
					c5.426,0,7.486,4.228,7.486,8.383c0,0.891-0.103,1.683-0.171,2.094L174.114,92.505z"/>
			</g>
			<g>
				<path fill="#F4F4F7" d="M189.426,82.448v0.497h-1.19v3.384h-0.585v-3.384h-1.18v-0.497H189.426z M193.18,86.33l-0.156-2.341
					c-0.02-0.302,0-0.673-0.011-1.053h-0.028c-0.098,0.361-0.215,0.77-0.331,1.112l-0.81,2.233h-0.449l-0.79-2.292
					c-0.097-0.312-0.194-0.693-0.282-1.053h-0.029c-0.01,0.371,0,0.702-0.02,1.053l-0.146,2.341h-0.566l0.302-3.882h0.77
					l0.761,2.106c0.098,0.293,0.177,0.615,0.272,0.976h0.021c0.087-0.361,0.175-0.702,0.272-0.985l0.761-2.097h0.761l0.293,3.882
					H193.18z"/>
			</g>
		</g>
		<g>
			<path fill="#F4F4F7" d="M34.309,110.334l-0.551-0.001C18.533,110.288,6.182,97.934,6.225,82.792V68.751l0.548-0.002
				c0.015,0,0.029,0,0.043,0c2.333,0,4.636,0.588,6.684,1.704c2.069-1.141,4.405-1.741,6.778-1.741c0.01,0,0.02,0,0.03,0
				c2.355,0.009,4.673,0.609,6.728,1.741c2.049-1.116,4.351-1.704,6.683-1.704c0.014,0,0.028,0,0.043,0l0.548,0.002V110.334z
				 M7.325,69.858v12.935c-0.041,14.354,11.522,26.097,25.884,26.432V69.858c-2.07,0.083-4.099,0.666-5.901,1.702l-0.275,0.158
				l-0.275-0.159c-1.955-1.135-4.187-1.74-6.454-1.748c-0.009,0-0.018,0-0.028,0c-2.284,0-4.531,0.604-6.5,1.748l-0.275,0.159
				l-0.275-0.158C11.426,70.524,9.396,69.941,7.325,69.858z"/>
			<g>
				<path fill="#F4F4F7" d="M26.078,74.178c-3.02-0.009-5.506,2.303-5.775,5.256l-0.026-0.036l-0.025,0.036
					c-0.253-2.955-2.725-5.28-5.747-5.289c-3.196-0.01-5.793,2.575-5.802,5.77c-0.01,3.197,2.573,5.795,5.769,5.804
					c1.137,0.004,2.195-0.326,3.09-0.89l2.69,2.706l2.706-2.69c0.893,0.569,1.948,0.904,3.085,0.907
					c3.197,0.01,5.794-2.575,5.804-5.77C31.858,76.785,29.275,74.186,26.078,74.178z M14.477,83.789
					c-2.13-0.006-3.854-1.738-3.847-3.868c0.005-2.131,1.74-3.854,3.87-3.847c0.397,0.001,0.779,0.062,1.14,0.175
					c-0.672,0.299-1.142,0.969-1.145,1.754c-0.003,1.065,0.857,1.932,1.922,1.935c0.783,0.002,1.457-0.465,1.761-1.136
					c0.11,0.361,0.169,0.744,0.168,1.142C18.34,82.073,16.608,83.796,14.477,83.789z M26.051,83.822
					c-2.131-0.006-3.853-1.738-3.847-3.869c0.001-0.396,0.063-0.78,0.175-1.14c0.299,0.672,0.97,1.143,1.754,1.145
					c1.065,0.003,1.931-0.858,1.933-1.923c0.002-0.784-0.465-1.457-1.136-1.761c0.361-0.111,0.745-0.17,1.142-0.169
					c2.13,0.006,3.854,1.738,3.847,3.869C29.913,82.107,28.181,83.829,26.051,83.822z"/>
			</g>
		</g>
	</g>
</g>
<g id="Layer_2">
</g>
</svg>
