<?xml version="1.0" encoding="utf-8"?>
<!-- Generator: Adobe Illustrator 21.0.2, SVG Export Plug-In . SVG Version: 6.00 Build 0)  -->
<svg version="1.1" xmlns="http://www.w3.org/2000/svg" xmlns:xlink="http://www.w3.org/1999/xlink" x="0px" y="0px"
	 viewBox="0 0 200 125" enable-background="new 0 0 200 125" xml:space="preserve">
<g id="Layer_1">
	<g>
		<g>
			<g>
				<path fill="#F4F4F7" d="M96.988,65.743c-2.853,0-4.776-2.197-4.776-5.447c0-3.235,1.953-5.477,4.853-5.477
					c1.19,0,2.167,0.35,2.96,0.9l-0.168,1.068c-0.825-0.595-1.74-1.022-2.807-1.022c-2.319,0-3.754,1.83-3.754,4.501
					c0,2.701,1.449,4.516,3.737,4.516c1.13,0,2.152-0.443,3.006-1.099l0.153,1.007C99.398,65.285,98.239,65.743,96.988,65.743z"/>
				<path fill="#F4F4F7" d="M110.659,65.651l-1.358-3.509h-4.608l-1.297,3.402h-1.069l4.15-10.589h1.083l4.12,10.468L110.659,65.651
					z M106.997,56.192l-1.923,5.019h3.875L106.997,56.192z"/>
				<path fill="#F4F4F7" d="M114.55,65.544V55.016h1.052v9.582h4.058l0.153,0.946H114.55z"/>
				<path fill="#F4F4F7" d="M122.941,65.544V55.016h1.053v10.528H122.941z"/>
				<path fill="#F4F4F7" d="M129.456,55.962v3.769h3.387l0.153,0.946h-3.54v4.867h-1.053V55.016h5.28v0.946H129.456z"/>
				<path fill="#F4F4F7" d="M140.801,65.743c-2.801,0-4.723-2.228-4.723-5.447c0-3.235,1.953-5.477,4.753-5.477
					c2.838,0,4.746,2.228,4.746,5.447C145.577,63.484,143.638,65.743,140.801,65.743z M140.816,55.765
					c-2.206,0-3.656,1.83-3.656,4.501c0,2.701,1.465,4.531,3.67,4.531c2.213,0,3.662-1.83,3.662-4.501
					C144.493,57.595,143.028,55.765,140.816,55.765z"/>
				<path fill="#F4F4F7" d="M155.581,65.423l-1.068,0.228l-3.418-4.761h-1.358v4.654h-1.053V55.016h2.685
					c2.06,0,3.372,1.038,3.372,2.87c0,1.632-1.053,2.563-2.503,2.868L155.581,65.423z M151.325,55.947h-1.587v4.043h1.404
					c1.556,0,2.532-0.702,2.532-2.044C153.674,56.665,152.85,55.947,151.325,55.947z"/>
				<path fill="#F4F4F7" d="M165.7,65.544l-6.15-8.864v8.864h-0.991V55.016h0.991l5.966,8.591v-8.591h0.992v10.528H165.7z"/>
				<path fill="#F4F4F7" d="M170.645,65.544V55.016h1.053v10.528H170.645z"/>
				<path fill="#F4F4F7" d="M183.019,65.651l-1.358-3.509h-4.608l-1.297,3.402h-1.069l4.15-10.589h1.083l4.12,10.468L183.019,65.651
					z M179.357,56.192l-1.923,5.019h3.876L179.357,56.192z"/>
				<path fill="#F4F4F7" d="M100.207,83.452l-1.357-3.509h-4.608l-1.298,3.402h-1.068l4.15-10.589h1.084l4.119,10.468
					L100.207,83.452z M96.545,73.993l-1.922,5.019h3.875L96.545,73.993z"/>
				<path fill="#F4F4F7" d="M107.093,83.544c-2.853,0-4.776-2.197-4.776-5.447c0-3.235,1.953-5.477,4.853-5.477
					c1.19,0,2.166,0.35,2.959,0.9l-0.168,1.068c-0.823-0.595-1.74-1.022-2.808-1.022c-2.319,0-3.754,1.83-3.754,4.501
					c0,2.701,1.45,4.516,3.739,4.516c1.129,0,2.152-0.443,3.006-1.099l0.153,1.007C109.505,83.086,108.345,83.544,107.093,83.544z"
					/>
				<path fill="#F4F4F7" d="M120.107,83.452l-1.357-3.509h-4.608l-1.298,3.402h-1.068l4.149-10.589h1.084l4.12,10.468
					L120.107,83.452z M116.445,73.993l-1.922,5.019h3.875L116.445,73.993z"/>
				<path fill="#F4F4F7" d="M125.996,83.345h-2.822V72.817h2.868c3.51,0,5.478,2.122,5.478,5.25
					C131.521,81.301,129.384,83.345,125.996,83.345z M126.059,73.763h-1.832v8.636h1.832c2.67,0,4.378-1.434,4.378-4.317
					C130.437,75.243,128.682,73.763,126.059,73.763z"/>
				<path fill="#F4F4F7" d="M133.841,83.345V72.817h5.495v0.946h-4.442v3.601h3.509l0.153,0.946h-3.662v4.089h4.595v0.946H133.841z"
					/>
				<path fill="#F4F4F7" d="M151.968,83.345l-0.687-8.986l-3.646,9.047h-0.824l-3.662-9.047l-0.687,8.986h-0.977l0.839-10.528h1.297
					l3.616,9.186l3.631-9.186h1.281l0.839,10.528H151.968z"/>
				<path fill="#F4F4F7" d="M159.076,78.967v4.378h-1.053v-4.363l-3.723-6.058l1.037-0.214l3.235,5.341l3.143-5.234h1.144
					L159.076,78.967z"/>
				<path fill="#F4F4F7" d="M171.649,83.544c-2.807,0-4.73-2.228-4.73-5.447c0-3.235,1.953-5.477,4.761-5.477
					c2.838,0,4.745,2.228,4.745,5.447C176.424,81.285,174.486,83.544,171.649,83.544z M171.664,73.566
					c-2.212,0-3.662,1.83-3.662,4.501c0,2.701,1.465,4.531,3.677,4.531c2.212,0,3.662-1.83,3.662-4.501
					C175.341,75.396,173.876,73.566,171.664,73.566z"/>
				<path fill="#F4F4F7" d="M179.857,73.763v3.769h3.387l0.152,0.946h-3.539v4.867h-1.053V72.817h5.279v0.946H179.857z"/>
			</g>
			<g>
				<g>
					<path fill="#F4F4F7" d="M92.388,94.212c0,2.105,1.123,2.969,3.641,4.112c2.103,0.95,2.587,1.443,2.587,2.636
						c0,1.238-0.907,2.008-2.367,2.008c-1.57,0-2.912-0.731-3.572-1.166l-0.125-0.083l-0.312,2.138l0.06,0.032
						c1.111,0.587,2.499,0.911,3.91,0.911c2.668,0,4.461-1.601,4.461-3.981c0-2.053-0.821-3.02-3.661-4.312
						c-2.064-0.944-2.567-1.422-2.567-2.436c0-1.106,0.818-1.767,2.187-1.767c0.975,0,2.012,0.365,2.847,1.002l0.127,0.097
						l0.335-2.105l-0.057-0.034c-0.929-0.534-1.973-0.793-3.192-0.793C94.116,90.472,92.388,91.974,92.388,94.212z"/>
				</g>
				<g>
					<path fill="#F4F4F7" d="M103.101,97.656c0,4.334,2.606,7.245,6.484,7.245c1.498,0,3.084-0.509,4.242-1.361l0.047-0.035
						l-0.313-1.993l-0.126,0.092c-1.245,0.904-2.533,1.363-3.829,1.363c-2.696,0-4.37-2.043-4.37-5.332
						c0-3.302,1.674-5.352,4.37-5.352c1.273,0,2.42,0.42,3.607,1.322l0.129,0.098l0.312-2.142l-0.05-0.034
						c-1.163-0.79-2.427-1.159-3.978-1.159C105.723,90.371,103.101,93.299,103.101,97.656z"/>
				</g>
				<g>
					<path fill="#F4F4F7" d="M117.68,90.632v14.009h2.074V90.632H117.68z"/>
				</g>
				<g>
					<path fill="#F4F4F7" d="M124.768,90.632v14.009h7.841v-1.913c0,0-5.583,0-5.767,0c0-0.179,0-4.275,0-4.454
						c0.183,0,4.623,0,4.623,0l-0.312-1.913c0,0-4.129,0-4.311,0c0-0.178,0-3.638,0-3.814c0.184,0,5.567,0,5.567,0v-1.913H124.768z"
						/>
				</g>
				<g>
					<path fill="#F4F4F7" d="M145.589,90.632c0,0,0,9.583,0,10.148c-0.33-0.466-7.178-10.148-7.178-10.148h-1.827v14.009h1.933
						c0,0,0-9.981,0-10.548c0.33,0.468,7.438,10.548,7.438,10.548h1.567V90.632H145.589z"/>
				</g>
				<g>
					<path fill="#F4F4F7" d="M150.655,97.656c0,4.334,2.606,7.245,6.484,7.245c1.498,0,3.084-0.509,4.242-1.361l0.047-0.035
						l-0.313-1.993l-0.126,0.092c-1.245,0.904-2.534,1.363-3.829,1.363c-2.696,0-4.37-2.043-4.37-5.332
						c0-3.302,1.674-5.352,4.37-5.352c1.273,0,2.42,0.42,3.607,1.322l0.129,0.098l0.312-2.142l-0.05-0.034
						c-1.163-0.79-2.427-1.159-3.978-1.159C153.277,90.371,150.655,93.299,150.655,97.656z"/>
				</g>
				<g>
					<path fill="#F4F4F7" d="M164.814,90.632v14.009h7.841v-1.913c0,0-5.583,0-5.768,0c0-0.179,0-4.275,0-4.454
						c0.183,0,4.623,0,4.623,0l-0.311-1.913c0,0-4.13,0-4.312,0c0-0.178,0-3.638,0-3.814c0.184,0,5.567,0,5.567,0v-1.913H164.814z"
						/>
				</g>
				<g>
					<path fill="#F4F4F7" d="M175.868,94.212c0,2.103,1.123,2.969,3.641,4.112c2.103,0.95,2.587,1.443,2.587,2.636
						c0,1.238-0.907,2.008-2.368,2.008c-1.57,0-2.912-0.731-3.572-1.166l-0.125-0.083l-0.312,2.138l0.06,0.032
						c1.111,0.587,2.5,0.911,3.909,0.911c2.668,0,4.461-1.601,4.461-3.981c0-2.053-0.821-3.02-3.661-4.312
						c-2.064-0.944-2.568-1.422-2.568-2.436c0-1.106,0.818-1.767,2.187-1.767c0.975,0,2.012,0.365,2.846,1.002l0.127,0.097
						l0.336-2.105l-0.056-0.034c-0.929-0.534-1.973-0.793-3.192-0.793C177.596,90.472,175.868,91.974,175.868,94.212z"/>
				</g>
			</g>
		</g>
		<g>
			<g>
				<path fill="#F4F4F7" d="M38.47,61.461c-0.715-0.538-1.391-1.111-2.046-1.698c0.432,2.2,0.654,4.399,0.104,6.788
					c0.62-0.142,1.253-0.337,1.901-0.594C38.676,64.39,38.645,62.902,38.47,61.461z M23.468,78.104
					c-1.057,0.331-2.136,0.687-3.212,1.125c-1.545,0.631-2.927,1.467-4.101,2.478c-0.367,0.316-0.408,0.869-0.092,1.237
					c0.315,0.364,0.869,0.405,1.235,0.09c1.031-0.888,2.25-1.623,3.621-2.182c1.269-0.518,2.577-0.926,3.842-1.317
					c0.535-0.166,1.072-0.332,1.608-0.508c-0.7-0.238-1.409-0.459-2.126-0.682C23.986,78.266,23.728,78.186,23.468,78.104z
					 M35.774,56.791c0.2,0.184,0.4,0.367,0.596,0.55c0.551,0.509,1.097,1.014,1.655,1.499c-0.117-0.552-0.241-1.1-0.365-1.646
					c-0.292-1.292-0.597-2.627-0.782-3.985c-0.2-1.468-0.173-2.891,0.081-4.228c0.091-0.475-0.222-0.933-0.698-1.023
					c-0.474-0.09-0.934,0.222-1.023,0.696c-0.289,1.525-0.32,3.137-0.095,4.792C35.301,54.597,35.532,55.708,35.774,56.791z
					 M34.935,70.516c-0.408,0.708-0.839,1.329-1.286,1.895c-0.433,0.548-0.884,1.031-1.35,1.465
					c-1.794,1.671-3.811,2.58-5.931,3.305c0.835,0.274,1.669,0.571,2.494,0.923c1.335-0.569,2.64-1.287,3.873-2.284
					c0.52-0.42,1.025-0.892,1.517-1.421c0.777-0.839,1.517-1.822,2.202-3.007c0.684-1.185,1.164-2.316,1.502-3.41
					c-0.689,0.214-1.364,0.369-2.023,0.473C35.668,69.122,35.344,69.807,34.935,70.516z"/>
				<path fill="#F4F4F7" d="M45.795,93.447c-0.42-0.519-0.892-1.024-1.422-1.514c-0.839-0.777-1.823-1.517-3.008-2.203
					c-1.184-0.683-2.316-1.165-3.409-1.503c0.214,0.69,0.37,1.363,0.472,2.022c0.67,0.267,1.354,0.59,2.062,1
					c0.708,0.407,1.33,0.839,1.894,1.285c0.548,0.433,1.033,0.885,1.467,1.348c1.67,1.795,2.578,3.811,3.304,5.934
					c0.274-0.836,0.572-1.671,0.924-2.495C47.51,95.987,46.791,94.682,45.795,93.447z M53.01,108.886
					c-0.889-1.033-1.623-2.251-2.184-3.622c-0.518-1.268-0.923-2.576-1.315-3.842c-0.166-0.533-0.332-1.07-0.508-1.606
					c-0.24,0.697-0.46,1.407-0.683,2.123c-0.079,0.256-0.16,0.514-0.241,0.774c0.331,1.059,0.686,2.138,1.126,3.214
					c0.631,1.547,1.466,2.925,2.477,4.103c0.317,0.366,0.87,0.407,1.235,0.092C53.284,109.806,53.325,109.252,53.01,108.886z
					 M23.184,89.307c-1.468,0.2-2.891,0.171-4.229-0.082c-0.474-0.091-0.934,0.222-1.023,0.698
					c-0.091,0.473,0.221,0.933,0.696,1.023c1.524,0.289,3.137,0.322,4.792,0.096c1.152-0.16,2.264-0.392,3.346-0.632
					c0.183-0.2,0.367-0.4,0.548-0.595c0.51-0.553,1.016-1.1,1.501-1.655c-0.553,0.116-1.101,0.24-1.647,0.364
					C25.878,88.818,24.541,89.119,23.184,89.307z M31.436,87.712c-0.538,0.717-1.111,1.393-1.697,2.048
					c2.2-0.433,4.398-0.656,6.788-0.103c-0.143-0.622-0.338-1.254-0.595-1.903C34.365,87.508,32.876,87.538,31.436,87.712z"/>
				<path fill="#F4F4F7" d="M63.423,80.39c-0.52,0.418-1.025,0.889-1.516,1.419c-0.778,0.842-1.517,1.823-2.202,3.008
					c-0.683,1.185-1.165,2.316-1.504,3.411c0.69-0.214,1.364-0.369,2.023-0.474c0.265-0.669,0.589-1.355,0.997-2.062
					c0.409-0.707,0.841-1.33,1.287-1.894c0.435-0.548,0.885-1.033,1.35-1.465c1.794-1.671,3.811-2.58,5.932-3.304
					c-0.836-0.276-1.67-0.574-2.495-0.925C65.961,78.673,64.656,79.393,63.423,80.39z M60.384,99.418
					c-0.2-0.184-0.4-0.368-0.595-0.549c-0.551-0.51-1.097-1.016-1.653-1.501c0.116,0.551,0.24,1.101,0.363,1.647
					c0.294,1.293,0.597,2.626,0.783,3.985c0.199,1.469,0.174,2.892-0.08,4.229c-0.092,0.473,0.222,0.933,0.696,1.023
					c0.475,0.089,0.934-0.222,1.023-0.698c0.29-1.522,0.322-3.135,0.095-4.79C60.857,101.611,60.626,100.5,60.384,99.418z
					 M59.631,89.657c-0.62,0.142-1.253,0.335-1.9,0.592c-0.248,1.567-0.217,3.056-0.042,4.497c0.715,0.536,1.391,1.11,2.046,1.699
					C59.303,94.245,59.081,92.045,59.631,89.657z M80.097,73.265c-0.316-0.366-0.87-0.407-1.236-0.092
					c-1.032,0.89-2.251,1.623-3.622,2.184c-1.268,0.516-2.576,0.923-3.842,1.315c-0.535,0.166-1.072,0.332-1.607,0.508
					c0.699,0.24,1.409,0.459,2.126,0.684c0.256,0.078,0.513,0.158,0.773,0.24c1.057-0.332,2.136-0.685,3.212-1.125
					c1.547-0.631,2.927-1.467,4.102-2.478C80.371,74.185,80.411,73.631,80.097,73.265z"/>
				<path fill="#F4F4F7" d="M59.631,66.553c0.142,0.62,0.338,1.252,0.594,1.901c1.568,0.246,3.056,0.216,4.497,0.041
					c0.538-0.716,1.11-1.391,1.697-2.046C64.22,66.881,62.02,67.102,59.631,66.553z M55.668,64.96
					c-0.708-0.407-1.331-0.839-1.895-1.287c-0.546-0.433-1.032-0.883-1.465-1.349c-1.671-1.795-2.579-3.811-3.305-5.932
					c-0.273,0.836-0.573,1.671-0.924,2.494c0.569,1.336,1.288,2.64,2.283,3.874c0.421,0.52,0.892,1.026,1.422,1.516
					c0.841,0.777,1.824,1.518,3.008,2.202c1.184,0.684,2.317,1.165,3.41,1.504c-0.214-0.69-0.368-1.364-0.471-2.023
					C57.061,65.692,56.375,65.369,55.668,64.96z M46.955,50.281c-0.633-1.547-1.466-2.926-2.478-4.103
					c-0.316-0.367-0.871-0.408-1.237-0.092c-0.366,0.316-0.408,0.869-0.092,1.235c0.889,1.032,1.624,2.251,2.184,3.621
					c0.517,1.269,0.923,2.577,1.315,3.843c0.166,0.534,0.333,1.071,0.508,1.607c0.238-0.698,0.461-1.408,0.682-2.125
					c0.079-0.256,0.16-0.515,0.241-0.772C47.747,52.435,47.392,51.357,46.955,50.281z M77.53,65.263
					c-1.525-0.29-3.137-0.322-4.792-0.095c-1.151,0.158-2.263,0.39-3.345,0.631c-0.184,0.2-0.368,0.399-0.549,0.595
					c-0.51,0.551-1.013,1.098-1.499,1.654c0.552-0.117,1.099-0.241,1.645-0.364c1.293-0.292,2.628-0.596,3.987-0.782
					c1.466-0.2,2.889-0.174,4.227,0.08c0.474,0.091,0.934-0.221,1.023-0.697C78.317,65.812,78.005,65.353,77.53,65.263z"/>
			</g>
			<g>
				<path fill="#F4F4F7" d="M34.252,74.398c-0.492,0.53-0.997,1.001-1.517,1.421c0.106,0.711,0.168,1.466,0.168,2.284
					c0,0.817-0.062,1.573-0.168,2.284c0.52,0.42,1.025,0.891,1.517,1.421c0.253-1.117,0.402-2.338,0.402-3.705
					C34.653,76.735,34.504,75.516,34.252,74.398z M24.546,63.217c0.712,0.919,1.47,1.765,2.22,2.581
					c0.183,0.2,0.367,0.399,0.548,0.595c0.51,0.551,1.014,1.097,1.5,1.655c1.474,1.689,2.766,3.482,3.484,5.827
					c0.466-0.433,0.916-0.917,1.35-1.465c-0.571-1.481-1.342-2.755-2.213-3.916c-0.538-0.716-1.111-1.391-1.697-2.047
					c-0.378-0.42-0.759-0.833-1.139-1.243c-0.899-0.972-1.83-1.977-2.67-3.06c-0.907-1.172-1.595-2.417-2.044-3.703
					c-0.159-0.456-0.658-0.698-1.115-0.537c-0.456,0.158-0.697,0.659-0.538,1.114C22.745,60.485,23.523,61.896,24.546,63.217z
					 M32.299,82.332c-0.72,2.344-2.01,4.137-3.483,5.827c-0.486,0.555-0.992,1.103-1.501,1.655
					c-0.181,0.195-0.366,0.395-0.548,0.595c-0.751,0.816-1.508,1.663-2.22,2.583c-1.023,1.319-1.802,2.732-2.313,4.196
					c-0.16,0.456,0.082,0.957,0.538,1.115c0.456,0.16,0.956-0.082,1.115-0.538c0.449-1.286,1.137-2.532,2.044-3.703
					c0.84-1.083,1.771-2.086,2.67-3.06c0.38-0.41,0.761-0.823,1.139-1.243c0.586-0.656,1.159-1.331,1.697-2.048
					c0.871-1.159,1.642-2.434,2.212-3.915C33.215,83.249,32.765,82.766,32.299,82.332z"/>
				<path fill="#F4F4F7" d="M67.739,102.296c-1.285-0.448-2.531-1.137-3.701-2.043c-1.083-0.842-2.088-1.771-3.06-2.672
					c-0.411-0.38-0.823-0.761-1.244-1.136c-0.656-0.589-1.331-1.162-2.046-1.699c-1.161-0.872-2.436-1.642-3.914-2.213
					c-0.548,0.433-1.034,0.885-1.466,1.348c2.344,0.72,4.137,2.013,5.827,3.485c0.556,0.486,1.102,0.991,1.653,1.501
					c0.196,0.181,0.396,0.365,0.595,0.549c0.818,0.75,1.664,1.507,2.581,2.219c1.322,1.023,2.733,1.8,4.198,2.313
					c0.456,0.16,0.957-0.082,1.115-0.538C68.437,102.956,68.198,102.458,67.739,102.296z M42.385,92.534
					c-1.479,0.571-2.753,1.341-3.915,2.213c-0.715,0.536-1.391,1.11-2.046,1.699c-0.419,0.375-0.833,0.756-1.243,1.136
					c-0.973,0.901-1.978,1.83-3.06,2.67c-1.172,0.908-2.417,1.597-3.702,2.045c-0.456,0.16-0.698,0.659-0.538,1.116
					c0.158,0.456,0.659,0.698,1.115,0.536c1.464-0.51,2.877-1.289,4.197-2.312c0.919-0.714,1.766-1.471,2.582-2.22
					c0.2-0.184,0.399-0.368,0.596-0.55c0.55-0.509,1.097-1.013,1.655-1.499c1.689-1.475,3.483-2.765,5.827-3.485
					C43.418,93.419,42.932,92.967,42.385,92.534z M44.373,91.933c0.53,0.489,1.002,0.995,1.422,1.514
					c0.712-0.103,1.466-0.165,2.284-0.165c0.817,0,1.571,0.062,2.285,0.165c0.42-0.519,0.89-1.024,1.421-1.514
					c-1.117-0.255-2.338-0.405-3.706-0.405C46.711,91.528,45.49,91.679,44.373,91.933z"/>
				<path fill="#F4F4F7" d="M50.362,62.76c-0.712,0.105-1.466,0.167-2.283,0.167c-0.818,0-1.572-0.062-2.284-0.167
					c-0.42,0.52-0.892,1.025-1.422,1.516c1.117,0.254,2.338,0.403,3.706,0.403c1.368,0,2.589-0.149,3.705-0.403
					C51.253,63.786,50.783,63.279,50.362,62.76z M68.277,52.795c-0.159-0.456-0.657-0.697-1.115-0.538
					c-1.465,0.512-2.876,1.291-4.196,2.314c-0.918,0.712-1.766,1.47-2.582,2.22c-0.2,0.183-0.397,0.367-0.594,0.549
					c-0.552,0.509-1.098,1.014-1.655,1.5c-1.69,1.474-3.484,2.765-5.827,3.484c0.432,0.466,0.918,0.916,1.465,1.349
					c1.48-0.57,2.755-1.34,3.916-2.212c0.715-0.538,1.391-1.11,2.046-1.698c0.421-0.377,0.833-0.758,1.244-1.138
					c0.972-0.899,1.977-1.83,3.06-2.67c1.172-0.907,2.416-1.595,3.701-2.045C68.198,53.752,68.437,53.253,68.277,52.795z
					 M36.37,57.34c-0.196-0.183-0.396-0.366-0.596-0.55c-0.816-0.749-1.663-1.506-2.582-2.219c-1.32-1.023-2.732-1.803-4.197-2.314
					c-0.455-0.159-0.957,0.082-1.115,0.538c-0.16,0.458,0.081,0.957,0.538,1.116c1.285,0.45,2.531,1.137,3.702,2.045
					c1.082,0.84,2.087,1.77,3.06,2.67c0.41,0.38,0.824,0.761,1.243,1.138c0.655,0.587,1.331,1.16,2.046,1.698
					c1.162,0.871,2.436,1.642,3.916,2.212c0.546-0.433,1.032-0.883,1.466-1.349c-2.344-0.72-4.139-2.01-5.827-3.485
					C37.467,58.355,36.921,57.85,36.37,57.34z"/>
				<path fill="#F4F4F7" d="M63.859,73.875c0.719-2.344,2.01-4.138,3.485-5.827c0.486-0.556,0.989-1.103,1.499-1.654
					c0.182-0.197,0.366-0.396,0.549-0.595c0.751-0.816,1.507-1.663,2.22-2.581c1.023-1.321,1.8-2.734,2.313-4.198
					c0.16-0.457-0.081-0.957-0.538-1.116c-0.456-0.159-0.957,0.082-1.116,0.538c-0.45,1.286-1.137,2.532-2.044,3.703
					c-0.841,1.082-1.769,2.087-2.67,3.06c-0.38,0.41-0.762,0.823-1.139,1.244c-0.587,0.655-1.159,1.33-1.697,2.046
					c-0.872,1.161-1.643,2.435-2.213,3.916C62.943,72.958,63.394,73.444,63.859,73.875z M71.612,92.992
					c-0.713-0.92-1.471-1.767-2.221-2.583c-0.183-0.2-0.367-0.4-0.549-0.595c-0.51-0.553-1.014-1.1-1.499-1.655
					c-1.474-1.691-2.765-3.484-3.484-5.827c-0.466,0.431-0.916,0.917-1.35,1.465c0.571,1.481,1.342,2.754,2.213,3.915
					c0.538,0.717,1.111,1.393,1.699,2.048c0.376,0.42,0.757,0.832,1.137,1.243c0.899,0.973,1.829,1.977,2.67,3.06
					c0.907,1.171,1.594,2.416,2.044,3.703c0.158,0.456,0.658,0.698,1.116,0.538c0.458-0.158,0.697-0.659,0.537-1.115
					C73.413,95.724,72.635,94.311,71.612,92.992z M63.256,78.104c0-0.818,0.061-1.573,0.166-2.284
					c-0.518-0.42-1.024-0.892-1.515-1.421c-0.252,1.118-0.402,2.338-0.402,3.705c0,1.369,0.15,2.59,0.402,3.705
					c0.491-0.53,0.996-1.001,1.516-1.419C63.317,79.676,63.256,78.921,63.256,78.104z"/>
			</g>
			<g>
				<path fill="#F4F4F7" d="M38.429,90.249c-0.102-0.659-0.258-1.332-0.472-2.022c-0.338-1.095-0.819-2.226-1.504-3.411
					c-0.684-1.185-1.423-2.169-2.2-3.008c-0.492-0.53-0.997-1.001-1.517-1.421c-1.233-0.995-2.538-1.715-3.873-2.284
					c-0.825-0.352-1.659-0.649-2.494-0.923c-0.536-0.176-1.073-0.344-1.608-0.508c-1.264-0.392-2.573-0.797-3.842-1.315
					c-1.371-0.561-2.59-1.294-3.621-2.184c-0.366-0.315-0.92-0.276-1.235,0.092c-0.316,0.366-0.275,0.919,0.092,1.236
					c1.175,1.011,2.555,1.846,4.101,2.478c1.077,0.438,2.156,0.793,3.212,1.125c0.26,0.082,0.518,0.162,0.774,0.241
					c0.718,0.222,1.427,0.444,2.126,0.682c2.12,0.725,4.137,1.635,5.931,3.305c0.466,0.433,0.916,0.917,1.349,1.465
					c0.448,0.566,0.879,1.187,1.287,1.897c0.409,0.707,0.732,1.391,0.997,2.06c0.258,0.649,0.453,1.281,0.595,1.903
					c0.549,2.388,0.328,4.588-0.104,6.788c0.655-0.589,1.331-1.162,2.046-1.699C38.645,93.305,38.676,91.816,38.429,90.249z
					 M35.774,99.417c-0.242,1.08-0.473,2.194-0.631,3.345c-0.225,1.656-0.194,3.267,0.094,4.792
					c0.089,0.476,0.549,0.787,1.023,0.698c0.476-0.091,0.788-0.55,0.698-1.023c-0.253-1.337-0.281-2.76-0.081-4.229
					c0.186-1.358,0.49-2.692,0.782-3.985c0.124-0.545,0.248-1.095,0.365-1.647c-0.557,0.486-1.104,0.99-1.655,1.499
					C36.173,99.049,35.974,99.233,35.774,99.417z"/>
				<path fill="#F4F4F7" d="M60.225,87.754c-0.659,0.104-1.334,0.26-2.023,0.474c-1.093,0.338-2.225,0.82-3.41,1.503
					c-1.184,0.685-2.167,1.425-3.007,2.203c-0.531,0.489-1.001,0.995-1.421,1.514c-0.997,1.236-1.715,2.541-2.284,3.875
					c-0.351,0.823-0.65,1.659-0.924,2.495c-0.176,0.535-0.343,1.073-0.508,1.606c-0.392,1.265-0.798,2.574-1.315,3.842
					c-0.561,1.371-1.295,2.591-2.184,3.622c-0.316,0.366-0.274,0.92,0.092,1.236c0.366,0.315,0.92,0.274,1.235-0.092
					c1.013-1.177,1.846-2.555,2.478-4.103c0.44-1.075,0.794-2.154,1.126-3.214c0.081-0.26,0.162-0.518,0.241-0.774
					c0.223-0.716,0.443-1.427,0.683-2.123c0.726-2.123,1.634-4.137,3.305-5.934c0.432-0.463,0.918-0.915,1.466-1.348
					c0.564-0.446,1.186-0.878,1.894-1.285c0.707-0.41,1.393-0.733,2.062-1c0.648-0.257,1.281-0.451,1.9-0.592
					c2.39-0.553,4.59-0.33,6.79,0.103c-0.587-0.656-1.161-1.331-1.699-2.048C63.281,87.538,61.793,87.508,60.225,87.754z
					 M78.226,89.923c-0.091-0.474-0.549-0.789-1.023-0.698c-1.339,0.253-2.762,0.282-4.23,0.082
					c-1.357-0.187-2.691-0.489-3.985-0.783c-0.546-0.124-1.093-0.248-1.645-0.364c0.486,0.555,0.99,1.103,1.499,1.655
					c0.182,0.195,0.366,0.395,0.549,0.595c1.082,0.24,2.194,0.472,3.344,0.632c1.657,0.226,3.269,0.191,4.792-0.094
					C78.003,90.855,78.317,90.396,78.226,89.923z"/>
				<path fill="#F4F4F7" d="M26.767,65.798c-1.082-0.241-2.194-0.474-3.345-0.631c-1.656-0.226-3.269-0.194-4.792,0.094
					c-0.474,0.091-0.787,0.55-0.697,1.023c0.091,0.476,0.549,0.789,1.024,0.698c1.337-0.254,2.76-0.28,4.229-0.08
					c1.357,0.186,2.693,0.49,3.985,0.782c0.546,0.124,1.093,0.248,1.646,0.364c-0.486-0.557-0.99-1.103-1.5-1.655
					C27.134,66.198,26.949,65.998,26.767,65.798z M52.917,46.087c-0.364-0.316-0.918-0.275-1.234,0.092
					c-1.013,1.176-1.846,2.556-2.478,4.103c-0.44,1.076-0.793,2.155-1.126,3.214c-0.082,0.258-0.163,0.517-0.241,0.772
					c-0.222,0.717-0.444,1.427-0.682,2.125c-0.726,2.121-1.634,4.137-3.304,5.932c-0.434,0.466-0.919,0.916-1.466,1.349
					c-0.565,0.448-1.187,0.878-1.895,1.287c-0.708,0.409-1.392,0.733-2.062,0.998c-0.648,0.258-1.281,0.453-1.901,0.594
					c-2.39,0.549-4.589,0.329-6.788-0.104c0.586,0.656,1.159,1.33,1.697,2.047c1.44,0.175,2.93,0.205,4.497-0.041
					c0.659-0.104,1.334-0.26,2.023-0.473c1.093-0.339,2.225-0.82,3.409-1.503c1.185-0.684,2.169-1.425,3.008-2.202
					c0.53-0.49,1.002-0.996,1.422-1.516c0.996-1.234,1.715-2.539,2.284-3.874c0.351-0.823,0.651-1.658,0.924-2.494
					c0.176-0.535,0.342-1.072,0.508-1.607c0.392-1.265,0.797-2.574,1.315-3.842c0.561-1.372,1.295-2.59,2.184-3.622
					C53.325,46.956,53.284,46.402,52.917,46.087z"/>
				<path fill="#F4F4F7" d="M60.384,56.792c0.242-1.083,0.474-2.194,0.633-3.345c0.226-1.656,0.193-3.267-0.095-4.792
					c-0.09-0.476-0.549-0.787-1.024-0.697c-0.474,0.09-0.787,0.549-0.697,1.023c0.255,1.339,0.281,2.761,0.081,4.228
					c-0.186,1.357-0.489,2.693-0.783,3.985c-0.123,0.545-0.248,1.094-0.363,1.647c0.556-0.486,1.103-0.99,1.655-1.5
					C59.986,57.158,60.184,56.975,60.384,56.792z M80.004,81.706c-1.175-1.011-2.556-1.846-4.102-2.478
					c-1.076-0.438-2.155-0.793-3.212-1.125c-0.26-0.082-0.517-0.162-0.773-0.24c-0.718-0.224-1.427-0.444-2.126-0.684
					c-2.121-0.726-4.137-1.635-5.931-3.305c-0.466-0.431-0.916-0.917-1.35-1.465c-0.446-0.564-0.878-1.187-1.287-1.895
					c-0.409-0.707-0.732-1.392-0.997-2.062c-0.256-0.649-0.453-1.281-0.594-1.901c-0.549-2.39-0.328-4.589,0.104-6.79
					c-0.656,0.588-1.331,1.16-2.046,1.698c-0.175,1.441-0.205,2.931,0.042,4.497c0.103,0.659,0.258,1.333,0.471,2.023
					c0.34,1.093,0.821,2.224,1.505,3.41c0.684,1.185,1.423,2.168,2.2,3.007c0.492,0.53,0.997,1.001,1.515,1.421
					c1.234,0.997,2.539,1.715,3.874,2.284c0.825,0.351,1.658,0.649,2.495,0.925c0.536,0.174,1.072,0.34,1.606,0.506
					c1.266,0.391,2.575,0.799,3.842,1.317c1.371,0.559,2.591,1.294,3.622,2.182c0.365,0.315,0.919,0.276,1.236-0.09
					C80.411,82.576,80.371,82.022,80.004,81.706z"/>
			</g>
		</g>
	</g>
</g>
<g id="Layer_2">
</g>
</svg>
