<?xml version="1.0" encoding="utf-8"?>
<!-- Generator: Adobe Illustrator 21.0.2, SVG Export Plug-In . SVG Version: 6.00 Build 0)  -->
<svg version="1.1" xmlns="http://www.w3.org/2000/svg" xmlns:xlink="http://www.w3.org/1999/xlink" x="0px" y="0px"
	 viewBox="0 0 200 125" enable-background="new 0 0 200 125" xml:space="preserve">
<g id="Layer_1">
	<g>
		<path fill="#F4F4F7" d="M45.898,84.109h-14.79c-0.382,0-0.691,0.31-0.691,0.691v7.231c0,0.382,0.31,0.692,0.691,0.692h5.77v8.984
			c0,0-1.296,0.442-4.877,0.442c-4.226,0-10.128-1.544-10.128-14.524c0-12.983,6.146-14.691,11.917-14.691
			c4.995,0,7.147,0.879,8.516,1.303c0.43,0.132,0.828-0.297,0.828-0.678l1.65-6.987c0-0.179-0.06-0.394-0.264-0.54
			c-0.556-0.397-3.949-2.295-12.519-2.295C22.128,63.737,12,67.938,12,88.131c0,20.194,11.595,23.203,21.366,23.203
			c8.09,0,12.999-3.457,12.999-3.457c0.202-0.112,0.224-0.394,0.224-0.524V84.8C46.589,84.419,46.28,84.109,45.898,84.109z"/>
		<path fill="#F4F4F7" d="M122.118,66.157c0-0.385-0.305-0.695-0.686-0.695h-8.327c-0.38,0-0.69,0.31-0.69,0.695
			c0,0.002,0.002,16.093,0.002,16.093h-12.98V66.157c0-0.385-0.306-0.695-0.687-0.695h-8.327c-0.379,0-0.688,0.31-0.688,0.695
			v43.576c0,0.384,0.309,0.697,0.688,0.697h8.327c0.381,0,0.687-0.313,0.687-0.697V91.093h12.98c0,0-0.023,18.638-0.023,18.639
			c0,0.384,0.309,0.697,0.69,0.697h8.347c0.382,0,0.686-0.313,0.687-0.697V66.157z"/>
		<g>
			<g>
				<ellipse fill="#F4F4F7" cx="56.243" cy="71.876" rx="5.369" ry="5.423"/>
				<path fill="#F4F4F7" d="M61.017,100.54c0-1.117,0-20.115,0-20.115c0-0.382-0.308-0.694-0.689-0.694h-8.301
					c-0.381,0-0.722,0.393-0.722,0.775c0,0,0,24.204,0,28.818c0,0.847,0.528,1.099,1.211,1.099c0,0,3.543,0,7.479,0
					c0.821,0,1.022-0.403,1.022-1.112C61.017,107.766,61.017,101.715,61.017,100.54z"/>
			</g>
		</g>
		<path fill="#F4F4F7" d="M153.766,79.797h-8.264c-0.379,0-0.687,0.312-0.687,0.697v21.366c0,0-2.099,1.536-5.079,1.536
			c-2.979,0-3.77-1.352-3.77-4.27c0-2.921,0-18.633,0-18.633c0-0.384-0.308-0.697-0.687-0.697h-8.387
			c-0.379,0-0.689,0.312-0.689,0.697c0,0,0,11.378,0,20.044c0,8.666,4.83,10.786,11.474,10.786c5.451,0,9.846-3.011,9.846-3.011
			s0.209,1.587,0.304,1.775c0.095,0.188,0.341,0.377,0.608,0.377l5.335-0.024c0.379,0,0.689-0.313,0.689-0.696l-0.003-29.251
			C154.456,80.109,154.147,79.797,153.766,79.797z"/>
		<path fill="#F4F4F7" d="M176.352,78.818c-4.693,0-7.886,2.094-7.886,2.094V66.157c0-0.385-0.307-0.695-0.687-0.695h-8.351
			c-0.38,0-0.688,0.31-0.688,0.695v43.576c0,0.384,0.308,0.697,0.689,0.697c0.001,0,5.792,0,5.794,0c0.261,0,0.458-0.135,0.604-0.37
			c0.144-0.234,0.352-2.009,0.352-2.009s3.415,3.236,9.879,3.236c7.589,0,11.941-3.85,11.941-17.281
			C188,80.573,181.049,78.818,176.352,78.818z M173.093,103.37c-2.866-0.087-4.81-1.388-4.81-1.388v-13.8
			c0,0,1.918-1.175,4.271-1.386c2.976-0.266,5.843,0.632,5.843,7.731C178.397,102.013,177.103,103.491,173.093,103.37z"/>
		<path fill="#F4F4F7" d="M84.951,79.727h-6.247c0,0-0.009-8.251-0.009-8.252c0-0.312-0.161-0.468-0.522-0.468H69.66
			c-0.331,0-0.509,0.146-0.509,0.464v8.528c0,0-4.266,1.03-4.555,1.113c-0.287,0.083-0.499,0.348-0.499,0.664v5.359
			c0,0.385,0.308,0.696,0.689,0.696h4.364c0,0,0,5.605,0,12.892c0,9.576,6.717,10.516,11.249,10.516
			c2.071,0,4.548-0.665,4.958-0.816c0.247-0.091,0.391-0.347,0.391-0.625l0.007-5.895c0-0.384-0.325-0.696-0.69-0.696
			c-0.364,0-1.295,0.148-2.254,0.148c-3.068,0-4.108-1.427-4.108-3.273c0-1.845,0-12.252,0-12.252h6.247
			c0.381,0,0.689-0.311,0.689-0.696v-6.712C85.64,80.037,85.331,79.727,84.951,79.727z"/>
	</g>
</g>
<g id="Layer_2">
</g>
</svg>
