<svg id="Layer_1" data-name="Layer 1" xmlns="http://www.w3.org/2000/svg" viewBox="0 0 83.2 83.2"><defs><style>.cls-1,.cls-2{fill:#80bd3e;}.cls-1{opacity:0.3;}</style></defs><title>assets</title><circle class="cls-1" cx="41.6" cy="41.6" r="41.6"/><path class="cls-2" d="M43.38,54.85h0V43.35H48.2A1.75,1.75,0,0,0,50,41.6h0a1.75,1.75,0,0,0-1.75-1.75H43.35V28.35h0c0-3.58,6.7-4.46,6.77-4.47L50,22.14l-.19-1.74c-2.46.27-6,1.32-8.16,3.61-2.11-2.28-5.7-3.33-8.16-3.61l-.39,3.48c.07,0,6.76.86,6.76,4.46h0V39.85H35a1.75,1.75,0,0,0-1.75,1.75h0A1.75,1.75,0,0,0,35,43.35h4.85V54.85h0c0,3.58-6.7,4.46-6.77,4.47l.39,3.48c2.46-.28,6-1.33,8.16-3.61,2.11,2.28,5.7,3.33,8.16,3.61l.39-3.48C50.08,59.3,43.38,58.46,43.38,54.85Z"/></svg>