<svg id="Layer_1" data-name="Layer 1" xmlns="http://www.w3.org/2000/svg" viewBox="0 0 83.2 83.2"><defs><style>.cls-1,.cls-2{fill:#80bd3e;}.cls-1{opacity:0.3;}</style></defs><title>assets</title><circle class="cls-1" cx="41.6" cy="41.6" r="41.6"/><path class="cls-2" d="M35.33,59A21.29,21.29,0,1,1,50.39,22.61h0A21.29,21.29,0,0,1,35.33,59Zm0-38.58a17.29,17.29,0,1,0,12.23,5.06h0A17.24,17.24,0,0,0,35.33,20.38Z"/><path class="cls-2" d="M23.52,39.67a2,2,0,0,1-2-2A13.83,13.83,0,0,1,35.33,23.86a2,2,0,0,1,0,4,9.82,9.82,0,0,0-9.81,9.81A2,2,0,0,1,23.52,39.67Z"/><path class="cls-2" d="M61.06,64.83a2,2,0,0,1-1.41-.59l-11.8-11.8a2,2,0,0,1,2.83-2.83l11.8,11.8a2,2,0,0,1-1.41,3.41Z"/></svg>