<svg id="Layer_1" data-name="Layer 1" xmlns="http://www.w3.org/2000/svg" viewBox="0 0 72.9 72.9"><defs><style>.cls-1,.cls-2{fill:#30957b;}.cls-1{opacity:0.3;}</style></defs><title>assets</title><circle class="cls-1" cx="36.45" cy="36.45" r="36.45"/><path class="cls-2" d="M22.51,45.67l2.18-2.45a24.07,24.07,0,0,1-7.09-6.81A21.85,21.85,0,0,1,35.87,26.32a33.4,33.4,0,0,1,5.18.55l2.45-2.45A23.65,23.65,0,0,0,35.87,23,24.94,24.94,0,0,0,14.33,35.32h0v.27h0v.27h0v.82A21.9,21.9,0,0,0,22.51,45.67Z"/><path class="cls-2" d="M29.05,36.41a5.31,5.31,0,0,0,.27,2.18L38,29.86a6,6,0,0,0-2.18-.27A6.75,6.75,0,0,0,29.05,36.41Z"/><path class="cls-2" d="M58.16,15.12a1.66,1.66,0,0,0-2.18,0l-.27.27L45.35,25.75,42.9,28.21l-3.54,3.54-9.54,9.54-3.54,3.54-2.45,2.45-8.18,8.18a1,1,0,0,0-.27.55c-.27.55-.27,1.36.27,1.64a2.07,2.07,0,0,0,1.09.55,2.07,2.07,0,0,0,1.09-.55l9.27-9.27a23.52,23.52,0,0,0,7.63,1.09A24.94,24.94,0,0,0,56.25,37.2h0v-.27h0v-.55h0v-.27a23.53,23.53,0,0,0-7.9-8.45l9.81-9.81A2.43,2.43,0,0,0,58.16,15.12ZM53,36.38A21.85,21.85,0,0,1,34.72,46.47a30,30,0,0,1-4.91-.55l3-3A5.31,5.31,0,0,0,35,43.2a6.75,6.75,0,0,0,6.81-6.81,6,6,0,0,0-.27-2.18l4.91-4.91A32.63,32.63,0,0,1,53,36.38Z"/></svg>