<svg id="Layer_1" data-name="Layer 1" xmlns="http://www.w3.org/2000/svg" viewBox="0 0 72.9 72.9"><defs><style>.cls-1,.cls-2{fill:#30957b;}.cls-1{opacity:0.3;}</style></defs><title>assets</title><circle class="cls-1" cx="36.45" cy="36.45" r="36.45"/><path class="cls-2" d="M50,57H23a2,2,0,0,1-2-2V29.64a2,2,0,0,1,2-2H50a2,2,0,0,1,2,2V55A2,2,0,0,1,50,57ZM25,53H48V31.64H25Z"/><path class="cls-2" d="M44,31.64H28.86a2,2,0,0,1-2-2V22A9.59,9.59,0,0,1,46,22v7.59A2,2,0,0,1,44,31.64Zm-13.19-4H42V22a5.59,5.59,0,0,0-11.19,0Z"/><path class="cls-2" d="M36.45,43.87a3.69,3.69,0,1,1,3.69-3.69A3.69,3.69,0,0,1,36.45,43.87Zm0-4a.31.31,0,1,0,.31.31A.31.31,0,0,0,36.45,39.87Z"/><path class="cls-2" d="M36.45,48.09a2,2,0,0,1-2-2V40.19a2,2,0,0,1,4,0v5.91A2,2,0,0,1,36.45,48.09Z"/></svg>