<svg id="Layer_1" data-name="Layer 1" xmlns="http://www.w3.org/2000/svg" viewBox="0 0 83.2 83.2"><defs><style>.cls-1,.cls-2{fill:#80bd3e;}.cls-1{opacity:0.3;}</style></defs><title>assets</title><circle class="cls-1" cx="41.6" cy="41.6" r="41.6"/><path class="cls-2" d="M66.19,40.82A24.39,24.39,0,0,0,41.69,16.6a1.79,1.79,0,1,0-.05,3.59h.05A20.62,20.62,0,0,1,51.85,58.91V53.05A1.79,1.79,0,0,0,48.26,53s0,0,0,.05v9.56a1.79,1.79,0,0,0,1.79,1.79h9.56a1.79,1.79,0,0,0,1.83-1.76s0,0,0-.06a1.79,1.79,0,0,0-1.81-1.77h-4a24.25,24.25,0,0,0,10.57-20Zm-22.67,23A1.79,1.79,0,0,0,41.71,62h0A20.62,20.62,0,0,1,31.57,23.27v5.88a1.79,1.79,0,1,0,3.59.05s0,0,0-.05V19.59a1.79,1.79,0,0,0-1.79-1.79H23.8A1.79,1.79,0,0,0,22,19.55v0a1.79,1.79,0,0,0,1.77,1.81h4A24.22,24.22,0,0,0,41.69,65.6a1.79,1.79,0,0,0,1.83-1.76s0,0,0-.06Z"/></svg>