<svg id="Layer_1" data-name="Layer 1" xmlns="http://www.w3.org/2000/svg" viewBox="0 0 72.9 72.9"><defs><style>.cls-1,.cls-2{fill:#30957b;}.cls-1{opacity:0.3;}</style></defs><title>assets</title><circle class="cls-1" cx="36.45" cy="36.45" r="36.45"/><path class="cls-2" d="M38.41,60.9H34.49A4.9,4.9,0,0,1,29.6,56V52.9l-2.22,2.25A4.86,4.86,0,0,1,23.9,56.6h0a4.86,4.86,0,0,1-3.48-1.46l-2.8-2.84a4.92,4.92,0,0,1,0-6.88l2-2.06H16.9a4.9,4.9,0,0,1-4.9-4.9v-4a4.9,4.9,0,0,1,4.9-4.9h1.84L17,27.78a4.91,4.91,0,0,1,0-6.88l2.8-2.83a4.9,4.9,0,0,1,7,0l2.31,2.35.51-.23V16.9a4.9,4.9,0,0,1,4.9-4.9h3.92a4.9,4.9,0,0,1,4.9,4.9v3.29l.71.33,2.41-2.44a4.9,4.9,0,0,1,7,0l2.8,2.83a4.91,4.91,0,0,1,0,6.88l-1.73,1.75H56a4.9,4.9,0,0,1,4.9,4.9v4a4.9,4.9,0,0,1-4.9,4.9H53.56l2,2.06a4.92,4.92,0,0,1,0,6.88l-2.8,2.84a4.9,4.9,0,0,1-7,0l-2.43-2.46-.09,0V56A4.9,4.9,0,0,1,38.41,60.9ZM29.29,48.36a2,2,0,0,1,.94.23,13.37,13.37,0,0,0,2,.86,2,2,0,0,1,1.37,1.9V56a.9.9,0,0,0,.9.9h3.92a.9.9,0,0,0,.9-.9V51.35a2,2,0,0,1,1.37-1.9,13.38,13.38,0,0,0,2.17-1,2,2,0,0,1,2.39.35l3.44,3.49a.9.9,0,0,0,1.28,0l2.8-2.84a.9.9,0,0,0,0-1.26L49,44.49a2,2,0,0,1-.39-2.24,13.94,13.94,0,0,0,.59-1.5,2,2,0,0,1,1.9-1.38H56a.9.9,0,0,0,.9-.9v-4a.9.9,0,0,0-.9-.9H51.15a2,2,0,0,1-1.9-1.38q-.16-.48-.35-.94A2,2,0,0,1,49.33,29l4-4.08a.9.9,0,0,0,0-1.26l-2.8-2.83a.9.9,0,0,0-1.28,0l-3.47,3.51a2,2,0,0,1-2.46.31,13.33,13.33,0,0,0-2.68-1.24,2,2,0,0,1-1.36-1.9V16.9a.9.9,0,0,0-.9-.9H34.49a.9.9,0,0,0-.9.9v4.66a2,2,0,0,1-1.36,1.9,13.31,13.31,0,0,0-2.51,1.15,2,2,0,0,1-2.44-.32l-3.36-3.4a.9.9,0,0,0-1.28,0l-2.8,2.83a.9.9,0,0,0,0,1.26l3.81,3.87A2,2,0,0,1,24.08,31q-.24.56-.43,1.13a2,2,0,0,1-1.9,1.38H16.9a.9.9,0,0,0-.9.9v4a.9.9,0,0,0,.9.9h4.86a2,2,0,0,1,1.9,1.38,13.89,13.89,0,0,0,.67,1.68A2,2,0,0,1,24,44.7l-3.49,3.54a.9.9,0,0,0,0,1.26l2.8,2.84a.89.89,0,0,0,.64.27h0a.89.89,0,0,0,.64-.27L27.87,49A2,2,0,0,1,29.29,48.36Zm2.31-26.8h0Zm4.85,24.74a9.84,9.84,0,1,1,9.74-9.84A9.8,9.8,0,0,1,36.45,46.29Zm0-15.69a5.84,5.84,0,1,0,5.74,5.84A5.8,5.8,0,0,0,36.45,30.61Z"/></svg>