<?xml version="1.0" encoding="utf-8"?>
<!-- Generator: Adobe Illustrator 21.1.0, SVG Export Plug-In . SVG Version: 6.00 Build 0)  -->
<svg version="1.1" id="Layer_1" xmlns="http://www.w3.org/2000/svg" xmlns:xlink="http://www.w3.org/1999/xlink" x="0px" y="0px"
	 viewBox="0 0 216 216" style="enable-background:new 0 0 216 216;" xml:space="preserve">
<style type="text/css">
	.st0{fill:url(#SVGID_1_);}
	.st1{fill:url(#SVGID_2_);}
	.st2{fill:#30957B;}
	.st3{fill:#80BD3E;}
	.st4{fill:#F3254D;}
</style>
<g>
	<linearGradient id="SVGID_1_" gradientUnits="userSpaceOnUse" x1="108.5" y1="-46.3333" x2="108.5" y2="265.8973">
		<stop  offset="3.055384e-02" style="stop-color:#F3254D"/>
		<stop  offset="0.1216" style="stop-color:#D2254C"/>
		<stop  offset="0.2592" style="stop-color:#A8264A"/>
		<stop  offset="0.3929" style="stop-color:#862649"/>
		<stop  offset="0.5195" style="stop-color:#6E2748"/>
		<stop  offset="0.6362" style="stop-color:#5F2747"/>
		<stop  offset="0.7338" style="stop-color:#5A2747"/>
	</linearGradient>
	<path class="st0" d="M200.9,117.7c-1.6-0.1-2.8,3.1-3.5,5.5c-2.1,6.6-3.2,9.5-5.9,15.2c-0.4,0.9-1.4,2-2,2
		c-0.7-0.1-0.4-0.9-0.2-1.6c3.1-7.9,3.7-18.4,3.4-25.5c-0.1-2.1-0.3-4.4-1.6-4.5c-1.3-0.1-2.4,2.7-2.9,4.1c-2.2,7.7-7,24-9.4,27.5
		c-0.4,0.6-1.1,1.4-1.7,1.3c-0.5,0-0.2-0.9-0.1-1.4c1.7-5.3,1.8-16.5,1.4-25.8c-0.1-1.6-0.6-4.3-1.8-4.4c-1.4-0.1-2.5,2.3-3,4.2
		c-1.4,4.8-3.4,20.6-7.6,27.9c-0.9,1.6-1.4,2.1-2,2.1c-0.6-0.1-0.6-0.9-0.4-1.8c2.8-11.1-0.8-22.5-1.1-23.6
		c-0.3-1.3-0.8-2.1-1.8-2.2c-2.5-0.2-3.2,4.9-3.6,7.5c-2.7,14.4-6.9,29.4-12.5,35.4c-0.4,0.4-0.6,0.6-0.9,0.6c-0.3,0-0.4-0.3-0.4-1
		c1-16.9-5.8-22.8-10.5-23.2c-3.5-0.3-1.8,6.2-2.1,9.1c-1.3,15-9.4,34.1-39.8,31.4c-26.2-2.3-57.7-23-70.6-50.9
		c-0.4-0.9-1-4-3.3-4.2c-2.9-0.3-2.3,4.3-2.2,4.8c6.7,35.6,40.2,75.5,82.6,79.2c65.5,5.7,102-46,105.2-81.7
		C202.7,120.1,201.8,117.8,200.9,117.7z"/>
	<linearGradient id="SVGID_2_" gradientUnits="userSpaceOnUse" x1="100.3233" y1="-46.3333" x2="100.3233" y2="265.8973">
		<stop  offset="3.055384e-02" style="stop-color:#F3254D"/>
		<stop  offset="0.1216" style="stop-color:#D2254C"/>
		<stop  offset="0.2592" style="stop-color:#A8264A"/>
		<stop  offset="0.3929" style="stop-color:#862649"/>
		<stop  offset="0.5195" style="stop-color:#6E2748"/>
		<stop  offset="0.6362" style="stop-color:#5F2747"/>
		<stop  offset="0.7338" style="stop-color:#5A2747"/>
	</linearGradient>
	<path class="st1" d="M18.5,88.6c1.5,0.1,2.4-1.5,3-3.5c1.7-5.8,6.1-13.9,10.7-19c0.5-0.6,0.8-0.9,1.3-0.8c0.6,0.1,0.3,0.8,0.1,1.3
		c-3,6.4-6.1,20.4-6.3,26.2c-0.1,2.7,1.1,4.6,2.4,4.7c1.3,0.1,2-0.8,2.3-2.1c1.7-7.1,10-26,13.4-30.2c0.4-0.5,1-1.1,1.5-1
		c0.4,0.1,0.2,0.8,0,1.1c-4,7.6-7.1,19.5-6.2,28.1c0.3,2.5,1,3.9,2,4c1.7,0.1,2.5-1.4,3.1-3c1.4-3.9,7.1-19.8,10.9-25.6
		c0.8-1.3,1.6-1.7,2-1.6c0.5,0.1,0.3,0.9-0.1,1.5c-6.5,10.9-4,22.3-3,25.7c0.3,1,1.1,2.5,2.3,2.6c1.5,0.1,2.4-2.2,2.7-4.4
		C62.5,80.4,71.1,61.5,77,55.8c0.3-0.3,0.6-0.5,0.8-0.4c0.2,0,0.4,0.3,0.3,0.9c-3.2,16.3,8,29.6,14.5,24.1c1-0.8-2.1-6-2.1-12.6
		c0.1-10.4,10.4-37.5,44.2-34.5c22.6,2,32.6,8.6,41.6,15.5c4.1,3.1,5.6,4,6.6,3.5c1.2-0.6,1.5-2.5-0.4-5.4c-5.1-8.1-25-32.9-64-36.3
		c-59.1-5.2-96,37.4-101.6,72.9C16.4,86.4,17.1,88.5,18.5,88.6z"/>
</g>
<g>
	<path class="st2" d="M115.9,136.5c0.3,0,1,0.7,2.2,0.8c0.4,0,6.6,0.6,7.3-7.5c0.7-8.1-3.4-11.2-5.7-11.4c-2.9-0.3-3.3,1.5-3.4,3
		c-0.1,1.6,3,7.2-0.2,6.9c-4.2-0.4-7.9-15.1-12.8-15.6c-3-0.3-3.8,3.3-3.9,5.4c-0.2,1.9,1.1,5.1,1.1,5.1s-1.7-1.3-4.9-1.5
		c-4.1-0.4-11.4,3.7-12.2,13.1c-0.8,9.4,4.7,27.1,17.1,28.2c11.5,1,16.7-8.3,17.3-15.4c0.4-4.8-1.8-9.8-2-10.1
		C115.5,137,115.5,136.5,115.9,136.5z M101.1,153.7c-5.9-0.5-10-10.8-9.5-17.1c0.4-4.4,3.7-6.7,6.3-6.4c4.6,0.4,11.2,9.6,10.5,16.9
		C108,151.7,104.9,154,101.1,153.7z"/>
	<path class="st2" d="M107.6,92.5c-1.3-0.1-8,3.5-15.6,2.9c-4.8-0.4-9.1-2.7-11.4-4.1c-0.4-10.1-5.4-13.7-7.4-13.8
		c-1-0.1-1.6,0.3-1.7,1.3c-0.1,0.7,0.2,1.4,0.7,2.8c2.2,5.8,3,17,1.9,28.8c-0.4,4.7-1,6.7-1.1,8c-0.1,1,0.1,1.8,0.8,1.9
		c0.7,0.1,1.3-0.5,2-1.4c1.5-2.1,3.2-8.3,4.4-21.9c3.7,2.6,9.5,4.2,15.2,4.3c8.8,0.1,12.6-5.4,12.6-5.4s0.5-0.8,0.6-1.2
		C108.8,94.2,108.4,92.6,107.6,92.5z"/>
	<path class="st3" d="M148.1,44.4c3.7,0.5,23.1,8.4,22.6,11.5c-0.5,3.7-17.2,14-20.3,13.5c-3.6-0.5-7.1-14.6-6-21.9
		C144.8,45.4,145.3,44,148.1,44.4z"/>
	<path class="st4" d="M182.1,56.5c3,0.3,5.8,2.1,5.4,5.7c-0.3,3.9-4.5,5.4-7.6,5.1c-3.7-0.3-8-1.9-7.9-3.5c0-0.4,0.5-0.6,0.9-0.6
		c0.7,0.1,1.4,0.4,2.5,0.5c1.2,0.1,1.8,0,2.2-0.2c0.4-0.2,0.4-0.7-0.1-0.8c-0.9-0.3-1.6-1.4-1.5-2.5
		C176.3,58.1,178.6,56.2,182.1,56.5z"/>
	<path class="st3" d="M108.9,100.8c0-5.4,4-7.9,7.6-7.9c6.4,0,8.8,7.6,8.8,10.1c0,3.7-0.6,5-1.4,5c-0.6,0-0.8-1.5-1.3-2.7
		c-0.4-1.3-0.7-1.7-1-1.7c-0.1,0-0.2,0.1-0.3,0.2c-0.4,0.9-2.4,4.2-6.8,4.2C111.7,108,108.9,105.7,108.9,100.8z"/>
	<path class="st4" d="M21,96.8c2.2,0.1,4,2.8,3.8,6.9c-0.2,4.1-1,4.9-0.9,7.7c0.1,3.9,0.9,4.5,0.9,5.9c-0.1,1.1-0.7,1.5-1.3,1.5
		c-1.4-0.1-7.4-5.9-7-13.7C16.9,97.3,20.1,96.8,21,96.8z"/>
	<path class="st4" d="M75.1,135.5c3.7,0.3,5.7,8.3,5.3,13.1c-0.3,3.8-1.8,12.4-3.7,12.2c-3.3-0.3-12.1-7-11.6-12.6
		c0.2-2.4,2-3.2,3.1-3.1c1.2,0.1,2.1,1.3,2.1,1.3s0.3,0.3,0.3,0.1c0-0.1,0-0.3-0.1-0.5c-0.3-0.9-1-3.2-0.8-4.7
		C69.9,139.2,71.5,135.1,75.1,135.5z"/>
	<path class="st3" d="M38,128.5c-1.1-0.1-2,0.4-2.2,0.4c-0.1,0-0.3-0.1-0.4-0.5c-0.1-0.6-0.1-2,0.1-3.8c0.4-4.7,3.4-14.3,3.6-16.7
		c0.3-2.9-1.1-6.4-4.5-6.7c-3-0.3-5.3,1.4-5.6,4.8c-0.3,3.6,2.1,5.3,3.5,5.4c0.8,0.1,0.7,0.7,0.7,0.7s-2,6-2.7,13.9
		c-0.7,8.3,2.3,13.4,5.3,13.7c3.4,0.3,5.3-2.1,5.6-5.2C41.6,131.5,40.1,128.6,38,128.5z M33.1,108.1c-2.2-0.2-1.4-4.1,0.7-4
		C35.7,104.3,35.5,108.3,33.1,108.1z M36.3,135.6c-1.9-0.2-1.4-4,0.5-3.8C38.7,132,38.5,135.8,36.3,135.6z"/>
	<path class="st3" d="M64.3,125.8c0-0.1,0.1-0.1,0.2-0.2c0.7-0.4,3.8-2.1,4.1-5.4c0.3-3.1-0.9-5.7-4.2-6c-3.7-0.3-5.5,2.3-5.7,4.4
		c-0.1,1.3,0.3,2.1,0.3,2.2c0,0.1,0.2,0.4-0.4,0.3c-4.2-0.4-6.9,1.7-6.9,1.7s-1.2,0.7-1.1-0.5c0.6-6.4-2.5-10-5.6-10.3
		c-2-0.2-5.3,1.1-5.7,5.1c-0.3,3.2,1.5,5.1,3.4,5.3c1.7,0.2,2.5-0.6,2.5-0.6s0.4-0.1,0.4,0.8c-0.2,2.6-2.7,14.8-3,17.8
		c-0.3,3.5,1.6,4.3,2.7,4.4c0.8,0.1,2.4-0.8,2.7-2.3c0.9-4.9,4.1-15.7,8.8-15.3c2.2,0.2,1.9,3.2,1.7,5.5c-0.5,6.1-5.1,12.3-5.4,15.8
		c-0.1,1.2,0,3.7,2.2,3.9c5,0.4,9.8-15.9,10.2-20.4c0.3-3-0.8-5.3-1.2-6.1C64.3,125.9,64.3,125.8,64.3,125.8z M43.5,119
		c-2.2-0.2-1.3-3.9,0.7-3.8C46.3,115.4,45.8,119.2,43.5,119z M63.8,117.9c2.3,0.2,2,4.3-0.6,4.1C60.5,121.8,61.4,117.7,63.8,117.9z"
		/>
	<path class="st3" d="M66.9,99.7c-1.1-0.1-2.6,0.1-2.7,1.1c-0.2,2.6-1.9,6.8-3.1,7.6c-0.2,0.1-0.3,0.2-0.3,0.1
		c-0.1-0.1,0-0.2,0.2-0.4c0.2-0.3,0.7-1.1,0.8-2.7c0.1-1.6-0.7-4.2-3.4-4.4c-2.8-0.2-4.5,1.8-4.8,4.6c-0.2,1.8,0.9,4.5,2.3,4.6
		c0.9,0.1,1.3-0.1,1.4-0.1c0.1,0,0.1,0.1,0,0.2c-0.8,1.2-1.9,2.1-2.6,2.6c-0.4,0.3,0.2,1.1,0.2,1.1s1,1.4,1.7,1.5
		c1.5,0.1,12.2-5.9,12.7-11.8C69.4,102,68.8,99.9,66.9,99.7z M57.4,107c-1.7-0.2-1.2-3.2,0.6-3.1C59.7,104.1,59.3,107.2,57.4,107z"
		/>
	<g>
		<path class="st2" d="M122.1,88.1c5.2,0,8-3.1,8-5.5c0-2-1.6-2.5-2.5-2.4c-1.7,0.2-2.3,1.5-4.3,1.5c-0.7,0-1.8-0.9-1.8-2
			c0-1.5,1.2-2.1,2-2.1c2,0,2.9,0.5,5.1,0.5c3.4,0,6.1-2.8,6.1-5.9c0-2.9-2.6-5.8-5.1-5.8c-1.8,0-2.4,1.2-2.4,2.2
			c0,1.9,1.8,2,1.8,3.4c0,0.9-0.8,1.2-1.5,1.2c-1.6,0-2.3-0.7-5.9-0.7c-3,0-7,2.6-7,7.9C114.6,83.7,117,88.1,122.1,88.1z"/>
		<path class="st2" d="M135,66.5c-2.3,0-3.9-2.3-3.9-4.4c0-1.8,1.4-3.8,3.7-3.8c3.2,0,4.3,2.3,4.3,4.1
			C139.1,64.1,138.4,66.5,135,66.5z"/>
	</g>
	<g>
		<path class="st4" d="M104.2,87.4c4.2,0,7.1-3.2,7.1-6.3c0-2.4-0.9-6-5.3-6c-3.2,0-6.7,2.9-6.7,6.3C99.2,85,101.8,87.4,104.2,87.4z
			"/>
		<path class="st4" d="M104.9,69.6c0-13.6,13.2-25.2,24-25.2c4,0,6.8,1.9,6.8,5.7c0,6.8-12.3,7.9-18,13.5c-3.6,3.5-6.7,9.7-9.8,9.7
			C106.1,73.2,104.9,71.3,104.9,69.6z"/>
	</g>
	<path class="st3" d="M89.2,105.7c-3.7,0.4-7.9,10.9-7.4,15.4c0.2,1.4,0.9,1.9,1.8,1.8c0.4-0.1,2-2.1,4.3-5c2.6-3.3,6.1-6.6,5.8-9.5
		C93.5,106.4,91.4,105.5,89.2,105.7z"/>
	<path class="st4" d="M133.2,115.2c4.3,0.1,11,8,10.8,15.6c0,0.9,0,2.5-1.6,2.5c-1,0-1.9-1.8-4.5-4.5c-2.5-2.6-8.6-5.2-8.5-9.7
		C129.6,116.7,131.1,115.2,133.2,115.2z"/>
	<g>
		<path class="st2" d="M198.5,78.6c0-1.3-1.2-4.9-1.4-5.8c-0.2-0.9-0.6-1.2-1.1-1.3c-1.9-0.4-18.3-2.9-33.1,1
			c-16.1,4.3-26.1,9.7-35.3,18.7c-0.7,0.7-0.6,0.8-0.7,1.5c-0.4,3.3,0.5,3.8,1,4.5c0.3,0.5,1.5,0.7,1.8,0.3c1.3-1.4,2.9-2.8,4.7-4.2
			c0.3,2,0.7,4.6,1.1,7.3c-2.3,1.8-4,3.4-4.7,4.5c-0.2,0.3-0.2,0.5-0.3,0.7c0,0.3,0.9,2.6,1,3.1c0.2,0.5,0.5,0.9,0.9,1.1
			c0.4,0.2,4.5,2.6,5.9,2.8c0.9,0.1,4.3-1.3,4.5-2.8c0.1-0.6-0.6-3.7-1.3-7.5c1.4-0.9,4.6-3,7.6-4.5c1.6,7.3,3.7,14.2,5.1,14.4
			c2,0.2,3.4-1.5,3.7-3.4c0.2-1.9-4.4-17.5-5.3-25c7.3-2.7,15.2-4.8,22.5-5.5c0.3,1.7,0.7,3.7,1,5.9c-1.1,0.6-2.9,1.5-4.6,1.3
			c-2.4-0.3-3.2-0.4-3.9-0.5c-1.9-0.2-2.5,3.4-2.5,4.4c0,0.8,0.1,1.2,0.4,1.2c0.9,0.1,4.3,1.3,4.1,3.7c-0.2,1.7-1.8,2-2.7,1.9
			c-2.9-0.4-5.4-4.8-5.2-6.5c0-0.3-0.2-0.6-0.7-0.6c-0.9-0.1-2,1.1-2.2,3.3c-0.1,1.2,2.3,7.4,7.7,8.1s7.2-3.1,7.5-5.3
			c0.4-3.3-2.6-5.4-2.6-5.4s-0.2-0.3,0.6-0.2c1.6,0.2,3.4-0.1,4.7-0.4c0.4,3.6,0.6,7.3,0.2,10.6c-0.2,1.8,0.5,3.2,2.5,3.5
			c2.1,0.3,3.2-1.3,3.4-3.6c0.7-6.2-0.6-16.4-1.4-21.7c1.6,0,3.1,0.1,4.6,0.3c0.1,0,0.3,0,0.4,0.1c0.6,5.1,2.2,14.4,1.4,21.1
			c-0.2,1.8,0.5,3.2,2.5,3.5c2.6,0.3,3.3-1.8,3.6-4c0.7-6.2-0.4-15.2-1.1-19.7c3.4,0.5,4.6,0.9,4.9,0.9
			C198,80.2,198.5,79.9,198.5,78.6z M147.9,92.5c-2.3,1.2-4.9,2.8-7.5,4.5c-0.4-2.4-0.8-4.8-1.1-7c2.3-1.3,4.8-2.6,7.4-3.8
			C147.1,88,147.5,90.2,147.9,92.5z"/>
		<path class="st2" d="M165,101.8c3.3,0.4,3.7,8.4-1,7.9C159.4,109.1,161.4,101.3,165,101.8z"/>
	</g>
</g>
</svg>
