<?xml version="1.0" encoding="utf-8"?>
<!-- Generator: Adobe Illustrator 21.1.0, SVG Export Plug-In . SVG Version: 6.00 Build 0)  -->
<svg version="1.1" id="Layer_1" xmlns="http://www.w3.org/2000/svg" xmlns:xlink="http://www.w3.org/1999/xlink" x="0px" y="0px"
	 viewBox="0 0 493.4 98.4" style="enable-background:new 0 0 493.4 98.4;" xml:space="preserve">
<style type="text/css">
	.st0{fill:#FFFFFF;}
</style>
<g>
	<path class="st0" d="M484.6,48.6c-3.7,0-7.4,3.9-7.4,8.7c0,7.9-9.5,23.3-29.2,23.3c-0.9,0-1.5-0.1-1.9-0.2c0-0.2,0-0.5,0-0.8
		c0.2-1.7,2.6-8.3,10-21.7c1.1-1.8,2.2-3.7,3.2-5.6c6.9-12,13.5-21.9,15.3-23.8c3-3.2,2.7-8.3-0.5-11.3c-3.2-3-8.3-2.7-11.3,0.5
		c-0.8,0.8-1.8,2.1-2.9,3.7c-3.6-5.2-9.5-8.3-17-8.3c-19.1,0-35.1,15.2-43,24.3c-3.8,4.4-7.7,9.7-10.9,15.1
		c-1.2,1.5-6.1,7.5-12.4,13.4c-8.4,7.8-16.2,12.3-21.3,12.3c-3,0-3.3-2.8-3.3-3.6c0-8.7,8-15.8,15.8-22.6
		c7.4-6.5,14.8-12.7,14.8-21.2c0-5.4-2.7-8.5-4.7-10.1c-5.1-4.3-11.9-3.1-18.4-2c-2.8,0.5-5.8,1-8.2,1c-2.1,0-3.8-0.6-5.3-3.3
		c-0.5-0.9-0.8-1.8-1.1-2.7c0.2-2.6,0.1-5-0.3-7.1c-0.8-4.3-5-7.2-9.3-6.4c-1.1,0.2-2.1,0.6-2.9,1.2c-2.5,1.4-4.2,4-4.2,7
		c0,1,0.1,3.5,0.7,6.5c-1.6,11.8-11,34.5-25.1,51.5c-7.4,8.9-14.8,14.2-19.8,14.2c-0.9,0-1.5-0.1-1.9-0.2c0-0.2,0-0.5,0-0.8
		c0.3-3.1,4.6-11.8,9.7-21.2c1.4-2.2,2.7-4.4,3.8-6.8c6-10.4,12.3-20.2,14.9-23.1c3-3.2,2.8-8.3-0.5-11.3c-3.2-3-8.3-2.8-11.3,0.5
		c-0.8,0.9-1.8,2.1-2.9,3.7c-3.6-5.2-9.5-8.2-17-8.2c-19.1,0-35.1,15.2-43,24.3c-4,4.7-8.1,10.3-11.4,16c-0.1,0.1-0.2,0.3-0.2,0.4
		c-1.1,1.9-2.1,3.8-2.9,5.7c-3.7,6.3-10.9,16.3-20.6,18.1c0.8-4.3,3.4-11.7,5.1-16.5c5.1-14.5,9.6-27.1,3.8-35.3
		c-1.5-2.1-5-5.6-11.8-5.6c-5.3,0-14,2.3-30.2,19.8c1.2-8.2,0.5-14.1-2.2-18.3c-2.6-4.1-6.8-6.3-11.8-6.3c-10.5,0-23,9.3-39.2,29
		c1.3-4.7,1.9-8.4,1.9-10.5c0-4.4-3.6-8-8-8c0,0,0,0,0,0c-4.4,0-8,3.6-8,8c0,2.2-2.9,14.5-9.5,26.8c-4,7.4-13.8,19.8-23.7,19.8
		c-0.9,0-1.5-0.1-1.9-0.2c0-0.2,0-0.5,0-0.9c0.2-3.1,4-11.8,9.1-21.3c1.5-2.4,2.9-4.9,4.2-7.5c5.2-9.1,11-17.8,15.1-22.1
		c3.1-3.2,3-8.2-0.2-11.3c-3.2-3.1-8.2-3-11.3,0.2c-1,1.1-2.2,2.5-3.5,4.2c-3.6-5.4-9.6-8.6-17.2-8.6c-19.1,0-35.1,15.2-43,24.3
		C9.4,48.2,0,63.9,0,74.7c0,14.3,8.7,23.6,22.1,23.6c9.9,0,20.3-6.4,28.2-12.9c2.1,7,9.1,11.1,18,11.1c6.8,0,13.6-2.4,19-6.4
		c0.6,1.3,1.6,2.4,2.9,3.2c1.3,0.8,2.8,1.2,4.2,1.2c2.7,0,5.3-1.3,6.8-3.8c0.1-0.2,9.6-15.6,21.5-30.8
		c17.4-22.3,26.4-27.2,29.7-28.2c0.2,2.7-0.2,9.7-5.6,25.2c-4.2,11.9-9.2,22.5-9.2,22.6c-1.8,3.8-0.3,8.3,3.3,10.4
		c3.6,2,8.3,0.9,10.6-2.6c0.1-0.1,8.9-13.5,19.7-26.7c14.9-18.2,22.6-22.8,25.5-24c-0.4,4.6-3.7,13.9-5.6,19.2
		c-5,14.2-9,25.3-3.7,32.8c1.4,1.9,4.6,5.2,10.7,5.2c8.6,0,15.8-3.3,21.6-7.7c3.4,7.6,10.5,12.2,19.9,12.2c9.6,0,19.8-6.1,27.6-12.5
		c2.2,6.8,8.2,10.6,16.9,10.6c10.3,0,21.1-6.7,32.1-20c9.6-11.6,19.1-28.5,24.4-43.7c3.2,1.8,6.8,2.7,10.8,2.7c3.8,0,7.6-0.7,11-1.3
		c0.4-0.1,0.9-0.2,1.4-0.2c-1.9,2-4.5,4.2-6.3,5.8c-9,7.9-21.3,18.7-21.3,34.6c0,11.2,8.3,19.6,19.2,19.6c9.2,0,18.8-5.5,26.8-11.9
		c2.5,10,10.3,16.1,21.2,16.1c9.6,0,19.8-6.1,27.6-12.5c2.2,6.8,6.6,10.6,16.9,10.6c30,0,45.4-28.8,45.4-37.6
		C493.4,52.9,491.8,48.6,484.6,48.6z M22.1,82.4c-2.3,0-6.2,0-6.2-7.6c0-4.1,5.1-15.7,14.8-26.9C41,35.9,52.3,29.1,61.6,29.1
		c0.9,0,2.6,0.1,3.6,1c1,0.9,1.5,2.9,1.5,5.7c0,1.9-0.8,4.7-2.4,8.1c-1.2,2-2.3,4.1-3.4,6.1c-2.8,4.4-6.5,9.3-11.2,14.2
		C37.9,76.7,27.1,82.4,22.1,82.4z M239.6,82.4c-2.3,0-6.2,0-6.2-7.6c0-1.6,0.8-4.3,2.2-7.6c1.6-2.7,2.6-4.9,3-5.9
		c2.4-4.2,5.6-8.8,9.5-13.4c10.3-11.9,21.5-18.8,30.9-18.8c0.9,0,2.6,0.1,3.6,1c1,0.9,1.5,2.9,1.5,5.7c0,2-0.9,4.9-2.6,8.5
		c-0.4,0.7-0.7,1.3-1.1,1.9c-0.8,1.5-1.6,2.8-2.3,4.2c-2.8,4.3-6.4,9.1-11,13.9C255.4,76.7,244.7,82.4,239.6,82.4z M403.5,82.4
		c-2.3,0-6.2,0-6.2-7.6c0-4.1,5.1-15.7,14.8-26.9c10.3-11.9,21.5-18.8,30.9-18.8c0.9,0,2.6,0.1,3.6,1c1,0.9,1.5,2.9,1.5,5.7
		c0,2.2-1,5.4-3,9.3c-0.2,0.3-0.4,0.7-0.6,1c-0.7,1.3-1.4,2.5-2.1,3.6c-2.8,4.5-6.6,9.5-11.4,14.6C419.3,76.7,408.5,82.4,403.5,82.4
		z"/>
</g>
</svg>
