<?xml version="1.0" encoding="utf-8"?>
<!-- Generator: Adobe Illustrator 21.0.2, SVG Export Plug-In . SVG Version: 6.00 Build 0)  -->
<svg version="1.1" xmlns="http://www.w3.org/2000/svg" xmlns:xlink="http://www.w3.org/1999/xlink" x="0px" y="0px"
	 viewBox="0 0 150 150" enable-background="new 0 0 150 150" xml:space="preserve">
<g id="Layer_1">
	<g>
		<path fill="#5A2747" d="M135.837,109.362H55.923c-1.325,0-2.4-1.075-2.4-2.4V43.038c0-1.325,1.075-2.4,2.4-2.4h79.914
			c1.325,0,2.4,1.075,2.4,2.4v63.923C138.237,108.287,137.162,109.362,135.837,109.362z M58.323,104.562h75.114V45.438H58.323
			V104.562z"/>
		<path fill="#5A2747" d="M87.016,92.769c-0.971,0-1.945-0.24-2.829-0.724c-1.889-1.034-3.062-3.015-3.062-5.168V63.123
			c0-2.153,1.173-4.134,3.062-5.168c1.887-1.034,4.186-0.957,6.002,0.203l18.582,11.877l0,0c1.703,1.088,2.719,2.944,2.719,4.964
			c0,2.02-1.016,3.877-2.719,4.965L90.19,91.84C89.224,92.457,88.121,92.769,87.016,92.769z M87.023,62.024
			c-0.225,0-0.411,0.076-0.531,0.141c-0.212,0.116-0.567,0.395-0.567,0.958v23.753c0,0.563,0.355,0.842,0.567,0.958
			c0.212,0.115,0.636,0.266,1.112-0.038l18.582-11.876c0.438-0.28,0.504-0.697,0.504-0.921c0-0.223-0.066-0.639-0.504-0.92
			L87.605,62.203C87.397,62.07,87.199,62.024,87.023,62.024z"/>
		<path fill="#5A2747" d="M41.523,46.878h-27.36c-1.325,0-2.4-1.075-2.4-2.4c0-1.325,1.075-2.4,2.4-2.4h27.36
			c1.325,0,2.4,1.075,2.4,2.4C43.923,45.803,42.848,46.878,41.523,46.878z"/>
		<path fill="#5A2747" d="M41.523,66.746h-21.6c-1.325,0-2.4-1.075-2.4-2.4c0-1.325,1.075-2.4,2.4-2.4h21.6
			c1.325,0,2.4,1.075,2.4,2.4C43.923,65.671,42.848,66.746,41.523,66.746z"/>
		<path fill="#5A2747" d="M41.523,86.614h-15.84c-1.325,0-2.4-1.075-2.4-2.4s1.075-2.4,2.4-2.4h15.84c1.325,0,2.4,1.075,2.4,2.4
			S42.848,86.614,41.523,86.614z"/>
		<path fill="#5A2747" d="M41.523,106.482h-8.64c-1.325,0-2.4-1.075-2.4-2.4c0-1.325,1.075-2.4,2.4-2.4h8.64
			c1.325,0,2.4,1.075,2.4,2.4C43.923,105.407,42.848,106.482,41.523,106.482z"/>
	</g>
</g>
<g id="Layer_2">
</g>
</svg>
