<?xml version="1.0" encoding="utf-8"?>
<!-- Generator: Adobe Illustrator 21.0.2, SVG Export Plug-In . SVG Version: 6.00 Build 0)  -->
<svg version="1.1" xmlns="http://www.w3.org/2000/svg" xmlns:xlink="http://www.w3.org/1999/xlink" x="0px" y="0px"
	 viewBox="0 0 150 150" enable-background="new 0 0 150 150" xml:space="preserve">
<g id="Layer_1">
	<g>
		<path fill="#5A2747" d="M131.641,118.2H18.359c-1.325,0-2.4-1.075-2.4-2.4V34.2c0-1.325,1.075-2.4,2.4-2.4h113.283
			c1.325,0,2.4,1.075,2.4,2.4v81.6C134.041,117.125,132.967,118.2,131.641,118.2z M20.759,113.4h108.483V36.6H20.759V113.4z"/>
		<path fill="#5A2747" d="M72.144,77.769c-0.752,0-1.505-0.186-2.188-0.56c-1.461-0.8-2.368-2.331-2.368-3.996V58.547
			c0-1.665,0.907-3.197,2.368-3.997c1.461-0.799,3.239-0.738,4.642,0.159l11.473,7.332c1.316,0.841,2.102,2.276,2.102,3.838
			s-0.786,2.997-2.102,3.838l-11.474,7.334C73.85,77.529,72.998,77.769,72.144,77.769z M72.388,58.993v13.774l10.775-6.887
			L72.388,58.993z M83.486,66.086h0.012H83.486z"/>
		<path fill="#5A2747" d="M88.652,106.68h-59.04c-1.325,0-2.4-1.075-2.4-2.4c0-1.325,1.075-2.4,2.4-2.4h59.04
			c1.325,0,2.4,1.075,2.4,2.4C91.052,105.605,89.978,106.68,88.652,106.68z"/>
		<path fill="#5A2747" d="M121.773,106.68h-24.48c-1.325,0-2.4-1.075-2.4-2.4c0-1.325,1.075-2.4,2.4-2.4h24.48
			c1.325,0,2.4,1.075,2.4,2.4C124.173,105.605,123.098,106.68,121.773,106.68z"/>
		<path fill="#5A2747" d="M121.773,97.32h-51.84c-1.325,0-2.4-1.075-2.4-2.4c0-1.325,1.075-2.4,2.4-2.4h51.84
			c1.325,0,2.4,1.075,2.4,2.4C124.173,96.246,123.098,97.32,121.773,97.32z"/>
		<path fill="#5A2747" d="M61.293,98.04h-31.68c-1.325,0-2.4-1.075-2.4-2.4s1.075-2.4,2.4-2.4h31.68c1.325,0,2.4,1.075,2.4,2.4
			S62.618,98.04,61.293,98.04z"/>
	</g>
</g>
<g id="Layer_2">
</g>
</svg>
