<?xml version="1.0" encoding="utf-8"?>
<!-- Generator: Adobe Illustrator 21.0.2, SVG Export Plug-In . SVG Version: 6.00 Build 0)  -->
<svg version="1.1" xmlns="http://www.w3.org/2000/svg" xmlns:xlink="http://www.w3.org/1999/xlink" x="0px" y="0px"
	 viewBox="0 0 150 150" enable-background="new 0 0 150 150" xml:space="preserve">
<g id="Layer_1">
	<g>
		<path fill="#5A2747" d="M97.072,122.03c-0.636,0-1.247-0.253-1.697-0.703l-57.49-57.491c-0.938-0.937-0.938-2.457,0-3.394
			l22.56-22.56c0.9-0.9,2.494-0.9,3.394,0l57.49,57.491c0.938,0.937,0.938,2.457,0,3.394l-22.56,22.56
			C98.319,121.777,97.709,122.03,97.072,122.03z M42.976,62.139l54.096,54.097l19.166-19.165L62.142,42.973L42.976,62.139z"/>
		<path fill="#5A2747" d="M39.582,64.539c-0.614,0-1.228-0.234-1.697-0.703l-8.005-8.005c-0.938-0.937-0.938-2.457,0-3.394
			l22.56-22.56c0.938-0.938,2.456-0.938,3.394,0l8.005,8.005c0.938,0.937,0.938,2.457,0,3.394l-22.56,22.56
			C40.811,64.304,40.197,64.539,39.582,64.539z M34.971,54.134l4.611,4.611l19.166-19.165l-4.611-4.611L34.971,54.134z"/>
		<path fill="#5A2747" d="M31.577,56.534c-0.614,0-1.228-0.234-1.697-0.703l-7.089-7.088c-2.059-2.059-3.193-4.796-3.193-7.708
			c0-2.912,1.134-5.649,3.193-7.708l10.538-10.538c4.249-4.249,11.167-4.252,15.416,0l7.089,7.088
			c0.45,0.45,0.703,1.061,0.703,1.697c0,0.636-0.253,1.247-0.703,1.697l-22.56,22.56C32.806,56.299,32.191,56.534,31.577,56.534z
			 M41.037,24.399c-1.562,0-3.124,0.595-4.314,1.784L26.186,36.721c-1.152,1.153-1.787,2.684-1.787,4.314
			c0,1.629,0.635,3.162,1.787,4.314l5.392,5.391l19.166-19.165l-5.392-5.391C44.162,24.993,42.6,24.399,41.037,24.399z"/>
		<path fill="#5A2747" d="M128.002,130.399c-0.209,0-0.42-0.028-0.627-0.083l-30.929-8.369c-0.826-0.224-1.472-0.871-1.692-1.699
			c-0.22-0.827,0.016-1.71,0.622-2.315l22.56-22.56c0.605-0.605,1.485-0.843,2.316-0.622c0.827,0.221,1.474,0.865,1.698,1.692
			l8.37,30.929c0.224,0.83-0.012,1.716-0.62,2.324C129.243,130.152,128.63,130.399,128.002,130.399z M101.701,118.396l22.891,6.194
			l-6.195-22.891L101.701,118.396z"/>
		<path fill="#5A2747" d="M128.002,130.399c-0.21,0-0.42-0.028-0.627-0.083l-11.964-3.237c-0.826-0.224-1.472-0.871-1.692-1.699
			s0.016-1.71,0.622-2.316l8.727-8.725c0.605-0.606,1.487-0.843,2.316-0.622c0.827,0.221,1.474,0.865,1.698,1.692l3.237,11.963
			c0.224,0.83-0.012,1.716-0.62,2.324C129.243,130.152,128.63,130.399,128.002,130.399z M120.667,123.527l3.926,1.062l-1.062-3.926
			L120.667,123.527z"/>
	</g>
</g>
<g id="Layer_2">
</g>
</svg>
