<?xml version="1.0" encoding="utf-8"?>
<!-- Generator: Adobe Illustrator 21.0.2, SVG Export Plug-In . SVG Version: 6.00 Build 0)  -->
<svg version="1.1" id="Layer_1" xmlns="http://www.w3.org/2000/svg" xmlns:xlink="http://www.w3.org/1999/xlink" x="0px" y="0px"
	 viewBox="0 0 150 150" style="enable-background:new 0 0 150 150;" xml:space="preserve">
<style type="text/css">
	.st0{fill:#632e50;}
</style>
<path class="st0" d="M150,75c0-34.1-22.9-62.9-54-72c0,0-0.1,0-0.1,0c-1-0.3-2.1-0.6-3.1-0.8c-0.1,0-0.2-0.1-0.3-0.1
	c-1-0.2-2-0.5-3-0.7c-0.2,0-0.3-0.1-0.5-0.1c-1-0.2-2-0.4-3-0.5c0,0,0,0,0,0h0C82.4,0.3,78.7,0,75,0s-7.4,0.3-10.9,0.8h0
	c0,0,0,0,0,0c-1,0.1-2,0.3-3,0.5c-0.2,0-0.3,0.1-0.5,0.1c-1,0.2-2,0.4-3,0.7c-0.1,0-0.2,0-0.3,0.1c-1,0.3-2.1,0.5-3.1,0.8
	c0,0-0.1,0-0.1,0C37.8,7.7,23.9,17.8,14.2,31.1l0,0c0,0,0,0,0,0c-1,1.4-1.9,2.8-2.8,4.2c0,0,0,0,0,0l0,0C4.2,46.8,0,60.4,0,75
	c0,14.6,4.2,28.2,11.4,39.7l0,0c0,0,0,0,0,0c0.9,1.4,1.8,2.8,2.8,4.2c0,0,0,0,0,0l0,0c9,12.5,21.8,22.1,36.6,27.1l0,0c0,0,0,0,0,0
	c1,0.4,2.1,0.7,3.2,1c0,0,0.1,0,0.1,0c1,0.3,2.1,0.6,3.1,0.8c0.1,0,0.2,0.1,0.3,0.1c1,0.2,2,0.5,3,0.7c0.2,0,0.3,0.1,0.5,0.1
	c4.5,0.8,9.2,1.3,13.9,1.3c4.8,0,9.4-0.5,13.9-1.3c0.2,0,0.3-0.1,0.5-0.1c1-0.2,2-0.4,3-0.7c0.1,0,0.2-0.1,0.3-0.1
	c1.1-0.3,2.1-0.5,3.1-0.8c0,0,0.1,0,0.1,0c1.1-0.3,2.1-0.6,3.2-1c0,0,0,0,0,0l0,0C128.7,135.9,150,107.9,150,75z M130.8,109.1
	c-5.2-3.4-10.7-6.3-16.5-8.7c2.6-7.9,4-16.5,4-25.4s-1.4-17.4-4-25.4c5.8-2.4,11.3-5.4,16.5-8.7c6.1,9.9,9.6,21.6,9.6,34.1
	S136.9,99.2,130.8,109.1z M128,36.7c-4.8,3.2-10,5.9-15.4,8.2C107,30.6,97.4,18.6,85.5,10.4C102.9,13.2,118.1,23,128,36.7z
	 M77.5,11.3c13.6,7.4,24.4,20,30.5,35.4c-9.6,3.5-19.8,5.5-30.5,5.7V11.3z M72.5,57.5v35.1c-11.3,0.3-22.1,2.4-32.2,6
	C38,91.2,36.7,83.3,36.7,75c0-8.3,1.3-16.2,3.6-23.5C50.4,55.1,61.2,57.2,72.5,57.5z M42,46.7c6.1-15.4,16.9-28,30.5-35.4v41.1
	C61.8,52.2,51.6,50.2,42,46.7z M72.5,97.5v41.1c-13.6-7.4-24.4-20-30.5-35.4C51.6,99.8,61.8,97.8,72.5,97.5z M77.5,97.5
	c10.7,0.3,20.9,2.3,30.5,5.7c-6.1,15.4-16.9,28-30.5,35.4V97.5z M77.5,92.5V57.5c11.3-0.3,22.1-2.4,32.2-6
	c2.4,7.4,3.6,15.3,3.6,23.5s-1.3,16.2-3.6,23.5C99.6,94.9,88.8,92.8,77.5,92.5z M64.5,10.4c-12,8.2-21.5,20.2-27.2,34.5
	c-5.4-2.3-10.5-5-15.4-8.2C31.9,23,47.1,13.2,64.5,10.4z M9.5,75c0-12.5,3.5-24.2,9.6-34.1c5.2,3.4,10.7,6.3,16.5,8.7
	c-2.6,7.9-4,16.5-4,25.4s1.4,17.4,4,25.4c-5.8,2.4-11.3,5.4-16.5,8.7C13.1,99.2,9.5,87.5,9.5,75z M22,113.3c4.8-3.2,10-5.9,15.4-8.2
	c5.6,14.3,15.2,26.4,27.2,34.5C47.1,136.8,31.9,127,22,113.3z M85.5,139.6c12-8.2,21.5-20.2,27.2-34.5c5.4,2.3,10.5,5,15.4,8.2
	C118.1,127,102.9,136.8,85.5,139.6z"/>
</svg>
