<?xml version="1.0" encoding="utf-8"?>
<!-- Generator: Adobe Illustrator 19.0.1, SVG Export Plug-In . SVG Version: 6.00 Build 0)  -->
<svg version="1.1" id="Layer_1" xmlns="http://www.w3.org/2000/svg" xmlns:xlink="http://www.w3.org/1999/xlink" x="0px" y="0px"
	 viewBox="58 193 715 216" style="enable-background:new 58 193 715 216;" xml:space="preserve">
<style type="text/css">
	.st0{fill:#5A2747;}
	.st1{fill:#30957B;}
	.st2{fill:#80BD3E;}
	.st3{fill:#F3254D;}
	.st4{fill:url(#SVGID_1_);}
	.st5{fill:url(#SVGID_2_);}
</style>
<g>
	<path class="st0" d="M761.8,299.4c-3.7,0-7.4,3.9-7.4,8.7c0,7.9-9.5,23.3-29.2,23.3c-0.9,0-1.5-0.1-1.9-0.2c0-0.2,0-0.5,0-0.8
		c0.2-1.7,2.6-8.3,10-21.7c1.1-1.8,2.2-3.7,3.2-5.6c6.9-12,13.5-21.9,15.3-23.8c3-3.2,2.7-8.3-0.5-11.3s-8.3-2.7-11.3,0.5
		c-0.8,0.8-1.8,2.1-2.9,3.7c-3.6-5.2-9.5-8.3-17-8.3c-19.1,0-35.1,15.2-43,24.3c-3.8,4.4-7.7,9.7-10.9,15.1
		c-1.2,1.5-6.1,7.5-12.4,13.4c-8.4,7.8-16.2,12.3-21.3,12.3c-3,0-3.3-2.8-3.3-3.6c0-8.7,8-15.8,15.8-22.6
		c7.4-6.5,14.8-12.7,14.8-21.2c0-5.4-2.7-8.5-4.7-10.1c-5.1-4.3-11.9-3.1-18.4-2c-2.8,0.5-5.8,1-8.2,1c-2.1,0-3.8-0.6-5.3-3.3
		c-0.5-0.9-0.8-1.8-1.1-2.7c0.2-2.6,0.1-5-0.3-7.1c-0.8-4.3-5-7.2-9.3-6.4c-1.1,0.2-2.1,0.6-2.9,1.2c-2.5,1.4-4.2,4-4.2,7
		c0,1,0.1,3.5,0.7,6.5c-1.6,11.8-11,34.5-25.1,51.5c-7.4,8.9-14.8,14.2-19.8,14.2c-0.9,0-1.5-0.1-1.9-0.2c0-0.2,0-0.5,0-0.8
		c0.3-3.1,4.6-11.8,9.7-21.2c1.4-2.2,2.7-4.4,3.8-6.8c6-10.4,12.3-20.2,14.9-23.1c3-3.2,2.8-8.3-0.5-11.3c-3.2-3-8.3-2.8-11.3,0.5
		c-0.8,0.9-1.8,2.1-2.9,3.7c-3.6-5.2-9.5-8.2-17-8.2c-19.1,0-35.1,15.2-43,24.3c-4,4.7-8.1,10.3-11.4,16c-0.1,0.1-0.2,0.3-0.2,0.4
		c-1.1,1.9-2.1,3.8-2.9,5.7c-3.7,6.3-10.9,16.3-20.6,18.1c0.8-4.3,3.4-11.7,5.1-16.5c5.1-14.5,9.6-27.1,3.8-35.3
		c-1.5-2.1-5-5.6-11.8-5.6c-5.3,0-14,2.3-30.2,19.8c1.2-8.2,0.5-14.1-2.2-18.3c-2.6-4.1-6.8-6.3-11.8-6.3c-10.5,0-23,9.3-39.2,29
		c1.3-4.7,1.9-8.4,1.9-10.5c0-4.4-3.6-8-8-8l0,0c-4.4,0-8,3.6-8,8c0,2.2-2.9,14.5-9.5,26.8c-4,7.4-13.8,19.8-23.7,19.8
		c-0.9,0-1.5-0.1-1.9-0.2c0-0.2,0-0.5,0-0.9c0.2-3.1,4-11.8,9.1-21.3c1.5-2.4,2.9-4.9,4.2-7.5c5.2-9.1,11-17.8,15.1-22.1
		c3.1-3.2,3-8.2-0.2-11.3c-3.2-3.1-8.2-3-11.3,0.2c-1,1.1-2.2,2.5-3.5,4.2c-3.6-5.4-9.6-8.6-17.2-8.6c-19.1,0-35.1,15.2-43,24.3
		c-9,10.8-18.4,26.5-18.4,37.3c0,14.3,8.7,23.6,22.1,23.6c9.9,0,20.3-6.4,28.2-12.9c2.1,7,9.1,11.1,18,11.1c6.8,0,13.6-2.4,19-6.4
		c0.6,1.3,1.6,2.4,2.9,3.2s2.8,1.2,4.2,1.2c2.7,0,5.3-1.3,6.8-3.8c0.1-0.2,9.6-15.6,21.5-30.8c17.4-22.3,26.4-27.2,29.7-28.2
		c0.2,2.7-0.2,9.7-5.6,25.2c-4.2,11.9-9.2,22.5-9.2,22.6c-1.8,3.8-0.3,8.3,3.3,10.4c3.6,2,8.3,0.9,10.6-2.6
		c0.1-0.1,8.9-13.5,19.7-26.7c14.9-18.2,22.6-22.8,25.5-24c-0.4,4.6-3.7,13.9-5.6,19.2c-5,14.2-9,25.3-3.7,32.8
		c1.4,1.9,4.6,5.2,10.7,5.2c8.6,0,15.8-3.3,21.6-7.7c3.4,7.6,10.5,12.2,19.9,12.2c9.6,0,19.8-6.1,27.6-12.5
		c2.2,6.8,8.2,10.6,16.9,10.6c10.3,0,21.1-6.7,32.1-20c9.6-11.6,19.1-28.5,24.4-43.7c3.2,1.8,6.8,2.7,10.8,2.7c3.8,0,7.6-0.7,11-1.3
		c0.4-0.1,0.9-0.2,1.4-0.2c-1.9,2-4.5,4.2-6.3,5.8c-9,7.9-21.3,18.7-21.3,34.6c0,11.2,8.3,19.6,19.2,19.6c9.2,0,18.8-5.5,26.8-11.9
		c2.5,10,10.3,16.1,21.2,16.1c9.6,0,19.8-6.1,27.6-12.5c2.2,6.8,6.6,10.6,16.9,10.6c30,0,45.4-28.8,45.4-37.6
		C770.6,303.7,769,299.4,761.8,299.4z M299.3,333.2c-2.3,0-6.2,0-6.2-7.6c0-4.1,5.1-15.7,14.8-26.9c10.3-12,21.6-18.8,30.9-18.8
		c0.9,0,2.6,0.1,3.6,1s1.5,2.9,1.5,5.7c0,1.9-0.8,4.7-2.4,8.1c-1.2,2-2.3,4.1-3.4,6.1c-2.8,4.4-6.5,9.3-11.2,14.2
		C315.1,327.5,304.3,333.2,299.3,333.2z M516.8,333.2c-2.3,0-6.2,0-6.2-7.6c0-1.6,0.8-4.3,2.2-7.6c1.6-2.7,2.6-4.9,3-5.9
		c2.4-4.2,5.6-8.8,9.5-13.4c10.3-11.9,21.5-18.8,30.9-18.8c0.9,0,2.6,0.1,3.6,1s1.5,2.9,1.5,5.7c0,2-0.9,4.9-2.6,8.5
		c-0.4,0.7-0.7,1.3-1.1,1.9c-0.8,1.5-1.6,2.8-2.3,4.2c-2.8,4.3-6.4,9.1-11,13.9C532.6,327.5,521.9,333.2,516.8,333.2z M680.7,333.2
		c-2.3,0-6.2,0-6.2-7.6c0-4.1,5.1-15.7,14.8-26.9c10.3-11.9,21.5-18.8,30.9-18.8c0.9,0,2.6,0.1,3.6,1s1.5,2.9,1.5,5.7
		c0,2.2-1,5.4-3,9.3c-0.2,0.3-0.4,0.7-0.6,1c-0.7,1.3-1.4,2.5-2.1,3.6c-2.8,4.5-6.6,9.5-11.4,14.6
		C696.5,327.5,685.7,333.2,680.7,333.2z"/>
</g>
<g id="Layer_2">
	<g id="Layer_1-2">
		<path class="st1" d="M161.2,322.2c0.9,0.5,1.9,0.9,2.9,1.2c0.5,0,8.9,1.2,10.2-9.8c1.4-10.9-4-15.3-7.1-15.7
			c-3.9-0.5-4.5,1.9-4.7,3.9c-0.2,2,3.7,9.9-0.6,9.3c-5.7-0.8-9.9-20.8-16.5-21.7c-4-0.6-5.3,4.3-5.5,7.1c0,2.4,0.4,4.7,1.2,6.9
			c-2-2.4-5.1-3.7-8.2-3.5c-4.9,0-17.5,4.5-17.5,20.5c0,15,7.9,37.1,26.4,37.1c15.5,0,20.2-10.7,21.4-20.3c0.4-4.7-0.4-9.4-2.2-13.7
			C160.6,322.8,160.7,322.2,161.2,322.2z M140,345c-7.9-1-12.9-15-11.9-23.5c0.7-5.9,5.2-8.8,8.7-8.3c6.2,0.8,14.6,13.5,13.3,23.3
			C149.3,342.7,145,345.6,140,345L140,345z"/>
		<path class="st2" d="M200.8,244.5c7.6,0.7,29.3,12.4,28.9,16.2c-0.5,5.3-22.3,18.2-27.5,17.7c-5.2-0.5-7.9-14.8-6.7-28.2
			C195.8,247.8,197.1,244.1,200.8,244.5z"/>
		<path class="st3" d="M170.1,265.9c-0.7,0-4.4-8.4-10.3-7.9c-6.6,0.6-7.9,7.3-7.4,12.1c1.4,15.7,24,25.3,29,25.3
			c3.5,0,8.6-7.6,8.6-25.9c0-10.3-6.3-21.1-13.6-21.1c-5.1,0-7.6,4.2-7.5,8.6C168.9,261.4,171.2,265.9,170.1,265.9z"/>
		<path class="st1" d="M191.6,321.9c4.6,0.5,8.7-2.7,9.2-7.3c0-0.3,0.1-0.6,0.1-0.9c0.4-4.2-2.6-7.9-6.8-8.3c-0.1,0-0.3,0-0.4,0
			c-3.6-0.2-8.9,2.2-9.2,7.9C184,317.6,187.2,321.5,191.6,321.9z"/>
		<path class="st1" d="M200.8,298.9c1.7-11.1,16.1-24.9,34.9-21.5c5.9,1.1,11.2,5.8,10.3,12.4c-0.8,5.5-5.9,9.3-11.4,8.5
			c-0.2,0-0.4-0.1-0.6-0.1c-19.8-3-27.8,6.7-31.3,6.2C200.6,304.2,200.4,301.5,200.8,298.9z"/>
		
			<linearGradient id="SVGID_1_" gradientUnits="userSpaceOnUse" x1="160.5732" y1="485.921" x2="160.5732" y2="95.1869" gradientTransform="matrix(1 0 0 -1 0 604)">
			<stop  offset="3.000000e-02" style="stop-color:#F3254D"/>
			<stop  offset="0.12" style="stop-color:#D2254C"/>
			<stop  offset="0.26" style="stop-color:#A8264A"/>
			<stop  offset="0.39" style="stop-color:#862649"/>
			<stop  offset="0.52" style="stop-color:#6E2748"/>
			<stop  offset="0.64" style="stop-color:#5F2747"/>
			<stop  offset="0.73" style="stop-color:#5A2747"/>
		</linearGradient>
		<path class="st4" d="M250.6,314.3c-4.1,0-5.2,21.8-9.9,21.8c-2.2,0,2.5-7.2,2.5-22.1c0-7-1-8.5-2.4-8.5c-2.6,0-3.8,7.3-5.5,14.8
			c-2,8.3-4,17-6.9,17c-2.2,0,2.2-11.9,2.2-21.5c0-6.1-0.9-9-3.1-9c-3,0-3.5,7.3-5.3,15c-2,8.7-4.5,18-6.8,18s0.3-12.8,0.3-17.7
			c0-6.5-1.3-8.9-3.4-8.9c-2.1,0-3.4,4-3.9,7.4c-1.2,7.7-6.8,28.9-12.3,34.9c-0.4,0.4-0.6,0.6-0.9,0.6s-0.4-0.3-0.4-1
			c1-16.7-6.1-25.1-10.3-25.1c-3.8,0-1.8,5-2,7.8c0,16-10.9,29.9-32.1,29.9c-43.1,0-69.6-30.6-77.6-48.1c-0.4-1-1.3-1.6-2.3-1.7
			c-2.3,0-2.3,2.2-2.3,3.3c0,17.8,29.5,80.9,90.2,80.9c65.1,0,94.7-56.2,94.7-81.8C253.1,316.7,252.5,314.3,250.6,314.3z"/>
		
			<linearGradient id="SVGID_2_" gradientUnits="userSpaceOnUse" x1="155.2483" y1="483.678" x2="155.2483" y2="97.6118" gradientTransform="matrix(1 0 0 -1 0 604)">
			<stop  offset="3.000000e-02" style="stop-color:#F3254D"/>
			<stop  offset="0.12" style="stop-color:#D2254C"/>
			<stop  offset="0.26" style="stop-color:#A8264A"/>
			<stop  offset="0.39" style="stop-color:#862649"/>
			<stop  offset="0.52" style="stop-color:#6E2748"/>
			<stop  offset="0.64" style="stop-color:#5F2747"/>
			<stop  offset="0.73" style="stop-color:#5A2747"/>
		</linearGradient>
		<path class="st5" d="M73.6,283.6c1.1-0.2,2-1.1,2-2.3c0-5.2,6.5-21.9,10.6-21.9c2.7,0-5.1,6.3-5.1,23.6c0,4.5,1.3,8.6,3.7,8.6
			c1.8,0,2.1-2.6,2.1-3.6c0-9.2,7.6-28.4,11.8-28.4c2.5,0-3.9,7.1-3.9,21.6c0,6.1,1,11.4,3.4,11.4c1.8,0,2.3-2.1,2.3-3
			c0-10.7,6.8-28,10.6-28c2.5,0-2.8,7-2.8,19.9c0,4.4,1.3,9.4,3.9,9.4c2,0,2.5-2.4,2.5-3.4c0-14.3,11.8-37.3,15.2-37.3
			c1.1,0,0.3,1.2,0.3,6.5c0,9.9,4.4,23.8,12.2,23.8c6.3,0,0.7-5.2,0.7-14c0-14.6,15.9-33.6,42.4-33.6c29,0,44.5,17.9,51.5,17.9
			c1.6,0,2.7-0.8,2.7-1.9c0.1-6.6-23.8-46.7-80.5-46.7c-60,0-88.7,57-88.7,76.1C70.7,281.3,71.7,283.6,73.6,283.6z"/>
		<path class="st2" d="M79.6,308.9c-0.2,10.6,15.8,26.7,25.8,30.5c3.2,1.1,5.7,0.4,5.7-1.8c0-2.2-2.8-6.7-6.5-14.7
			c-4.1-9.1-6.8-24.3-15.2-24.5C84.9,298.2,79.8,301.9,79.6,308.9z"/>
	</g>
</g>
</svg>
