<?xml version="1.0" encoding="utf-8"?>
<!-- Generator: Adobe Illustrator 20.1.0, SVG Export Plug-In . SVG Version: 6.00 Build 0)  -->
<svg version="1.1" id="Layer_1" xmlns="http://www.w3.org/2000/svg" xmlns:xlink="http://www.w3.org/1999/xlink" x="0px" y="0px"
	 viewBox="0 0 715 216" style="enable-background:new 0 0 715 216;" xml:space="preserve">
<style type="text/css">
	.st0{fill:url(#SVGID_1_);}
	.st1{fill:url(#SVGID_2_);}
	.st2{fill:#30957B;}
	.st3{fill:#80BD3E;}
	.st4{fill:#F3254D;}
	.st5{fill:#5A2747;}
</style>
<g>
	
		<linearGradient id="SVGID_1_" gradientUnits="userSpaceOnUse" x1="96.4756" y1="266.1282" x2="96.4756" y2="-46.1025" gradientTransform="matrix(1 0 0 -1 0 219.7946)">
		<stop  offset="3.055384e-02" style="stop-color:#F3254D"/>
		<stop  offset="0.1216" style="stop-color:#D2254C"/>
		<stop  offset="0.2592" style="stop-color:#A8264A"/>
		<stop  offset="0.3929" style="stop-color:#862649"/>
		<stop  offset="0.5195" style="stop-color:#6E2748"/>
		<stop  offset="0.6362" style="stop-color:#5F2747"/>
		<stop  offset="0.7338" style="stop-color:#5A2747"/>
	</linearGradient>
	<path class="st0" d="M188.7,117.7c-1.6-0.1-2.8,3.1-3.5,5.5c-2.1,6.6-3.2,9.5-5.9,15.2c-0.4,0.9-1.4,2-2,2
		c-0.7-0.1-0.4-0.9-0.2-1.6c3.1-7.9,3.7-18.4,3.4-25.5c-0.1-2.1-0.3-4.4-1.6-4.5s-2.4,2.7-2.9,4.1c-2.2,7.7-7,24-9.4,27.5
		c-0.4,0.6-1.1,1.4-1.7,1.3c-0.5,0-0.2-0.9-0.1-1.4c1.7-5.3,1.8-16.5,1.4-25.8c-0.1-1.6-0.6-4.3-1.8-4.4c-1.4-0.1-2.5,2.3-3,4.2
		c-1.4,4.8-3.4,20.6-7.6,27.9c-0.9,1.6-1.4,2.1-2,2.1c-0.6-0.1-0.6-0.9-0.4-1.8c2.8-11.1-0.8-22.5-1.1-23.6
		c-0.3-1.3-0.8-2.1-1.8-2.2c-2.5-0.2-3.2,4.9-3.6,7.5c-2.7,14.4-6.9,29.4-12.5,35.4c-0.4,0.4-0.6,0.6-0.9,0.6c-0.3,0-0.4-0.3-0.4-1
		c1-16.9-5.8-22.8-10.5-23.2c-3.5-0.3-1.8,6.2-2.1,9.1c-1.3,15-9.4,34.1-39.8,31.4c-26.2-2.3-57.7-23-70.6-50.9
		c-0.4-0.9-1-4-3.3-4.2c-2.9-0.3-2.3,4.3-2.2,4.8c6.7,35.6,40.2,75.5,82.6,79.2c65.5,5.7,102-46,105.2-81.7
		C190.5,120.1,189.6,117.8,188.7,117.7z"/>
	
		<linearGradient id="SVGID_2_" gradientUnits="userSpaceOnUse" x1="88.132" y1="266.1282" x2="88.132" y2="-46.1025" gradientTransform="matrix(1 0 0 -1 0 219.7946)">
		<stop  offset="3.055384e-02" style="stop-color:#F3254D"/>
		<stop  offset="0.1216" style="stop-color:#D2254C"/>
		<stop  offset="0.2592" style="stop-color:#A8264A"/>
		<stop  offset="0.3929" style="stop-color:#862649"/>
		<stop  offset="0.5195" style="stop-color:#6E2748"/>
		<stop  offset="0.6362" style="stop-color:#5F2747"/>
		<stop  offset="0.7338" style="stop-color:#5A2747"/>
	</linearGradient>
	<path class="st1" d="M6.3,88.6c1.5,0.1,2.4-1.5,3-3.5c1.7-5.8,6.1-13.9,10.7-19c0.5-0.6,0.8-0.9,1.3-0.8c0.6,0.1,0.3,0.8,0.1,1.3
		c-3,6.4-6.1,20.4-6.3,26.2c-0.1,2.7,1.1,4.6,2.4,4.7s2-0.8,2.3-2.1c1.7-7.1,10-26,13.4-30.2c0.4-0.5,1-1.1,1.5-1
		c0.4,0.1,0.2,0.8,0,1.1c-4,7.6-7.1,19.5-6.2,28.1c0.3,2.5,1,3.9,2,4c1.7,0.1,2.5-1.4,3.1-3c1.4-3.9,7.1-19.8,10.9-25.6
		c0.8-1.3,1.6-1.7,2-1.6c0.5,0.1,0.3,0.9-0.1,1.5c-6.5,10.9-4,22.3-3,25.7c0.3,1,1.1,2.5,2.3,2.6c1.5,0.1,2.4-2.2,2.7-4.4
		c1.9-12.2,10.5-31.1,16.4-36.8c0.3-0.3,0.6-0.5,0.8-0.4c0.2,0,0.4,0.3,0.3,0.9c-3.2,16.3,8,29.6,14.5,24.1c1-0.8-2.1-6-2.1-12.6
		c0.1-10.4,10.4-37.5,44.2-34.5c22.6,2,32.6,8.6,41.6,15.5c4.1,3.1,5.6,4,6.6,3.5c1.2-0.6,1.5-2.5-0.4-5.4c-5.1-8.1-25-32.9-64-36.3
		C47.2,5.4,10.3,48,4.7,83.5C4.2,86.4,4.9,88.5,6.3,88.6z"/>
</g>
<g>
	<path class="st2" d="M103.7,136.5c0.3,0,1,0.7,2.2,0.8c0.4,0,6.6,0.6,7.3-7.5c0.7-8.1-3.4-11.2-5.7-11.4c-2.9-0.3-3.3,1.5-3.4,3
		c-0.1,1.6,3,7.2-0.2,6.9c-4.2-0.4-7.9-15.1-12.8-15.6c-3-0.3-3.8,3.3-3.9,5.4c-0.2,1.9,1.1,5.1,1.1,5.1s-1.7-1.3-4.9-1.5
		c-4.1-0.4-11.4,3.7-12.2,13.1c-0.8,9.4,4.7,27.1,17.1,28.2c11.5,1,16.7-8.3,17.3-15.4c0.4-4.8-1.8-9.8-2-10.1
		C103.3,137,103.3,136.5,103.7,136.5z M88.9,153.7c-5.9-0.5-10-10.8-9.5-17.1c0.4-4.4,3.7-6.7,6.3-6.4c4.6,0.4,11.2,9.6,10.5,16.9
		C95.8,151.7,92.7,154,88.9,153.7z"/>
	<path class="st2" d="M95.4,92.5c-1.3-0.1-8,3.5-15.6,2.9c-4.8-0.4-9.1-2.7-11.4-4.1C68,81.2,63,77.6,61,77.5
		c-1-0.1-1.6,0.3-1.7,1.3c-0.1,0.7,0.2,1.4,0.7,2.8c2.2,5.8,3,17,1.9,28.8c-0.4,4.7-1,6.7-1.1,8c-0.1,1,0.1,1.8,0.8,1.9
		c0.7,0.1,1.3-0.5,2-1.4c1.5-2.1,3.2-8.3,4.4-21.9c3.7,2.6,9.5,4.2,15.2,4.3c8.8,0.1,12.6-5.4,12.6-5.4s0.5-0.8,0.6-1.2
		C96.6,94.2,96.2,92.6,95.4,92.5z"/>
	<path class="st3" d="M135.9,44.4c3.7,0.5,23.1,8.4,22.6,11.5c-0.5,3.7-17.2,14-20.3,13.5c-3.6-0.5-7.1-14.6-6-21.9
		C132.6,45.4,133.1,44,135.9,44.4z"/>
	<path class="st4" d="M169.9,56.5c3,0.3,5.8,2.1,5.4,5.7c-0.3,3.9-4.5,5.4-7.6,5.1c-3.7-0.3-8-1.9-7.9-3.5c0-0.4,0.5-0.6,0.9-0.6
		c0.7,0.1,1.4,0.4,2.5,0.5c1.2,0.1,1.8,0,2.2-0.2s0.4-0.7-0.1-0.8c-0.9-0.3-1.6-1.4-1.5-2.5C164.1,58.1,166.4,56.2,169.9,56.5z"/>
	<path class="st3" d="M96.7,100.8c0-5.4,4-7.9,7.6-7.9c6.4,0,8.8,7.6,8.8,10.1c0,3.7-0.6,5-1.4,5c-0.6,0-0.8-1.5-1.3-2.7
		c-0.4-1.3-0.7-1.7-1-1.7c-0.1,0-0.2,0.1-0.3,0.2c-0.4,0.9-2.4,4.2-6.8,4.2C99.5,108,96.7,105.7,96.7,100.8z"/>
	<path class="st4" d="M8.8,96.8c2.2,0.1,4,2.8,3.8,6.9s-1,4.9-0.9,7.7c0.1,3.9,0.9,4.5,0.9,5.9c-0.1,1.1-0.7,1.5-1.3,1.5
		c-1.4-0.1-7.4-5.9-7-13.7S7.9,96.8,8.8,96.8z"/>
	<path class="st4" d="M62.9,135.5c3.7,0.3,5.7,8.3,5.3,13.1c-0.3,3.8-1.8,12.4-3.7,12.2c-3.3-0.3-12.1-7-11.6-12.6
		c0.2-2.4,2-3.2,3.1-3.1c1.2,0.1,2.1,1.3,2.1,1.3s0.3,0.3,0.3,0.1c0-0.1,0-0.3-0.1-0.5c-0.3-0.9-1-3.2-0.8-4.7
		C57.7,139.2,59.3,135.1,62.9,135.5z"/>
	<path class="st3" d="M25.8,128.5c-1.1-0.1-2,0.4-2.2,0.4c-0.1,0-0.3-0.1-0.4-0.5c-0.1-0.6-0.1-2,0.1-3.8c0.4-4.7,3.4-14.3,3.6-16.7
		c0.3-2.9-1.1-6.4-4.5-6.7c-3-0.3-5.3,1.4-5.6,4.8c-0.3,3.6,2.1,5.3,3.5,5.4c0.8,0.1,0.7,0.7,0.7,0.7s-2,6-2.7,13.9
		c-0.7,8.3,2.3,13.4,5.3,13.7c3.4,0.3,5.3-2.1,5.6-5.2C29.4,131.5,27.9,128.6,25.8,128.5z M20.9,108.1c-2.2-0.2-1.4-4.1,0.7-4
		C23.5,104.3,23.3,108.3,20.9,108.1z M24.1,135.6c-1.9-0.2-1.4-4,0.5-3.8S26.3,135.8,24.1,135.6z"/>
	<path class="st3" d="M52.1,125.8c0-0.1,0.1-0.1,0.2-0.2c0.7-0.4,3.8-2.1,4.1-5.4c0.3-3.1-0.9-5.7-4.2-6c-3.7-0.3-5.5,2.3-5.7,4.4
		c-0.1,1.3,0.3,2.1,0.3,2.2s0.2,0.4-0.4,0.3c-4.2-0.4-6.9,1.7-6.9,1.7s-1.2,0.7-1.1-0.5c0.6-6.4-2.5-10-5.6-10.3
		c-2-0.2-5.3,1.1-5.7,5.1c-0.3,3.2,1.5,5.1,3.4,5.3c1.7,0.2,2.5-0.6,2.5-0.6s0.4-0.1,0.4,0.8c-0.2,2.6-2.7,14.8-3,17.8
		c-0.3,3.5,1.6,4.3,2.7,4.4c0.8,0.1,2.4-0.8,2.7-2.3c0.9-4.9,4.1-15.7,8.8-15.3c2.2,0.2,1.9,3.2,1.7,5.5c-0.5,6.1-5.1,12.3-5.4,15.8
		c-0.1,1.2,0,3.7,2.2,3.9c5,0.4,9.8-15.9,10.2-20.4C53.6,129,52.5,126.7,52.1,125.8L52.1,125.8z M31.3,119c-2.2-0.2-1.3-3.9,0.7-3.8
		C34.1,115.4,33.6,119.2,31.3,119z M51.6,117.9c2.3,0.2,2,4.3-0.6,4.1C48.3,121.8,49.2,117.7,51.6,117.9z"/>
	<path class="st3" d="M54.7,99.7c-1.1-0.1-2.6,0.1-2.7,1.1c-0.2,2.6-1.9,6.8-3.1,7.6c-0.2,0.1-0.3,0.2-0.3,0.1
		c-0.1-0.1,0-0.2,0.2-0.4c0.2-0.3,0.7-1.1,0.8-2.7s-0.7-4.2-3.4-4.4c-2.8-0.2-4.5,1.8-4.8,4.6c-0.2,1.8,0.9,4.5,2.3,4.6
		c0.9,0.1,1.3-0.1,1.4-0.1c0.1,0,0.1,0.1,0,0.2c-0.8,1.2-1.9,2.1-2.6,2.6c-0.4,0.3,0.2,1.1,0.2,1.1s1,1.4,1.7,1.5
		c1.5,0.1,12.2-5.9,12.7-11.8C57.2,102,56.6,99.9,54.7,99.7z M45.2,107c-1.7-0.2-1.2-3.2,0.6-3.1C47.5,104.1,47.1,107.2,45.2,107z"
		/>
	<g>
		<path class="st2" d="M109.9,88.1c5.2,0,8-3.1,8-5.5c0-2-1.6-2.5-2.5-2.4c-1.7,0.2-2.3,1.5-4.3,1.5c-0.7,0-1.8-0.9-1.8-2
			c0-1.5,1.2-2.1,2-2.1c2,0,2.9,0.5,5.1,0.5c3.4,0,6.1-2.8,6.1-5.9c0-2.9-2.6-5.8-5.1-5.8c-1.8,0-2.4,1.2-2.4,2.2
			c0,1.9,1.8,2,1.8,3.4c0,0.9-0.8,1.2-1.5,1.2c-1.6,0-2.3-0.7-5.9-0.7c-3,0-7,2.6-7,7.9C102.4,83.7,104.8,88.1,109.9,88.1z"/>
		<path class="st2" d="M122.8,66.5c-2.3,0-3.9-2.3-3.9-4.4c0-1.8,1.4-3.8,3.7-3.8c3.2,0,4.3,2.3,4.3,4.1
			C126.9,64.1,126.2,66.5,122.8,66.5z"/>
	</g>
	<g>
		<path class="st4" d="M92,87.4c4.2,0,7.1-3.2,7.1-6.3c0-2.4-0.9-6-5.3-6c-3.2,0-6.7,2.9-6.7,6.3C87,85,89.6,87.4,92,87.4z"/>
		<path class="st4" d="M92.7,69.6c0-13.6,13.2-25.2,24-25.2c4,0,6.8,1.9,6.8,5.7c0,6.8-12.3,7.9-18,13.5c-3.6,3.5-6.7,9.7-9.8,9.7
			C93.9,73.2,92.7,71.3,92.7,69.6z"/>
	</g>
	<path class="st3" d="M77,105.7c-3.7,0.4-7.9,10.9-7.4,15.4c0.2,1.4,0.9,1.9,1.8,1.8c0.4-0.1,2-2.1,4.3-5c2.6-3.3,6.1-6.6,5.8-9.5
		C81.3,106.4,79.2,105.5,77,105.7z"/>
	<path class="st4" d="M121,115.2c4.3,0.1,11,8,10.8,15.6c0,0.9,0,2.5-1.6,2.5c-1,0-1.9-1.8-4.5-4.5c-2.5-2.6-8.6-5.2-8.5-9.7
		C117.4,116.7,118.9,115.2,121,115.2z"/>
	<g>
		<path class="st2" d="M186.3,78.6c0-1.3-1.2-4.9-1.4-5.8s-0.6-1.2-1.1-1.3c-1.9-0.4-18.3-2.9-33.1,1c-16.1,4.3-26.1,9.7-35.3,18.7
			c-0.7,0.7-0.6,0.8-0.7,1.5c-0.4,3.3,0.5,3.8,1,4.5c0.3,0.5,1.5,0.7,1.8,0.3c1.3-1.4,2.9-2.8,4.7-4.2c0.3,2,0.7,4.6,1.1,7.3
			c-2.3,1.8-4,3.4-4.7,4.5c-0.2,0.3-0.2,0.5-0.3,0.7c0,0.3,0.9,2.6,1,3.1c0.2,0.5,0.5,0.9,0.9,1.1s4.5,2.6,5.9,2.8
			c0.9,0.1,4.3-1.3,4.5-2.8c0.1-0.6-0.6-3.7-1.3-7.5c1.4-0.9,4.6-3,7.6-4.5c1.6,7.3,3.7,14.2,5.1,14.4c2,0.2,3.4-1.5,3.7-3.4
			c0.2-1.9-4.4-17.5-5.3-25c7.3-2.7,15.2-4.8,22.5-5.5c0.3,1.7,0.7,3.7,1,5.9c-1.1,0.6-2.9,1.5-4.6,1.3c-2.4-0.3-3.2-0.4-3.9-0.5
			c-1.9-0.2-2.5,3.4-2.5,4.4c0,0.8,0.1,1.2,0.4,1.2c0.9,0.1,4.3,1.3,4.1,3.7c-0.2,1.7-1.8,2-2.7,1.9c-2.9-0.4-5.4-4.8-5.2-6.5
			c0-0.3-0.2-0.6-0.7-0.6c-0.9-0.1-2,1.1-2.2,3.3c-0.1,1.2,2.3,7.4,7.7,8.1s7.2-3.1,7.5-5.3c0.4-3.3-2.6-5.4-2.6-5.4
			s-0.2-0.3,0.6-0.2c1.6,0.2,3.4-0.1,4.7-0.4c0.4,3.6,0.6,7.3,0.2,10.6c-0.2,1.8,0.5,3.2,2.5,3.5c2.1,0.3,3.2-1.3,3.4-3.6
			c0.7-6.2-0.6-16.4-1.4-21.7c1.6,0,3.1,0.1,4.6,0.3c0.1,0,0.3,0,0.4,0.1c0.6,5.1,2.2,14.4,1.4,21.1c-0.2,1.8,0.5,3.2,2.5,3.5
			c2.6,0.3,3.3-1.8,3.6-4c0.7-6.2-0.4-15.2-1.1-19.7c3.4,0.5,4.6,0.9,4.9,0.9C185.8,80.2,186.3,79.9,186.3,78.6z M135.7,92.5
			c-2.3,1.2-4.9,2.8-7.5,4.5c-0.4-2.4-0.8-4.8-1.1-7c2.3-1.3,4.8-2.6,7.4-3.8C134.9,88,135.3,90.2,135.7,92.5z"/>
		<path class="st2" d="M152.8,101.8c3.3,0.4,3.7,8.4-1,7.9C147.2,109.1,149.2,101.3,152.8,101.8z"/>
	</g>
</g>
<g>
	<path class="st5" d="M703.8,106.4c-3.7,0-7.4,3.9-7.4,8.7c0,7.9-9.5,23.3-29.2,23.3c-0.9,0-1.5-0.1-1.9-0.2c0-0.2,0-0.5,0-0.8
		c0.2-1.7,2.6-8.3,10-21.7c1.1-1.8,2.2-3.7,3.2-5.6c6.9-12,13.5-21.9,15.3-23.8c3-3.2,2.7-8.3-0.5-11.3s-8.3-2.7-11.3,0.5
		c-0.8,0.8-1.8,2.1-2.9,3.7c-3.6-5.2-9.5-8.3-17-8.3c-19.1,0-35.1,15.2-43,24.3c-3.8,4.4-7.7,9.7-10.9,15.1
		c-1.2,1.5-6.1,7.5-12.4,13.4c-8.4,7.8-16.2,12.3-21.3,12.3c-3,0-3.3-2.8-3.3-3.6c0-8.7,8-15.8,15.8-22.6
		c7.4-6.5,14.8-12.7,14.8-21.2c0-5.4-2.7-8.5-4.7-10.1c-5.1-4.3-11.9-3.1-18.4-2c-2.8,0.5-5.8,1-8.2,1c-2.1,0-3.8-0.6-5.3-3.3
		c-0.5-0.9-0.8-1.8-1.1-2.7c0.2-2.6,0.1-5-0.3-7.1c-0.8-4.3-5-7.2-9.3-6.4c-1.1,0.2-2.1,0.6-2.9,1.2c-2.5,1.4-4.2,4-4.2,7
		c0,1,0.1,3.5,0.7,6.5c-1.6,11.8-11,34.5-25.1,51.5c-7.4,8.9-14.8,14.2-19.8,14.2c-0.9,0-1.5-0.1-1.9-0.2c0-0.2,0-0.5,0-0.8
		c0.3-3.1,4.6-11.8,9.7-21.2c1.4-2.2,2.7-4.4,3.8-6.8c6-10.4,12.3-20.2,14.9-23.1c3-3.2,2.8-8.3-0.5-11.3c-3.2-3-8.3-2.8-11.3,0.5
		c-0.8,0.9-1.8,2.1-2.9,3.7c-3.6-5.2-9.5-8.2-17-8.2c-19.1,0-35.1,15.2-43,24.3c-4,4.7-8.1,10.3-11.4,16c-0.1,0.1-0.2,0.3-0.2,0.4
		c-1.1,1.9-2.1,3.8-2.9,5.7c-3.7,6.3-10.9,16.3-20.6,18.1c0.8-4.3,3.4-11.7,5.1-16.5c5.1-14.5,9.6-27.1,3.8-35.3
		c-1.5-2.1-5-5.6-11.8-5.6c-5.3,0-14,2.3-30.2,19.8c1.2-8.2,0.5-14.1-2.2-18.3c-2.6-4.1-6.8-6.3-11.8-6.3c-10.5,0-23,9.3-39.2,29
		c1.3-4.7,1.9-8.4,1.9-10.5c0-4.4-3.6-8-8-8l0,0c-4.4,0-8,3.6-8,8c0,2.2-2.9,14.5-9.5,26.8c-4,7.4-13.8,19.8-23.7,19.8
		c-0.9,0-1.5-0.1-1.9-0.2c0-0.2,0-0.5,0-0.9c0.2-3.1,4-11.8,9.1-21.3c1.5-2.4,2.9-4.9,4.2-7.5c5.2-9.1,11-17.8,15.1-22.1
		c3.1-3.2,3-8.2-0.2-11.3c-3.2-3.1-8.2-3-11.3,0.2c-1,1.1-2.2,2.5-3.5,4.2c-3.6-5.4-9.6-8.6-17.2-8.6c-19.1,0-35.1,15.2-43,24.3
		c-9,10.8-18.4,26.5-18.4,37.3c0,14.3,8.7,23.6,22.1,23.6c9.9,0,20.3-6.4,28.2-12.9c2.1,7,9.1,11.1,18,11.1c6.8,0,13.6-2.4,19-6.4
		c0.6,1.3,1.6,2.4,2.9,3.2c1.3,0.8,2.8,1.2,4.2,1.2c2.7,0,5.3-1.3,6.8-3.8c0.1-0.2,9.6-15.6,21.5-30.8
		c17.4-22.3,26.4-27.2,29.7-28.2c0.2,2.7-0.2,9.7-5.6,25.2c-4.2,11.9-9.2,22.5-9.2,22.6c-1.8,3.8-0.3,8.3,3.3,10.4
		c3.6,2,8.3,0.9,10.6-2.6c0.1-0.1,8.9-13.5,19.7-26.7c14.9-18.2,22.6-22.8,25.5-24c-0.4,4.6-3.7,13.9-5.6,19.2
		c-5,14.2-9,25.3-3.7,32.8c1.4,1.9,4.6,5.2,10.7,5.2c8.6,0,15.8-3.3,21.6-7.7c3.4,7.6,10.5,12.2,19.9,12.2c9.6,0,19.8-6.1,27.6-12.5
		c2.2,6.8,8.2,10.6,16.9,10.6c10.3,0,21.1-6.7,32.1-20c9.6-11.6,19.1-28.5,24.4-43.7c3.2,1.8,6.8,2.7,10.8,2.7c3.8,0,7.6-0.7,11-1.3
		c0.4-0.1,0.9-0.2,1.4-0.2c-1.9,2-4.5,4.2-6.3,5.8c-9,7.9-21.3,18.7-21.3,34.6c0,11.2,8.3,19.6,19.2,19.6c9.2,0,18.8-5.5,26.8-11.9
		c2.5,10,10.3,16.1,21.2,16.1c9.6,0,19.8-6.1,27.6-12.5c2.2,6.8,6.6,10.6,16.9,10.6c30,0,45.4-28.8,45.4-37.6
		C712.6,110.7,711,106.4,703.8,106.4z M241.3,140.2c-2.3,0-6.2,0-6.2-7.6c0-4.1,5.1-15.7,14.8-26.9c10.3-12,21.6-18.8,30.9-18.8
		c0.9,0,2.6,0.1,3.6,1s1.5,2.9,1.5,5.7c0,1.9-0.8,4.7-2.4,8.1c-1.2,2-2.3,4.1-3.4,6.1c-2.8,4.4-6.5,9.3-11.2,14.2
		C257.1,134.5,246.3,140.2,241.3,140.2z M458.8,140.2c-2.3,0-6.2,0-6.2-7.6c0-1.6,0.8-4.3,2.2-7.6c1.6-2.7,2.6-4.9,3-5.9
		c2.4-4.2,5.6-8.8,9.5-13.4c10.3-11.9,21.5-18.8,30.9-18.8c0.9,0,2.6,0.1,3.6,1s1.5,2.9,1.5,5.7c0,2-0.9,4.9-2.6,8.5
		c-0.4,0.7-0.7,1.3-1.1,1.9c-0.8,1.5-1.6,2.8-2.3,4.2c-2.8,4.3-6.4,9.1-11,13.9C474.6,134.5,463.9,140.2,458.8,140.2z M622.7,140.2
		c-2.3,0-6.2,0-6.2-7.6c0-4.1,5.1-15.7,14.8-26.9c10.3-11.9,21.5-18.8,30.9-18.8c0.9,0,2.6,0.1,3.6,1s1.5,2.9,1.5,5.7
		c0,2.2-1,5.4-3,9.3c-0.2,0.3-0.4,0.7-0.6,1c-0.7,1.3-1.4,2.5-2.1,3.6c-2.8,4.5-6.6,9.5-11.4,14.6
		C638.5,134.5,627.7,140.2,622.7,140.2z"/>
</g>
</svg>
